<svg width="73" height="73" viewBox="0 0 73 73" fill="none" xmlns="http://www.w3.org/2000/svg">
<rect x="0.75" y="0.75" width="72" height="72" rx="3" fill="#FFD803"/>
<g clip-path="url(#clip0_501_31443)">
<path d="M53.1375 36C53.1375 45.4484 45.4484 53.1375 36 53.1375C26.5516 53.1375 18.8625 45.4484 18.8625 36C18.8625 26.5516 26.5516 18.8625 36 18.8625C45.4484 18.8625 53.1375 26.5516 53.1375 36ZM51.0625 36C51.0625 27.6923 44.3076 20.9375 36 20.9375C27.6924 20.9375 20.9375 27.6923 20.9375 36C20.9375 44.3077 27.6923 51.0625 36 51.0625C44.3077 51.0625 51.0625 44.3077 51.0625 36Z" fill="black" stroke="#FFD803" stroke-width="0.225"/>
<path d="M41.1016 41.4086L41.1022 41.409C41.2937 41.5643 41.5213 41.6369 41.7501 41.6369C42.0564 41.6369 42.357 41.502 42.559 41.2481L42.5593 41.2478C42.917 40.8019 42.8445 40.1483 42.3985 39.7902L41.1016 41.4086ZM41.1016 41.4086L35.3521 36.8089C35.352 36.8088 35.3519 36.8088 35.3518 36.8087C35.1075 36.6111 34.9626 36.3153 34.9626 35.9994V26.7994C34.9626 26.229 35.4297 25.7619 36.0001 25.7619C36.5705 25.7619 37.0376 26.229 37.0376 26.7994V35.4474V35.5015L37.0798 35.5352L42.3984 39.7901L41.1016 41.4086Z" fill="black" stroke="#FFD803" stroke-width="0.225"/>
</g>
<defs>
<clipPath id="clip0_501_31443">
<rect width="34.5" height="34.5" fill="white" transform="translate(18.75 18.75)"/>
</clipPath>
</defs>
</svg>
