<svg width="73" height="73" viewBox="0 0 73 73" fill="none" xmlns="http://www.w3.org/2000/svg">
<rect x="0.5" y="0.75" width="72" height="72" rx="3" fill="#FFD803"/>
<path d="M33.9183 48.9812C33.9183 46.2211 36.4325 46.4824 39.5338 46.4824C42.6352 46.4824 45.1493 46.2211 45.1493 48.9812M32.4773 23.4545H38.75M43.4545 38.3523C43.4545 40.5175 41.6993 42.2727 39.5341 42.2727C37.3689 42.2727 35.6136 40.5175 35.6136 38.3523C35.6136 36.1871 37.3689 34.4318 39.5341 34.4318C41.6993 34.4318 43.4545 36.1871 43.4545 38.3523ZM26.2045 53.25H45.0227C47.621 53.25 49.7273 51.1437 49.7273 48.5455V23.4545C49.7273 20.8563 47.621 18.75 45.0227 18.75H26.2045C23.6063 18.75 21.5 20.8563 21.5 23.4545V48.5455C21.5 51.1437 23.6063 53.25 26.2045 53.25Z" stroke="#1A1A1A" stroke-width="1.5" stroke-linecap="round"/>
</svg>
