<svg width="172" height="25" viewBox="0 0 172 25" fill="none" xmlns="http://www.w3.org/2000/svg">
<path fill-rule="evenodd" clip-rule="evenodd" d="M3.29579 0.984173C2.8103 1.16494 2.45073 1.55293 2.3097 2.04832C2.26707 2.19816 2.0016 4.40841 1.71979 6.95999C1.43804 9.51157 0.928868 14.0948 0.588409 17.145C0.199468 20.629 -0.0188074 22.77 0.00127398 22.904C0.0887382 23.4879 0.463093 24.0066 0.991833 24.2766C1.29603 24.4319 1.37872 24.4503 1.76951 24.4495C2.13041 24.4487 2.25192 24.4254 2.46486 24.3162C2.61087 24.2412 4.14424 22.9573 5.99804 21.3576C7.79941 19.8032 9.29195 18.5246 9.3148 18.5162C9.33771 18.5079 10.5197 19.7624 11.9416 21.3041C14.3207 23.8835 14.5536 24.1208 14.8628 24.2788C15.153 24.4271 15.2513 24.4501 15.5849 24.4482C15.8949 24.4464 16.0316 24.417 16.2778 24.2991C16.4465 24.2183 16.629 24.1113 16.6833 24.0613C16.8912 23.8701 17.1767 23.4507 17.2278 23.2615C17.2572 23.1529 17.3975 22.0202 17.5395 20.7444C17.6816 19.4686 18.1899 14.9152 18.6692 10.6257C19.1484 6.33625 19.5405 2.68709 19.5405 2.51656C19.5405 1.90178 19.2284 1.36816 18.6994 1.07845L18.4362 0.934315L10.9635 0.922956C4.76815 0.913518 3.45747 0.924023 3.29579 0.984173ZM29.3565 2.54738C29.3239 2.80403 29.0896 4.76568 28.8358 6.90666C28.5821 9.04764 28.2357 11.9632 28.066 13.3856C27.2234 20.4505 26.9361 22.8909 26.9361 22.9862C26.9361 23.0868 26.9779 23.0906 28.0532 23.0895C29.0366 23.0885 29.1958 23.0763 29.3836 22.9877C29.6412 22.8663 29.8182 22.5775 29.9414 22.0775C29.9884 21.8869 30.0319 21.7255 30.0381 21.7189C30.0443 21.7123 30.2098 21.8687 30.4059 22.0666C31.0115 22.6777 31.6828 23.0639 32.4222 23.2266C32.8731 23.3258 33.8698 23.3249 34.3281 23.2248C35.8112 22.9009 37.3087 21.7403 38.3661 20.0952C39.0716 18.9976 39.5428 17.8929 39.8591 16.5946C40.0958 15.623 40.1868 14.8302 40.1864 13.7428C40.186 12.2779 40.018 11.3779 39.5624 10.3994C39.337 9.91529 39.2448 9.78165 38.8815 9.41185C38.1675 8.68525 37.4095 8.37421 36.351 8.37346C35.3935 8.37277 34.6019 8.63779 33.6996 9.2611C33.1227 9.65965 32.3068 10.4647 31.8759 11.0606C31.7295 11.263 31.6089 11.4069 31.6078 11.3805C31.6054 11.3253 31.8878 8.82411 32.3298 4.98543C32.4987 3.51816 32.637 2.26439 32.637 2.19923V2.08079H31.0265H29.416L29.3565 2.54738ZM66.5731 2.28076C66.5088 2.78174 65.0023 15.5694 64.6051 18.9847C64.3613 21.0817 64.1495 22.8633 64.1345 22.944L64.1072 23.0907H65.7763H67.4455L67.4746 22.9394C67.4906 22.8562 67.5316 22.4783 67.5656 22.0995C67.5996 21.7208 67.757 20.2951 67.9155 18.9313L68.2036 16.4518L68.4201 16.4354C68.7448 16.411 69.2076 16.5162 69.339 16.6443C69.4025 16.7062 69.8751 17.624 70.3894 18.684C71.6484 21.2788 72.3263 22.6063 72.4867 22.7906C72.7389 23.0806 72.8086 23.0907 74.5742 23.0907C75.4672 23.0907 76.1902 23.0727 76.1808 23.0507C76.1714 23.0286 75.9172 22.5188 75.616 21.9175C75.3148 21.3163 74.5162 19.6966 73.8414 18.3181C72.5985 15.7791 72.357 15.3287 72.1131 15.0958L71.9776 14.9664L72.0964 14.8825C72.4724 14.6173 72.8778 14.1699 75.0232 11.6525C76.3229 10.1275 77.4461 8.81243 77.519 8.73031L77.6516 8.58095L75.9318 8.597L74.212 8.61305L73.968 8.76199C73.7036 8.92335 73.5529 9.09622 71.1164 12.0337C70.0005 13.3789 69.5083 13.9342 69.3721 14.0012C69.2678 14.0526 69.024 14.1065 68.8303 14.1208L68.4782 14.147L68.5086 13.9662C68.5254 13.8668 68.7473 12.0338 69.0019 9.89284C69.2564 7.75186 69.5678 5.13629 69.694 4.08046C69.8202 3.02464 69.9235 2.14281 69.9235 2.12079C69.9235 2.09876 69.1755 2.08079 68.2612 2.08079H66.5987L66.5731 2.28076ZM101.692 2.20077C101.664 2.33339 100.696 10.6401 100.404 13.2523C100.303 14.1615 100.001 16.7356 99.7344 18.9726C99.4677 21.2095 99.2495 23.0512 99.2495 23.0652C99.2495 23.0792 99.7531 23.0907 100.369 23.0907C101.427 23.0907 101.5 23.0842 101.716 22.9707C102 22.8217 102.138 22.6106 102.257 22.1456C102.307 21.9469 102.355 21.775 102.364 21.7637C102.372 21.7524 102.561 21.9204 102.784 22.137C103.648 22.9759 104.462 23.3012 105.701 23.303C106.194 23.3037 106.427 23.2768 106.816 23.1743C108.355 22.769 109.824 21.5656 110.83 19.8851C111.652 18.5126 112.079 17.3036 112.379 15.4919C112.505 14.7328 112.507 12.8105 112.382 12.1058C112.154 10.8226 111.818 10.0618 111.189 9.40609C110.46 8.64536 109.64 8.33741 108.477 8.38733C107.809 8.41602 107.472 8.49237 106.876 8.75004C106.044 9.1095 104.952 10.0322 104.227 10.9872C104.05 11.2207 103.901 11.4059 103.895 11.3988C103.886 11.3867 104.907 2.79449 104.976 2.30742L105.008 2.08079H103.362H101.717L101.692 2.20077ZM154.768 2.16062C154.768 2.20451 154.595 3.69829 154.383 5.48007C154.171 7.26186 153.974 8.9932 153.945 9.32744C153.898 9.88196 153.646 12.0385 152.69 20.0656C152.505 21.6133 152.355 22.927 152.355 22.9851C152.355 23.0882 152.395 23.0907 154.023 23.0907H155.691L155.717 22.9707C155.749 22.8205 156.431 16.8803 156.511 16.0629C156.574 15.4069 156.695 15.0245 157.11 14.166C157.682 12.9839 158.601 11.9264 159.433 11.4925C159.973 11.2108 160.508 11.1376 160.974 11.2816C161.542 11.4566 161.805 11.9006 161.842 12.7457C161.861 13.1582 161.764 14.129 161.322 17.9715C161.023 20.5671 160.765 22.7807 160.748 22.8907L160.717 23.0907H162.416C163.351 23.0907 164.116 23.0744 164.116 23.0547C164.116 23.0348 164.362 20.9052 164.663 18.3221C165.157 14.0776 165.21 13.5383 165.211 12.719C165.212 11.6605 165.107 11.059 164.807 10.4042C164.352 9.4094 163.792 8.87514 162.833 8.5209C162.47 8.38684 161.501 8.33416 161.004 8.42151C159.655 8.65837 158.247 9.56873 157.244 10.8527L157.077 11.066L157.104 10.906C157.119 10.818 157.351 8.87434 157.619 6.58672C157.886 4.29909 158.118 2.34944 158.134 2.2541L158.163 2.08079H156.466C154.993 2.08079 154.768 2.09135 154.768 2.16062ZM17.178 3.40057C17.178 3.48952 17.0417 4.71929 15.7442 16.3352C15.4369 19.0867 15.1742 21.3495 15.1605 21.3637C15.1468 21.378 14.9075 21.1307 14.6289 20.8143C14.3501 20.4979 13.6583 19.7468 13.0914 19.1453C12.5245 18.5437 11.7114 17.6647 11.2845 17.192C10.8576 16.7193 10.2788 16.0923 9.99818 15.7987L9.48804 15.265L5.97581 18.2949C3.03325 20.8334 2.46126 21.3058 2.44919 21.2079C2.44128 21.1436 2.74666 18.2955 3.1279 14.8787C3.50914 11.4619 3.95062 7.49057 4.10906 6.05347C4.26751 4.61637 4.40623 3.4106 4.41742 3.37391C4.4335 3.32107 5.75681 3.30726 10.8079 3.30726C16.8404 3.30726 17.178 3.31222 17.178 3.40057ZM56.4418 8.45499C54.255 8.87493 52.3543 10.4214 51.2313 12.6949C50.4623 14.2515 50.1593 15.6915 50.2171 17.5142C50.2498 18.5467 50.3475 19.1129 50.6247 19.8774C51.286 21.7011 52.757 22.9406 54.6294 23.252C55.1234 23.3342 56.5754 23.2897 56.9895 23.1797C58.1468 22.8722 59.1015 22.3622 60.0162 21.5626C61.4818 20.2814 62.5516 18.1464 62.8611 15.8849C62.96 15.1634 62.9603 13.7664 62.8619 13.1365C62.4922 10.7699 61.1123 9.11275 59.0416 8.54879C58.4098 8.37677 57.0962 8.32936 56.4418 8.45499ZM83.464 8.42775C80.7962 8.74476 78.5677 10.6842 77.4179 13.6897C76.813 15.2705 76.6471 17.7354 77.0403 19.2977C77.2562 20.1559 77.7016 21.0272 78.2093 21.5846C79.0238 22.479 80.0798 23.0613 81.2337 23.2524C81.8784 23.3592 83.4284 23.2916 84.0986 23.1276C85.1189 22.8779 85.8949 22.4903 86.9099 21.7236C87.4562 21.311 88.3101 20.511 88.3101 20.4119C88.3101 20.3177 87.4249 19.2421 87.263 19.1396C87.0559 19.0085 86.7042 19.0105 86.42 19.1444C86.2985 19.2017 85.9518 19.426 85.6496 19.643C84.9731 20.1286 84.6938 20.2768 84.1144 20.4577C83.7289 20.578 83.5597 20.5998 82.9687 20.605C82.1498 20.6122 81.7376 20.5064 81.2404 20.1617C80.5327 19.6711 80.1695 18.8613 80.1087 17.6382C80.0916 17.2936 80.088 17.0117 80.1008 17.0117C80.1137 17.0117 80.5042 16.9632 80.9687 16.9041C83.0144 16.6433 84.563 16.2751 85.8408 15.7456C86.7272 15.3782 87.1421 15.1184 87.6795 14.5944C88.3087 13.9807 88.6234 13.1108 88.6248 11.9816C88.6255 11.4327 88.4748 10.8384 88.2207 10.3881C87.7193 9.4992 86.6359 8.75905 85.4726 8.51051C84.9771 8.40471 83.9977 8.36434 83.464 8.42775ZM120.332 8.40663C118.66 8.59503 117.29 9.27257 116.088 10.5061C114.619 12.0136 113.731 14.1127 113.527 16.5584C113.322 19.016 114.171 21.241 115.733 22.3424C116.183 22.6593 116.912 23.0046 117.431 23.146C118.048 23.3143 119.489 23.354 120.287 23.2247C121.859 22.9699 123.143 22.2579 124.696 20.7799L125.054 20.4393L124.554 19.8193C124.278 19.4782 123.986 19.1629 123.903 19.1186C123.539 18.923 123.1 19.0621 122.387 19.5996C121.488 20.2767 120.786 20.5575 119.848 20.6157C118.887 20.6752 118.156 20.44 117.643 19.9063C117.122 19.3643 116.876 18.6807 116.829 17.6425L116.8 17.0204L117.026 16.99C119.636 16.6375 120.857 16.3789 122.078 15.9201C123.918 15.2287 124.797 14.4464 125.197 13.1456C125.342 12.6756 125.377 11.7011 125.265 11.2569C124.915 9.86895 123.766 8.85818 122.134 8.50176C121.766 8.42124 120.701 8.36504 120.332 8.40663ZM134.687 8.45265C134.275 8.54858 133.667 8.76843 133.326 8.9451C132.497 9.37457 131.537 10.2424 130.891 11.146L130.568 11.5992L130.597 11.2793C130.671 10.4909 130.69 9.5106 130.635 9.29992C130.559 9.00648 130.4 8.8072 130.146 8.68749C129.964 8.60196 129.798 8.58857 128.9 8.58756C127.956 8.58649 127.861 8.5947 127.838 8.6797C127.825 8.731 127.683 9.94883 127.523 11.3859C127.363 12.823 127.003 16.0025 126.722 18.4514C126.442 20.9004 126.213 22.946 126.213 22.9973C126.213 23.0843 126.327 23.0907 127.879 23.0907C129.421 23.0907 129.546 23.0838 129.569 22.9973C129.583 22.946 129.643 22.3881 129.703 21.7575C129.763 21.127 129.916 19.5912 130.044 18.3448C130.259 16.2372 130.289 16.0355 130.462 15.4653C130.688 14.7256 131.172 13.7113 131.585 13.1159C132.508 11.7847 133.698 11.0644 134.669 11.2489C135.208 11.3514 135.51 11.6634 135.645 12.2584C135.747 12.7093 135.731 13.0692 135.533 14.8641C135.299 16.9744 134.647 22.6298 134.606 22.8907L134.575 23.0907H136.268H137.961L137.989 22.8907C138.019 22.6845 138.563 17.813 138.852 15.172C139.056 13.3029 139.089 12.4218 138.982 11.7059C138.897 11.1413 138.717 10.4954 138.549 10.1527C138.164 9.37074 137.487 8.78022 136.653 8.49952C136.3 8.38066 135.118 8.35245 134.687 8.45265ZM147.193 8.40572C145.544 8.65725 144.284 9.31944 143.109 10.552C142.455 11.2386 142.127 11.7028 141.706 12.5357C140.964 14.007 140.653 15.2686 140.61 16.985C140.571 18.5055 140.748 19.4799 141.257 20.5577C141.892 21.8995 142.792 22.678 144.225 23.1237C144.615 23.245 144.799 23.2676 145.578 23.2904C146.118 23.3061 146.657 23.2922 146.922 23.2557C148.417 23.049 149.592 22.3804 150.929 20.9744L151.327 20.5563L150.866 19.9704C150.321 19.2774 150.157 19.1446 149.85 19.1446C149.57 19.1446 149.468 19.2006 148.808 19.7146C148.098 20.2678 147.689 20.471 147.077 20.5748C145.588 20.8275 144.48 20.1042 144.11 18.6381C143.93 17.9226 143.93 16.4253 144.111 15.491C144.314 14.4429 144.804 13.2449 145.289 12.6124C146.155 11.4818 147.293 10.9766 148.466 11.2018C148.859 11.2771 149.165 11.4219 149.684 11.7784C150.207 12.138 150.424 12.1703 150.723 11.9337C150.938 11.7635 151.995 10.4883 151.995 10.3993C151.995 10.2896 151.566 9.80634 151.186 9.48944C150.267 8.72114 149.438 8.42897 148.092 8.3989C147.682 8.38973 147.278 8.39282 147.193 8.40572ZM49.0975 8.5594C48.6951 8.6524 48.4518 8.76268 48.0447 9.03676C47.2761 9.55412 46.5179 10.4742 45.8671 11.6792L45.6799 12.0258L45.7127 10.6127L45.7454 9.19962L45.6239 9.01762C45.3826 8.65608 45.2249 8.61502 44.0078 8.59684L42.924 8.58063L42.892 8.89012C42.8744 9.06033 42.5147 12.1151 42.0927 15.6785C41.6707 19.242 41.3107 22.3675 41.2927 22.6241L41.2599 23.0907H42.8794H44.499L44.5246 22.9707C44.5387 22.9047 44.712 21.4589 44.9097 19.7579C45.2944 16.4471 45.3451 16.1671 45.7762 14.9765C46.3342 13.4358 46.9943 12.4929 47.804 12.0801C48.4474 11.7519 49.0731 11.7113 49.8154 11.9494C50.0051 12.0102 50.1665 12.0523 50.174 12.0429C50.1815 12.0335 50.3223 11.297 50.4869 10.4061C50.8312 8.54303 50.852 8.70482 50.2497 8.56255C49.832 8.4639 49.5146 8.46305 49.0975 8.5594ZM97.4161 8.5321C96.7618 8.67704 96.1769 9.05004 95.4972 9.75611C95.0502 10.2203 94.5573 10.9165 94.0735 11.7667L93.9565 11.9725L93.9866 10.6127C94.0222 9.00605 94.0154 8.97656 93.5523 8.73303C93.2753 8.58735 93.2665 8.58639 92.2298 8.58639C91.4989 8.58639 91.1861 8.60414 91.1861 8.64563C91.1861 8.70119 90.8762 11.3192 89.9002 19.5091C89.6753 21.396 89.4913 22.9737 89.4913 23.0152C89.4913 23.0787 89.7516 23.0907 91.1325 23.0907H92.7736L92.8018 22.9174C92.8173 22.822 92.9916 21.3643 93.1893 19.6779C93.5187 16.8677 93.5656 16.5516 93.7502 15.8918C94.232 14.1696 94.7391 13.1683 95.4663 12.5033C95.8044 12.194 96.3593 11.9078 96.7756 11.8279C97.14 11.7579 97.697 11.8172 98.1386 11.9729C98.2762 12.0213 98.4061 12.0411 98.4273 12.0168C98.4866 11.9487 99.056 8.8096 99.02 8.74908C98.919 8.5793 97.8538 8.43521 97.4161 8.5321ZM84.9717 11.0448C85.4421 11.3127 85.6145 11.6045 85.6118 12.1283C85.6082 12.844 85.2904 13.2981 84.5095 13.7037C84.0473 13.9437 83.3428 14.1897 82.6092 14.3671C82.1082 14.4882 80.5785 14.772 80.4264 14.772C80.3414 14.772 80.44 14.3541 80.6619 13.7742C81.0028 12.8832 81.3154 12.3795 81.895 11.7874C82.5685 11.0992 83.2328 10.8172 84.1243 10.841C84.6044 10.8538 84.6597 10.8671 84.9717 11.0448ZM121.345 10.8987C121.73 11.0191 122.027 11.268 122.184 11.6008C122.305 11.8576 122.32 11.9412 122.297 12.2412C122.259 12.7299 122.064 13.1199 121.724 13.3864C121.231 13.7726 120.299 14.1442 119.187 14.3979C118.56 14.541 117.118 14.7852 117.087 14.7535C117.034 14.6983 117.452 13.5425 117.716 13.0155C118.418 11.6138 119.476 10.8447 120.722 10.8304C120.937 10.828 121.217 10.8588 121.345 10.8987ZM58.1751 11.1961C58.8307 11.4568 59.2665 12.0855 59.4472 13.0313C59.6959 14.3335 59.6034 15.8161 59.1788 17.3316C58.9776 18.0495 58.7961 18.4656 58.4447 19.0139C57.6446 20.2624 56.5006 20.8363 55.3273 20.5778C54.0173 20.2892 53.4284 18.9006 53.5942 16.4915C53.7881 13.6743 54.9441 11.5969 56.5844 11.1181C56.9762 11.0037 57.7918 11.0437 58.1751 11.1961ZM35.689 11.2454C36.1586 11.4611 36.5018 11.9643 36.7064 12.7375C36.8539 13.295 36.8636 14.8534 36.7246 15.6519C36.2946 18.1209 35.1051 20.0184 33.6642 20.534C32.7906 20.8467 31.5081 20.5752 30.8276 19.9336L30.5846 19.7046L30.8082 17.9182C31.0622 15.8883 31.1055 15.7213 31.7153 14.4217C32.1757 13.4403 32.5885 12.7962 33.1326 12.2102C33.6459 11.6574 34.0178 11.3828 34.4859 11.2111C34.8803 11.0664 35.3271 11.0791 35.689 11.2454ZM108.063 11.2799C108.771 11.6394 109.102 12.4234 109.148 13.8462C109.199 15.4252 108.911 16.8309 108.261 18.1848C107.715 19.3218 106.78 20.2798 105.961 20.5417C105.509 20.686 104.826 20.6959 104.334 20.5653C103.879 20.4446 103.318 20.1509 103.105 19.9223L102.929 19.7333L103.045 18.6258C103.316 16.0333 103.321 16.0095 103.865 14.732C104.674 12.8342 105.884 11.4237 106.94 11.1472C107.25 11.0663 107.762 11.1267 108.063 11.2799Z" fill="#1A1A1A"/>
</svg>
