<svg width="25" height="24" viewBox="0 0 25 24" fill="none" xmlns="http://www.w3.org/2000/svg">
<path d="M21.1119 15.1982L18.58 17.5997L16.0481 15.1982L14.4541 16.7582L16.9607 19.1355L14.4541 21.5129L16.0481 23.0729L18.58 20.6714L21.1119 23.0729L22.7059 21.5129L20.1994 19.1355L22.7059 16.7582L21.1119 15.1982Z" fill="#392396"/>
<path d="M17.1992 6.11875L14.7914 3.54563L13.104 5.01143L17.1014 9.28317L24.0015 2.73856L22.4077 1.17871L17.1992 6.11875Z" fill="#392396"/>
<path d="M5.52268 0C2.47746 0 0 2.38691 0 5.32084C0 8.25477 2.47746 10.6417 5.52268 10.6417C8.56791 10.6417 11.0454 8.25477 11.0454 5.32084C11.0454 2.38691 8.56791 0 5.52268 0ZM5.52268 8.45273C3.73023 8.45273 2.27199 7.04778 2.27199 5.32084C2.27199 3.5939 3.73023 2.18896 5.52268 2.18896C7.31513 2.18896 8.77337 3.5939 8.77337 5.32084C8.77337 7.04778 7.31513 8.45273 5.52268 8.45273Z" fill="#392396"/>
<path d="M5.52268 13.3584C2.47746 13.3584 0 15.7453 0 18.6792C0 21.6132 2.47746 24.0001 5.52268 24.0001C8.56791 24.0001 11.0454 21.6132 11.0454 18.6792C11.0454 15.7453 8.56791 13.3584 5.52268 13.3584ZM5.52268 21.8111C3.73023 21.8111 2.27199 20.4062 2.27199 18.6792C2.27199 16.9524 3.73023 15.5474 5.52268 15.5474C7.31513 15.5474 8.77337 16.9523 8.77337 18.6792C8.77337 20.4062 7.31513 21.8111 5.52268 21.8111Z" fill="#392396"/>
</svg>
