<svg width="26" height="20" viewBox="0 0 26 20" fill="none" xmlns="http://www.w3.org/2000/svg">
<path d="M22.8182 8.49608V16.75C22.8182 17.3713 22.574 17.9338 22.1791 18.341M17.7311 3.25H3.18182C2.58196 3.25 2.03864 3.49964 1.64423 3.90368M1.64423 3.90368C1.24635 4.31126 1 4.87596 1 5.5V16.75C1 17.3713 1.24421 17.9338 1.63904 18.341M1.64423 3.90368L11.1843 12.7106C11.5977 13.0895 12.2205 13.0895 12.6339 12.7106L18.2795 7.49606M1.63904 18.341C2.03387 18.7482 2.57933 19 3.18182 19H20.6364C21.2389 19 21.7843 18.7482 22.1791 18.341M1.63904 18.341L9.02305 10.7262M22.1791 18.341L15.2029 10.3557M25 4.9375C25 7.11212 23.2905 8.875 21.1818 8.875C19.0731 8.875 17.3636 7.11212 17.3636 4.9375C17.3636 2.76288 19.0731 1 21.1818 1C23.2905 1 25 2.76288 25 4.9375Z" stroke="#392396" stroke-width="1.8"/>
</svg>
