<svg width="209" height="30" viewBox="0 0 209 30" fill="none" xmlns="http://www.w3.org/2000/svg">
<path fill-rule="evenodd" clip-rule="evenodd" d="M4.15328 0.866501C3.54147 1.08712 3.08835 1.56064 2.91063 2.16522C2.85691 2.3481 2.52237 5.04557 2.16724 8.15962C1.81218 11.2737 1.17054 16.8672 0.741499 20.5898C0.251365 24.8419 -0.0237006 27.4548 0.00160544 27.6183C0.111826 28.331 0.583578 28.964 1.24988 29.2935C1.63323 29.4831 1.73743 29.5055 2.22989 29.5045C2.68469 29.5035 2.83782 29.4751 3.10615 29.3418C3.29015 29.2503 5.22247 27.6834 7.55858 25.731C9.82861 23.834 11.7095 22.2735 11.7383 22.2633C11.7671 22.2531 13.2567 23.7842 15.0485 25.6657C18.0465 28.8138 18.3401 29.1034 18.7297 29.2962C19.0954 29.4771 19.2193 29.5053 19.6397 29.5029C20.0303 29.5008 20.2026 29.4648 20.5129 29.321C20.7255 29.2223 20.9554 29.0917 21.0238 29.0308C21.2858 28.7973 21.6456 28.2855 21.7101 28.0546C21.7471 27.9221 21.9238 26.5397 22.1029 24.9826C22.2819 23.4256 22.9225 17.8685 23.5264 12.6334C24.1303 7.39839 24.6244 2.94481 24.6244 2.73669C24.6244 1.98639 24.2311 1.33514 23.5645 0.981562L23.2329 0.805652L13.816 0.791789C6.0087 0.78027 4.35702 0.793091 4.15328 0.866501ZM36.9944 2.7743C36.9532 3.08753 36.6579 5.4816 36.3382 8.09454C36.0184 10.7075 35.5819 14.2657 35.368 16.0017C34.3062 24.6239 33.9442 27.6023 33.9442 27.7187C33.9442 27.8414 33.9969 27.8461 35.3519 27.8447C36.5912 27.8435 36.7918 27.8286 37.0285 27.7205C37.353 27.5723 37.5761 27.2198 37.7314 26.6096C37.7906 26.377 37.8454 26.18 37.8533 26.172C37.861 26.1639 38.0696 26.3548 38.3167 26.5963C39.0799 27.3421 39.9259 27.8135 40.8576 28.012C41.4259 28.1331 42.6818 28.132 43.2594 28.0098C45.1284 27.6145 47.0155 26.1981 48.348 24.1904C49.2371 22.8508 49.8308 21.5025 50.2295 19.918C50.5277 18.7323 50.6424 17.7647 50.6419 16.4376C50.6413 14.6498 50.4296 13.5514 49.8555 12.3572C49.5714 11.7664 49.4553 11.6033 48.9974 11.152C48.0977 10.2652 47.1425 9.88559 45.8086 9.88468C44.602 9.88383 43.6045 10.2073 42.4674 10.968C41.7404 11.4544 40.7122 12.4369 40.1691 13.1642C39.9847 13.4111 39.8327 13.5868 39.8313 13.5546C39.8283 13.4872 40.1841 10.4347 40.7412 5.7498C40.9541 3.95907 41.1283 2.42893 41.1283 2.3494V2.20486H39.0988H37.0692L36.9944 2.7743ZM83.8937 2.44891C83.8127 3.06033 81.9142 18.6669 81.4137 22.835C81.1065 25.3943 80.8396 27.5687 80.8206 27.6672L80.7862 27.8461H82.8896H84.9931L85.0298 27.6615C85.05 27.56 85.1016 27.0988 85.1444 26.6365C85.1872 26.1743 85.3857 24.4343 85.5853 22.7699L85.9484 19.7437L86.2212 19.7238C86.6305 19.694 87.2137 19.8224 87.3792 19.9787C87.4592 20.0543 88.0548 21.1745 88.7029 22.468C90.2895 25.6349 91.1438 27.2549 91.3459 27.4799C91.6637 27.8339 91.7515 27.8461 93.9765 27.8461C95.1019 27.8461 96.013 27.8242 96.0011 27.7973C95.9892 27.7704 95.6689 27.1482 95.2893 26.4144C94.9097 25.6806 93.9034 23.7038 93.0531 22.0215C91.4868 18.9228 91.1824 18.3732 90.8751 18.0889L90.7043 17.931L90.854 17.8286C91.3278 17.505 91.8387 16.9589 94.5423 13.8866C96.1802 12.0253 97.5955 10.4204 97.6874 10.3202L97.8546 10.1379L95.6873 10.1575L93.5201 10.1771L93.2125 10.3588C92.8794 10.5558 92.6895 10.7668 89.619 14.3517C88.2128 15.9935 87.5925 16.6712 87.421 16.753C87.2895 16.8158 86.9823 16.8815 86.7382 16.899L86.2944 16.931L86.3328 16.7103C86.354 16.589 86.6336 14.3519 86.9544 11.739C87.2751 9.12605 87.6676 5.93391 87.8266 4.64533C87.9856 3.35676 88.1158 2.28055 88.1158 2.25367C88.1158 2.22679 87.1731 2.20486 86.021 2.20486H83.926L83.8937 2.44891ZM128.149 2.35129C128.114 2.51314 126.895 12.6509 126.527 15.839C126.399 16.9486 126.019 20.0902 125.683 22.8202C125.347 25.5503 125.072 27.798 125.072 27.8151C125.072 27.8321 125.706 27.8461 126.482 27.8461C127.816 27.8461 127.908 27.8382 128.18 27.6997C128.538 27.5179 128.712 27.2603 128.861 26.6928C128.925 26.4502 128.986 26.2404 128.996 26.2267C129.007 26.2129 129.245 26.4179 129.526 26.6822C130.615 27.7061 131.64 28.1031 133.202 28.1053C133.822 28.1062 134.116 28.0733 134.607 27.9482C136.546 27.4536 138.397 25.9849 139.666 23.9339C140.702 22.2589 141.239 20.7834 141.618 18.5723C141.776 17.6459 141.778 15.2999 141.62 14.4398C141.333 12.8736 140.91 11.9452 140.118 11.1449C139.199 10.2165 138.166 9.84069 136.7 9.9016C135.858 9.93661 135.433 10.0298 134.682 10.3443C133.634 10.783 132.257 11.9091 131.344 13.0746C131.121 13.3595 130.933 13.5856 130.926 13.577C130.914 13.5621 132.201 3.07588 132.288 2.48145L132.328 2.20486H130.255H128.181L128.149 2.35129ZM195.035 2.30228C195.035 2.35584 194.817 4.17891 194.549 6.35347C194.282 8.52803 194.034 10.641 193.998 11.0489C193.939 11.7257 193.621 14.3576 192.416 24.1542C192.183 26.043 191.993 27.6464 191.993 27.7173C191.993 27.8431 192.044 27.8461 194.096 27.8461H196.198L196.23 27.6997C196.27 27.5164 197.131 20.2668 197.231 19.2691C197.311 18.4686 197.463 18.0018 197.986 16.9541C198.707 15.5114 199.865 14.2208 200.913 13.6912C201.594 13.3475 202.268 13.2582 202.856 13.4338C203.571 13.6474 203.903 14.1893 203.95 15.2207C203.973 15.7241 203.851 16.909 203.294 21.5985C202.917 24.7662 202.592 27.4679 202.571 27.6021L202.532 27.8461H204.673C205.851 27.8461 206.815 27.8263 206.815 27.8022C206.815 27.778 207.125 25.1789 207.504 22.0264C208.127 16.8462 208.193 16.1881 208.194 15.1882C208.195 13.8964 208.063 13.1623 207.686 12.363C207.113 11.149 206.407 10.4969 205.198 10.0646C204.74 9.90101 203.52 9.83671 202.893 9.94332C201.193 10.2324 199.419 11.3434 198.155 12.9104L197.945 13.1707L197.979 12.9755C197.998 12.8681 198.289 10.496 198.627 7.70406C198.964 4.91216 199.257 2.53273 199.277 2.41637L199.313 2.20486H197.174C195.318 2.20486 195.035 2.21774 195.035 2.30228ZM21.6472 3.81557C21.6473 3.92412 21.4755 5.42499 19.8405 19.6015C19.4532 22.9595 19.1221 25.7212 19.1049 25.7385C19.0876 25.7559 18.7861 25.4541 18.4349 25.068C18.0837 24.6818 17.2118 23.7652 16.4974 23.031C15.783 22.2968 14.7584 21.2241 14.2204 20.6472C13.6824 20.0702 12.953 19.305 12.5995 18.9468L11.9566 18.2954L7.53056 21.9932C3.82242 25.0913 3.10162 25.6679 3.08641 25.5483C3.07644 25.4699 3.46128 21.9939 3.9417 17.8239C4.42213 13.6539 4.97847 8.80716 5.17814 7.05327C5.3778 5.29938 5.55261 3.82781 5.56672 3.78303C5.58698 3.71854 7.25459 3.70168 13.6198 3.70168C21.2218 3.70168 21.6472 3.70774 21.6472 3.81557ZM71.1266 9.98418C68.3707 10.4967 65.9756 12.3841 64.5603 15.1587C63.5913 17.0585 63.2094 18.8159 63.2823 21.0405C63.3235 22.3005 63.4466 22.9915 63.796 23.9246C64.6293 26.1502 66.483 27.663 68.8426 28.0431C69.4651 28.1433 71.2949 28.089 71.8167 27.9548C73.2751 27.5796 74.4782 26.9571 75.6308 25.9812C77.4777 24.4176 78.8259 21.8119 79.216 19.052C79.3405 18.1714 79.341 16.4664 79.217 15.6976C78.7511 12.8094 77.0121 10.7869 74.4027 10.0987C73.6066 9.88871 71.9512 9.83086 71.1266 9.98418ZM105.179 9.95093C101.817 10.3378 99.009 12.7048 97.56 16.3728C96.7978 18.302 96.5887 21.3103 97.0842 23.217C97.3563 24.2644 97.9176 25.3277 98.5573 26.008C99.5838 27.0996 100.915 27.8103 102.369 28.0435C103.181 28.1738 105.134 28.0914 105.979 27.8912C107.265 27.5865 108.243 27.1135 109.522 26.1777C110.21 25.6741 111.286 24.6978 111.286 24.5769C111.286 24.4619 110.171 23.1492 109.967 23.0241C109.706 22.8641 109.262 22.8666 108.904 23.03C108.751 23.0999 108.314 23.3737 107.933 23.6384C107.081 24.2311 106.729 24.412 105.999 24.6327C105.513 24.7796 105.3 24.8061 104.555 24.8125C103.523 24.8213 103.004 24.6922 102.377 24.2715C101.485 23.6727 101.028 22.6844 100.951 21.1918C100.929 20.7712 100.925 20.4271 100.941 20.4271C100.957 20.4271 101.449 20.368 102.035 20.2957C104.613 19.9776 106.564 19.5282 108.174 18.8819C109.291 18.4336 109.814 18.1165 110.491 17.4769C111.284 16.728 111.681 15.6663 111.683 14.2881C111.684 13.6183 111.494 12.893 111.174 12.3434C110.542 11.2586 109.176 10.3553 107.71 10.0519C107.086 9.92282 105.852 9.87355 105.179 9.95093ZM151.64 9.92516C149.532 10.1551 147.806 10.982 146.291 12.4874C144.44 14.3272 143.32 16.889 143.064 19.8739C142.806 22.8733 143.876 25.5888 145.844 26.9329C146.41 27.3196 147.33 27.7411 147.983 27.9137C148.76 28.119 150.577 28.1675 151.582 28.0097C153.564 27.6988 155.182 26.8298 157.139 25.026L157.59 24.6103L156.959 23.8536C156.612 23.4374 156.243 23.0526 156.139 22.9984C155.68 22.7598 155.128 22.9295 154.229 23.5854C153.096 24.4119 152.211 24.7545 151.029 24.8255C149.818 24.8982 148.897 24.6112 148.251 23.9598C147.594 23.2984 147.284 22.464 147.225 21.197L147.189 20.4377L147.473 20.4006C150.762 19.9705 152.301 19.6548 153.839 19.0949C156.158 18.2511 157.266 17.2964 157.771 15.7088C157.953 15.1351 157.997 13.9459 157.855 13.4037C157.414 11.7098 155.967 10.4763 153.91 10.0413C153.446 9.94299 152.105 9.8744 151.64 9.92516ZM169.729 9.98132C169.21 10.0984 168.444 10.3667 168.014 10.5823C166.97 11.1065 165.76 12.1656 164.946 13.2683L164.538 13.8215L164.576 13.431C164.668 12.4688 164.692 11.2725 164.623 11.0154C164.527 10.6572 164.326 10.414 164.007 10.2679C163.778 10.1635 163.568 10.1472 162.436 10.146C161.247 10.1447 161.127 10.1547 161.099 10.2584C161.082 10.321 160.903 11.8073 160.701 13.5612C160.5 15.3151 160.046 19.1955 159.692 22.1842C159.339 25.173 159.05 27.6696 159.05 27.7322C159.05 27.8384 159.194 27.8461 161.149 27.8461C163.093 27.8461 163.251 27.8377 163.28 27.7322C163.297 27.6696 163.373 26.9887 163.449 26.2191C163.524 25.4496 163.717 23.5753 163.878 22.0541C164.149 19.4819 164.186 19.2357 164.405 18.5398C164.689 17.6371 165.3 16.3992 165.82 15.6725C166.983 14.0479 168.483 13.1688 169.706 13.394C170.386 13.5191 170.766 13.8999 170.936 14.626C171.065 15.1763 171.045 15.6156 170.795 17.8061C170.501 20.3816 169.678 27.2837 169.627 27.6021L169.588 27.8461H171.722H173.855L173.891 27.6021C173.928 27.3504 174.613 21.405 174.977 18.1818C175.235 15.9007 175.277 14.8254 175.142 13.9517C175.035 13.2627 174.808 12.4743 174.596 12.0562C174.111 11.1018 173.258 10.3811 172.206 10.0385C171.761 9.89346 170.272 9.85904 169.729 9.98132ZM185.489 9.92405C183.41 10.231 181.823 11.0392 180.343 12.5434C179.518 13.3814 179.105 13.9479 178.575 14.9644C177.639 16.76 177.247 18.2998 177.193 20.3945C177.144 22.2502 177.367 23.4394 178.009 24.7549C178.808 26.3924 179.943 27.3425 181.749 27.8865C182.24 28.0345 182.472 28.0621 183.454 28.0898C184.135 28.1091 184.813 28.0921 185.147 28.0475C187.032 27.7953 188.512 26.9793 190.197 25.2633L190.698 24.7531L190.117 24.0381C189.43 23.1923 189.224 23.0303 188.837 23.0303C188.484 23.0303 188.355 23.0985 187.524 23.7258C186.629 24.401 186.114 24.649 185.343 24.7757C183.466 25.0841 182.07 24.2014 181.604 22.412C181.377 21.5388 181.377 19.7115 181.605 18.5712C181.861 17.2921 182.478 15.83 183.089 15.058C184.181 13.6782 185.615 13.0617 187.094 13.3365C187.588 13.4284 187.974 13.6051 188.628 14.0403C189.288 14.479 189.561 14.5185 189.937 14.2298C190.208 14.022 191.54 12.4657 191.54 12.357C191.54 12.2232 190.999 11.6334 190.521 11.2467C189.363 10.309 188.318 9.95243 186.622 9.91572C186.105 9.90453 185.596 9.9083 185.489 9.92405ZM61.8714 10.1116C61.3643 10.2251 61.0578 10.3597 60.5447 10.6942C59.5761 11.3256 58.6206 12.4485 57.8006 13.9191L57.5647 14.3422L57.6059 12.6176L57.6471 10.893L57.494 10.6708C57.19 10.2296 56.9913 10.1795 55.4574 10.1573L54.0917 10.1375L54.0514 10.5152C54.0292 10.723 53.5759 14.4512 53.0441 18.8001C52.5124 23.149 52.0587 26.9635 52.036 27.2767L51.9947 27.8461H54.0356H56.0764L56.1087 27.6997C56.1265 27.6192 56.3449 25.8547 56.594 23.7787C57.0788 19.738 57.1428 19.3963 57.6861 17.9433C58.3892 16.063 59.221 14.9123 60.2414 14.4083C61.0521 14.0079 61.8407 13.9583 62.7761 14.2488C63.0152 14.3231 63.2185 14.3744 63.228 14.363C63.2374 14.3515 63.4149 13.4527 63.6223 12.3654C64.0562 10.0916 64.0824 10.2891 63.3234 10.1154C62.797 9.99505 62.397 9.99401 61.8714 10.1116ZM122.761 10.0783C121.937 10.2552 121.2 10.7104 120.343 11.5721C119.78 12.1386 119.159 12.9882 118.549 14.0259L118.402 14.2771L118.44 12.6176C118.484 10.6567 118.476 10.6207 117.892 10.3235C117.543 10.1457 117.532 10.1445 116.226 10.1445C115.305 10.1445 114.91 10.1662 114.91 10.2168C114.91 10.2847 114.52 13.4797 113.29 23.4751C113.006 25.7778 112.775 27.7033 112.775 27.754C112.775 27.8315 113.103 27.8461 114.843 27.8461H116.911L116.946 27.6346C116.966 27.5183 117.186 25.7392 117.435 23.681C117.85 20.2514 117.909 19.8656 118.142 19.0604C118.749 16.9585 119.388 15.7365 120.304 14.9249C120.73 14.5474 121.429 14.1981 121.954 14.1006C122.413 14.0152 123.115 14.0875 123.672 14.2775C123.845 14.3367 124.009 14.3608 124.036 14.3311C124.11 14.248 124.828 10.417 124.783 10.3431C124.655 10.1359 123.313 9.96004 122.761 10.0783ZM107.079 13.1449C107.672 13.4719 107.889 13.828 107.886 14.4672C107.881 15.3407 107.481 15.895 106.497 16.3899C105.914 16.6829 105.026 16.983 104.102 17.1995C103.471 17.3474 101.543 17.6937 101.351 17.6937C101.244 17.6937 101.368 17.1837 101.648 16.4759C102.078 15.3885 102.472 14.7738 103.202 14.0512C104.051 13.2113 104.888 12.8671 106.011 12.8962C106.616 12.9118 106.686 12.9281 107.079 13.1449ZM152.916 12.9666C153.401 13.1135 153.776 13.4173 153.974 13.8235C154.126 14.1369 154.145 14.2389 154.115 14.6051C154.068 15.2015 153.822 15.6775 153.393 16.0027C152.773 16.474 151.598 16.9275 150.196 17.2371C149.406 17.4118 147.589 17.7098 147.551 17.6712C147.484 17.6038 148.01 16.1931 148.343 15.55C149.227 13.8393 150.56 12.9007 152.131 12.8833C152.401 12.8803 152.754 12.9178 152.916 12.9666ZM73.3107 13.3295C74.1369 13.6478 74.6862 14.415 74.9138 15.5692C75.2273 17.1585 75.1107 18.968 74.5756 20.8176C74.3221 21.6937 74.0933 22.2015 73.6505 22.8707C72.6422 24.3944 71.2007 25.0948 69.722 24.7793C68.0713 24.4271 67.329 22.7324 67.538 19.7923C67.7824 16.354 69.2392 13.8187 71.3062 13.2343C71.7999 13.0947 72.8278 13.1435 73.3107 13.3295ZM44.9744 13.3897C45.5662 13.6529 45.9986 14.2671 46.2564 15.2107C46.4424 15.8912 46.4546 17.7931 46.2794 18.7676C45.7375 21.7808 44.2385 24.0966 42.4227 24.7259C41.3219 25.1075 39.7057 24.7761 38.8481 23.9931L38.542 23.7136L38.8236 21.5334C39.1438 19.0561 39.1983 18.8523 39.9667 17.2662C40.547 16.0684 41.0672 15.2824 41.7528 14.5672C42.3997 13.8925 42.8683 13.5574 43.4583 13.3478C43.9553 13.1713 44.5183 13.1868 44.9744 13.3897ZM136.179 13.4318C137.07 13.8705 137.488 14.8273 137.546 16.5638C137.609 18.4908 137.247 20.2065 136.428 21.8588C135.739 23.2464 134.561 24.4157 133.529 24.7353C132.96 24.9114 132.099 24.9234 131.479 24.764C130.906 24.6168 130.199 24.2584 129.93 23.9794L129.709 23.7487L129.855 22.397C130.196 19.233 130.202 19.204 130.888 17.6449C131.907 15.3288 133.432 13.6073 134.763 13.2699C135.154 13.1711 135.799 13.2449 136.179 13.4318Z" fill="white"/>
</svg>
