<svg width="50" height="50" viewBox="0 0 50 50" fill="none" xmlns="http://www.w3.org/2000/svg">
<rect width="49.5" height="49.5" rx="3" fill="#392396"/>
<path d="M33.607 33.8129L36.0387 36.2069L34.8723 37.3917L32.4131 34.9707L32.1325 34.6944L31.8518 34.9707L29.3925 37.3917L28.2261 36.2069L30.6579 33.8129L30.9475 33.5278L30.6579 33.2428L28.2261 30.8489L29.3925 29.664L31.8518 32.0851L32.1325 32.3613L32.4131 32.0851L34.8723 29.6641L36.0387 30.8489L33.607 33.2428L33.3174 33.5278L33.607 33.8129Z" fill="white" stroke="#392396" stroke-width="0.8"/>
<path d="M30.3431 19.1513L30.6229 19.4617L30.9208 19.1685L36.2811 13.8916L37.4474 15.0763L30.5514 21.8652L26.7663 17.667L28.0011 16.5537L30.3431 19.1513Z" fill="white" stroke="#392396" stroke-width="0.8"/>
<path d="M12.4 17.986C12.4 14.9062 14.9062 12.4 17.986 12.4C21.0657 12.4 23.5719 14.9062 23.5719 17.986C23.5719 21.0657 21.0657 23.5719 17.986 23.5719C14.9062 23.5719 12.4 21.0657 12.4 17.986ZM14.0626 17.986C14.0626 20.1497 15.8222 21.9093 17.986 21.9093C20.1497 21.9093 21.9093 20.1497 21.9093 17.986C21.9093 15.8222 20.1497 14.0626 17.986 14.0626C15.8222 14.0626 14.0626 15.8222 14.0626 17.986Z" fill="white" stroke="#392396" stroke-width="0.8"/>
<path d="M12.4 33.014C12.4 29.9343 14.9062 27.4281 17.986 27.4281C21.0657 27.4281 23.5719 29.9343 23.5719 33.014C23.5719 36.0938 21.0657 38.6 17.986 38.6C14.9062 38.6 12.4 36.0938 12.4 33.014ZM14.0626 33.014C14.0626 35.1778 15.8222 36.9374 17.986 36.9374C20.1497 36.9374 21.9093 35.1778 21.9093 33.014C21.9093 30.8503 20.1497 29.0907 17.986 29.0907C15.8222 29.0907 14.0626 30.8504 14.0626 33.014Z" fill="white" stroke="#392396" stroke-width="0.8"/>
</svg>
