<svg width="50" height="50" viewBox="0 0 50 50" fill="none" xmlns="http://www.w3.org/2000/svg">
<rect y="0.25" width="49.5" height="49.5" rx="3" fill="#392396"/>
<path d="M33.8864 23.1837V31.0938C33.8864 31.6892 33.6498 32.2282 33.2673 32.6184M28.9582 18.1562H14.8636C14.2825 18.1562 13.7562 18.3955 13.3741 18.7827M13.3741 18.7827C12.9886 19.1733 12.75 19.7145 12.75 20.3125V31.0938C12.75 31.6892 12.9866 32.2282 13.3691 32.6184M13.3741 18.7827L22.6161 27.2227C23.0165 27.5858 23.6199 27.5858 24.0203 27.2227L29.4895 22.2254M13.3691 32.6184C13.7516 33.0087 14.28 33.25 14.8636 33.25H31.7727C32.3564 33.25 32.8848 33.0087 33.2673 32.6184M13.3691 32.6184L20.5223 25.321M33.2673 32.6184L26.509 24.9659M36 19.7734C36 21.8574 34.344 23.5469 32.3011 23.5469C30.2583 23.5469 28.6023 21.8574 28.6023 19.7734C28.6023 17.6894 30.2583 16 32.3011 16C34.344 16 36 17.6894 36 19.7734Z" stroke="white" stroke-width="1.125"/>
</svg>
