<svg width="33" height="33" viewBox="0 0 33 33" fill="none" xmlns="http://www.w3.org/2000/svg">
<path d="M26.777 2.5271H19.8649V3.93926C19.8657 4.07746 19.8112 4.21043 19.7133 4.30798C19.6158 4.40582 19.4828 4.4604 19.3446 4.45953H14.8851C14.7469 4.4604 14.614 4.40582 14.5164 4.30798C14.4186 4.21043 14.364 4.07746 14.3649 3.93926V2.5271H7.4527C6.09861 2.52855 5.00145 3.62571 5 4.9798V30.5474C5.00145 31.9015 6.09861 32.9986 7.4527 33.0001H26.777C28.1311 32.9986 29.2283 31.9015 29.2297 30.5474V4.9798C29.2283 3.62571 28.1311 2.52855 26.777 2.5271ZM17.1149 7.7298C19.1138 7.7298 20.7344 9.35042 20.7344 11.3493C20.7344 13.3485 19.1138 14.9689 17.1149 14.9689C15.1159 14.9689 13.4953 13.3485 13.4953 11.3493C13.4977 9.35129 15.1168 7.73213 17.1149 7.7298ZM13.0938 18.5068C14.1558 17.432 15.604 16.827 17.1149 16.827C18.6257 16.827 20.0739 17.432 21.1359 18.5068C22.2061 19.5993 22.7931 21.0934 22.7931 22.7137C22.794 22.8519 22.7397 22.9846 22.6419 23.0824C22.544 23.1803 22.4113 23.2348 22.2729 23.234H11.9569C11.8184 23.2348 11.6857 23.1803 11.5879 23.0824C11.49 22.9846 11.4357 22.8519 11.4366 22.7137C11.4366 21.0934 12.0236 19.5993 13.0938 18.5068ZM21.9608 26.2366C21.9616 26.3748 21.907 26.5077 21.8095 26.6053C21.7117 26.7031 21.5787 26.7577 21.4405 26.7568H12.7892C12.5018 26.7568 12.269 26.524 12.269 26.2366C12.269 25.9491 12.5018 25.7163 12.7892 25.7163H21.448C21.5851 25.7169 21.7163 25.7723 21.8124 25.8699C21.9088 25.9674 21.9622 26.0995 21.9608 26.2366ZM25.1567 30.0271H9.07303C8.7856 30.0271 8.55276 29.7943 8.55276 29.5068C8.55276 29.2194 8.7856 28.9866 9.07303 28.9866H25.1642C25.3024 28.9857 25.4351 29.0403 25.533 29.1381C25.6308 29.2357 25.6854 29.3686 25.6845 29.5068C25.6836 29.6459 25.6276 29.7789 25.5286 29.8764C25.4296 29.974 25.2958 30.0283 25.1567 30.0271Z" fill="#1A1A1A"/>
<path d="M17.5276 8.80348C18.9337 9.03167 19.8886 10.3564 19.6604 11.7622C19.4322 13.1683 18.1074 14.1232 16.7016 13.895C15.2956 13.6668 14.3407 12.342 14.5689 10.9362C14.7971 9.53017 16.1218 8.57528 17.5276 8.80348Z" fill="#1A1A1A"/>
<path d="M15.4053 0H18.8242V3.41892H15.4053V0Z" fill="#1A1A1A"/>
<path d="M20.3925 19.2352C19.5262 18.3598 18.346 17.8674 17.1147 17.8674C15.8834 17.8674 14.7032 18.3598 13.8369 19.2352C13.0716 20.0156 12.6105 21.0561 12.499 22.1933H21.7303C21.6189 21.0486 21.1578 20.0156 20.3925 19.2352Z" fill="#1A1A1A"/>
</svg>
