<svg width="33" height="33" viewBox="0 0 33 33" fill="none" xmlns="http://www.w3.org/2000/svg">
<path d="M29.5946 0H4.82563C4.37038 0 4 0.390312 4 0.870067V32.1299C4 32.6097 4.37038 33 4.82563 33H29.5946C30.0499 33 30.4203 32.6097 30.4203 32.1299V0.870067C30.4203 0.390312 30.0498 0 29.5946 0ZM28.769 31.2599H5.65127V8.40111H28.769V31.2599Z" fill="#1A1A1A"/>
<path d="M8.95383 15.2819H25.4665C25.6945 15.2819 25.8793 15.0871 25.8793 14.8469V11.8886C25.8793 11.6484 25.6945 11.4536 25.4665 11.4536H8.95383C8.72579 11.4536 8.54102 11.6484 8.54102 11.8886V14.8469C8.54102 15.0871 8.72579 15.2819 8.95383 15.2819Z" fill="#1A1A1A"/>
<path d="M8.95383 28.072H16.4671C16.6951 28.072 16.8799 27.8772 16.8799 27.637V19.3713C16.8799 19.1311 16.6951 18.9363 16.4671 18.9363H8.95383C8.72579 18.9363 8.54102 19.1311 8.54102 19.3713V27.637C8.54102 27.8772 8.72579 28.072 8.95383 28.072Z" fill="#1A1A1A"/>
<path d="M25.4662 18.9363H19.6867C19.4587 18.9363 19.2739 19.1311 19.2739 19.3713V21.8945C19.2739 22.1347 19.4587 22.3295 19.6867 22.3295H25.4662C25.6942 22.3295 25.879 22.1347 25.879 21.8945V19.3713C25.879 19.131 25.6941 18.9363 25.4662 18.9363Z" fill="#1A1A1A"/>
<path d="M25.4662 24.564H19.6867C19.4587 24.564 19.2739 24.7588 19.2739 24.999V27.5222C19.2739 27.7624 19.4587 27.9572 19.6867 27.9572H25.4662C25.6942 27.9572 25.879 27.7624 25.879 27.5222V24.999C25.879 24.7588 25.6941 24.564 25.4662 24.564Z" fill="#1A1A1A"/>
</svg>
