<svg width="50" height="50" viewBox="0 0 50 50" fill="none" xmlns="http://www.w3.org/2000/svg">
<rect width="49.5" height="49.5" rx="3" fill="#392396"/>
<path d="M31.25 30.1818H28.4375C28.127 30.1818 27.875 29.9273 27.875 29.6136C27.875 29.3 28.127 29.0455 28.4375 29.0455H31.25C34.3516 29.0455 36.875 26.4966 36.875 23.3636C36.875 20.3557 34.5541 17.8693 31.5909 17.7034C31.3827 17.692 31.1994 17.5659 31.1116 17.3761C29.9214 14.8011 27.3271 13.1364 24.5 13.1364C20.8831 13.1364 17.7759 15.858 17.2719 19.4659C17.2325 19.7455 16.9951 19.9545 16.715 19.9545C14.1432 19.9545 12.125 21.9932 12.125 24.5C12.125 27.0068 14.1432 29.0455 16.625 29.0455H20.5625C20.873 29.0455 21.125 29.3 21.125 29.6136C21.125 29.9273 20.873 30.1818 20.5625 30.1818H16.625C13.5234 30.1818 11 27.633 11 24.5C11 21.4977 13.3164 19.033 16.238 18.8318C17.0165 14.9045 20.4871 12 24.5 12C27.6511 12 30.5536 13.7932 31.9846 16.5955C35.3844 16.9557 38 19.8659 38 23.3636C38 27.1239 34.9726 30.1818 31.25 30.1818Z" fill="white"/>
<path d="M24.5 33.5909C24.1895 33.5909 23.9375 33.3363 23.9375 33.0227V24.2159C23.9375 23.9023 24.1895 23.6477 24.5 23.6477C24.8105 23.6477 25.0625 23.9023 25.0625 24.2159V33.0227C25.0625 33.3363 24.8105 33.5909 24.5 33.5909Z" fill="white"/>
<path d="M27.3117 27.3408C27.1677 27.3408 27.0237 27.2852 26.9134 27.1749L24.4992 24.7352L22.0849 27.1738C21.8655 27.3954 21.5089 27.3954 21.2895 27.1738C21.0702 26.9522 21.0702 26.592 21.2895 26.3704L24.102 23.5295C24.3214 23.3079 24.678 23.3079 24.8974 23.5295L27.7099 26.3704C27.9293 26.592 27.9293 26.9522 27.7099 27.1738C27.5997 27.2852 27.4557 27.3408 27.3117 27.3408Z" fill="white"/>
<path d="M28.4375 37H20.5625C19.6321 37 18.875 36.2353 18.875 35.2955V33.0228C18.875 32.7091 19.127 32.4546 19.4375 32.4546C19.748 32.4546 20 32.7091 20 33.0228V35.2955C20 35.6091 20.2531 35.8637 20.5625 35.8637H28.4375C28.7469 35.8637 29 35.6091 29 35.2955V33.0228C29 32.7091 29.252 32.4546 29.5625 32.4546C29.873 32.4546 30.125 32.7091 30.125 33.0228V35.2955C30.125 36.2353 29.3679 37 28.4375 37Z" fill="white"/>
</svg>
