<svg width="33" height="33" viewBox="0 0 33 33" fill="none" xmlns="http://www.w3.org/2000/svg">
<path d="M20.5874 5.69202V0H7.17784C5.44038 0 4 1.43182 4 3.16903V29.831C4 31.5684 5.44038 33 7.17784 33H26.3144C28.0516 33 29.492 31.5682 29.492 29.831V9.34117H24.2451C22.2198 9.34117 20.5874 7.70869 20.5874 5.69202ZM11.1238 16.3341L16.2398 10.843C16.3707 10.7032 16.554 10.6247 16.7547 10.6247C16.9556 10.6247 17.1301 10.7032 17.2698 10.843L22.3858 16.3341C22.6476 16.6135 22.6302 17.0587 22.3508 17.3208C22.2198 17.4429 22.0451 17.5041 21.8794 17.5041C21.6959 17.5041 21.5041 17.4255 21.3643 17.2858L17.4445 13.0953V23.0737C17.4445 23.4579 17.1303 23.7721 16.7461 23.7721C16.3619 23.7721 16.0477 23.4579 16.0477 23.0737V13.0953L12.1453 17.2858C11.8834 17.565 11.438 17.5826 11.1588 17.3208C10.8794 17.0587 10.862 16.6224 11.1238 16.3341ZM24.6293 27.6746C24.6293 28.0588 24.3151 28.373 23.9309 28.373H9.5611C9.1769 28.373 8.86269 28.0588 8.86269 27.6746C8.86269 27.2904 9.1769 26.9762 9.5611 26.9762H23.9397C24.3239 26.9762 24.6293 27.2906 24.6293 27.6746Z" fill="#1A1A1A"/>
<path d="M24.2455 7.94428H28.5319L21.9844 1.07373V5.69195C21.9844 6.94048 22.9882 7.94428 24.2455 7.94428Z" fill="#1A1A1A"/>
</svg>
