<svg width="26" height="24" viewBox="0 0 26 24" fill="none" xmlns="http://www.w3.org/2000/svg">
<path d="M18.6958 5.8156L18.6958 5.81562C18.8048 6.04898 19.0329 6.20458 19.2919 6.21868C21.8193 6.35877 23.8 8.45852 23.8 11C23.8 13.6465 21.6465 15.8 19 15.8H16.5C16.1135 15.8 15.8 16.1135 15.8 16.5C15.8 16.8864 16.1135 17.2 16.5 17.2H19C22.4195 17.2 25.2 14.4194 25.2 11C25.2 7.85597 22.8523 5.23342 19.7809 4.85724C18.4578 2.37923 15.8396 0.8 13 0.8C9.38829 0.8 6.25883 3.35108 5.49101 6.82498C2.86169 7.08133 0.8 9.30355 0.8 12C0.8 14.8674 3.13254 17.2 6 17.2H9.5C9.88646 17.2 10.2 16.8864 10.2 16.5C10.2 16.1135 9.88646 15.8 9.5 15.8H6C3.90446 15.8 2.2 14.0955 2.2 12C2.2 9.90701 3.90186 8.19998 6.08 8.19998C6.42895 8.19998 6.72403 7.94235 6.77301 7.59815L6.77304 7.59792C7.20706 4.52198 9.88429 2.2 13 2.2C15.4357 2.2 17.6708 3.62036 18.6958 5.8156Z" fill="#392396" stroke="#392396" stroke-width="0.4"/>
<path d="M12.3 19.5C12.3 19.8864 12.6135 20.2 13 20.2C13.3865 20.2 13.7 19.8864 13.7 19.5V11.75C13.7 11.3635 13.3865 11.05 13 11.05C12.6135 11.05 12.3 11.3635 12.3 11.75V19.5Z" fill="#392396" stroke="#392396" stroke-width="0.4"/>
<path d="M15.0038 14.4951L15.0046 14.4959C15.1412 14.6311 15.3202 14.6998 15.4992 14.6998C15.6784 14.6998 15.8579 14.631 15.9947 14.4942C16.2678 14.2211 16.2678 13.7774 15.9947 13.5043L13.4947 11.0043C13.2216 10.7312 12.7779 10.7312 12.5048 11.0043L10.0048 13.5043C9.73172 13.7774 9.73172 14.2211 10.0048 14.4942C10.2779 14.7673 10.7216 14.7673 10.9947 14.4942L12.9992 12.4896L15.0038 14.4951Z" fill="#392396" stroke="#392396" stroke-width="0.4"/>
<path d="M9.5 23.2H16.5C17.4375 23.2 18.2 22.4374 18.2 21.5V19.5C18.2 19.1135 17.8865 18.8 17.5 18.8C17.1135 18.8 16.8 19.1135 16.8 19.5V21.5C16.8 21.6653 16.6648 21.8 16.5 21.8H9.5C9.3352 21.8 9.2 21.6653 9.2 21.5V19.5C9.2 19.1135 8.88646 18.8 8.5 18.8C8.11354 18.8 7.8 19.1135 7.8 19.5V21.5C7.8 22.4374 8.56254 23.2 9.5 23.2Z" fill="#392396" stroke="#392396" stroke-width="0.4"/>
</svg>
