<svg width="25" height="28" viewBox="0 0 25 28" fill="none" xmlns="http://www.w3.org/2000/svg">
<path d="M17.7728 15.8571C18.1629 16.0625 24 17.5071 24 20.9566C24 23.2245 22.8789 25.2861 20.6363 25.9349C18.6987 26.4955 15.9637 27 12.5 27C9.03615 27 6.30127 26.4955 4.3637 25.935C2.12111 25.2861 1 23.2244 1 20.9566C1 17.5001 6.84105 16.0601 7.22719 15.8571M12.5 19.5714C16.8143 19.5714 20.1667 13.1734 20.1667 6.6221C20.1667 3.5663 16.7912 1 12.5 1C8.20882 1 4.83333 3.5663 4.83333 6.6221C4.83333 13.1734 8.18569 19.5714 12.5 19.5714Z" stroke="#392396" stroke-width="2"/>
</svg>
