<svg width="17" height="17" viewBox="0 0 17 17" fill="none" xmlns="http://www.w3.org/2000/svg">
<path d="M1.05888 9.83637H12.8866L7.71926 15.1391C7.3063 15.5629 7.3063 16.2584 7.71926 16.6822C8.13223 17.1059 8.79933 17.1059 9.21229 16.6822L16.1903 9.52125C16.2885 9.42072 16.3664 9.30131 16.4195 9.16986C16.4727 9.0384 16.5 8.89749 16.5 8.75517C16.5 8.61286 16.4727 8.47194 16.4195 8.34049C16.3664 8.20903 16.2885 8.08963 16.1903 7.9891L9.22288 0.817319C9.12485 0.716716 9.00846 0.636914 8.88038 0.582468C8.75229 0.528023 8.61501 0.5 8.47637 0.5C8.33773 0.5 8.20044 0.528023 8.07236 0.582468C7.94427 0.636914 7.82789 0.716716 7.72985 0.817319C7.63182 0.917921 7.55406 1.03735 7.501 1.1688C7.44794 1.30024 7.42064 1.44112 7.42064 1.5834C7.42064 1.72567 7.44794 1.86655 7.501 1.99799C7.55406 2.12944 7.63182 2.24887 7.72985 2.34947L12.8866 7.66311H1.05888C0.476498 7.66311 0 8.15209 0 8.74974C0 9.34739 0.476498 9.83637 1.05888 9.83637Z" fill="#1A1A1A"/>
</svg>
