<svg width="71" height="45" viewBox="0 0 71 45" fill="none" xmlns="http://www.w3.org/2000/svg">
<path fill-rule="evenodd" clip-rule="evenodd" d="M26.6803 2.01738C26.8235 0.943172 27.1816 0.155407 28.399 0.0121799C29.9029 -0.131048 30.261 1.01477 30.8339 2.08897C31.9797 4.02254 32.5526 5.45483 34.6294 6.60065C36.2765 7.53163 38.0669 7.88969 39.9288 8.24776C42.7217 8.82067 45.5863 9.10712 48.1644 10.3962C50.0263 11.3271 51.7451 12.6878 52.7476 14.5498C54.3231 17.4859 52.7476 21.6395 56.6864 23.0718C61.771 24.9337 66.7123 25.5067 70.5078 29.8035C71.4388 30.8061 69.9349 32.3816 69.0039 31.3074C65.1368 27.0105 60.1238 27.0106 55.2541 24.7905C51.3154 23.0718 52.1747 20.4937 51.1722 16.913C49.3818 10.3246 40.9314 11.3272 35.7036 9.4652C32.9107 8.46261 28.399 5.66966 28.8287 2.08897C28.6855 3.37802 26.5371 3.37804 26.6803 2.01738Z" fill="#141414"/>
<path fill-rule="evenodd" clip-rule="evenodd" d="M25.248 16.1253C31.3352 17.8441 34.5578 21.8544 38.1385 26.7242C42.7217 33.0978 50.0979 37.3946 56.2567 42.1211C57.3309 42.9804 56.2567 44.8424 55.1825 43.983C49.9547 39.9726 44.0108 36.3204 39.3559 31.5939C37.3507 29.5887 35.9185 27.2255 34.2713 24.9338C31.7649 21.568 28.7571 19.2764 24.6751 18.1305C23.3145 17.8441 23.8874 15.7673 25.248 16.1253Z" fill="#141414"/>
<path fill-rule="evenodd" clip-rule="evenodd" d="M2.04567 18.202C5.19667 20.6369 8.13282 23.0001 9.70832 26.7956C12 32.3099 14.5064 36.8216 19.3046 40.4738C20.3788 41.3332 19.3046 43.1951 18.2304 42.3358C14.8645 39.7577 12.0716 36.6783 9.99479 32.9544C8.84897 30.8776 8.27606 28.5144 7.13024 26.4376C5.69797 23.7879 3.2631 21.8543 0.89985 20.064C-0.10274 19.2762 0.971468 17.3426 2.04567 18.202Z" fill="#141414"/>
</svg>
