<svg width="50" height="50" viewBox="0 0 50 50" fill="none" xmlns="http://www.w3.org/2000/svg">
<rect y="0.443359" width="49.5" height="49.5" rx="3" fill="#392396"/>
<path d="M29.3924 26.3184C29.7358 26.505 34.875 27.8176 34.875 30.952C34.875 33.0127 33.888 34.886 31.9135 35.4756C30.2075 35.985 27.7996 36.4434 24.75 36.4434C21.7003 36.4434 19.2924 35.985 17.5865 35.4756C15.6121 34.8861 14.625 33.0126 14.625 30.952C14.625 27.8113 19.7677 26.5027 20.1076 26.3184M24.75 29.6934C28.5485 29.6934 31.5 23.8797 31.5 17.9269C31.5 15.1502 28.5281 12.8184 24.75 12.8184C20.9719 12.8184 18 15.1502 18 17.9269C18 23.8797 20.9515 29.6934 24.75 29.6934Z" stroke="white" stroke-width="1.5"/>
</svg>
