<svg width="101" height="99" viewBox="0 0 101 99" fill="none" xmlns="http://www.w3.org/2000/svg">
<g clip-path="url(#clip0_501_31615)">
<path d="M50.4957 97.694C77.8524 97.694 100.029 76.1868 100.029 49.6563C100.029 23.1259 77.8524 1.61865 50.4957 1.61865C23.1389 1.61865 0.961914 23.1259 0.961914 49.6563C0.961914 76.1868 23.1389 97.694 50.4957 97.694Z" fill="white"/>
<path d="M50.4965 98.4021C22.7934 98.4021 0.233887 76.5327 0.233887 49.6562C0.233887 22.7798 22.7766 0.9104 50.4965 0.9104C78.2163 0.9104 100.759 22.7798 100.759 49.6562C100.759 76.5327 78.2079 98.4021 50.4965 98.4021ZM50.4965 2.33504C23.5808 2.33504 1.68316 23.5629 1.68316 49.6562C1.68316 75.7495 23.5808 96.9774 50.4965 96.9774C77.4121 96.9774 99.3098 75.7495 99.3098 49.6562C99.3098 23.5629 77.4121 2.33504 50.4965 2.33504Z" fill="black"/>
<path d="M49.7082 91.3287C73.2249 91.3287 92.289 72.6712 92.289 49.656C92.289 26.6409 73.2249 7.9834 49.7082 7.9834C26.1915 7.9834 7.12744 26.6409 7.12744 49.656C7.12744 72.6712 26.1915 91.3287 49.7082 91.3287Z" fill="white"/>
<path d="M49.7079 92.0453C25.8248 92.0453 6.40674 73.0252 6.40674 49.6562C6.40674 26.2872 25.8248 7.26709 49.7079 7.26709C73.591 7.26709 93.0091 26.2789 93.0091 49.6562C93.0091 73.0336 73.5827 92.0453 49.7079 92.0453ZM49.7079 8.73338C26.6207 8.73338 7.82247 27.062 7.82247 49.6895C7.82247 72.3171 26.6039 90.6457 49.7079 90.6457C72.812 90.6457 91.5934 72.2754 91.5934 49.6895C91.5934 27.1037 72.7952 8.70006 49.7079 8.70006V8.73338Z" fill="black"/>
<path d="M49.7083 50.3725C49.5707 50.3723 49.4361 50.333 49.3203 50.2592C49.2046 50.1854 49.1124 50.0801 49.0549 49.9559L35.0065 20.1969C34.9561 20.111 34.9242 20.0157 34.9129 19.9169C34.9015 19.8181 34.911 19.7181 34.9406 19.6231C34.9703 19.5282 35.0195 19.4404 35.0851 19.3654C35.1507 19.2904 35.2313 19.2298 35.3217 19.1874C35.4121 19.1451 35.5104 19.1219 35.6104 19.1194C35.7103 19.1168 35.8096 19.135 35.9021 19.1728C35.9946 19.2105 36.0782 19.267 36.1475 19.3386C36.2169 19.4102 36.2705 19.4954 36.3049 19.5887L50.3533 49.3477C50.3944 49.433 50.4181 49.5255 50.4231 49.6199C50.428 49.7144 50.4141 49.8088 50.3822 49.8979C50.3503 49.987 50.3009 50.0689 50.237 50.1389C50.1731 50.2089 50.0959 50.2656 50.0099 50.3058C49.9151 50.3485 49.8123 50.3712 49.7083 50.3725Z" fill="black"/>
<path d="M47.002 50.5724L66.0766 62.0695L63.2451 66.9849L77.0422 64.8604L71.3877 52.9468L68.6567 56.7458L49.1465 46.4568L47.002 50.5724Z" fill="#FFD803"/>
<path d="M63.2881 67.7019C63.1622 67.7001 63.039 67.6661 62.9303 67.6029C62.8216 67.5397 62.7313 67.4496 62.668 67.3414C62.6047 67.2332 62.5707 67.1105 62.5693 66.9853C62.5678 66.8602 62.599 66.7368 62.6598 66.6271L65.1729 62.3199L46.7433 51.1811C46.5854 51.0886 46.4695 50.9392 46.4195 50.7638C46.3696 50.5885 46.3896 50.4007 46.4753 50.2397L48.6198 46.1324C48.6609 46.0471 48.7193 45.9712 48.7914 45.9095C48.8635 45.8479 48.9477 45.8018 49.0386 45.7741C49.1294 45.7447 49.2252 45.734 49.3203 45.7426C49.4153 45.7512 49.5076 45.7789 49.5916 45.8241L68.5489 55.8216L70.9112 52.4891C70.9816 52.3859 71.0787 52.3036 71.1922 52.2508C71.3058 52.198 71.4316 52.1767 71.5563 52.1892C71.6808 52.2021 71.8 52.2463 71.9026 52.3177C72.0052 52.3892 72.0879 52.4854 72.1427 52.5974L77.7972 64.511C77.8467 64.6108 77.8725 64.7205 77.8725 64.8318C77.8725 64.943 77.8467 65.0527 77.7972 65.1525C77.7444 65.2505 77.6691 65.3348 77.5774 65.3985C77.4857 65.4622 77.3802 65.5035 77.2695 65.5191L63.4724 67.6519L63.2881 67.7019ZM47.9915 50.3063L66.4881 61.4535C66.6482 61.5504 66.764 61.7056 66.8109 61.886C66.8578 62.0664 66.8322 62.2579 66.7394 62.4199L64.6536 66.0523L75.9794 64.2944L71.2547 54.3553L69.2442 57.1546C69.1452 57.2982 68.996 57.4 68.8256 57.4401C68.6552 57.4801 68.4759 57.4556 68.3227 57.3712L49.4491 47.4237L47.9915 50.3063Z" fill="black"/>
<path d="M50.3198 45.2326C49.412 45.3326 48.5563 45.7049 47.8665 46.3002C47.1767 46.8954 46.6853 47.6854 46.4579 48.5651C46.249 49.4565 46.3295 50.3908 46.6876 51.234C47.0457 52.0771 47.6631 52.7858 48.4512 53.2584C49.2394 53.731 50.1579 53.9432 51.0748 53.8645C51.9917 53.7858 52.86 53.4203 53.5552 52.8205C54.2503 52.2206 54.7365 51.4172 54.9441 50.5255C55.1517 49.6338 55.07 48.6996 54.7107 47.857C54.3514 47.0143 53.733 46.3065 52.9442 45.835C52.1553 45.3635 51.2366 45.1527 50.3198 45.2326Z" fill="white"/>
<path d="M50.6208 54.6219C50.4256 54.6343 50.2297 54.6343 50.0344 54.6219C49.341 54.5031 48.6785 54.2473 48.0861 53.8697C47.4937 53.4921 46.9833 53.0003 46.5851 52.4233C46.1869 51.8463 45.9089 51.1959 45.7675 50.5104C45.6262 49.8248 45.6244 49.1181 45.7621 48.4318C46.0252 47.4084 46.5961 46.4892 47.3984 45.7969C48.2007 45.1047 49.1963 44.6724 50.2522 44.5578C50.9505 44.5144 51.6502 44.6165 52.3066 44.8575C52.9629 45.0985 53.5614 45.4732 54.0638 45.9575C54.595 46.437 55.0187 47.0223 55.3073 47.6754C55.596 48.3285 55.7431 49.0348 55.7392 49.7482C55.7085 50.4484 55.5301 51.1344 55.2155 51.7617C54.9008 52.3889 54.4571 52.9433 53.913 53.3889C52.9966 54.1738 51.8302 54.6107 50.6208 54.6219ZM50.3862 45.9658C49.63 46.0543 48.918 46.367 48.3428 46.8632C47.7677 47.3595 47.3559 48.0163 47.1611 48.7484C47.0582 49.2343 47.0573 49.7361 47.1584 50.2223C47.2596 50.7086 47.4606 51.1688 47.7488 51.5743C48.0371 51.9797 48.4064 52.3216 48.8336 52.5785C49.2608 52.8355 49.7368 53.0019 50.2317 53.0675C50.7266 53.133 51.2298 53.0963 51.7097 52.9595C52.1897 52.8227 52.6361 52.5889 53.021 52.2726C53.4059 51.9563 53.721 51.5644 53.9466 51.1214C54.1721 50.6784 54.3033 50.1939 54.3319 49.6982C54.323 49.1844 54.2076 48.678 53.9928 48.2106C53.778 47.7433 53.4685 47.3251 53.0837 46.9822C52.7318 46.6329 52.3095 46.3616 51.8445 46.1864C51.3796 46.0112 50.8826 45.936 50.3862 45.9658Z" fill="black"/>
<path d="M11.1064 53.0884C10.9273 53.081 10.7573 53.0073 10.6298 52.8819C10.5023 52.7565 10.4264 52.5883 10.417 52.4102C10.4076 52.2321 10.4653 52.0569 10.5788 51.9188C10.6924 51.7808 10.8536 51.6898 11.031 51.6637C13.0898 51.4319 15.1673 51.4123 17.2301 51.6054C17.4124 51.6324 17.5774 51.7278 17.6911 51.872C17.8048 52.0163 17.8586 52.1984 17.8415 52.3809C17.8243 52.5634 17.7375 52.7324 17.5988 52.8531C17.4601 52.9739 17.2802 53.0372 17.096 53.0301C15.1308 52.8468 13.152 52.8635 11.1902 53.0801L11.1064 53.0884Z" fill="black"/>
<path d="M49.4396 86.4298C49.25 86.4276 49.0689 86.3512 48.9356 86.217C48.8023 86.0829 48.7275 85.9019 48.7275 85.7133L48.7778 79.8815C48.78 79.6929 48.8569 79.5128 48.9918 79.3802C49.1266 79.2477 49.3086 79.1733 49.4982 79.1733C49.6878 79.1755 49.869 79.252 50.0023 79.3861C50.1356 79.5202 50.2103 79.7012 50.2103 79.8898L50.16 85.7217C50.1578 85.9102 50.0809 86.0903 49.9461 86.2229C49.8112 86.3555 49.6292 86.4298 49.4396 86.4298Z" fill="black"/>
<path d="M49.4147 18.2977C49.2251 18.2955 49.0439 18.2191 48.9106 18.085C48.7773 17.9508 48.7026 17.7698 48.7026 17.5812L48.7529 11.7494C48.7551 11.5608 48.832 11.3807 48.9668 11.2482C49.1017 11.1156 49.2837 11.0412 49.4733 11.0413C49.6629 11.0435 49.844 11.1199 49.9773 11.254C50.1106 11.3882 50.1854 11.5692 50.1853 11.7577L50.1351 17.5896C50.1351 17.6833 50.1164 17.7761 50.0801 17.8625C50.0438 17.949 49.9906 18.0274 49.9236 18.0933C49.8566 18.1592 49.7771 18.2111 49.6897 18.2462C49.6024 18.2813 49.5089 18.2988 49.4147 18.2977Z" fill="black"/>
<path d="M87.5224 49.2983H87.3967C85.9855 49.0404 84.5467 48.9648 83.116 49.0734C82.9267 49.085 82.7403 49.0227 82.5964 48.8998C82.4525 48.7769 82.3624 48.6031 82.3453 48.4152C82.3373 48.3215 82.3482 48.2271 82.3772 48.1377C82.4063 48.0482 82.453 47.9653 82.5146 47.894C82.5762 47.8226 82.6515 47.7642 82.7361 47.7221C82.8206 47.68 82.9127 47.655 83.0071 47.6487C84.5581 47.5287 86.1182 47.6099 87.648 47.8903C87.8196 47.9272 87.9717 48.0251 88.0758 48.1657C88.18 48.3062 88.2289 48.4797 88.2134 48.6536C88.198 48.8275 88.1193 48.9898 87.992 49.1101C87.8648 49.2303 87.6978 49.3002 87.5224 49.3067V49.2983Z" fill="black"/>
<g opacity="0.13">
<path d="M56.1431 50.1972C55.9099 50.27 55.7047 50.412 55.5549 50.6041C55.4052 50.7962 55.3181 51.0292 55.3053 51.272C55.2852 51.2962 55.2628 51.3185 55.2384 51.3386C54.7274 51.9718 54.2499 51.9718 53.3619 52.7882C53.2007 53.0069 53.1192 53.2736 53.131 53.5445C53.1428 53.8154 53.2471 54.0741 53.4268 54.278C53.6064 54.482 53.8507 54.6188 54.1191 54.6661C54.3876 54.7133 54.6642 54.668 54.9033 54.5378C55.9216 54.0181 56.8005 53.264 57.4667 52.3384C58.0195 51.3136 57.4834 49.914 56.1431 50.1972Z" fill="black"/>
</g>
<g opacity="0.13">
<path d="M49.6504 7.92549C49.6174 7.90895 49.6009 7.90895 49.6504 7.92549V7.92549Z" fill="black"/>
</g>
<g opacity="0.13">
<path d="M70.9453 13.3579C69.982 12.883 69.0018 12.4414 68.0133 12.0332C66.0069 11.2181 63.9503 10.5308 61.8562 9.9754C61.7159 9.94394 61.5916 9.86369 61.5056 9.74913C61.4196 9.63457 61.3775 9.49322 61.387 9.35056C60.7001 9.19504 60.0048 9.07007 59.3012 8.97565C56.6317 8.47515 53.916 8.2601 51.2005 8.33415C51.0436 8.18021 50.8408 8.08085 50.6225 8.05089L49.6675 7.92592H49.7596C49.3659 7.8676 48.9806 7.85927 48.5869 7.82595C47.8061 7.76765 47.0221 7.76765 46.2413 7.82595C44.297 8.03744 42.3744 8.41371 40.4946 8.95066C37.5405 9.69943 34.6499 10.6772 31.8494 11.8749C30.4588 12.4248 25.9855 14.291 23.7823 16.3071C21.5811 18.1841 19.6126 20.3153 17.9183 22.6555C17.6933 22.5665 17.4437 22.5606 17.2146 22.6388C16.5026 22.9721 16.779 22.9637 16.2345 23.6219C15.6398 24.455 15.1204 25.3631 14.601 26.2462C13.8983 27.3035 13.2874 28.4184 12.7748 29.5787C12.6115 29.8552 12.5411 30.1762 12.5738 30.4951C12.0902 31.261 11.6565 32.0569 11.2753 32.8779C8.83753 37.635 7.43857 44.8831 7.6815 51.2898C7.87925 54.0104 8.25424 56.7154 8.80406 59.3877C9.73392 63.4034 10.4208 64.3865 11.803 67.8189C11.8833 67.9578 11.9946 68.0765 12.1282 68.1661C12.2617 68.2556 12.4142 68.3135 12.5738 68.3354C13.2523 69.9267 14.1403 72.1428 15.1371 74.0423C15.9278 75.6691 16.9899 77.1508 18.2785 78.4245C18.6253 78.797 19.0131 79.1296 19.4346 79.4159C19.6424 79.5065 19.8763 79.5184 20.0923 79.4493C20.3083 79.3803 20.4915 79.2351 20.6074 79.041C21.0765 78.2079 20.1718 77.658 19.6859 77.1415C19.3828 76.8229 19.1028 76.4833 18.8482 76.1251C18.0848 75.0524 17.423 73.9117 16.8712 72.7177C16.1508 71.3847 15.4554 70.0433 14.8439 68.6687C14.4753 67.7106 13.7716 66.2526 13.0177 64.728C12.2031 62.1762 11.5705 59.5704 11.1245 56.93C9.7494 50.0237 10.371 42.8712 12.9172 36.302C14.7395 32.7295 16.9654 29.3754 19.5518 26.3045C21.5875 23.8968 24.1258 21.9973 26.4462 19.8729C28.5926 17.8887 31.0025 16.2068 33.6086 14.8741C35.7605 13.9058 37.9707 13.0711 40.2265 12.3748C44.5976 11.398 49.0581 10.8703 53.5377 10.8002C55.5063 10.9751 57.1482 11.3084 59.4938 11.6833C63.0985 12.1834 66.6396 13.0631 70.0574 14.3076C70.1853 14.3615 70.3248 14.3829 70.4631 14.3699C70.6015 14.3568 70.7344 14.3098 70.8499 14.2329C70.9654 14.1561 71.0599 14.0518 71.1248 13.9296C71.1897 13.8074 71.223 13.671 71.2217 13.5328L70.9453 13.3579Z" fill="black"/>
</g>
</g>
<defs>
<clipPath id="clip0_501_31615">
<rect width="100.5" height="97.5" fill="white" transform="translate(0.25 0.911133)"/>
</clipPath>
</defs>
</svg>
