<svg width="128" height="98" viewBox="0 0 128 98" fill="none" xmlns="http://www.w3.org/2000/svg">
<g clip-path="url(#clip0_501_31516)">
<path d="M1.73047 41.6508C14.7716 29.7647 28.532 17.1774 41.5905 5.29137C43.9821 3.11083 46.7376 0.793474 49.9871 0.887537C51.9704 1.08779 53.8608 1.81804 55.4548 2.99967C70.6536 12.8078 82.317 34.7415 91.9614 42.7026C91.4935 57.6328 80.3327 72.8539 68.9726 82.7219C65.0299 86.1423 60.6886 89.3062 55.6628 90.7941C51.8776 91.8612 47.8987 92.0803 44.0167 91.4355C32.622 89.6739 22.9776 81.7299 16.5913 72.2467C10.205 62.7635 5.91577 52.468 1.73047 41.6508Z" fill="#FFD803"/>
<path d="M48.5232 92.513C46.9825 92.5143 45.4441 92.3971 43.922 92.1624C33.4197 90.5291 23.2381 83.4231 15.9939 72.6487C9.40838 62.8406 4.99779 52.126 1.04645 41.9074C0.994961 41.7711 0.985595 41.6228 1.01953 41.4812C1.05346 41.3397 1.12917 41.2112 1.23708 41.1121C7.76199 35.1691 14.4602 29.055 21.1671 22.9324L41.0971 4.75271C43.6967 2.3755 46.5648 0.0581433 50.0136 0.160757C52.1414 0.356727 54.1737 1.12581 55.8886 2.38405C64.9871 8.30143 72.8378 18.4773 79.718 27.4645C84.2672 33.3819 88.5652 38.9743 92.4125 42.1468C92.4976 42.218 92.5653 42.3073 92.6103 42.408C92.6553 42.5088 92.6766 42.6183 92.6725 42.7283C92.1872 58.1631 80.3505 73.7946 69.4324 83.2692C66.0183 86.2365 61.391 89.845 55.854 91.4868C53.4735 92.1767 51.0042 92.5224 48.5232 92.513ZM2.59753 41.8475C6.47088 51.8096 10.8122 62.3104 17.2157 71.8449C24.2606 82.3115 34.0349 89.1524 44.1299 90.7172C47.905 91.3447 51.7745 91.1314 55.4554 90.093C60.7151 88.5367 65.1864 85.0393 68.4532 82.1747C79.0508 72.9736 90.5408 57.8895 91.1734 43.0361C87.274 39.7268 83.0281 34.1943 78.5308 28.3453C71.7373 19.4607 63.9906 9.37888 55.0481 3.64107C53.5559 2.53641 51.79 1.84823 49.9356 1.64865C47.0154 1.58024 44.4592 3.68382 42.0676 5.86436C35.5427 11.7988 28.8445 17.9215 22.1376 24.0355C15.4307 30.1496 9.00113 36.0157 2.59753 41.8475Z" fill="black"/>
<path d="M19.061 8.70264C19.6387 32.6458 19.8034 56.6203 19.555 80.6262C19.555 80.6262 74.8044 80.5236 74.865 79.848C74.7437 56.1785 75.0759 32.5204 75.8615 8.87366L19.061 8.70264Z" fill="white"/>
<path d="M19.5289 81.3619C19.3299 81.3596 19.1399 81.2796 19.0003 81.1396C18.9312 81.071 18.8766 80.9896 18.8394 80.9001C18.8022 80.8105 18.7833 80.7147 18.7837 80.618C19.0523 56.7603 18.8877 32.5691 18.2985 8.72004C18.2944 8.6236 18.3108 8.52738 18.3466 8.43755C18.3824 8.34772 18.4368 8.26627 18.5064 8.19843C18.5743 8.12751 18.6563 8.07116 18.7472 8.03291C18.8382 7.99465 18.9362 7.97532 19.035 7.9761L75.8355 8.13002C76.0345 8.13236 76.2245 8.21228 76.3641 8.35235C76.4331 8.42239 76.487 8.50544 76.5228 8.59654C76.5585 8.68763 76.5753 8.78489 76.572 8.88252C75.7922 32.4238 75.4542 56.2985 75.5842 79.8569C75.5842 79.8569 75.5842 79.8569 75.5842 79.9253C75.5149 80.7804 75.5062 80.7804 66.1998 80.9942C61.6072 81.0883 55.2036 81.1652 47.1796 81.2251C33.5146 81.3363 19.6762 81.3705 19.5376 81.3705L19.5289 81.3619ZM19.7976 9.43834C20.3695 32.8086 20.5254 56.4696 20.2741 79.8997C40.4034 79.8569 69.7698 79.6517 74.1025 79.2498C73.9898 56.1617 74.3104 32.706 75.073 9.58371L19.7976 9.43834Z" fill="black"/>
<path d="M1.72984 41.6506C2.9517 54.8852 2.90818 68.204 1.59987 81.4305C1.24459 85.0904 0.915309 89.1265 1.92047 92.641C2.27282 93.8755 3.02537 94.9619 4.06295 95.7341C5.10053 96.5063 6.36597 96.9216 7.66552 96.9166H17.9944L30.2297 96.8739L83.3735 96.6857C85.0115 96.7768 86.6527 96.574 88.2174 96.0871C89.7338 95.4971 91.1029 94.2145 91.0595 92.7351C91.6661 75.9492 92.0907 59.1634 91.9694 42.7281C80.1847 53.913 68.1314 64.81 55.8095 75.4191C53.8598 77.1293 51.2862 78.8395 48.8253 78.1212C41.6245 75.4533 35.7061 70.3055 29.9611 65.2945C20.5333 56.9828 11.1229 48.7224 1.72984 41.6506Z" fill="white"/>
<path d="M7.63149 97.6518C6.17584 97.6454 4.76171 97.1725 3.60207 96.3042C2.44243 95.4359 1.6001 94.2192 1.20192 92.8375C0.188088 89.3059 0.456689 85.3981 0.855289 81.3619C2.15499 68.1778 2.19852 54.9024 0.985288 41.7103C0.971633 41.5688 1.00028 41.4265 1.06774 41.3009C1.1352 41.1754 1.23849 41.0721 1.36481 41.0038C1.49114 40.9356 1.63497 40.9054 1.77851 40.917C1.92204 40.9285 2.059 40.9814 2.17242 41.069C11.5915 48.1579 21.1752 56.5636 30.447 64.6958C35.8195 69.416 41.9111 74.7604 49.0772 77.4113C51.2349 78.0697 53.6698 76.2654 55.3162 74.846C67.5688 64.2939 79.7261 53.3056 91.4501 42.1806C91.5541 42.0817 91.6852 42.0151 91.8272 41.9892C91.9691 41.9632 92.1157 41.979 92.2487 42.0346C92.3816 42.0902 92.4951 42.1831 92.575 42.3018C92.6548 42.4205 92.6976 42.5598 92.6979 42.7022C92.8019 56.9399 92.516 72.8364 91.7881 92.7349C91.8401 94.5905 90.159 96.0955 88.4693 96.7368C86.8263 97.2629 85.0987 97.4832 83.3742 97.3867L7.65749 97.6518H7.63149ZM2.59701 43.2324C3.66592 55.9703 3.57311 68.7772 2.31971 81.4987C1.93844 85.3895 1.66982 89.152 2.61433 92.4442C2.91908 93.5239 3.57372 94.4754 4.47816 95.1533C5.3826 95.8311 6.48709 96.1981 7.62282 96.1981L83.3308 95.933C84.8773 96.0183 86.4267 95.83 87.9061 95.3772C89.0672 94.9326 90.3063 93.915 90.2803 92.7264C90.9735 73.5975 91.2682 58.1969 91.1988 44.4039C79.8387 55.1441 68.0887 65.7818 56.252 75.9405C54.337 77.5909 51.4602 79.6773 48.566 78.788C41.1052 76.0346 34.9009 70.5875 29.4245 65.7903C20.6466 58.0601 11.5568 50.0733 2.59701 43.2324Z" fill="black"/>
<path d="M106.337 67.8508C97.2467 67.2864 87.4377 67.1582 78.2699 67.2864C78.0707 73.8012 78.3342 80.3217 79.0584 86.8001C87.8709 86.6377 96.6921 86.5436 105.695 86.6206C105.635 89.87 105.574 93.128 105.574 96.4116C112.766 90.3061 119.958 84.192 127.237 77.5991C120.617 70.9862 113.731 64.6042 106.579 58.4531C106.579 61.5999 106.397 64.8066 106.337 67.8508Z" fill="white"/>
<path d="M105.575 97.139C105.469 97.1418 105.365 97.1183 105.271 97.0706C105.144 97.0125 105.035 96.9197 104.958 96.8032C104.882 96.6867 104.84 96.5511 104.838 96.4122C104.838 93.368 104.89 90.3152 104.942 87.3394C97.2821 87.2881 89.2581 87.3394 79.0678 87.5276C78.8851 87.5309 78.7076 87.4671 78.5699 87.3486C78.4322 87.2301 78.3441 87.0653 78.3226 86.8862C77.5925 80.3739 77.3261 73.819 77.5254 67.2699C77.532 67.08 77.612 66.8998 77.7489 66.7662C77.8859 66.6327 78.0694 66.5559 78.2619 66.5516C88.3482 66.4234 97.5507 66.6029 105.618 67.0818C105.618 65.7735 105.687 64.448 105.731 63.1141C105.774 61.5578 105.826 59.9929 105.852 58.4366C105.856 58.2982 105.9 58.1638 105.978 58.0488C106.056 57.9338 106.166 57.843 106.294 57.7867C106.423 57.7298 106.566 57.7109 106.706 57.7321C106.846 57.7533 106.977 57.8138 107.082 57.9064C114.335 64.1573 121.302 70.6305 127.784 77.1294C127.855 77.1984 127.91 77.2811 127.948 77.3723C127.985 77.4635 128.003 77.5612 128 77.6595C127.991 77.858 127.904 78.0452 127.758 78.1812C120.444 84.7484 113.131 90.9565 106.095 96.9936C105.946 97.1054 105.76 97.1573 105.575 97.139ZM99.3704 85.8601C101.528 85.8601 103.625 85.8601 105.705 85.8601C105.902 85.8645 106.089 85.9449 106.227 86.0839C106.364 86.223 106.441 86.4096 106.441 86.604C106.389 89.2891 106.337 92.0425 106.32 94.796C112.819 89.272 119.508 83.5769 126.198 77.5826C120.245 71.6481 113.893 65.7393 107.299 60.0015C107.299 61.0447 107.238 62.0879 107.204 63.1312C107.152 64.7217 107.108 66.3036 107.082 67.8428C107.074 68.0413 106.987 68.2285 106.84 68.3645C106.767 68.4318 106.681 68.4834 106.587 68.5158C106.493 68.5482 106.393 68.5607 106.294 68.5526C98.2699 68.0566 89.0934 67.8599 78.9898 67.9797C78.8333 74.006 79.0764 80.0361 79.7177 86.0311C87.1871 85.9285 93.4867 85.8601 99.3704 85.8601Z" fill="black"/>
<path d="M29.4597 21.5983C29.2643 21.5983 29.077 21.5218 28.9389 21.3854C28.8007 21.2491 28.7231 21.0643 28.7231 20.8715C28.7231 20.6787 28.8007 20.4938 28.9389 20.3575C29.077 20.2212 29.2643 20.1446 29.4597 20.1446L65.8536 19.9907C65.9503 19.9907 66.0461 20.0095 66.1355 20.046C66.2248 20.0826 66.306 20.1361 66.3744 20.2036C66.4428 20.2711 66.4971 20.3512 66.5341 20.4394C66.5711 20.5276 66.5902 20.6221 66.5902 20.7176C66.5902 20.9111 66.5128 21.0969 66.375 21.2346C66.2371 21.3722 66.0497 21.4507 65.8536 21.453L29.4597 21.5983Z" fill="black"/>
<path d="M65.8536 33.3305L29.0525 32.4754C28.8571 32.4754 28.6698 32.3988 28.5316 32.2625C28.3935 32.1262 28.3159 31.9414 28.3159 31.7486C28.3159 31.5558 28.3935 31.3709 28.5316 31.2346C28.6698 31.0983 28.8571 31.0217 29.0525 31.0217L65.8536 31.8597C66.0363 31.8793 66.2053 31.9647 66.328 32.0997C66.4507 32.2346 66.5186 32.4095 66.5186 32.5909C66.5186 32.7722 66.4507 32.9471 66.328 33.0821C66.2053 33.217 66.0363 33.3025 65.8536 33.322V33.3305Z" fill="black"/>
<path d="M65.1598 44.5062C53.2451 44.3865 41.1485 44.053 29.2252 43.5314C29.0298 43.5223 28.8461 43.4371 28.7145 43.2943C28.5829 43.1516 28.5141 42.9631 28.5233 42.7704C28.5325 42.5776 28.6189 42.3963 28.7635 42.2664C28.9081 42.1365 29.0991 42.0686 29.2945 42.0777C41.2005 42.5993 53.2711 42.9328 65.1771 43.044C65.3598 43.0635 65.5288 43.149 65.6515 43.2839C65.7742 43.4188 65.8421 43.5938 65.8421 43.7751C65.8421 43.9564 65.7742 44.1314 65.6515 44.2663C65.5288 44.4013 65.3598 44.4867 65.1771 44.5062H65.1598Z" fill="black"/>
<path d="M65.0813 55.0927L28.9386 54.3829C28.8419 54.3807 28.7466 54.3597 28.6581 54.3211C28.5696 54.2825 28.4896 54.2271 28.4229 54.158C28.3561 54.0889 28.3037 54.0075 28.2688 53.9185C28.2339 53.8294 28.2171 53.7345 28.2194 53.639C28.2262 53.447 28.3089 53.2651 28.4498 53.1325C28.5907 52.9999 28.7786 52.9269 28.9733 52.9293L65.1159 53.639C65.2126 53.6389 65.3083 53.6581 65.3973 53.6954C65.4863 53.7326 65.5668 53.7872 65.6339 53.8559C65.701 53.9245 65.7535 54.0058 65.788 54.0949C65.8226 54.184 65.8386 54.2791 65.8352 54.3744C65.834 54.4706 65.8136 54.5656 65.775 54.6539C65.7364 54.7422 65.6804 54.8221 65.6102 54.8889C65.5401 54.9558 65.4573 55.0082 65.3665 55.0431C65.2757 55.0781 65.1787 55.095 65.0813 55.0927Z" fill="black"/>
<path d="M80.8088 76.6591C80.7717 76.6678 80.7331 76.6678 80.6961 76.6591C80.6665 76.6446 80.64 76.6244 80.6183 76.5997C80.5966 76.5751 80.58 76.5465 80.5695 76.5155C80.5591 76.4845 80.5549 76.4518 80.5573 76.4192C80.5597 76.3866 80.5686 76.3548 80.5834 76.3256C81.8108 74.0413 83.2068 71.8491 84.7601 69.7669C84.8028 69.7261 84.8588 69.7017 84.9181 69.6978C84.9775 69.6939 85.0363 69.711 85.0841 69.7458C85.1319 69.7807 85.1656 69.8311 85.1793 69.8882C85.1929 69.9453 85.1856 70.0054 85.1587 70.0576C83.6151 72.1186 82.2306 74.291 81.0167 76.5565C80.993 76.5889 80.9617 76.6151 80.9255 76.633C80.8893 76.6508 80.8492 76.6598 80.8088 76.6591Z" fill="black"/>
<path d="M81.0867 84.6117C81.0414 84.6246 80.9933 84.6246 80.948 84.6117C80.9212 84.5944 80.898 84.5721 80.8799 84.5459C80.8619 84.5197 80.8493 84.4903 80.8428 84.4592C80.8364 84.4282 80.8362 84.3963 80.8424 84.3652C80.8486 84.3341 80.8609 84.3046 80.8787 84.2782C83.9289 79.5153 86.9444 74.6582 89.9079 69.8268C89.942 69.7722 89.9963 69.7327 90.0593 69.7168C90.1224 69.7008 90.1892 69.7096 90.2458 69.7413C90.2741 69.7572 90.2988 69.7786 90.3186 69.8041C90.3384 69.8296 90.3527 69.8588 90.3608 69.8899C90.3689 69.921 90.3705 69.9534 90.3657 69.9852C90.3608 70.017 90.3495 70.0474 90.3325 70.0748C87.3863 74.9147 84.3448 79.7803 81.286 84.5348C81.2618 84.5629 81.231 84.5847 81.1962 84.5981C81.1614 84.6115 81.1237 84.6162 81.0867 84.6117Z" fill="black"/>
<path d="M86.6495 84.3718C86.6073 84.3855 86.5618 84.3855 86.5196 84.3718C86.4913 84.3559 86.4665 84.3345 86.4468 84.309C86.427 84.2835 86.4127 84.2543 86.4046 84.2232C86.3965 84.192 86.3948 84.1596 86.3997 84.1279C86.4046 84.0961 86.4159 84.0656 86.4329 84.0383L94.9508 70.4249C94.9653 70.392 94.9873 70.363 95.0152 70.34C95.043 70.317 95.0758 70.3007 95.1111 70.2924C95.1464 70.2841 95.1832 70.284 95.2186 70.2922C95.2539 70.3003 95.2868 70.3165 95.3148 70.3394C95.3423 70.356 95.3663 70.3778 95.3852 70.4037C95.4041 70.4295 95.4176 70.4589 95.4248 70.4899C95.4321 70.521 95.433 70.5532 95.4275 70.5846C95.422 70.616 95.4102 70.646 95.3927 70.6729L86.8835 84.2863C86.8544 84.3181 86.8179 84.3425 86.7772 84.3574C86.7364 84.3723 86.6926 84.3773 86.6495 84.3718Z" fill="black"/>
<path d="M92.4721 84.2782C92.4268 84.291 92.3787 84.291 92.3334 84.2782C92.2786 84.2417 92.2405 84.1853 92.2275 84.1212C92.2146 84.0572 92.2277 83.9907 92.2641 83.9361L101.259 69.9978C101.274 69.9682 101.296 69.9421 101.322 69.9211C101.348 69.9002 101.379 69.8849 101.411 69.8762C101.444 69.8675 101.478 69.8656 101.511 69.8707C101.545 69.8757 101.576 69.8876 101.605 69.9055C101.633 69.9235 101.658 69.947 101.676 69.9748C101.695 70.0025 101.708 70.0338 101.713 70.0666C101.719 70.0995 101.718 70.1331 101.71 70.1654C101.702 70.1978 101.687 70.228 101.666 70.2543L92.7147 84.167C92.6876 84.2049 92.651 84.235 92.6084 84.2545C92.5658 84.274 92.5188 84.2822 92.4721 84.2782Z" fill="black"/>
<path d="M97.7752 84.4745C97.7352 84.4831 97.6938 84.4831 97.6539 84.4745C97.6256 84.4586 97.6008 84.4373 97.581 84.4117C97.5613 84.3862 97.5469 84.357 97.5388 84.3259C97.5308 84.2948 97.5291 84.2624 97.534 84.2306C97.5389 84.1989 97.5501 84.1684 97.5672 84.141C100.392 79.4379 103.338 74.7348 106.328 70.1172C106.365 70.0633 106.421 70.0254 106.486 70.0111C106.55 69.9969 106.617 70.0072 106.674 70.0402C106.729 70.0767 106.767 70.1331 106.78 70.1972C106.793 70.2612 106.78 70.3277 106.744 70.3823C103.754 74.9742 100.808 79.6859 97.9918 84.389C97.9649 84.4189 97.9313 84.4422 97.8937 84.4571C97.8561 84.4719 97.8155 84.4779 97.7752 84.4745Z" fill="black"/>
<path d="M102.619 84.5513C102.574 84.5642 102.526 84.5642 102.48 84.5513C102.426 84.5148 102.387 84.4584 102.375 84.3944C102.362 84.3303 102.375 84.2638 102.411 84.2093C106.18 78.6938 109.915 73.0928 113.503 67.4747C113.538 67.4192 113.595 67.3799 113.66 67.3654C113.725 67.351 113.793 67.3626 113.849 67.3978C113.876 67.415 113.899 67.4374 113.917 67.4636C113.935 67.4898 113.948 67.5192 113.954 67.5502C113.961 67.5813 113.961 67.6132 113.955 67.6443C113.949 67.6754 113.936 67.7049 113.918 67.7313C110.322 73.3322 106.588 78.9674 102.818 84.4829C102.793 84.5089 102.762 84.5287 102.727 84.5406C102.692 84.5524 102.655 84.5561 102.619 84.5513Z" fill="black"/>
<path d="M108.764 67.5007C108.721 67.5084 108.677 67.5084 108.634 67.5007C108.58 67.4657 108.541 67.4115 108.527 67.3494C108.512 67.2873 108.523 67.222 108.556 67.1672L110.124 64.6019C110.141 64.5744 110.162 64.5503 110.188 64.5311C110.214 64.512 110.244 64.498 110.275 64.49C110.306 64.4821 110.339 64.4803 110.371 64.4849C110.403 64.4894 110.434 64.5001 110.462 64.5164C110.49 64.5326 110.514 64.5542 110.534 64.5798C110.553 64.6053 110.567 64.6344 110.575 64.6654C110.583 64.6964 110.585 64.7286 110.581 64.7602C110.576 64.7919 110.565 64.8223 110.549 64.8499L108.98 67.4152C108.953 67.4451 108.92 67.4684 108.882 67.4833C108.845 67.4981 108.804 67.5041 108.764 67.5007Z" fill="black"/>
<path d="M107.446 85.1589C107.4 85.1581 107.355 85.145 107.317 85.1208C107.278 85.0966 107.246 85.0624 107.226 85.0219C107.205 84.9813 107.196 84.936 107.2 84.8908C107.204 84.8456 107.22 84.8023 107.247 84.7656L117.273 71.4172C117.29 71.389 117.313 71.3646 117.341 71.3457C117.369 71.3267 117.4 71.3137 117.433 71.3073C117.466 71.3008 117.5 71.3013 117.532 71.3085C117.565 71.3157 117.596 71.3295 117.623 71.3491C117.65 71.3687 117.673 71.3936 117.69 71.4223C117.706 71.451 117.717 71.4828 117.721 71.5157C117.724 71.5486 117.721 71.582 117.711 71.6136C117.701 71.6452 117.685 71.6744 117.663 71.6994L107.646 85.0563C107.624 85.0885 107.594 85.1148 107.559 85.1328C107.524 85.1507 107.486 85.1597 107.446 85.1589Z" fill="black"/>
<path d="M109.907 89.7421C109.854 89.7422 109.802 89.7241 109.76 89.6908C109.734 89.6729 109.711 89.65 109.694 89.6235C109.677 89.597 109.665 89.5675 109.66 89.5365C109.654 89.5055 109.655 89.4738 109.661 89.443C109.668 89.4123 109.681 89.3832 109.699 89.3573C113.287 84.3549 117.056 79.3953 120.903 74.6066C120.923 74.5809 120.948 74.5593 120.976 74.5431C121.004 74.527 121.035 74.5166 121.068 74.5126C121.1 74.5086 121.133 74.5111 121.164 74.5199C121.195 74.5287 121.225 74.5437 121.25 74.5639C121.273 74.5862 121.291 74.6128 121.304 74.6421C121.316 74.6715 121.323 74.703 121.323 74.7349C121.323 74.7668 121.316 74.7983 121.304 74.8277C121.291 74.857 121.273 74.8836 121.25 74.9059C117.411 79.6946 113.651 84.6457 110.072 89.6395C110.032 89.6929 109.973 89.7295 109.907 89.7421Z" fill="black"/>
<g opacity="0.13">
<path d="M19.2947 50.9886C17.0904 48.2091 14.3956 45.8452 11.34 44.0109C10.1973 43.2513 9.01106 42.5575 7.78726 41.933C6.56804 41.181 5.27284 40.5562 3.92258 40.0688C3.69215 40.002 3.45064 39.9806 3.21184 40.0059C2.97304 40.0312 2.74162 40.1027 2.5308 40.2162C2.31998 40.3298 2.1339 40.4832 1.98317 40.6677C1.83243 40.8522 1.72001 41.0642 1.6523 41.2916C1.58459 41.519 1.56294 41.7573 1.58857 41.993C1.6142 42.2287 1.68659 42.457 1.80166 42.6651C1.91672 42.8731 2.07219 43.0567 2.25917 43.2055C2.44615 43.3542 2.66099 43.4652 2.89142 43.532C5.30901 44.3871 5.93292 44.7719 7.74395 45.5244L8.30718 45.8237C8.18706 46.095 8.16999 46.3999 8.2591 46.6826C8.34822 46.9652 8.53756 47.2068 8.79243 47.3629C10.4154 48.0812 11.8969 49.0771 13.1684 50.3045C13.8183 50.9972 14.4595 51.6983 15.144 52.3568C15.2652 52.522 15.4221 52.6584 15.6035 52.7561C15.785 52.8537 15.9862 52.9101 16.1925 52.9212C16.4353 52.9335 16.6747 52.8608 16.8684 52.7159C16.9158 52.7513 16.9593 52.7914 16.9984 52.8356C17.1717 52.981 17.5963 53.5026 17.6916 53.6052C17.7732 53.7548 17.8888 53.8837 18.0296 53.9815C18.2031 54.1179 18.4078 54.2104 18.6259 54.2509C18.844 54.2913 19.0687 54.2785 19.2807 54.2136C19.4926 54.1487 19.6852 54.0336 19.8417 53.8784C19.9982 53.7231 20.1138 53.5325 20.1785 53.3231C20.4472 52.4765 19.7453 51.6983 19.2947 50.9886Z" fill="black"/>
</g>
<g opacity="0.13">
<path d="M90.2377 42.4376C89.7611 42.5573 89.4492 42.9677 89.0506 43.2243L87.6988 44.2418C85.5585 45.687 83.5135 47.2518 81.4685 48.8167C80.0561 49.8856 79.0422 50.6039 77.1359 52.1003C76.5033 52.5963 75.8794 53.0923 75.2815 53.631C75.0129 53.8875 74.6663 54.1098 74.5537 54.4861C74.4065 54.8239 74.3818 55.2014 74.4836 55.555C74.5855 55.9087 74.8078 56.2169 75.113 56.4278C75.4183 56.6386 75.7878 56.7392 76.1594 56.7126C76.531 56.6861 76.882 56.5339 77.1532 56.2818C79.6921 53.9559 82.4044 51.8096 85.0386 49.5863C87.0662 47.8761 88.0367 47.4229 90.281 45.6613C90.7749 45.1996 91.5201 44.9088 91.8148 44.2675C91.9175 44.0381 91.9525 43.7847 91.916 43.5365C91.8794 43.2883 91.7726 43.0553 91.608 42.8643C91.4433 42.6732 91.2274 42.5318 90.985 42.4564C90.7427 42.3809 90.4837 42.3744 90.2377 42.4376Z" fill="black"/>
</g>
<g opacity="0.13">
<path d="M91.2067 89.4333C91.0594 87.3127 89.5429 87.3297 87.8186 87.3041H87.6886C86.9954 87.21 86.3021 87.2015 85.6089 87.0903H85.5223H85.6956H85.453H85.3923H85.2363C84.1878 86.9535 84.2658 86.9535 83.9539 86.9107C83.7433 86.8593 83.5232 86.8593 83.3126 86.9107H83.1047C82.7988 86.8447 82.4813 86.853 82.1794 86.935C81.8775 87.0169 81.6003 87.17 81.3716 87.3811L80.5051 87.0818C80.3417 87.0315 80.1694 87.0154 79.9993 87.0345C79.8292 87.0537 79.665 87.1076 79.5173 87.1929C79.3014 87.3184 79.1268 87.5027 79.0146 87.7237C78.9024 87.9448 78.8573 88.1931 78.8848 88.4389C78.9123 88.6846 79.0111 88.9173 79.1694 89.1089C79.3278 89.3005 79.5388 89.4428 79.7773 89.5188C83.0727 90.5092 86.1877 92.0101 89.0057 93.9654C89.2135 94.0934 89.4498 94.1694 89.6941 94.1869C89.9384 94.2045 90.1833 94.1631 90.4077 94.0663C90.6321 93.9694 90.8293 93.8201 90.9821 93.6312C91.1349 93.4423 91.2387 93.2195 91.2847 92.982C91.3745 91.7994 91.3484 90.611 91.2067 89.4333Z" fill="black"/>
</g>
<g opacity="0.13">
<path d="M71.2777 59.3948C69.9519 60.515 67.9069 62.3279 67.0751 62.9863C66.2432 63.6448 64.2415 65.0044 62.0492 66.5692C59.597 68.5445 58.5398 69.3655 55.9836 71.2809C54.6145 72.2301 52.6648 73.9916 50.1086 74.3935C48.6796 74.4482 47.2513 74.272 45.8799 73.8719C44.7504 73.5438 43.678 73.0479 42.6998 72.4011C41.1487 71.4947 39.667 70.4771 38.1246 69.545C37.5353 69.1944 36.9548 68.613 36.2096 68.8267C35.9579 68.8974 35.7323 69.0383 35.5597 69.2323C35.3871 69.4264 35.2748 69.6654 35.2364 69.9208C35.198 70.1763 35.235 70.4372 35.3431 70.6723C35.4511 70.9075 35.6256 71.1069 35.8456 71.2467C38.2134 72.8754 40.663 74.3852 43.1851 75.7703C44.6358 76.4243 46.1643 76.8954 47.7343 77.1726C51.7376 78.1731 55.3164 75.8045 58.1759 73.2904C60.8534 71.1355 63.375 68.784 66.0352 66.6376C68.0196 65.0044 69.9692 63.3113 71.8929 61.6181C72.2395 61.2675 72.7594 61.0196 72.9414 60.5663C73.0238 60.351 73.0316 60.1148 72.9638 59.8946C72.8959 59.6744 72.7562 59.4825 72.5664 59.3488C72.3765 59.2151 72.1472 59.1471 71.9141 59.1555C71.681 59.1638 71.4573 59.2479 71.2777 59.3948Z" fill="black"/>
</g>
<g opacity="0.13">
<path d="M58.514 6.26601C55.4552 6.26601 52.4484 6.09499 49.3636 5.8299C47.0699 5.71854 44.7707 5.80438 42.4921 6.08644C41.8595 6.14629 41.2269 6.22325 40.5944 6.30021C40.2711 6.28015 39.9481 6.34282 39.6566 6.48215C39.3652 6.62148 39.1151 6.83274 38.9306 7.09547C38.791 7.33219 38.716 7.60065 38.713 7.87457C38.71 8.14849 38.7792 8.41847 38.9137 8.6581C39.0482 8.89772 39.2434 9.09877 39.4803 9.24156C39.7172 9.38435 39.9876 9.46399 40.2651 9.47268C44.3524 9.03507 48.4729 8.98639 52.5697 9.32731C54.7014 9.32731 56.8243 9.2247 58.956 9.19905C59.7368 9.19765 60.5163 9.13474 61.2869 9.01092C61.5573 8.91076 61.7906 8.73215 61.9561 8.49862C62.1216 8.26508 62.2115 7.98757 62.2141 7.7026C62.1448 5.74439 59.8658 6.27456 58.514 6.26601Z" fill="black"/>
</g>
<g opacity="0.13">
<path d="M92.0899 47.1481C92.09 46.952 92.0451 46.7583 91.9585 46.5816C91.872 46.405 91.7461 46.25 91.5902 46.1282C91.4343 46.0065 91.2524 45.9211 91.0584 45.8786C90.8643 45.836 90.663 45.8374 90.4695 45.8826C90.2223 45.955 89.9994 46.0916 89.8241 46.2781C89.6488 46.4647 89.5276 46.6943 89.473 46.9429C89.2027 47.2258 89.0303 47.5859 88.9805 47.9716C88.9307 48.3572 89.006 48.7485 89.1957 49.0893C89.1004 50.5344 89.0397 51.9881 88.9877 53.4332C88.8491 56.2893 88.6151 59.1368 88.4331 61.9844C88.3725 62.9848 88.3552 63.9939 88.3205 65.0029C88.2687 65.4907 88.3099 65.9837 88.4418 66.4566C88.566 66.7625 88.7935 67.0167 89.0859 67.1759C89.3783 67.3352 89.7175 67.3897 90.046 67.3303C90.3745 67.2709 90.672 67.1012 90.8882 66.85C91.1044 66.5988 91.2258 66.2816 91.232 65.9521C91.1222 62.3176 91.2293 58.68 91.5526 55.0579C91.6566 53.2195 91.6653 51.381 91.7866 49.5425C92.1277 49.2507 92.3475 48.8447 92.4035 48.4027C92.4595 47.9607 92.3478 47.5138 92.0899 47.1481Z" fill="black"/>
</g>
</g>
<defs>
<clipPath id="clip0_501_31516">
<rect width="127.5" height="97.5" fill="white" transform="translate(0.5 0.161133)"/>
</clipPath>
</defs>
</svg>
