<svg width="76" height="87" viewBox="0 0 76 87" fill="none" xmlns="http://www.w3.org/2000/svg">
<path fill-rule="evenodd" clip-rule="evenodd" d="M18.0318 86.1634C33.6982 82.5673 49.2396 78.2833 64.5307 73.3426C65.375 73.0612 65.0311 71.7165 64.1555 71.998C48.8643 76.9699 33.3542 81.254 17.6565 84.8188C16.781 85.0064 17.1562 86.351 18.0318 86.1634Z" fill="#141414"/>
<path fill-rule="evenodd" clip-rule="evenodd" d="M12.4345 65.9628C13.0599 67.8703 14.8735 69.1211 16.9061 68.8397C17.1875 68.8084 17.5315 68.652 17.5941 68.3081C17.7504 67.495 17.938 66.3693 18.5947 65.7752C19.5954 64.8371 20.5022 65.525 21.3778 66.2442C22.4097 67.0885 23.3165 67.9016 24.6924 67.9641C24.9739 67.9641 25.3178 67.7452 25.3804 67.4325C25.5055 66.4318 25.6305 65.3061 26.1934 64.4618C27.3504 62.7732 28.7576 63.7113 29.7269 64.8996C30.5087 65.869 31.5406 66.9634 32.9165 66.7445C34.4488 66.5257 34.6364 65.0872 35.3556 64.024C35.9185 63.2423 36.7628 62.867 37.7321 63.0234C38.8266 63.211 39.1706 63.9615 39.6709 64.8371C40.2963 65.9315 41.3282 66.4006 42.5478 65.9628C44.1113 65.3999 44.9869 63.0546 46.8005 63.5237C48.9895 64.0866 50.5842 67.026 53.0546 65.6501C53.8364 65.2123 53.1484 63.9928 52.3354 64.4305C51.0533 65.1498 49.4272 63.3361 48.3953 62.7419C47.3634 62.1478 46.2377 61.8038 45.0807 62.3042C44.3302 62.6169 43.8299 63.2423 43.2357 63.8051C42.579 64.4305 41.9224 65.2123 40.8592 64.1804C40.5777 63.9302 40.4839 63.3674 40.265 63.0546C39.5458 62.0853 38.3888 61.6162 37.2005 61.6162C36.0123 61.6162 34.8865 62.1791 34.1986 63.1797C33.667 63.9928 33.4168 65.869 31.8533 65.1498C31.009 64.7745 30.54 63.6175 29.8833 62.9921C28.8514 62.0227 27.4442 61.7726 26.1934 62.5231C24.5986 63.4924 24.2234 65.3686 23.9732 67.0572C24.1921 66.8696 24.411 66.7133 24.6611 66.5257C22.6286 66.4318 21.6592 63.7739 19.4703 63.8677C17.3752 63.9615 16.5934 66.1817 16.2182 67.9015C16.4371 67.7139 16.656 67.5576 16.9061 67.37C15.499 67.5576 14.2794 66.9009 13.8104 65.525C13.4977 64.7432 12.153 65.1185 12.4345 65.9628Z" fill="#141414"/>
<path fill-rule="evenodd" clip-rule="evenodd" d="M1.27084 45.9811C5.42979 46.7003 9.58874 46.8254 13.779 46.325C14.6545 46.2312 14.6858 44.8241 13.779 44.9179C9.74509 45.4182 5.67995 45.3244 1.64608 44.6364C0.739244 44.4488 0.364001 45.8247 1.27084 45.9811Z" fill="#141414"/>
<path fill-rule="evenodd" clip-rule="evenodd" d="M42.0473 44.9802C51.1782 45.1053 60.3405 45.1991 69.4714 45.3242C70.3782 45.3242 70.3782 43.917 69.4714 43.917C60.3405 43.7919 51.1782 43.6981 42.0473 43.573C41.1405 43.5418 41.1405 44.9489 42.0473 44.9802Z" fill="#141414"/>
<path fill-rule="evenodd" clip-rule="evenodd" d="M24.4107 23.5288C23.6602 21.1835 26.6934 20.9021 28.0381 21.9027C29.0075 22.6219 29.3514 23.6851 30.1019 24.5607C31.5403 26.218 32.6661 24.5607 33.6355 23.435C34.4172 22.5281 35.668 21.3086 36.9814 21.8089C38.1071 22.2467 38.1071 23.56 38.5136 24.4982C39.139 25.9679 40.5462 26.562 42.0159 25.9053C43.9859 25.0297 45.7371 20.9959 47.8322 23.904C48.8641 25.3112 49.4582 27.2812 51.3345 27.8128C52.0537 28.0317 52.7729 27.9066 53.3983 27.5001C53.7735 27.2499 54.055 26.906 54.3364 26.562C54.9931 25.8428 55.6185 25.749 56.5566 26.2493C57.4009 26.7183 57.8387 28.0942 58.5266 28.7822C59.1833 29.4389 59.8712 29.7828 60.7781 29.8454C61.6849 29.9079 61.6849 28.5008 60.7781 28.4382C58.8706 28.3131 58.2452 25.2174 56.4315 24.4982C55.8374 24.248 55.1807 24.2167 54.5866 24.4669C53.8048 24.7796 53.5546 25.5301 52.898 25.9679C50.6152 27.5001 49.5833 23.6226 48.3638 22.3718C47.3631 21.3399 45.956 21.0271 44.6739 21.7464C43.3918 22.4343 40.7964 26.4682 39.7019 23.8727C39.139 22.5281 39.0452 21.0897 37.4817 20.5268C36.1058 20.0265 34.6048 20.5581 33.5104 21.4649C32.8537 22.0278 32.2908 23.2786 31.4153 23.3724C30.7273 23.4662 30.7586 23.0597 30.3833 22.5281C30.1332 22.1529 29.8517 21.7776 29.5703 21.4649C28.382 20.2141 26.5996 19.4011 24.911 20.089C23.3788 20.7144 22.4407 22.3092 22.941 23.9353C23.3475 24.7483 24.6921 24.3731 24.4107 23.5288Z" fill="#141414"/>
<path fill-rule="evenodd" clip-rule="evenodd" d="M35.4804 1.42078C38.9827 1.20189 41.7658 3.51589 44.455 5.39211C47.5195 7.51849 50.8341 9.20709 54.0863 10.9895C60.9657 14.7107 67.8139 18.4631 74.6934 22.1843C75.4752 22.6221 76.1944 21.4025 75.4126 20.9647C68.1892 17.0247 60.9657 13.1159 53.711 9.17582C50.4276 7.39341 47.2068 5.611 44.1423 3.45335C41.5469 1.6084 38.7951 -0.174007 35.4804 0.013615C34.5736 0.0761556 34.5736 1.48332 35.4804 1.42078Z" fill="#141414"/>
</svg>
