<svg width="90" height="98" viewBox="0 0 90 98" fill="none" xmlns="http://www.w3.org/2000/svg">
<g clip-path="url(#clip0_501_31596)">
<path d="M8.46544 97.909C8.28553 97.909 8.11301 97.837 7.9858 97.7089C7.85859 97.5808 7.78711 97.407 7.78711 97.2258C7.78711 97.0446 7.85859 96.8708 7.9858 96.7427C8.11301 96.6145 8.28553 96.5425 8.46544 96.5425L78.1568 96.3512V9.55093C78.1568 9.36972 78.2283 9.19592 78.3555 9.06778C78.4827 8.93965 78.6553 8.86768 78.8352 8.86768C79.0151 8.86768 79.1876 8.93965 79.3148 9.06778C79.442 9.19592 79.5135 9.36972 79.5135 9.55093V97.0071C79.5135 97.1847 79.4434 97.355 79.3188 97.4806C79.1941 97.6061 79.025 97.6767 78.8487 97.6767L8.50616 97.868L8.46544 97.909Z" fill="black"/>
<path d="M16.1173 1.07837L0.665039 18.0367V89.4228L69.9494 89.2178V1.07837H16.1173Z" fill="white"/>
<g clip-path="url(#clip1_501_31596)">
<path d="M41.4274 58.1748C28.1334 55.7928 26.3699 71.7658 19.5651 73.0156C19.3334 72.5511 19.4319 71.5466 19.5564 70.9732C20.4526 66.8551 20.9564 67.594 23.1036 64.3948C23.1876 64.2699 24.5818 62.5426 25.0697 61.9532C25.4838 61.4553 28.5257 57.2952 28.7429 57.0179C34.2982 50.1012 31.6386 44.9699 27.7526 49.1664C20.0863 57.4403 26.0615 64.1523 12.6358 74.8736C11.6845 75.6327 11.2574 75.3091 11.269 74.9113C11.4239 69.3054 14.9132 66.5329 12.7661 71.3361C12.6575 71.58 11.4167 73.9722 12.407 73.287C12.7776 73.0301 13.4364 71.2868 13.8548 70.2474C14.9508 67.5243 12.5634 64.5965 10.5697 74.486C10.2425 76.1103 11.1865 76.9116 13.0976 75.1741C13.2424 75.0434 13.3872 74.9084 13.5204 74.7691C15.6675 72.6106 18.8672 69.2676 19.3537 69.0339C19.5086 69.4288 19.1235 70.05 18.8875 71.2635C18.0868 75.3729 20.7595 74.8736 24.2257 70.6103C30.1676 63.3366 31.1087 57.4853 41.4274 58.1748ZM25.1016 54.6141C27.8177 47.8934 30.8538 47.7119 31.1521 48.9327C32.2944 53.5937 24.1547 62.2871 23.2252 63.5761C22.6374 64.3948 17.7292 72.8661 25.103 54.6141H25.1016Z" fill="black"/>
<path d="M46.0157 65.1614C46.7888 64.1555 45.6827 62.5777 44.3391 64.3007C44.2305 64.4645 44.0806 64.5967 43.9047 64.6839C41.733 65.6114 40.4806 68.0326 40.5168 65.7421C40.5168 65.4692 40.1187 65.1876 39.5873 65.5693C38.8923 66.0716 38.7374 66.4403 38.4609 66.1325C37.6486 65.2093 36.3108 66.4345 35.5739 66.8583C35.3307 67.0035 35.196 66.1964 34.7052 66.7756C34.6039 66.8975 33.156 68.2272 32.5841 68.8484C31.7661 69.0313 29.8332 70.7514 29.1093 70.5076C28.5229 70.3087 29.4727 69.8369 29.8506 69.2258C30.285 68.516 29.2903 67.7568 28.5809 68.487C27.8714 69.2171 28.2913 69.7542 27.4371 70.329C25.6649 71.512 24.8556 71.3828 25.2045 71.8357C25.7185 72.5049 26.5076 71.798 27.12 71.3712C28.979 70.0648 28.5577 71.9272 30.2097 70.869C30.5282 70.6643 32.0209 69.7077 32.5812 69.1271C32.7796 69.0763 33.0054 68.8673 33.9103 68.2126C34.5445 67.7539 33.7554 69.0095 34.155 69.2766C34.85 69.7397 35.4161 67.002 37.3316 66.4795C38.4261 66.1819 37.2751 67.5594 37.6617 67.9644C38.2147 68.545 39.0139 66.5854 39.4845 66.658C40.2605 66.7799 38.1293 69.3028 43.0274 65.9032C43.2749 65.7319 43.3039 66.1601 43.3574 66.3793C43.5022 66.944 43.8946 66.9599 44.4071 66.6943C44.7372 67.1196 45.2498 66.6464 45.9071 66.2356C51.6014 62.6444 56.4763 62.5109 59.2416 62.1828C55.3267 61.9274 50.4837 62.8839 46.0157 65.1614ZM44.355 65.8059C43.8251 66.0832 44.4998 64.2252 45.4221 64.5895C45.4221 65.07 44.7734 65.5867 44.355 65.8059Z" fill="black"/>
</g>
<path d="M0.611036 90.0926C0.522073 90.0936 0.433865 90.076 0.352089 90.0407C0.270312 90.0054 0.196768 89.9532 0.136199 89.8876C0.0757788 89.8265 0.0279192 89.754 -0.00467107 89.6743C-0.0372614 89.5946 -0.0539421 89.5092 -0.0537322 89.423V18.0368C-0.0570098 17.9534 -0.0430044 17.8703 -0.0126409 17.7927C0.0177226 17.715 0.0637859 17.6446 0.12264 17.5859L15.5749 0.627588C15.6364 0.558418 15.7117 0.50316 15.7958 0.46547C15.88 0.42778 15.9712 0.408513 16.0633 0.408943H69.8954C70.0717 0.408943 70.2408 0.479497 70.3655 0.605069C70.4902 0.730641 70.5602 0.900951 70.5602 1.07854V89.1907C70.5602 89.3682 70.4902 89.5386 70.3655 89.6641C70.2408 89.7897 70.0717 89.8602 69.8954 89.8602L0.611036 90.0652V90.0926ZM1.2758 18.2965V88.7397L69.2171 88.5484V1.73445H16.3075L1.2758 18.2965Z" fill="black"/>
<path d="M0.665039 18.0367L16.2937 17.6677L16.1173 1.07837L0.665039 18.0367Z" fill="#FFD42E"/>
<path d="M0.609865 18.7062C0.480537 18.7087 0.353409 18.6723 0.24468 18.6018C0.135951 18.5312 0.0505521 18.4296 -0.000625897 18.3099C-0.0562449 18.1911 -0.0743555 18.058 -0.0525231 17.9285C-0.0306907 17.799 0.0300299 17.6793 0.121468 17.5857L15.5738 0.627381C15.6615 0.52773 15.7774 0.457358 15.9058 0.425625C16.0342 0.393891 16.1692 0.402293 16.2928 0.449729C16.4182 0.500375 16.5261 0.586886 16.6032 0.698588C16.6804 0.810289 16.7234 0.942304 16.7269 1.07833L16.8897 17.654C16.8899 17.8306 16.8221 18.0004 16.7007 18.1277C16.5793 18.2551 16.4137 18.3302 16.2385 18.3372L0.623424 18.7062H0.609865ZM15.5331 2.78646L2.27855 17.326L15.6687 17.0117L15.5331 2.78646Z" fill="black"/>
<path d="M56.8433 14.2105H44.1993C44.1554 14.2027 44.1148 14.1815 44.0833 14.1497C44.0517 14.1179 44.0306 14.0771 44.0229 14.0328C44.0228 13.9735 44.0453 13.9164 44.0856 13.8732C44.126 13.83 44.1812 13.804 44.24 13.8005H56.884C56.9452 13.8005 57.0039 13.825 57.0471 13.8686C57.0904 13.9121 57.1147 13.9712 57.1147 14.0328C57.11 14.0632 57.099 14.0923 57.0825 14.1182C57.0659 14.144 57.0441 14.166 57.0184 14.1828C56.9928 14.1995 56.964 14.2107 56.9338 14.2155C56.9036 14.2202 56.8728 14.2185 56.8433 14.2105Z" fill="black"/>
<path d="M56.8432 18.3511H39.0032C38.9456 18.3511 38.8904 18.3281 38.8497 18.2871C38.809 18.2461 38.7861 18.1905 38.7861 18.1325C38.7861 18.0745 38.809 18.0189 38.8497 17.9779C38.8904 17.9368 38.9456 17.9138 39.0032 17.9138H56.8432C56.9008 17.9138 56.956 17.9368 56.9967 17.9779C57.0374 18.0189 57.0603 18.0745 57.0603 18.1325C57.0603 18.1905 57.0374 18.2461 56.9967 18.2871C56.956 18.3281 56.9008 18.3511 56.8432 18.3511Z" fill="black"/>
</g>
<g clip-path="url(#clip2_501_31596)">
<path d="M51.8306 54.865L76.2803 9.49316L86.0992 14.674L61.6495 60.0459L52.8931 64.1641L51.8306 54.865Z" fill="white"/>
<path d="M52.8934 64.7559C52.7447 64.7566 52.601 64.7027 52.4904 64.6044C52.3798 64.5062 52.3101 64.3708 52.2949 64.2245L51.2324 54.9255C51.2215 54.808 51.2471 54.6901 51.3057 54.5874L75.731 9.21548C75.8064 9.07694 75.9334 8.97295 76.0851 8.92565C76.1567 8.89609 76.2335 8.88086 76.3111 8.88086C76.3886 8.88086 76.4654 8.89609 76.537 8.92565L86.3071 14.1065C86.377 14.1421 86.4389 14.1911 86.4892 14.2508C86.5395 14.3105 86.5772 14.3795 86.6 14.4539C86.6228 14.5282 86.6303 14.6064 86.6219 14.6836C86.6136 14.7609 86.5896 14.8357 86.5514 14.9036L62.1261 60.2754C62.0654 60.3855 61.9715 60.4742 61.8575 60.5291L53.1009 64.6472C53.0389 64.6954 52.9686 64.7322 52.8934 64.7559ZM52.4537 54.9859L53.3941 63.2705L61.2102 59.6475L85.2813 14.964L76.5249 10.3507L52.4537 54.9859Z" fill="black"/>
<path d="M61.4297 60.2389C61.3324 60.2432 61.2356 60.2224 61.1488 60.1786L51.6352 55.1547C51.5649 55.1179 51.5027 55.0677 51.4523 55.007C51.4018 54.9462 51.3642 54.8761 51.3414 54.8008C51.3187 54.7255 51.3113 54.6464 51.3198 54.5682C51.3283 54.4901 51.3525 54.4144 51.3909 54.3456C51.466 54.2084 51.5927 54.1061 51.7437 54.0608C51.8946 54.0156 52.0575 54.0311 52.1969 54.104L61.7106 59.1279C61.7805 59.1634 61.8424 59.2125 61.8927 59.2722C61.9431 59.3318 61.9807 59.4009 62.0035 59.4753C62.0263 59.5496 62.0337 59.6277 62.0253 59.705C62.017 59.7822 61.993 59.857 61.9548 59.9249C61.9075 60.022 61.8327 60.1034 61.7395 60.1591C61.6462 60.2149 61.5386 60.2426 61.4297 60.2389Z" fill="black"/>
<path d="M51.599 67.1591C51.5005 67.1597 51.4037 67.1348 51.3181 67.0867C51.2482 67.0512 51.1863 67.0021 51.136 66.9424C51.0857 66.8827 51.048 66.8137 51.0252 66.7393C51.0024 66.665 50.995 66.5869 51.0033 66.5096C51.0117 66.4323 51.0357 66.3575 51.0738 66.2896L52.4294 63.7656C52.512 63.6435 52.6376 63.5561 52.7817 63.5204C52.9258 63.4847 53.0782 63.5034 53.2092 63.5726C53.3402 63.6419 53.4405 63.7569 53.4905 63.8953C53.5405 64.0336 53.5366 64.1854 53.4797 64.3211L52.1241 66.8451C52.0714 66.9379 51.9954 67.0155 51.9034 67.0705C51.8114 67.1256 51.7065 67.1561 51.599 67.1591Z" fill="black"/>
<path d="M82.1605 1.89459L77.5547 10.4424L84.6143 14.1621L89.2202 5.61429L82.1605 1.89459Z" fill="black"/>
</g>
<defs>
<clipPath id="clip0_501_31596">
<rect width="79.5" height="97.5" fill="white" transform="translate(0 0.409668)"/>
</clipPath>
<clipPath id="clip1_501_31596">
<rect width="48.75" height="28.5" fill="white" transform="translate(10.5 47.6589)"/>
</clipPath>
<clipPath id="clip2_501_31596">
<rect width="38.25" height="65.25" fill="white" transform="translate(51 1.90967)"/>
</clipPath>
</defs>
</svg>
