<svg width="128" height="98" viewBox="0 0 128 98" fill="none" xmlns="http://www.w3.org/2000/svg">
<g clip-path="url(#clip0_501_31707)">
<path d="M88.4602 54.397C88.7884 51.111 86.5955 48.1851 84.6115 45.5593C82.2424 42.7049 80.3894 39.4547 79.1368 35.9564C78.193 32.6552 78.1815 29.155 79.1037 25.8477C80.0258 22.5405 81.8452 19.5567 84.3579 17.2306C86.9295 14.9725 90.058 13.4521 93.415 12.8291C96.772 12.206 100.234 12.5032 103.437 13.6895C105.887 14.5937 108.048 16.1494 109.688 18.1909C111.38 20.7105 112.463 23.5931 112.85 26.6085C113.644 29.806 113.566 33.1594 112.627 36.3165C111.478 38.7607 109.969 41.0167 108.151 43.0085C105.628 46.2419 103.499 49.7682 101.811 53.5118C101.687 53.853 101.494 54.1647 101.245 54.427C100.809 54.7396 100.288 54.9074 99.7528 54.9072C95.9818 55.1866 92.1911 55.0154 88.4602 54.397Z" fill="white"/>
<path d="M24.629 72.4328C23.032 70.1646 21.9548 67.5684 21.475 64.8312C20.9952 62.094 21.1248 59.2838 21.8544 56.6029C23.3634 51.2153 26.6452 46.5021 31.1629 43.2338C33.8048 41.2071 36.8623 39.7975 40.1134 39.1076C43.3648 38.4221 46.75 38.828 49.7501 40.2629C52.9369 42.1124 55.6535 44.6806 57.6862 47.7652C58.8818 49.3054 59.9732 50.9245 60.9532 52.6117C61.9825 54.4423 62.803 56.4079 63.6533 58.2234C63.1697 57.1142 62.9201 55.9161 62.9201 54.7049C62.9201 53.4936 63.1697 52.2956 63.6533 51.1863C64.6243 48.9587 66.1192 47.0019 68.0092 45.4845C70.5537 43.2662 73.6457 41.7786 76.9597 41.1782C78.0914 40.9101 79.2774 40.9938 80.3609 41.4183C81.3536 41.9789 82.1978 42.7714 82.8223 43.729C85.2687 46.8949 87.8196 50.271 88.5804 54.2322C87.8644 54.3222 87.7003 55.2825 87.7152 56.0028L87.8942 64.3753C87.8162 66.107 88.0851 67.8368 88.6849 69.4619C89.0641 70.2768 89.6093 71.0023 90.2851 71.5917C90.961 72.181 91.7524 72.621 92.6082 72.883C93.444 73.116 94.3067 73.2371 95.174 73.2431C96.989 73.4348 98.8157 73.0124 100.365 72.0427C101.48 71.167 102.281 69.9504 102.648 68.5766C103.022 67.1662 103.272 65.7251 103.394 64.2703C107 62.3949 111.161 61.9043 115.101 62.8901C119.04 63.8759 122.488 66.2706 124.8 69.627C125.577 70.7208 126.153 71.9454 126.501 73.2431C126.767 74.6264 126.847 76.0395 126.739 77.4444C126.786 80.0479 126.372 82.6392 125.516 85.0967C123.801 89.283 119.848 92.0739 115.76 94.3546C110.76 96.1941 105.465 97.0893 100.142 96.9954C100.142 96.9954 16.6034 95.825 16.499 95.72C13.6485 96.216 10.7167 95.6219 8.27944 94.0545C5.86938 92.4857 3.90577 90.3141 2.58094 87.7525C2.19625 87.0639 1.87661 86.3405 1.62622 85.5919C1.09547 83.7735 1.04756 81.847 1.48727 80.0042C1.92697 78.1614 2.83894 76.4666 4.13237 75.0886C6.75535 72.3645 10.3157 70.7538 14.0823 70.5873C17.682 70.5299 21.2601 71.156 24.629 72.4328Z" fill="white"/>
<path d="M8.29432 89.4928C8.25981 89.493 8.22597 89.4833 8.19686 89.4646C8.16774 89.446 8.1446 89.4193 8.13023 89.3878L5.62409 82.7407C5.60943 82.6969 5.6121 82.6491 5.63154 82.6072C5.65098 82.5653 5.6857 82.5325 5.72851 82.5156C5.74907 82.5086 5.77082 82.5057 5.79249 82.5072C5.81416 82.5087 5.83532 82.5145 5.85475 82.5243C5.87417 82.534 5.89148 82.5476 5.90566 82.5641C5.91984 82.5807 5.93061 82.5999 5.93735 82.6207L8.42858 89.2677C8.43819 89.2872 8.44348 89.3085 8.44408 89.3302C8.44469 89.352 8.44059 89.3736 8.43208 89.3936C8.42357 89.4135 8.41084 89.4314 8.39478 89.446C8.37872 89.4605 8.35972 89.4714 8.33907 89.4778L8.29432 89.4928Z" fill="black"/>
<path d="M12.2031 92.6886C12.1669 92.6876 12.1318 92.6756 12.1025 92.6542C12.0732 92.6328 12.0511 92.6029 12.039 92.5685L9.62237 86.4766C9.61264 86.4561 9.60725 86.4337 9.60653 86.411C9.60581 86.3882 9.60978 86.3656 9.61818 86.3444C9.62659 86.3233 9.63925 86.3041 9.65538 86.2882C9.6715 86.2722 9.69074 86.2597 9.71188 86.2516C9.75545 86.2368 9.80299 86.2395 9.84464 86.2591C9.8863 86.2786 9.91888 86.3135 9.93564 86.3566L12.3523 92.4485C12.362 92.469 12.3674 92.4914 12.3681 92.5142C12.3688 92.5369 12.3649 92.5596 12.3565 92.5807C12.3481 92.6019 12.3354 92.621 12.3193 92.637C12.3031 92.653 12.2839 92.6654 12.2628 92.6736L12.2031 92.6886Z" fill="black"/>
<path d="M14.2907 92.3436C14.2575 92.3472 14.224 92.3405 14.1946 92.3244C14.1653 92.3083 14.1416 92.2836 14.1266 92.2536L13.0376 89.9729C13.0199 89.9305 13.0176 89.8831 13.0313 89.8391C13.0449 89.7952 13.0736 89.7575 13.1122 89.7328C13.1326 89.723 13.1549 89.7176 13.1775 89.7169C13.2001 89.7162 13.2226 89.7201 13.2436 89.7286C13.2647 89.7371 13.2837 89.7498 13.2996 89.766C13.3155 89.7822 13.3279 89.8016 13.336 89.8228L14.4398 92.0886C14.45 92.1082 14.4562 92.1297 14.4579 92.1517C14.4596 92.1738 14.4569 92.196 14.45 92.217C14.443 92.238 14.4319 92.2574 14.4174 92.274C14.4028 92.2906 14.3851 92.304 14.3653 92.3136L14.2907 92.3436Z" fill="black"/>
<path d="M27.5383 72.1623C27.504 72.1605 27.4713 72.1479 27.4445 72.1264C27.4178 72.1049 27.3984 72.0755 27.3891 72.0423C26.2585 68.633 25.4933 65.1119 25.1067 61.5391C25.1046 61.5174 25.1069 61.4955 25.1133 61.4747C25.1197 61.4538 25.1301 61.4345 25.144 61.4178C25.1579 61.401 25.1749 61.3872 25.1941 61.3771C25.2133 61.367 25.2343 61.3609 25.2559 61.359C25.3011 61.3546 25.3463 61.3677 25.3823 61.3955C25.4183 61.4234 25.4424 61.464 25.4498 61.5091C25.8227 65.0815 26.5779 68.6029 27.7023 72.0123C27.7093 72.033 27.7122 72.0548 27.7107 72.0766C27.7092 72.0984 27.7035 72.1197 27.6938 72.1393C27.684 72.1588 27.6706 72.1762 27.6541 72.1905C27.6377 72.2047 27.6186 72.2156 27.5979 72.2223L27.5383 72.1623Z" fill="black"/>
<path d="M30.8044 72.2222C30.7699 72.2225 30.736 72.2127 30.7069 72.194C30.6778 72.1754 30.6547 72.1487 30.6403 72.1172C29.7455 69.9482 29.2064 67.6476 29.0441 65.3051C29.0421 65.2822 29.0448 65.2591 29.0521 65.2373C29.0594 65.2155 29.0711 65.1955 29.0866 65.1785C29.102 65.1616 29.1208 65.1481 29.1418 65.1388C29.1627 65.1296 29.1854 65.1249 29.2082 65.125C29.2298 65.1229 29.2516 65.1252 29.2722 65.1316C29.2929 65.1381 29.3122 65.1486 29.3288 65.1625C29.3455 65.1765 29.3592 65.1936 29.3692 65.2129C29.3792 65.2322 29.3854 65.2533 29.3872 65.275C29.5324 67.5721 30.041 69.8312 30.8939 71.9671C30.9035 71.9866 30.9088 72.0079 30.9094 72.0296C30.91 72.0514 30.9059 72.073 30.8974 72.0929C30.8889 72.1129 30.8762 72.1308 30.8601 72.1454C30.8441 72.1599 30.825 72.1707 30.8044 72.1772V72.2222Z" fill="black"/>
<path d="M34.236 73.1077C34.2036 73.107 34.1721 73.0967 34.1456 73.078C34.119 73.0593 34.0986 73.0331 34.0868 73.0027L32.7442 69.1765C32.7297 69.1538 32.7205 69.1281 32.7172 69.1013C32.7139 69.0745 32.7166 69.0472 32.7252 69.0216C32.7338 68.996 32.748 68.9727 32.7668 68.9534C32.7856 68.9341 32.8084 68.9192 32.8337 68.91C32.8589 68.9008 32.8859 68.8974 32.9126 68.9001C32.9393 68.9027 32.9651 68.9114 32.9881 68.9255C33.011 68.9396 33.0305 68.9587 33.0451 68.9813C33.0597 69.004 33.069 69.0297 33.0724 69.0565L34.4001 72.8827C34.4147 72.9265 34.4121 72.9743 34.3926 73.0162C34.3732 73.0581 34.3385 73.0909 34.2956 73.1077H34.236Z" fill="black"/>
<path d="M67.7262 57.5779C67.6881 57.5759 67.6516 57.5617 67.6221 57.5374C67.5926 57.5132 67.5716 57.48 67.5621 57.4429C66.9972 55.2802 66.7559 53.045 66.8461 50.8108C66.8498 50.7657 66.8703 50.7237 66.9035 50.6931C66.9366 50.6625 66.9801 50.6456 67.0251 50.6458C67.0479 50.6457 67.0706 50.6504 67.0915 50.6596C67.1125 50.6688 67.1313 50.6823 67.1467 50.6993C67.1622 50.7162 67.1739 50.7362 67.1812 50.758C67.1885 50.7798 67.1912 50.8029 67.1892 50.8258C67.1005 53.0244 67.3368 55.224 67.8903 57.3528C67.897 57.3745 67.8993 57.3973 67.8968 57.4199C67.8944 57.4425 67.8874 57.4643 67.8762 57.484C67.865 57.5037 67.8498 57.5209 67.8317 57.5345C67.8136 57.5481 67.7929 57.5577 67.7709 57.5629L67.7262 57.5779Z" fill="black"/>
<path d="M71.261 58.0732C71.2281 58.0748 71.1956 58.0653 71.1686 58.0463C71.1416 58.0273 71.1216 57.9998 71.1118 57.9682C70.5589 56.4216 70.1884 54.8152 70.0079 53.1817C70.0067 53.1369 70.0209 53.0931 70.048 53.0576C70.0752 53.022 70.1137 52.997 70.1571 52.9867C70.2023 52.9823 70.2475 52.9953 70.2835 53.0232C70.3195 53.051 70.3436 53.0916 70.351 53.1367C70.5134 54.7459 70.8742 56.3285 71.4251 57.8482C71.4397 57.892 71.437 57.9398 71.4176 57.9817C71.3982 58.0236 71.3634 58.0564 71.3206 58.0732H71.261Z" fill="black"/>
<path d="M74.2593 58.1932C74.2269 58.1925 74.1955 58.1821 74.1689 58.1634C74.1424 58.1447 74.1219 58.1185 74.1102 58.0882L73.1704 55.0872C73.1634 55.0666 73.1605 55.0447 73.162 55.0229C73.1635 55.0011 73.1692 54.9798 73.1789 54.9603C73.1887 54.9407 73.2021 54.9233 73.2186 54.909C73.235 54.8948 73.2541 54.884 73.2748 54.8772C73.2963 54.8704 73.319 54.8681 73.3415 54.8706C73.3639 54.873 73.3856 54.8801 73.4052 54.8914C73.4248 54.9026 73.4419 54.9179 73.4554 54.9361C73.4689 54.9543 73.4785 54.9751 73.4836 54.9972L74.4234 57.9981C74.4304 58.0188 74.4333 58.0407 74.4318 58.0625C74.4303 58.0843 74.4246 58.1056 74.4149 58.1251C74.4051 58.1447 74.3917 58.1621 74.3752 58.1763C74.3588 58.1906 74.3397 58.2014 74.319 58.2082L74.2593 58.1932Z" fill="black"/>
<path d="M116.52 91.2781C116.486 91.2895 116.45 91.2895 116.416 91.2781C116.399 91.2626 116.387 91.244 116.378 91.2234C116.369 91.2028 116.364 91.1805 116.364 91.158C116.364 91.1356 116.369 91.1133 116.378 91.0927C116.387 91.0721 116.399 91.0534 116.416 91.038C118.574 88.5712 120.155 85.6485 121.04 82.4854C121.054 82.4428 121.083 82.407 121.122 82.3848C121.16 82.3626 121.206 82.3557 121.249 82.3653C121.291 82.3792 121.327 82.4084 121.349 82.4472C121.371 82.486 121.378 82.5317 121.368 82.5754C120.462 85.7859 118.857 88.7534 116.669 91.2631C116.622 91.2822 116.57 91.2874 116.52 91.2781Z" fill="black"/>
<path d="M113 91.1883C112.984 91.1953 112.966 91.1989 112.948 91.1989C112.93 91.1989 112.912 91.1953 112.896 91.1883C112.879 91.1729 112.867 91.1542 112.858 91.1336C112.849 91.113 112.844 91.0907 112.844 91.0682C112.844 91.0458 112.849 91.0235 112.858 91.0029C112.867 90.9822 112.879 90.9636 112.896 90.9482C114.303 89.3724 115.474 87.5981 116.371 85.6816C116.393 85.6439 116.428 85.6156 116.469 85.6018C116.511 85.588 116.555 85.5897 116.595 85.6066C116.616 85.6147 116.636 85.6271 116.652 85.6431C116.668 85.6591 116.681 85.6783 116.689 85.6994C116.697 85.7205 116.701 85.7432 116.701 85.766C116.7 85.7887 116.694 85.8111 116.685 85.8316C115.771 87.7757 114.58 89.5752 113.149 91.1733C113.127 91.1865 113.102 91.1947 113.076 91.1973C113.051 91.1998 113.025 91.1968 113 91.1883Z" fill="black"/>
<path d="M109.152 91.7138H109.062C109.034 91.6832 109.018 91.643 109.018 91.6013C109.018 91.5595 109.034 91.5193 109.062 91.4887L111.3 87.8276C111.333 87.7981 111.375 87.7817 111.419 87.7817C111.463 87.7817 111.506 87.7981 111.538 87.8276C111.555 87.843 111.568 87.8616 111.576 87.8823C111.585 87.9029 111.59 87.9251 111.59 87.9476C111.59 87.9701 111.585 87.9923 111.576 88.013C111.568 88.0336 111.555 88.0522 111.538 88.0677L109.316 91.7288C109.289 91.7397 109.26 91.744 109.232 91.7414C109.203 91.7388 109.176 91.7293 109.152 91.7138Z" fill="black"/>
<path d="M88.0131 54.7574C92.9794 55.1891 97.9759 55.1288 102.931 54.5774C103.497 58.793 103.351 63.0747 102.498 67.2413C102.102 69.2971 100.918 71.1136 99.2012 72.2978C97.068 73.4982 94.4127 72.943 92.0557 72.2978C91.1182 72.121 90.2316 71.7366 89.4601 71.1725C87.9683 69.9271 87.849 67.7064 87.8639 65.7558C87.9534 61.9897 87.9683 58.1935 88.0131 54.7574Z" fill="#FFD803"/>
<g opacity="0.13">
<path d="M114.222 28.934C114.125 28.822 114.002 28.7356 113.864 28.6823C113.725 28.6289 113.576 28.6104 113.429 28.6281C113.282 28.6458 113.142 28.6994 113.02 28.784C112.898 28.8687 112.799 28.982 112.731 29.1141C112.581 29.4171 112.505 29.7511 112.507 30.0893C112.514 30.1843 112.514 30.2795 112.507 30.3744C112.507 30.6595 112.268 31.6048 112.209 31.8749C112.328 31.5898 112.313 31.6048 112.209 31.8749C111.795 33.2326 111.234 34.5408 110.538 35.7761C110.172 36.6462 109.701 37.4677 109.136 38.2218C108.196 39.5422 105.6 42.033 104.108 44.2237C103.676 44.8239 102.706 46.2193 102.617 46.4594C102.05 47.1711 101.55 47.9347 101.125 48.7401C100.304 50.4056 100.379 50.3756 99.8569 51.576C99.4608 52.4062 99.2134 53.3001 99.126 54.2168C99.1321 54.2816 99.1321 54.347 99.126 54.4118C98.9784 54.6709 98.8838 54.957 98.848 55.2534C98.8121 55.5497 98.8356 55.8503 98.9171 56.1374C99.4118 58.2547 99.5579 60.4394 99.3497 62.6043C99.4695 64.7732 99.2377 66.9473 98.6635 69.0413C98.494 69.6907 98.2328 70.3122 97.8878 70.8869C97.6856 71.1832 97.5529 71.5218 97.4999 71.8772C97.4599 72.2238 97.5331 72.5741 97.7086 72.875C97.8841 73.176 98.1523 73.4112 98.4726 73.5452C98.7929 73.6791 99.1479 73.7045 99.4838 73.6174C99.8197 73.5303 100.118 73.3355 100.334 73.0626C101.577 71.4255 102.393 69.5014 102.706 67.4659C103.109 64.9451 103.198 62.7094 103.601 59.9635C103.743 58.7523 103.743 57.5286 103.601 56.3174C103.608 55.5231 103.38 54.7447 102.945 54.0817H102.527L101.796 54.1718C102.5 51.233 103.767 48.4604 105.526 46.0092C106.764 44.5088 108.136 43.0083 109.434 41.5079C110.692 40.1987 111.761 38.7189 112.611 37.1115C113.074 35.9862 112.999 36.0912 113.298 35.281C113.298 35.1459 113.298 35.2809 113.298 35.416C113.477 35.0109 113.626 34.6057 113.79 34.2006C114.017 33.5641 114.177 32.9052 114.267 32.235C114.342 31.0346 114.834 29.6392 114.222 28.934Z" fill="black"/>
</g>
<g opacity="0.13">
<path d="M99.6934 51.7707L99.7834 51.5456V51.4556L99.6934 51.7707Z" fill="black"/>
</g>
<g opacity="0.13">
<path d="M124.293 86.3877C124.621 85.9525 124.949 85.5324 125.263 85.0973C125.844 84.227 126.366 83.3417 126.859 82.4265C127.008 81.8863 127.187 81.3611 127.351 80.791C127.429 80.5372 127.479 80.2755 127.5 80.0107C127.5 79.3055 127.5 78.6003 127.381 77.9101C127.233 76.3982 127.004 74.8956 126.695 73.4087C126.471 74.0239 126.292 74.519 126.172 74.7891C125.638 75.9368 125.04 77.0539 124.382 78.1351C123.602 79.7673 122.7 81.3373 121.682 82.8316C120.014 84.9127 118.145 86.8225 116.103 88.5333C114.242 89.8749 112.276 91.0641 110.226 92.0894C107.943 92.5846 106.153 92.8847 105.571 92.9297C103.588 93.1375 101.588 93.1375 99.6044 92.9297C96.8745 92.7946 97.7099 92.7946 95.1291 92.5696C90.1675 92.1639 85.1866 92.0487 80.2116 92.2245C74.2446 92.2245 68.2776 92.3295 62.1912 92.2245C57.6265 92.2245 53.0766 91.8794 48.5268 91.8944C44.4991 91.8944 40.4863 92.2245 36.4734 92.3595C33.0723 92.4795 29.6711 92.3595 26.2699 92.3595C23.7637 92.3595 21.2725 92.6746 18.8111 92.8547C16.3497 93.0347 13.8734 93.0947 11.3524 93.2748C10.5171 93.1148 9.6945 92.8942 8.89096 92.6146C7.37443 91.939 5.91728 91.1359 4.53505 90.2139C3.93835 89.8387 3.31181 89.4786 2.7002 89.1335C2.83445 89.3136 2.96871 89.4786 3.08805 89.6587C3.56841 90.4688 4.17826 91.1938 4.89307 91.8043C5.21723 91.9811 5.50048 92.2249 5.72418 92.5197C5.94787 92.8146 6.10694 93.1537 6.19089 93.5149C7.00466 94.1264 7.85126 94.6924 8.72687 95.2104C9.89645 95.1782 11.0669 95.2132 12.2325 95.3154C14.2016 95.4955 16.1707 95.8406 18.1249 96.2007L19.6167 96.4858C20.6609 96.4858 21.7051 96.3808 22.7195 96.3808H25.703C27.1948 96.3808 28.6865 96.3808 30.1783 96.3808C34.1314 96.5308 38.0845 96.2907 42.0228 96.1857C49.1981 96.3207 56.3734 96.7409 63.5338 97.206C71.3655 97.7012 79.2121 97.6261 87.0438 97.3861C87.8195 97.3861 88.5356 97.3861 89.3411 97.3861C89.6851 97.2603 90.0492 97.1993 90.4152 97.206C92.8766 97.206 95.2932 96.8459 97.7546 96.7859C100.216 96.7258 102.424 97.4911 104.781 96.6508C107.409 95.8135 110.14 95.3489 112.896 95.2704C113.406 94.7782 114.083 94.4993 114.79 94.4902C115.686 94.4369 116.568 94.2393 117.401 93.905C119.768 92.5705 121.855 90.787 123.547 88.6534C124.556 87.3458 125.421 85.9321 126.128 84.4371L125.248 85.2473L124.293 86.3877Z" fill="black"/>
</g>
<path d="M96.0836 73.8432C95.4944 73.8395 94.9062 73.7944 94.3233 73.7082C92.8315 73.4831 89.1171 72.6279 87.9088 69.5219C87.542 68.4311 87.3802 67.2812 87.4314 66.1309L87.2524 54.5323C87.2493 54.4592 87.2624 54.3864 87.2907 54.319C87.319 54.2516 87.3618 54.1913 87.416 54.1425C87.4702 54.0937 87.5345 54.0576 87.6042 54.0368C87.6739 54.016 87.7474 54.011 87.8193 54.0221C92.8717 54.3292 97.9379 54.3292 102.99 54.0221C103.06 54.0151 103.13 54.0221 103.196 54.0427C103.263 54.0633 103.325 54.0971 103.378 54.1422C103.48 54.2299 103.544 54.3535 103.557 54.4873C103.956 58.7037 103.821 62.9541 103.154 67.1362C103.038 68.687 102.524 70.1809 101.663 71.4725C100.975 72.2707 100.115 72.8995 99.1472 73.3105C98.18 73.7215 97.1319 73.9038 96.0836 73.8432ZM88.2817 55.0875L88.4458 66.1009C88.4015 67.1173 88.5379 68.1335 88.8486 69.1018C89.863 71.7126 93.115 72.4478 94.4725 72.6579C95.83 72.868 99.1566 73.078 100.872 70.8723C101.622 69.7135 102.063 68.3806 102.155 67.0011C102.785 63.0679 102.93 59.0715 102.588 55.1025C97.8221 55.3521 93.0467 55.3471 88.2817 55.0875Z" fill="black"/>
<path d="M102.036 55.0274C101.903 55.0053 101.785 54.9313 101.707 54.8216C101.628 54.7119 101.596 54.5755 101.618 54.4422C102.23 50.2259 104.974 46.9399 107.585 43.6089C110.031 40.6079 112.582 37.487 113.328 33.7808C113.796 30.074 113.377 26.3083 112.105 22.7974C111.239 20.1283 109.597 17.7816 107.391 16.0604C103.632 13.3596 97.1725 11.454 92.1304 13.0595C87.6481 14.3484 83.7476 17.1583 81.0915 21.0119C78.9282 24.463 78.0263 28.5637 78.5406 32.6105C79.0684 36.6589 80.7291 40.4732 83.3291 43.6089C83.6871 44.059 84.075 44.5091 84.4628 44.9443C85.3036 45.8842 86.0716 46.8874 86.7601 47.9452C87.9795 49.8684 88.6598 52.0872 88.7292 54.3672C88.7333 54.4347 88.7236 54.5023 88.7007 54.5659C88.6778 54.6295 88.6421 54.6877 88.596 54.7369C88.5499 54.7861 88.4942 54.8252 88.4325 54.852C88.3707 54.8787 88.3042 54.8924 88.2369 54.8923C88.1703 54.8943 88.104 54.8831 88.0417 54.8593C87.9794 54.8355 87.9224 54.7996 87.8739 54.7536C87.8254 54.7076 87.7864 54.6524 87.7591 54.5913C87.7318 54.5301 87.7168 54.4642 87.7148 54.3972C87.6867 52.2924 87.094 50.2344 85.9993 48.4404C85.3274 47.4511 84.5898 46.5087 83.7915 45.6195C83.4037 45.1693 83.0009 44.7192 82.628 44.2391C79.9049 40.9592 78.1664 36.9675 77.6157 32.7305C77.0628 28.463 78.0015 24.1349 80.271 20.4867C83.0549 16.4276 87.1507 13.4638 91.8619 12.0992C97.2173 10.3886 104.035 12.3692 108.018 15.2351C110.39 17.0741 112.158 19.589 113.09 22.4523C114.411 26.144 114.846 30.098 114.358 33.9909C113.552 37.9521 110.926 41.1481 108.391 44.2541C105.855 47.36 103.154 50.661 102.588 54.5922C102.569 54.7223 102.501 54.8401 102.398 54.9212C102.296 55.0023 102.166 55.0403 102.036 55.0274Z" fill="black"/>
<path d="M97.9334 54.8469C97.7989 54.8469 97.6698 54.7932 97.5747 54.6975C97.4796 54.6018 97.4262 54.472 97.4262 54.3367C97.4262 50.3605 97.5455 46.2042 97.814 41.9729C97.8633 40.2766 98.0984 38.5909 98.5152 36.9464C97.3447 36.6125 96.3037 35.9266 95.5317 34.9808L95.3526 34.7407L95.0095 35.3859C94.0548 37.1114 92.9957 38.0117 91.7426 38.1318C91.4509 38.1769 91.1541 38.1769 90.8625 38.1318C91.1608 39.2121 91.3995 40.2774 91.5934 41.2977C92.4282 45.5869 92.8181 49.9516 92.757 54.3217C92.7531 54.4544 92.698 54.5804 92.6033 54.6728C92.5086 54.7653 92.3818 54.817 92.2498 54.8169C92.1153 54.8169 91.9863 54.7631 91.8912 54.6675C91.796 54.5718 91.7426 54.442 91.7426 54.3067C91.8013 50.007 91.4163 45.7127 90.594 41.4928C90.3704 40.2291 90.0664 38.9812 89.684 37.7566L89.2514 37.5616C87.3242 36.7875 85.6647 35.4626 84.4778 33.7504C84.2401 33.4238 84.0998 33.0358 84.0734 32.6319C84.047 32.228 84.1355 31.8248 84.3286 31.4697C84.557 31.1717 84.8746 30.9555 85.2345 30.8528C85.5944 30.7502 85.9776 30.7666 86.3275 30.8995C86.9182 31.1296 87.4343 31.519 87.8193 32.0249C89.033 33.484 89.9549 35.1654 90.5343 36.9764C90.8978 37.1271 91.2904 37.1938 91.6829 37.1715C92.578 37.0814 93.3835 36.3462 94.1592 34.9358C94.383 34.5457 94.5769 34.1555 94.7709 33.7504C94.1106 32.3389 93.7402 30.8079 93.6819 29.249C93.4454 27.4956 93.7915 25.7126 94.6664 24.1775C94.7855 23.9365 94.9798 23.7415 95.2196 23.6223C95.4594 23.5031 95.7315 23.4662 95.9941 23.5173C96.2885 23.6242 96.5365 23.8312 96.6952 24.1025C97.4534 25.5813 97.6648 27.2829 97.2919 28.9039C97.0281 30.5558 96.5621 32.1686 95.9046 33.7054C96.0449 33.9446 96.1993 34.1751 96.367 34.3956C97.0222 35.1563 97.8906 35.7002 98.8583 35.9561C99.6084 34.0814 100.877 32.4621 102.513 31.2897C102.68 31.1434 102.874 31.0322 103.084 30.9626C103.294 30.893 103.516 30.8665 103.736 30.8845C103.924 30.9063 104.103 30.9737 104.259 31.0809C104.415 31.1881 104.543 31.3318 104.631 31.4997C104.767 31.8473 104.827 32.2203 104.806 32.5931C104.786 32.966 104.685 33.3301 104.512 33.6604C103.914 35.1182 102.782 36.2891 101.349 36.9314C100.762 37.1626 100.128 37.2501 99.4997 37.1865C99.0858 38.7903 98.8556 40.4365 98.8135 42.093C98.545 46.2793 98.4257 50.4205 98.4257 54.3818C98.4147 54.5066 98.3585 54.623 98.2677 54.7087C98.1769 54.7945 98.0579 54.8437 97.9334 54.8469ZM85.7607 31.7098C85.6623 31.7045 85.5641 31.722 85.4735 31.761C85.383 31.8001 85.3026 31.8595 85.2386 31.9349C84.985 32.295 85.3281 32.9402 85.4325 33.1202C86.381 34.5246 87.7121 35.6239 89.2663 36.2862C88.74 34.9426 88.0048 33.6917 87.0883 32.5801C86.8261 32.2257 86.4765 31.9464 86.074 31.7698C85.9779 31.7355 85.8774 31.7152 85.7756 31.7098H85.7607ZM103.662 31.7848C103.486 31.8182 103.322 31.8956 103.184 32.0099C101.757 33.0428 100.637 34.449 99.9472 36.0761C100.334 36.0784 100.717 36.0124 101.081 35.8811C102.268 35.3195 103.2 34.3282 103.692 33.1052C103.794 32.9193 103.858 32.7148 103.881 32.5036C103.904 32.2924 103.885 32.0787 103.826 31.8748C103.813 31.8495 103.794 31.8279 103.77 31.8121C103.747 31.7963 103.72 31.7869 103.692 31.7848H103.662ZM95.83 24.4025C95.7467 24.4694 95.676 24.5507 95.6212 24.6426C94.8522 25.9802 94.5626 27.5426 94.8007 29.069C94.8506 30.1828 95.0565 31.284 95.4123 32.34C95.8608 31.1401 96.1905 29.8987 96.3969 28.6338C96.7377 27.2569 96.5735 25.8026 95.9344 24.5376C95.8882 24.4831 95.8326 24.4373 95.7703 24.4025H95.83Z" fill="black"/>
<path d="M92.5331 97.8955C88.4905 97.8955 84.4627 97.7454 80.4947 97.5954C69.1126 97.1753 57.5516 97.0702 46.3634 96.9652C34.5786 96.8602 22.3761 96.7401 10.6807 96.2449H10.5614C7.19003 95.2546 4.19161 91.8936 2.26725 89.2378C1.22363 87.8351 0.51863 86.2075 0.207953 84.4836C-0.102725 82.7596 -0.0105638 80.9867 0.477151 79.3048C1.53103 76.4813 3.55876 74.1328 6.19056 72.6877C8.77835 71.2571 11.6476 70.4173 14.5945 70.228C17.5414 70.0387 20.4936 70.5045 23.2413 71.5924C19.7058 65.1104 20.2578 56.3177 24.733 49.1905C27.2814 45.1435 30.9752 41.9559 35.3394 40.0377C39.5949 38.0444 44.4489 37.7705 48.8994 39.2724C54.3741 41.2531 58.8345 46.1296 62.176 53.7819C62.352 52.3159 62.8241 50.9015 63.5633 49.6256C65.1994 47.0199 67.4095 44.8277 70.0226 43.2186C71.7234 41.9441 73.6611 41.0257 75.7211 40.5178C76.7927 40.252 77.9107 40.2369 78.9891 40.4736C80.0675 40.7103 81.0776 41.1925 81.9417 41.8832C82.0025 41.9228 82.0543 41.9751 82.0933 42.0365C82.1324 42.0979 82.158 42.167 82.1682 42.2392C82.1785 42.3114 82.1733 42.3849 82.153 42.4549C82.1326 42.5249 82.0976 42.5896 82.0502 42.6448C82.0029 42.7 81.9443 42.7444 81.8785 42.7749C81.8126 42.8054 81.7411 42.8214 81.6686 42.8217C81.5961 42.8221 81.5244 42.8068 81.4583 42.7769C81.3922 42.747 81.3332 42.7032 81.2853 42.6485C80.5366 42.0632 79.6657 41.6564 78.738 41.4589C77.8103 41.2614 76.8502 41.2782 75.9299 41.5081C74.0061 42.0128 72.1942 42.8782 70.5895 44.0589C68.1085 45.5566 66.0051 47.6106 64.4434 50.0607C63.2981 51.9846 62.8897 54.2626 63.2948 56.4677C63.5036 57.0379 63.7125 57.6381 63.9064 58.2233C63.9441 58.3435 63.9362 58.4734 63.8843 58.5881C63.8324 58.7028 63.7401 58.7941 63.6252 58.8444C63.5103 58.8947 63.381 58.9005 63.2622 58.8606C63.1433 58.8207 63.0433 58.738 62.9815 58.6284C62.6807 58.0391 62.4552 57.414 62.3102 56.7678C58.9836 47.8551 54.3592 42.2734 48.5563 40.1727C39.6058 36.9017 30.0138 42.6185 25.5982 49.6706C21.0335 56.9779 20.7799 66.0707 24.9717 72.3126C25.0339 72.403 25.0673 72.5103 25.0673 72.6202C25.0673 72.7301 25.0339 72.8374 24.9717 72.9278C24.898 73.0138 24.7985 73.0734 24.6883 73.0978C24.578 73.1221 24.4628 73.1099 24.3601 73.0628C21.5999 71.7509 18.5723 71.1083 15.5205 71.1865C12.4686 71.2647 9.4775 72.0615 6.78726 73.513C4.38094 74.8192 2.51845 76.948 1.53629 79.5148C1.09275 81.0402 1.01014 82.6488 1.29507 84.212C1.58 85.7752 2.22455 87.2497 3.17722 88.5176C4.99716 91.0234 7.80165 94.1893 10.8747 95.1346C22.5402 95.6148 34.7427 95.7348 46.4678 95.8398C57.656 95.9449 69.2171 96.0499 80.629 96.47C88.8453 97.0047 97.091 96.8792 105.288 96.0949C113.91 95.0446 119.787 92.4038 123.293 88.0074C125.542 85.1447 126.722 81.579 126.627 77.9314C126.532 74.2837 125.167 70.7853 122.771 68.0454C120.376 65.3054 117.1 63.4975 113.516 62.9365C109.931 62.3755 106.265 63.097 103.154 64.9753C103.097 65.0104 103.033 65.0336 102.966 65.0435C102.899 65.0535 102.832 65.05 102.766 65.0332C102.701 65.0165 102.64 64.9868 102.586 64.9459C102.532 64.9051 102.487 64.8539 102.453 64.7953C102.419 64.7385 102.396 64.6753 102.386 64.6094C102.377 64.5435 102.38 64.4763 102.397 64.4119C102.414 64.3475 102.443 64.2871 102.483 64.2344C102.524 64.1816 102.575 64.1377 102.632 64.1051C105.955 62.1089 109.869 61.35 113.692 61.961C117.514 62.572 121.002 64.514 123.546 67.448C126.09 70.3819 127.528 74.1214 127.61 78.0135C127.692 81.9056 126.412 85.703 123.994 88.7426C120.31 93.3641 114.208 96.1249 105.392 97.2203C101.123 97.7033 96.829 97.9288 92.5331 97.8955Z" fill="black"/>
<path d="M16.9015 64.7499C16.8035 64.7519 16.7071 64.7244 16.6247 64.6709C16.5423 64.6175 16.4777 64.5405 16.439 64.4498C15.2448 61.627 14.7446 58.5562 14.9809 55.4976C15.2172 52.439 16.183 49.4828 17.7965 46.8794C17.8697 46.764 17.9855 46.6826 18.1184 46.653C18.2513 46.6235 18.3904 46.6483 18.5051 46.7219C18.6199 46.7955 18.7008 46.9119 18.7302 47.0456C18.7596 47.1793 18.7349 47.3192 18.6618 47.4346C17.1335 49.8945 16.2188 52.6894 15.9955 55.5814C15.7721 58.4734 16.2467 61.3769 17.3788 64.0447C17.4195 64.121 17.4389 64.2069 17.435 64.2934C17.4311 64.3799 17.404 64.4637 17.3566 64.536C17.3093 64.6082 17.2433 64.6663 17.1658 64.704C17.0883 64.7416 17.0021 64.7575 16.9164 64.7499H16.9015Z" fill="black"/>
<path d="M11.4112 65.7858C11.319 65.7875 11.2281 65.7631 11.149 65.7153C11.0698 65.6676 11.0056 65.5984 10.9637 65.5157C9.44835 62.6427 8.53928 59.4858 8.29347 56.2429C8.28519 56.1099 8.32893 55.979 8.41534 55.8781C8.50175 55.7771 8.62398 55.7142 8.75592 55.7027C8.88969 55.6942 9.02162 55.7377 9.12436 55.8243C9.22711 55.9109 9.29282 56.0339 9.30787 56.1679C9.53687 59.2698 10.4056 62.2899 11.8588 65.0356C11.8901 65.0947 11.9096 65.1594 11.916 65.2261C11.9225 65.2928 11.9159 65.3601 11.8965 65.4242C11.8771 65.4883 11.8453 65.5479 11.803 65.5997C11.7607 65.6514 11.7087 65.6943 11.6499 65.7258C11.5769 65.7664 11.4946 65.7871 11.4112 65.7858Z" fill="black"/>
<path d="M119.937 24.4031C119.812 24.4063 119.69 24.3629 119.595 24.2813C119.5 24.1997 119.438 24.0856 119.422 23.961C119.405 23.8364 119.435 23.7099 119.505 23.606C119.575 23.502 119.681 23.4279 119.803 23.3978L124.8 21.8973C124.973 21.8209 125.167 21.8092 125.348 21.8643C125.528 21.9193 125.683 22.0375 125.785 22.1974C125.825 22.2762 125.846 22.3637 125.846 22.4525C125.846 22.5412 125.825 22.6287 125.785 22.7076C125.621 23.0827 125.606 23.0977 120.012 24.343L119.937 24.4031Z" fill="black"/>
<path d="M96.1281 7.26748C96 7.27162 95.8754 7.22532 95.7807 7.13846C95.6859 7.0516 95.6286 6.93103 95.6209 6.80234L95.1585 0.96552C95.1502 0.898098 95.1558 0.829699 95.175 0.764546C95.1941 0.699394 95.2264 0.638885 95.2697 0.58681C95.3131 0.534736 95.3667 0.492206 95.4271 0.461848C95.4875 0.431491 95.5535 0.413962 95.6209 0.410357C95.6876 0.404178 95.7548 0.411324 95.8187 0.431398C95.8826 0.451471 95.9419 0.484089 95.9932 0.527329C96.0445 0.570569 96.0868 0.623578 96.1177 0.683337C96.1485 0.743096 96.1673 0.808405 96.1729 0.875496L96.6353 6.72731C96.6436 6.86025 96.5999 6.99116 96.5135 7.0921C96.4271 7.19303 96.3048 7.25598 96.1729 7.26748H96.1281Z" fill="black"/>
<path d="M78.9138 14.77C78.8302 14.7878 78.7438 14.7878 78.6602 14.77L74.4088 12.2942C74.2559 12.2307 74.1256 12.1222 74.0351 11.983C73.9446 11.8438 73.8981 11.6803 73.9016 11.514C73.9063 11.415 73.9381 11.3192 73.9933 11.2372C74.0486 11.1552 74.1252 11.09 74.2148 11.0488C74.5728 10.8688 74.7369 10.7787 79.2122 13.9147C79.3021 13.9769 79.3696 14.0667 79.4048 14.1706C79.44 14.2745 79.4408 14.3871 79.4073 14.4916C79.3738 14.596 79.3077 14.6869 79.2188 14.7505C79.1299 14.8142 79.023 14.8473 78.9138 14.845V14.77Z" fill="black"/>
<path d="M66.7108 33.2107C66.5763 33.2107 66.4473 33.1569 66.3522 33.0612C66.257 32.9656 66.2036 32.8358 66.2036 32.7005C66.2036 32.5652 66.257 32.4354 66.3522 32.3398C66.4473 32.2441 66.5763 32.1904 66.7108 32.1904L72.1706 31.2601C72.3051 31.2382 72.4428 31.2709 72.5533 31.3511C72.6638 31.4313 72.7381 31.5524 72.7599 31.6877C72.7816 31.823 72.7491 31.9615 72.6693 32.0726C72.5896 32.1838 72.4692 32.2585 72.3347 32.2804L66.8749 33.1957L66.7108 33.2107Z" fill="black"/>
<path d="M110.151 11.4236C110.044 11.4239 109.941 11.3926 109.852 11.3336C109.797 11.2947 109.749 11.2451 109.713 11.1876C109.677 11.1301 109.653 11.0659 109.642 10.9988C109.631 10.9317 109.633 10.863 109.649 10.7968C109.664 10.7306 109.693 10.6683 109.733 10.6134L112.895 6.11199C112.934 6.05615 112.983 6.00864 113.041 5.97228C113.098 5.93592 113.162 5.91144 113.228 5.90025C113.295 5.88907 113.363 5.89142 113.429 5.90717C113.495 5.92292 113.557 5.95174 113.611 5.99195C113.717 6.0725 113.787 6.19139 113.806 6.32317C113.826 6.45496 113.793 6.58918 113.716 6.69717L110.553 11.1986C110.51 11.2663 110.45 11.3222 110.38 11.3614C110.31 11.4006 110.231 11.422 110.151 11.4236Z" fill="black"/>
<path d="M120.16 45.2893C120.04 45.291 119.923 45.2483 119.832 45.1693L115.834 41.6732C115.743 41.5758 115.692 41.447 115.692 41.3131C115.692 41.1793 115.743 41.0504 115.834 40.953C115.929 40.8577 116.058 40.8042 116.192 40.8042C116.326 40.8042 116.455 40.8577 116.55 40.953L120.548 44.4491C120.643 44.5447 120.696 44.6742 120.696 44.8092C120.696 44.9442 120.643 45.0737 120.548 45.1693C120.439 45.2588 120.3 45.3019 120.16 45.2893Z" fill="black"/>
</g>
<defs>
<clipPath id="clip0_501_31707">
<rect width="127.5" height="97.5" fill="white" transform="translate(0 0.411133)"/>
</clipPath>
</defs>
</svg>
