<svg width="111" height="99" viewBox="0 0 111 99" fill="none" xmlns="http://www.w3.org/2000/svg">
<g clip-path="url(#clip0_501_31635)">
<path d="M43.7631 91.8465C40.1259 91.8328 36.5271 91.0989 33.1726 89.6866C29.818 88.2742 26.7733 86.2113 24.2128 83.6158C24.1641 83.5673 24.1254 83.5096 24.0991 83.4461C24.0727 83.3825 24.0591 83.3143 24.0591 83.2454C24.0591 83.1765 24.0727 83.1083 24.0991 83.0448C24.1254 82.9812 24.1641 82.9235 24.2128 82.875C24.3111 82.7778 24.4435 82.7234 24.5814 82.7234C24.7193 82.7234 24.8517 82.7778 24.95 82.875C27.8158 85.7683 31.3048 87.9614 35.1478 89.285C38.9908 90.6086 43.0851 91.0274 47.1147 90.509C47.2514 90.4909 47.3897 90.528 47.4991 90.6122C47.6086 90.6965 47.6803 90.821 47.6984 90.9583C47.7165 91.0956 47.6795 91.2346 47.5957 91.3446C47.5118 91.4546 47.3879 91.5266 47.2512 91.5447C46.0966 91.7238 44.9312 91.8246 43.7631 91.8465Z" fill="#1A1A1A"/>
<path d="M42.6451 94.4526C42.5245 94.4508 42.4082 94.4069 42.3164 94.3283C42.2245 94.2498 42.1627 94.1415 42.1417 94.0221C42.1207 93.9027 42.1418 93.7798 42.2012 93.6743C42.2607 93.5688 42.3549 93.4875 42.4677 93.4443C43.9144 92.9065 45.2757 92.1602 46.5088 91.2289C45.1336 90.4457 43.8273 89.5462 42.6042 88.5401C42.4978 88.4507 42.431 88.3226 42.4182 88.1839C42.4054 88.0451 42.4477 87.9069 42.5359 87.7994C42.6237 87.693 42.75 87.626 42.887 87.6131C43.024 87.6002 43.1604 87.6426 43.2663 87.7308C44.6365 88.8633 46.1187 89.8516 47.6897 90.6801C47.7648 90.7216 47.8289 90.7806 47.8764 90.8523C47.9239 90.9239 47.9536 91.0061 47.9627 91.0917C47.9712 91.1765 47.9588 91.2622 47.9267 91.3411C47.8946 91.42 47.8437 91.4898 47.7784 91.5444C46.3025 92.7821 44.6263 93.7565 42.8226 94.4251C42.7655 94.4447 42.7054 94.454 42.6451 94.4526Z" fill="#1A1A1A"/>
<path d="M99.0363 31.8512H98.9954C98.9272 31.846 98.8607 31.8273 98.7997 31.7962C98.7387 31.765 98.6844 31.7221 98.64 31.6698C98.5956 31.6176 98.5619 31.557 98.5409 31.4916C98.5199 31.4262 98.512 31.3572 98.5176 31.2887C98.7853 27.6552 98.1133 24.0139 96.5667 20.7184C95.0202 17.423 92.6516 14.5855 89.6913 12.4815C89.5745 12.4042 89.4931 12.2834 89.4649 12.1458C89.4367 12.0082 89.4641 11.8649 89.5411 11.7476C89.618 11.6302 89.7382 11.5484 89.8752 11.5201C90.0122 11.4918 90.1547 11.5194 90.2715 11.5967C93.384 13.8092 95.8743 16.7926 97.501 20.2573C99.1276 23.7221 99.8352 27.5505 99.5551 31.371C99.5448 31.502 99.4856 31.6243 99.3894 31.7133C99.2932 31.8023 99.1671 31.8516 99.0363 31.8512Z" fill="#1A1A1A"/>
<path d="M91.5743 17.6254C91.4614 17.6265 91.3514 17.5901 91.2613 17.5219C91.1712 17.4537 91.106 17.3575 91.0759 17.2482C90.5703 15.4656 89.9571 13.7156 89.2397 12.0079C89.203 11.9171 89.1919 11.8179 89.2076 11.7211C89.2232 11.6243 89.265 11.5337 89.3284 11.4592C89.3932 11.385 89.4776 11.3307 89.5719 11.3028C89.6662 11.2748 89.7664 11.2744 89.8609 11.3015L95.2263 12.8036C95.3577 12.8435 95.4686 12.9328 95.5361 13.0529C95.6035 13.1731 95.6221 13.3147 95.5881 13.4483C95.5699 13.5147 95.5389 13.5768 95.4968 13.631C95.4547 13.6853 95.4022 13.7306 95.3426 13.7644C95.2829 13.7982 95.2172 13.8198 95.1492 13.8279C95.0812 13.8361 95.0123 13.8306 94.9464 13.8119L90.5981 12.591C91.1629 14.0213 91.655 15.4796 92.0726 16.9601C92.0968 17.0285 92.1067 17.1011 92.1017 17.1734C92.0967 17.2458 92.077 17.3163 92.0437 17.3807C92.0104 17.445 91.9642 17.5018 91.9081 17.5475C91.852 17.5931 91.7872 17.6266 91.7176 17.646C91.6691 17.646 91.6208 17.6391 91.5743 17.6254Z" fill="#1A1A1A"/>
<path d="M106.654 30.8909H106.6C106.531 30.884 106.465 30.8637 106.405 30.8309C106.344 30.7982 106.291 30.7537 106.248 30.7001C106.205 30.6466 106.172 30.5849 106.153 30.5187C106.134 30.4526 106.128 30.3832 106.135 30.3147C106.612 25.7042 105.848 21.0496 103.924 16.8369C103.895 16.7747 103.879 16.7075 103.876 16.6391C103.873 16.5706 103.884 16.5023 103.907 16.4379C103.931 16.3736 103.966 16.3146 104.013 16.2641C104.059 16.2137 104.114 16.1729 104.176 16.1441C104.238 16.1153 104.305 16.099 104.373 16.0962C104.441 16.0933 104.509 16.104 104.573 16.1275C104.637 16.1511 104.696 16.1871 104.746 16.2335C104.796 16.2799 104.837 16.3358 104.866 16.3979C106.881 20.7786 107.682 25.6243 107.187 30.4245C107.173 30.5554 107.11 30.6763 107.012 30.7628C106.913 30.8493 106.785 30.8951 106.654 30.8909Z" fill="#1A1A1A"/>
<path d="M34.2489 98.4101H34.1465C28.8284 97.3363 23.9562 94.6758 20.1665 90.7761C20.1189 90.7265 20.0816 90.6681 20.0566 90.604C20.0316 90.54 20.0193 90.4716 20.0206 90.4029C20.0219 90.3341 20.0366 90.2662 20.064 90.2031C20.0913 90.1401 20.1308 90.0831 20.1801 90.0353C20.2294 89.9876 20.2876 89.9501 20.3513 89.9249C20.4151 89.8998 20.4831 89.8875 20.5516 89.8888C20.62 89.89 20.6875 89.9048 20.7503 89.9323C20.8131 89.9598 20.8698 89.9995 20.9173 90.049C24.5581 93.792 29.2375 96.3449 34.3445 97.3744C34.4116 97.3867 34.4757 97.4124 34.5328 97.4499C34.59 97.4874 34.6391 97.5361 34.6772 97.5929C34.7154 97.6498 34.7419 97.7138 34.755 97.7811C34.7682 97.8484 34.7679 97.9177 34.754 97.9848C34.7319 98.1035 34.6694 98.2109 34.5773 98.2884C34.4852 98.366 34.3691 98.409 34.2489 98.4101Z" fill="#1A1A1A"/>
<path d="M43.7631 91.8465C40.1259 91.8328 36.5271 91.0989 33.1726 89.6866C29.818 88.2742 26.7733 86.2113 24.2128 83.6158C24.1641 83.5673 24.1254 83.5096 24.0991 83.4461C24.0727 83.3825 24.0591 83.3143 24.0591 83.2454C24.0591 83.1765 24.0727 83.1083 24.0991 83.0448C24.1254 82.9812 24.1641 82.9235 24.2128 82.875C24.3111 82.7778 24.4435 82.7234 24.5814 82.7234C24.7193 82.7234 24.8517 82.7778 24.95 82.875C27.8158 85.7683 31.3048 87.9614 35.1478 89.285C38.9908 90.6086 43.0851 91.0274 47.1147 90.509C47.2514 90.4909 47.3897 90.528 47.4991 90.6122C47.6086 90.6965 47.6803 90.821 47.6984 90.9583C47.7165 91.0956 47.6795 91.2346 47.5957 91.3446C47.5118 91.4546 47.3879 91.5266 47.2512 91.5447C46.0966 91.7238 44.9312 91.8246 43.7631 91.8465Z" fill="#1A1A1A"/>
<path d="M42.6451 94.4526C42.5245 94.4508 42.4082 94.4069 42.3164 94.3283C42.2245 94.2498 42.1627 94.1415 42.1417 94.0221C42.1207 93.9027 42.1418 93.7798 42.2012 93.6743C42.2607 93.5688 42.3549 93.4875 42.4677 93.4443C43.9144 92.9065 45.2757 92.1602 46.5088 91.2289C45.1336 90.4457 43.8273 89.5462 42.6042 88.5401C42.4978 88.4507 42.431 88.3226 42.4182 88.1839C42.4054 88.0451 42.4477 87.9069 42.5359 87.7994C42.6237 87.693 42.75 87.626 42.887 87.6131C43.024 87.6002 43.1604 87.6426 43.2663 87.7308C44.6365 88.8633 46.1187 89.8516 47.6897 90.6801C47.7648 90.7216 47.8289 90.7806 47.8764 90.8523C47.9239 90.9239 47.9536 91.0061 47.9627 91.0917C47.9712 91.1765 47.9588 91.2622 47.9267 91.3411C47.8946 91.42 47.8437 91.4898 47.7784 91.5444C46.3025 92.7821 44.6263 93.7565 42.8226 94.4251C42.7655 94.4447 42.7054 94.454 42.6451 94.4526Z" fill="#1A1A1A"/>
<path d="M99.0363 31.8512H98.9954C98.9272 31.846 98.8607 31.8273 98.7997 31.7962C98.7387 31.765 98.6844 31.7221 98.64 31.6698C98.5956 31.6176 98.5619 31.557 98.5409 31.4916C98.5199 31.4262 98.512 31.3572 98.5176 31.2887C98.7853 27.6552 98.1133 24.0139 96.5667 20.7184C95.0202 17.423 92.6516 14.5855 89.6913 12.4815C89.5745 12.4042 89.4931 12.2834 89.4649 12.1458C89.4367 12.0082 89.4641 11.8649 89.5411 11.7476C89.618 11.6302 89.7382 11.5484 89.8752 11.5201C90.0122 11.4918 90.1547 11.5194 90.2715 11.5967C93.384 13.8092 95.8743 16.7926 97.501 20.2573C99.1276 23.7221 99.8352 27.5505 99.5551 31.371C99.5448 31.502 99.4856 31.6243 99.3894 31.7133C99.2932 31.8023 99.1671 31.8516 99.0363 31.8512Z" fill="#1A1A1A"/>
<path d="M91.5743 17.6254C91.4614 17.6265 91.3514 17.5901 91.2613 17.5219C91.1712 17.4537 91.106 17.3575 91.0759 17.2482C90.5703 15.4656 89.9571 13.7156 89.2397 12.0079C89.203 11.9171 89.1919 11.8179 89.2076 11.7211C89.2232 11.6243 89.265 11.5337 89.3284 11.4592C89.3932 11.385 89.4776 11.3307 89.5719 11.3028C89.6662 11.2748 89.7664 11.2744 89.8609 11.3015L95.2263 12.8036C95.3577 12.8435 95.4686 12.9328 95.5361 13.0529C95.6035 13.1731 95.6221 13.3147 95.5881 13.4483C95.5699 13.5147 95.5389 13.5768 95.4968 13.631C95.4547 13.6853 95.4022 13.7306 95.3426 13.7644C95.2829 13.7982 95.2172 13.8198 95.1492 13.8279C95.0812 13.8361 95.0123 13.8306 94.9464 13.8119L90.5981 12.591C91.1629 14.0213 91.655 15.4796 92.0726 16.9601C92.0968 17.0285 92.1067 17.1011 92.1017 17.1734C92.0967 17.2458 92.077 17.3163 92.0437 17.3807C92.0104 17.445 91.9642 17.5018 91.9081 17.5475C91.852 17.5931 91.7872 17.6266 91.7176 17.646C91.6691 17.646 91.6208 17.6391 91.5743 17.6254Z" fill="#1A1A1A"/>
<path d="M24.241 34.7869C21.0909 35.8076 18.4609 38.0221 16.9097 40.96C16.1641 42.43 15.7754 44.0565 15.7754 45.7064C15.7754 47.3563 16.1641 48.9828 16.9097 50.4528C19.176 54.6573 24.7939 56.5435 29.2446 54.8356C34.0981 52.9769 37.047 47.1262 35.6271 42.1123C34.2073 37.0984 28.4937 33.3603 24.241 34.7869ZM30.132 47.9493C29.6247 49.0212 28.7737 49.8908 27.7156 50.4185C26.6363 50.9085 25.416 50.9852 24.2844 50.634C23.1529 50.2828 22.1881 49.528 21.572 48.5117C20.9231 47.4411 20.6 46.2031 20.6425 44.9503C20.6849 43.6975 21.0911 42.4845 21.8109 41.4607C22.1263 40.9442 22.5412 40.4962 23.0312 40.1429C23.5211 39.7895 24.0763 39.538 24.6642 39.403C25.2209 39.2809 25.7975 39.2833 26.3532 39.4102C26.9088 39.537 27.4299 39.7851 27.8794 40.1369C28.4712 40.2351 29.0269 40.4882 29.4904 40.8708C30.3846 41.6184 30.7737 43.1068 30.8556 44.2317C30.8966 45.5099 30.6492 46.7808 30.132 47.9493Z" fill="white"/>
<path d="M47.6142 44.2181C46.2901 43.8692 45.1009 43.1284 44.2011 42.0918C43.6328 41.3338 43.2476 40.4534 43.0758 39.5202C42.904 38.587 42.9504 37.6265 43.2113 36.7144C43.7547 34.89 44.838 33.2751 46.3172 32.0846C45.0516 30.0857 43.6845 28.1535 42.2215 26.2956C40.4672 27.5988 38.8084 28.8334 36.8425 28.9295C35.8998 28.9375 34.9684 28.7232 34.1232 28.3039C33.2779 27.8846 32.5422 27.2719 31.9754 26.5151C30.8575 24.9848 30.1734 23.1785 29.9958 21.2886C29.9344 21.1103 29.8388 21.076 29.7637 21.0691L23.859 20.6301C23.5629 22.4137 22.7066 24.0554 21.4152 25.3148C20.1231 26.5343 18.4095 27.2009 16.6369 27.1736C15.9162 27.1292 15.2011 27.019 14.5003 26.8443C13.326 26.696 12.2217 26.202 11.3261 25.4245C9.81531 26.478 8.37001 27.6233 6.99831 28.854C7.58924 29.2946 8.02262 29.9153 8.23385 30.6236C8.84696 31.9628 9.05353 33.4539 8.82773 34.9105C8.62752 35.6439 8.27776 36.3275 7.80067 36.9178C7.32357 37.5082 6.72955 37.9925 6.05629 38.3399C4.70311 39.0255 3.21605 39.4025 1.70118 39.4442C1.29043 41.6853 1.06214 43.9563 1.01855 46.2346C2.25939 46.6189 3.46154 47.1195 4.60914 47.7298C5.73747 48.3393 6.63645 49.3028 7.16897 50.4734C7.42363 51.1455 7.54155 51.862 7.51576 52.5807C7.48996 53.2994 7.32097 54.0055 7.01879 54.6574C6.4046 55.9577 5.48939 57.0914 4.34974 57.9634C5.71498 60.1514 6.98466 62.1817 8.30894 64.1845C9.30337 63.5037 10.4356 63.0528 11.6242 62.8642C12.8127 62.6757 14.0281 62.7541 15.1829 63.0939C15.7477 63.265 16.2772 63.5368 16.7461 63.8964C17.3078 64.3757 17.7615 64.9696 18.0772 65.6386C18.8729 67.2295 19.1658 69.0268 18.9169 70.7896C21.2369 71.2541 23.5825 71.5793 25.941 71.7636C25.8562 70.5801 26.0693 69.3943 26.5609 68.3154C27.0524 67.2365 27.8064 66.2994 28.7534 65.5906C29.7159 64.9278 30.8513 64.5646 32.018 64.5463C33.1846 64.528 34.3308 64.8554 35.3134 65.4877C36.1942 66.1567 36.9658 66.9597 37.6002 67.8677C39.6958 66.3793 41.7642 64.8567 43.7028 63.1899C42.6174 61.4958 41.5184 59.7947 41.4775 57.888C41.4934 56.8912 41.7587 55.9145 42.249 55.0479C42.7393 54.1813 43.4388 53.4526 44.283 52.9289C45.9945 51.896 48.0027 51.4731 49.9829 51.7286C50.6655 49.4172 51.2253 47.1606 51.7031 44.8697C50.3207 44.8019 48.9497 44.5834 47.6142 44.2181ZM35.2588 49.3211C34.4438 51.0965 33.1857 52.63 31.6068 53.7726C30.7021 54.4509 29.695 54.9789 28.6237 55.3364C24.2276 56.7494 19.067 54.2664 17.0192 50.103C16.2719 48.5782 15.8979 46.896 15.9283 45.1966C15.9586 43.4972 16.3925 41.8296 17.1938 40.3327C17.9951 38.8358 19.1407 37.5529 20.5351 36.5906C21.9295 35.6284 23.5325 35.0148 25.2106 34.8007C28.2005 34.4098 31.989 36.0353 34.1461 38.9641C35.2147 40.4429 35.8796 42.1769 36.0748 43.9938C36.27 45.8107 35.9887 47.6473 35.2588 49.3211Z" fill="#FFD803"/>
<g opacity="0.13">
<path d="M37.9505 44.4794C37.9027 44.1326 37.8343 43.7891 37.7457 43.4505C37.7048 43.3751 37.6706 43.2928 37.6297 43.2173C37.0071 41.9835 36.2688 40.8122 35.4248 39.7192C35.2844 39.817 35.1809 39.9596 35.1313 40.1239C35.0426 40.7138 35.4931 41.2488 35.6364 41.8044C36.1552 43.3408 36.4897 44.0815 36.3191 45.4876C36.0978 46.8213 35.7149 48.1227 35.1791 49.3629C34.8493 50.021 34.4609 50.6477 34.0186 51.2354C33.8821 51.4 33.8343 51.4686 33.8548 51.4755C33.6364 51.647 33.4452 51.8664 33.2268 52.0516L31.8615 53.2245C31.7001 53.3463 31.5473 53.4793 31.4042 53.6223C31.4725 53.5126 31.2745 53.7046 31.0834 53.8624C30.8283 54.0431 30.564 54.2102 30.2915 54.3631C28.9414 54.8527 27.5357 55.1707 26.1071 55.3096C25.0094 55.3507 23.9123 55.2141 22.8578 54.905C22.1752 54.7129 21.6427 54.0682 20.9465 54.2191C20.8083 54.2523 20.6817 54.3229 20.5807 54.4233C20.4796 54.5237 20.4078 54.6499 20.373 54.7884C20.4345 54.8638 20.5027 54.9324 20.571 55.0078L21.2536 55.5909L23.8476 57.2782C25.4048 57.7156 27.0444 57.7674 28.6259 57.4291H28.5167C29.8954 57.1998 31.2251 56.7359 32.4486 56.0573C33.6637 55.3018 34.6854 54.2705 35.4317 53.0462L35.4931 52.9433C36.3847 51.8148 37.0774 50.5412 37.5409 49.1777C37.997 47.6565 38.1365 46.0571 37.9505 44.4794Z" fill="#1A1A1A"/>
</g>
<g opacity="0.13">
<path d="M42.6314 60.2944C42.4403 60.3023 42.2535 60.3539 42.0853 60.4453C41.8539 60.5965 41.662 60.8011 41.5255 61.0421C41.3822 61.2272 41.232 61.4056 41.1023 61.6045C40.6934 62.1668 40.2366 62.6924 39.7371 63.1752C39.266 63.6828 38.5288 63.9983 38.2216 64.6293V64.6636C38.0396 64.7733 37.8553 64.8762 37.6687 64.9722C37.3342 65.1917 36.8837 65.2878 36.6448 65.6581C36.5037 65.8548 36.4327 66.0936 36.4434 66.3358C36.4542 66.578 36.5459 66.8095 36.7039 66.9928C36.8618 67.1761 37.0767 67.3005 37.3137 67.3458C37.5508 67.3911 37.7961 67.3548 38.01 67.2426C39.0286 66.707 39.9797 66.0507 40.8429 65.2878C40.8826 65.2409 40.926 65.1974 40.9726 65.1574C41.6462 64.6234 42.2847 64.046 42.8839 63.429C43.1335 63.1812 43.3618 62.9127 43.5666 62.6265C43.3481 62.1806 43.1502 61.7142 42.9727 61.2547C42.8771 60.9117 42.7474 60.6031 42.6314 60.2944Z" fill="#1A1A1A"/>
</g>
<g opacity="0.13">
<path d="M49.2599 44.752C48.8776 46.2472 48.4407 47.7287 47.9629 49.2034C47.7445 49.8893 47.526 50.5752 47.2803 51.2611C47.4096 51.4272 47.5846 51.5515 47.7837 51.6186C47.9827 51.6857 48.1969 51.6925 48.3998 51.6383H48.4612C48.5529 51.7618 48.6769 51.8572 48.8194 51.9138C48.962 51.9704 49.1174 51.9861 49.2683 51.9591C49.4192 51.932 49.5596 51.8633 49.6739 51.7606C49.7881 51.658 49.8717 51.5254 49.9152 51.3777C50.0039 51.0622 50.1405 50.7398 50.2497 50.4106C50.3241 50.3779 50.3932 50.3339 50.4545 50.2803C50.8134 49.9019 51.0512 49.4241 51.1371 48.9085C51.3666 47.9455 51.5015 46.9623 51.5398 45.9729C51.5398 45.918 51.5398 45.8562 51.5398 45.8014C50.8026 45.4516 50.0312 45.1086 49.2599 44.752Z" fill="#1A1A1A"/>
</g>
<path d="M25.9412 72.2849H25.9002C23.5211 72.0988 21.1551 71.7713 18.8146 71.3041C18.6836 71.2774 18.5675 71.2016 18.4902 71.092C18.4128 70.9824 18.3799 70.8473 18.3982 70.7142C18.6326 69.0574 18.3587 67.3682 17.6132 65.8718C17.3315 65.2702 16.9268 64.735 16.4254 64.3011C16.0129 63.9955 15.551 63.7635 15.0602 63.6152C13.9829 63.2907 12.8474 63.2104 11.7354 63.38C10.6235 63.5496 9.56287 63.9649 8.62992 64.596C8.51789 64.6609 8.3858 64.6813 8.25953 64.6534C8.13326 64.6255 8.02191 64.5512 7.9473 64.4451C6.6435 62.4697 5.34652 60.4258 3.98128 58.2103C3.91317 58.1017 3.88735 57.9717 3.90876 57.8451C3.93017 57.7185 3.99732 57.6043 4.09732 57.5244C5.17267 56.7038 6.03645 55.6359 6.61619 54.4105C6.89174 53.8239 7.04703 53.1877 7.07283 52.5396C7.09863 51.8915 6.99441 51.2448 6.76637 50.6381C6.26913 49.5809 5.4488 48.711 4.42498 48.1551C3.45777 47.6332 2.44281 47.2059 1.39415 46.8793L0.916314 46.7079C0.813391 46.6703 0.724945 46.601 0.663636 46.5098C0.602327 46.4186 0.571301 46.3103 0.575004 46.2003C0.616999 43.8992 0.845292 41.6053 1.25762 39.3414C1.28118 39.2271 1.34129 39.1236 1.42879 39.0469C1.5163 38.9701 1.62639 38.9242 1.74229 38.9161C3.17864 38.8793 4.58905 38.5233 5.87214 37.8735C6.4774 37.5544 7.01053 37.1131 7.4381 36.5773C7.86567 36.0414 8.17847 35.4226 8.35688 34.7596C8.54139 33.4098 8.33275 32.0351 7.75617 30.802C7.57818 30.1957 7.2123 29.6622 6.71176 29.2793C6.64629 29.2336 6.59203 29.1735 6.55306 29.1037C6.5141 29.0338 6.49146 28.956 6.48685 28.876C6.48225 28.796 6.4958 28.7161 6.52649 28.6422C6.55718 28.5682 6.60419 28.5023 6.66398 28.4493C8.05038 27.2162 9.51174 26.0708 11.0396 25.0199C11.1422 24.9458 11.2681 24.912 11.3938 24.9246C11.5195 24.9372 11.6362 24.9955 11.7222 25.0885C12.5464 25.7904 13.5575 26.234 14.6302 26.3642C15.302 26.5298 15.9874 26.6331 16.678 26.6729C18.3133 26.703 19.8956 26.0901 21.0877 24.965C22.3079 23.7679 23.1101 22.2064 23.3745 20.5135C23.3993 20.3876 23.4694 20.2753 23.5714 20.1981C23.6734 20.1209 23.8002 20.0843 23.9274 20.0951L29.8321 20.5341C30.0057 20.5557 30.1671 20.6349 30.2907 20.7592C30.4144 20.8834 30.4932 21.0456 30.5147 21.22C30.6737 23.0162 31.3207 24.734 32.3851 26.1859C32.9004 26.8767 33.5695 27.4369 34.3387 27.8216C35.1079 28.2063 35.9561 28.4048 36.8153 28.4013C38.6311 28.3122 40.2967 27.0707 41.9077 25.8704C42.0165 25.7874 42.1536 25.7509 42.2891 25.7689C42.4246 25.7869 42.5475 25.8579 42.6312 25.9664C44.249 28.0241 45.5938 29.9583 46.727 31.7965C46.7944 31.9048 46.8204 32.0339 46.8004 32.16C46.7803 32.2861 46.7154 32.4007 46.6177 32.4824C45.2234 33.6083 44.2003 35.1312 43.6825 36.8516C43.4421 37.6833 43.3972 38.5598 43.5512 39.412C43.7052 40.2641 44.0539 41.0688 44.5699 41.7626C45.397 42.7148 46.4879 43.3978 47.7031 43.7242C49.0038 44.0729 50.338 44.2798 51.6828 44.3415C51.7569 44.3479 51.8287 44.3701 51.8935 44.4068C51.9583 44.4435 52.0145 44.4938 52.0582 44.5542C52.1024 44.6133 52.1338 44.6811 52.1502 44.7532C52.1667 44.8252 52.1679 44.9 52.1538 44.9726C51.6828 47.2154 51.1162 49.4652 50.4199 51.8315C50.3845 51.9484 50.3103 52.0495 50.2097 52.1182C50.1091 52.1868 49.9882 52.2188 49.867 52.2088C48.0042 51.961 46.1128 52.3551 44.5016 53.3268C43.7325 53.8035 43.0946 54.4664 42.6462 55.2549C42.1978 56.0433 41.9533 56.9321 41.935 57.84C41.935 59.5753 42.9794 61.146 44.0443 62.8058V62.8676C44.1162 62.9733 44.1462 63.1022 44.1286 63.2291C44.1109 63.3559 44.0467 63.4716 43.9487 63.5535C41.9008 65.2819 39.8052 66.8389 37.8051 68.2587C37.6974 68.3264 37.5688 68.3526 37.4433 68.3325C37.3178 68.3123 37.2038 68.2471 37.1225 68.149C36.5186 67.2872 35.7864 66.5238 34.9518 65.8855C34.0552 65.3183 33.0138 65.0253 31.9545 65.0424C30.8952 65.0594 29.8637 65.3857 28.9857 65.9815C28.1105 66.643 27.4144 67.5145 26.9612 68.5163C26.508 69.5181 26.3122 70.6181 26.3917 71.7156C26.3974 71.79 26.3869 71.8647 26.3609 71.9346C26.335 72.0044 26.2943 72.0678 26.2415 72.1203C26.1618 72.2065 26.0564 72.2642 25.9412 72.2849ZM19.4904 70.3713C21.448 70.7467 23.4233 71.0214 25.4087 71.1943C25.4057 70.0145 25.6805 68.8507 26.2108 67.7981C26.7412 66.7454 27.5119 65.8339 28.46 65.1379C29.5075 64.4122 30.7458 64.015 32.018 63.9967C33.2903 63.9784 34.5393 64.3397 35.6071 65.035C36.4112 65.6298 37.1202 66.3445 37.7095 67.1544C39.4571 65.9061 41.2865 64.5617 43.0272 63.0871C42.0032 61.4752 40.9793 59.8085 40.9793 57.9017C40.9991 56.8165 41.2879 55.7533 41.8195 54.8084C42.3511 53.8635 43.1087 53.0667 44.0238 52.49C45.7042 51.4615 47.668 51 49.6281 51.173C50.2015 49.1634 50.6862 47.2497 51.1026 45.3567C49.8808 45.2778 48.6705 45.0709 47.4915 44.7394C46.0765 44.3581 44.8086 43.5574 43.8531 42.4416C43.2336 41.6202 42.8124 40.6653 42.6228 39.6524C42.4333 38.6394 42.4806 37.5961 42.7609 36.6046C43.2792 34.8191 44.2983 33.2214 45.6962 32.0023C44.6791 30.411 43.5528 28.8129 42.1807 27.0364C40.5697 28.2299 38.8905 29.3753 36.9245 29.4713C35.9008 29.4818 34.8888 29.2508 33.9701 28.7969C33.0513 28.3431 32.2512 27.679 31.6342 26.8581C30.4949 25.3204 29.7877 23.5035 29.5864 21.5972L24.3097 21.1994C23.9268 22.9233 23.043 24.4941 21.7704 25.7126C20.378 27.0247 18.532 27.7406 16.6234 27.7086C15.8734 27.661 15.1289 27.5485 14.3981 27.3725C13.275 27.2035 12.2081 26.7686 11.2853 26.1036C10.1522 26.8992 9.03267 27.7772 7.80395 28.8472C8.21479 29.3071 8.52831 29.8462 8.72549 30.4316C9.37821 31.8686 9.59202 33.4679 9.33985 35.0271C9.11934 35.8269 8.73614 36.572 8.21446 37.2154C7.69279 37.8588 7.04397 38.3865 6.30901 38.7652C5.01555 39.4332 3.59701 39.8211 2.14503 39.9038C1.81046 41.8651 1.61428 43.8477 1.55798 45.8368L1.67402 45.8779C2.78534 46.2292 3.85988 46.6886 4.88234 47.2497C6.10774 47.914 7.08695 48.958 7.67426 50.2265C7.95439 50.9634 8.08424 51.7493 8.05609 52.5375C8.02795 53.3258 7.84239 54.1004 7.51043 54.8152C6.9394 56.0557 6.09981 57.1524 5.05299 58.0251C6.2271 59.9319 7.35343 61.7084 8.4661 63.43C9.49134 62.8187 10.6323 62.4291 11.8159 62.2862C12.9996 62.1433 14.1999 62.2502 15.3401 62.6001C15.9621 62.788 16.5449 63.0877 17.0603 63.4849C17.6845 64.0101 18.1876 64.6654 18.5347 65.4054C19.3017 66.9409 19.6324 68.6592 19.4904 70.3713Z" fill="#1A1A1A"/>
<path d="M25.6821 51.3787C24.7799 51.3632 23.8955 51.1233 23.1082 50.6804C22.3208 50.2375 21.6549 49.6055 21.17 48.8409C20.6517 47.9637 20.342 46.9781 20.2651 45.9609C20.1881 44.9436 20.3459 43.9223 20.7263 42.9765C21.2158 41.6906 22.1006 40.595 23.252 39.8488C23.8373 39.4673 24.494 39.2097 25.1817 39.0918C25.8695 38.9739 26.574 38.9981 27.2521 39.1629C28.5378 39.4432 29.6975 40.1367 30.556 41.1383C31.4348 42.3254 31.8916 43.7746 31.853 45.2536C31.8755 46.2132 31.6396 47.1612 31.1704 47.9972C30.8059 48.5859 30.3442 49.1078 29.8051 49.5405C28.8706 50.4244 27.7144 51.0361 26.4603 51.3101C26.2035 51.3563 25.943 51.3793 25.6821 51.3787ZM26.0371 40.0889C25.2459 40.0924 24.471 40.3155 23.7981 40.7336C22.8381 41.3634 22.1019 42.2833 21.6956 43.3606C21.3741 44.1524 21.2388 45.0082 21.3004 45.8612C21.3619 46.7143 21.6187 47.5415 22.0506 48.2784C22.4882 48.9889 23.1218 49.5563 23.8743 49.9119C24.6268 50.2674 25.4659 50.3957 26.2896 50.2813C27.3595 50.0377 28.3434 49.5066 29.1362 48.7449C29.5909 48.3847 29.983 47.9513 30.2966 47.4622C30.6597 46.792 30.8387 46.0369 30.8154 45.2742C30.8427 44.0427 30.4635 42.8368 29.7369 41.8447C29.0208 41.0316 28.0636 40.4713 27.0064 40.2466C26.6922 40.1497 26.3657 40.0989 26.0371 40.0957V40.0889Z" fill="#1A1A1A"/>
<path d="M26.0507 56.2345C24.0804 56.2115 22.1539 55.6479 20.4792 54.6046C18.8045 53.5614 17.4454 52.0782 16.5486 50.3152C15.7576 48.7138 15.3599 46.9453 15.3887 45.1577C15.4175 43.3702 15.8719 41.6155 16.7141 40.0407C17.5563 38.4658 18.7616 37.1165 20.2292 36.1057C21.6968 35.095 23.384 34.4521 25.1496 34.231C28.4331 33.8126 32.3991 35.6508 34.5766 38.6002C35.7026 40.1545 36.4024 41.9787 36.6061 43.8903C36.8097 45.8018 36.5101 47.7336 35.7371 49.4922C34.8817 51.3466 33.5652 52.9482 31.9144 54.1425C30.967 54.8586 29.9083 55.4125 28.7812 55.7818C27.9004 56.0763 26.9789 56.2291 26.0507 56.2345ZM26.1053 35.2393C25.8223 35.24 25.5396 35.2583 25.2589 35.2941C23.6629 35.4976 22.1383 36.0814 20.8124 36.9969C19.4864 37.9123 18.3973 39.1329 17.6359 40.5569C16.8745 41.981 16.4629 43.5672 16.4352 45.1835C16.4076 46.7998 16.7648 48.3993 17.477 49.8488C19.4566 53.8956 24.3783 56.1248 28.4399 54.8147C29.4573 54.4771 30.4139 53.9768 31.2728 53.3332C32.78 52.2435 33.9816 50.781 34.7609 49.0875C35.4163 47.6114 35.6998 45.9958 35.5864 44.3834C35.4729 42.7711 34.966 41.2116 34.1105 39.8428C33.2549 38.474 32.077 37.338 30.6809 36.5351C29.2847 35.7322 27.7133 35.2872 26.1053 35.2393Z" fill="#1A1A1A"/>
<path d="M47.6142 44.2181C46.2901 43.8692 45.1009 43.1284 44.2011 42.0918C43.6328 41.3338 43.2476 40.4534 43.0758 39.5202C42.904 38.587 42.9504 37.6265 43.2113 36.7144C43.7547 34.89 44.838 33.2751 46.3172 32.0846C45.0516 30.0857 43.6845 28.1535 42.2215 26.2956C40.4672 27.5988 38.8084 28.8334 36.8425 28.9295C35.8998 28.9375 34.9684 28.7232 34.1232 28.3039C33.2779 27.8846 32.5422 27.2719 31.9754 26.5151C30.8575 24.9848 30.1734 23.1785 29.9958 21.2886C29.9344 21.1103 29.8388 21.076 29.7637 21.0691L23.859 20.6301C23.5629 22.4137 22.7066 24.0554 21.4152 25.3148C20.1231 26.5343 18.4095 27.2009 16.6369 27.1736C15.9162 27.1292 15.2011 27.019 14.5003 26.8443C13.326 26.696 12.2217 26.202 11.3261 25.4245C9.81531 26.478 8.37001 27.6233 6.99831 28.854C7.58924 29.2946 8.02262 29.9153 8.23385 30.6236C8.84696 31.9628 9.05353 33.4539 8.82773 34.9105C8.62752 35.6439 8.27776 36.3275 7.80067 36.9178C7.32357 37.5082 6.72955 37.9925 6.05629 38.3399C4.70311 39.0255 3.21605 39.4025 1.70118 39.4442C1.29043 41.6853 1.06214 43.9563 1.01855 46.2346C2.25939 46.6189 3.46154 47.1195 4.60914 47.7298C5.73747 48.3393 6.63645 49.3028 7.16897 50.4734C7.42363 51.1455 7.54155 51.862 7.51576 52.5807C7.48996 53.2994 7.32097 54.0055 7.01879 54.6574C6.4046 55.9577 5.48939 57.0914 4.34974 57.9634C5.71498 60.1514 6.98466 62.1817 8.30894 64.1845C9.30337 63.5037 10.4356 63.0528 11.6242 62.8642C12.8127 62.6757 14.0281 62.7541 15.1829 63.0939C15.7477 63.265 16.2772 63.5368 16.7461 63.8964C17.3078 64.3757 17.7615 64.9696 18.0772 65.6386C18.8729 67.2295 19.1658 69.0268 18.9169 70.7896C21.2369 71.2541 23.5825 71.5793 25.941 71.7636C25.8562 70.5801 26.0693 69.3943 26.5609 68.3154C27.0524 67.2365 27.8064 66.2994 28.7534 65.5906C29.7159 64.9278 30.8513 64.5646 32.018 64.5463C33.1846 64.528 34.3308 64.8554 35.3134 65.4877C36.1942 66.1567 36.9658 66.9597 37.6002 67.8677C39.6958 66.3793 41.7642 64.8567 43.7028 63.1899C42.6174 61.4958 41.5184 59.7947 41.4775 57.888C41.4934 56.8912 41.7587 55.9145 42.249 55.0479C42.7393 54.1813 43.4388 53.4526 44.283 52.9289C45.9945 51.896 48.0027 51.4731 49.9829 51.7286C50.6655 49.4172 51.2253 47.1606 51.7031 44.8697C50.3207 44.8019 48.9497 44.5834 47.6142 44.2181ZM35.2588 49.3211C34.4438 51.0965 33.1857 52.63 31.6068 53.7726C30.7021 54.4509 29.695 54.9789 28.6237 55.3364C24.2276 56.7494 19.067 54.2664 17.0192 50.103C16.2719 48.5782 15.8979 46.896 15.9283 45.1966C15.9586 43.4972 16.3925 41.8296 17.1938 40.3327C17.9951 38.8358 19.1407 37.5529 20.5351 36.5906C21.9295 35.6284 23.5325 35.0148 25.2106 34.8007C28.2005 34.4098 31.989 36.0353 34.1461 38.9641C35.2147 40.4429 35.8796 42.1769 36.0748 43.9938C36.27 45.8107 35.9887 47.6473 35.2588 49.3211Z" fill="#FFD803"/>
<g opacity="0.13">
<path d="M37.9505 44.4794C37.9027 44.1326 37.8343 43.7891 37.7457 43.4505C37.7048 43.3751 37.6706 43.2928 37.6297 43.2173C37.0071 41.9835 36.2688 40.8122 35.4248 39.7192C35.2844 39.817 35.1809 39.9596 35.1313 40.1239C35.0426 40.7138 35.4931 41.2488 35.6364 41.8044C36.1552 43.3408 36.4897 44.0815 36.3191 45.4876C36.0978 46.8213 35.7149 48.1227 35.1791 49.3629C34.8493 50.021 34.4609 50.6477 34.0186 51.2354C33.8821 51.4 33.8343 51.4686 33.8548 51.4755C33.6364 51.647 33.4452 51.8664 33.2268 52.0516L31.8615 53.2245C31.7001 53.3463 31.5473 53.4793 31.4042 53.6223C31.4725 53.5126 31.2745 53.7046 31.0834 53.8624C30.8283 54.0431 30.564 54.2102 30.2915 54.3631C28.9414 54.8527 27.5357 55.1707 26.1071 55.3096C25.0094 55.3507 23.9123 55.2141 22.8578 54.905C22.1752 54.7129 21.6427 54.0682 20.9465 54.2191C20.8083 54.2523 20.6817 54.3229 20.5807 54.4233C20.4796 54.5237 20.4078 54.6499 20.373 54.7884C20.4345 54.8638 20.5027 54.9324 20.571 55.0078L21.2536 55.5909L23.8476 57.2782C25.4048 57.7156 27.0444 57.7674 28.6259 57.4291H28.5167C29.8954 57.1998 31.2251 56.7359 32.4486 56.0573C33.6637 55.3018 34.6854 54.2705 35.4317 53.0462L35.4931 52.9433C36.3847 51.8148 37.0774 50.5412 37.5409 49.1777C37.997 47.6565 38.1365 46.0571 37.9505 44.4794Z" fill="#1A1A1A"/>
</g>
<g opacity="0.13">
<path d="M42.6314 60.2944C42.4403 60.3023 42.2535 60.3539 42.0853 60.4453C41.8539 60.5965 41.662 60.8011 41.5255 61.0421C41.3822 61.2272 41.232 61.4056 41.1023 61.6045C40.6934 62.1668 40.2366 62.6924 39.7371 63.1752C39.266 63.6828 38.5288 63.9983 38.2216 64.6293V64.6636C38.0396 64.7733 37.8553 64.8762 37.6687 64.9722C37.3342 65.1917 36.8837 65.2878 36.6448 65.6581C36.5037 65.8548 36.4327 66.0936 36.4434 66.3358C36.4542 66.578 36.5459 66.8095 36.7039 66.9928C36.8618 67.1761 37.0767 67.3005 37.3137 67.3458C37.5508 67.3911 37.7961 67.3548 38.01 67.2426C39.0286 66.707 39.9797 66.0507 40.8429 65.2878C40.8826 65.2409 40.926 65.1974 40.9726 65.1574C41.6462 64.6234 42.2847 64.046 42.8839 63.429C43.1335 63.1812 43.3618 62.9127 43.5666 62.6265C43.3481 62.1806 43.1502 61.7142 42.9727 61.2547C42.8771 60.9117 42.7474 60.6031 42.6314 60.2944Z" fill="#1A1A1A"/>
</g>
<g opacity="0.13">
<path d="M49.2599 44.752C48.8776 46.2472 48.4407 47.7287 47.9629 49.2034C47.7445 49.8893 47.526 50.5752 47.2803 51.2611C47.4096 51.4272 47.5846 51.5515 47.7837 51.6186C47.9827 51.6857 48.1969 51.6925 48.3998 51.6383H48.4612C48.5529 51.7618 48.6769 51.8572 48.8194 51.9138C48.962 51.9704 49.1174 51.9861 49.2683 51.9591C49.4192 51.932 49.5596 51.8633 49.6739 51.7606C49.7881 51.658 49.8717 51.5254 49.9152 51.3777C50.0039 51.0622 50.1405 50.7398 50.2497 50.4106C50.3241 50.3779 50.3932 50.3339 50.4545 50.2803C50.8134 49.9019 51.0512 49.4241 51.1371 48.9085C51.3666 47.9455 51.5015 46.9623 51.5398 45.9729C51.5398 45.918 51.5398 45.8562 51.5398 45.8014C50.8026 45.4516 50.0312 45.1086 49.2599 44.752Z" fill="#1A1A1A"/>
</g>
<path d="M25.9412 72.2849H25.9002C23.5211 72.0988 21.1551 71.7713 18.8146 71.3041C18.6836 71.2774 18.5675 71.2016 18.4902 71.092C18.4128 70.9824 18.3799 70.8473 18.3982 70.7142C18.6326 69.0574 18.3587 67.3682 17.6132 65.8718C17.3315 65.2702 16.9268 64.735 16.4254 64.3011C16.0129 63.9955 15.551 63.7635 15.0602 63.6152C13.9829 63.2907 12.8474 63.2104 11.7354 63.38C10.6235 63.5496 9.56287 63.9649 8.62992 64.596C8.51789 64.6609 8.3858 64.6813 8.25953 64.6534C8.13326 64.6255 8.02191 64.5512 7.9473 64.4451C6.6435 62.4697 5.34652 60.4258 3.98128 58.2103C3.91317 58.1017 3.88735 57.9717 3.90876 57.8451C3.93017 57.7185 3.99732 57.6043 4.09732 57.5244C5.17267 56.7038 6.03645 55.6359 6.61619 54.4105C6.89174 53.8239 7.04703 53.1877 7.07283 52.5396C7.09863 51.8915 6.99441 51.2448 6.76637 50.6381C6.26913 49.5809 5.4488 48.711 4.42498 48.1551C3.45777 47.6332 2.44281 47.2059 1.39415 46.8793L0.916314 46.7079C0.813391 46.6703 0.724945 46.601 0.663636 46.5098C0.602327 46.4186 0.571301 46.3103 0.575004 46.2003C0.616999 43.8992 0.845292 41.6053 1.25762 39.3414C1.28118 39.2271 1.34129 39.1236 1.42879 39.0469C1.5163 38.9701 1.62639 38.9242 1.74229 38.9161C3.17864 38.8793 4.58905 38.5233 5.87214 37.8735C6.4774 37.5544 7.01053 37.1131 7.4381 36.5773C7.86567 36.0414 8.17847 35.4226 8.35688 34.7596C8.54139 33.4098 8.33275 32.0351 7.75617 30.802C7.57818 30.1957 7.2123 29.6622 6.71176 29.2793C6.64629 29.2336 6.59203 29.1735 6.55306 29.1037C6.5141 29.0338 6.49146 28.956 6.48685 28.876C6.48225 28.796 6.4958 28.7161 6.52649 28.6422C6.55718 28.5682 6.60419 28.5023 6.66398 28.4493C8.05038 27.2162 9.51174 26.0708 11.0396 25.0199C11.1422 24.9458 11.2681 24.912 11.3938 24.9246C11.5195 24.9372 11.6362 24.9955 11.7222 25.0885C12.5464 25.7904 13.5575 26.234 14.6302 26.3642C15.302 26.5298 15.9874 26.6331 16.678 26.6729C18.3133 26.703 19.8956 26.0901 21.0877 24.965C22.3079 23.7679 23.1101 22.2064 23.3745 20.5135C23.3993 20.3876 23.4694 20.2753 23.5714 20.1981C23.6734 20.1209 23.8002 20.0843 23.9274 20.0951L29.8321 20.5341C30.0057 20.5557 30.1671 20.6349 30.2907 20.7592C30.4144 20.8834 30.4932 21.0456 30.5147 21.22C30.6737 23.0162 31.3207 24.734 32.3851 26.1859C32.9004 26.8767 33.5695 27.4369 34.3387 27.8216C35.1079 28.2063 35.9561 28.4048 36.8153 28.4013C38.6311 28.3122 40.2967 27.0707 41.9077 25.8704C42.0165 25.7874 42.1536 25.7509 42.2891 25.7689C42.4246 25.7869 42.5475 25.8579 42.6312 25.9664C44.249 28.0241 45.5938 29.9583 46.727 31.7965C46.7944 31.9048 46.8204 32.0339 46.8004 32.16C46.7803 32.2861 46.7154 32.4007 46.6177 32.4824C45.2234 33.6083 44.2003 35.1312 43.6825 36.8516C43.4421 37.6833 43.3972 38.5598 43.5512 39.412C43.7052 40.2641 44.0539 41.0688 44.5699 41.7626C45.397 42.7148 46.4879 43.3978 47.7031 43.7242C49.0038 44.0729 50.338 44.2798 51.6828 44.3415C51.7569 44.3479 51.8287 44.3701 51.8935 44.4068C51.9583 44.4435 52.0145 44.4938 52.0582 44.5542C52.1024 44.6133 52.1338 44.6811 52.1502 44.7532C52.1667 44.8252 52.1679 44.9 52.1538 44.9726C51.6828 47.2154 51.1162 49.4652 50.4199 51.8315C50.3845 51.9484 50.3103 52.0495 50.2097 52.1182C50.1091 52.1868 49.9882 52.2188 49.867 52.2088C48.0042 51.961 46.1128 52.3551 44.5016 53.3268C43.7325 53.8035 43.0946 54.4664 42.6462 55.2549C42.1978 56.0433 41.9533 56.9321 41.935 57.84C41.935 59.5753 42.9794 61.146 44.0443 62.8058V62.8676C44.1162 62.9733 44.1462 63.1022 44.1286 63.2291C44.1109 63.3559 44.0467 63.4716 43.9487 63.5535C41.9008 65.2819 39.8052 66.8389 37.8051 68.2587C37.6974 68.3264 37.5688 68.3526 37.4433 68.3325C37.3178 68.3123 37.2038 68.2471 37.1225 68.149C36.5186 67.2872 35.7864 66.5238 34.9518 65.8855C34.0552 65.3183 33.0138 65.0253 31.9545 65.0424C30.8952 65.0594 29.8637 65.3857 28.9857 65.9815C28.1105 66.643 27.4144 67.5145 26.9612 68.5163C26.508 69.5181 26.3122 70.6181 26.3917 71.7156C26.3974 71.79 26.3869 71.8647 26.3609 71.9346C26.335 72.0044 26.2943 72.0678 26.2415 72.1203C26.1618 72.2065 26.0564 72.2642 25.9412 72.2849ZM19.4904 70.3713C21.448 70.7467 23.4233 71.0214 25.4087 71.1943C25.4057 70.0145 25.6805 68.8507 26.2108 67.7981C26.7412 66.7454 27.5119 65.8339 28.46 65.1379C29.5075 64.4122 30.7458 64.015 32.018 63.9967C33.2903 63.9784 34.5393 64.3397 35.6071 65.035C36.4112 65.6298 37.1202 66.3445 37.7095 67.1544C39.4571 65.9061 41.2865 64.5617 43.0272 63.0871C42.0032 61.4752 40.9793 59.8085 40.9793 57.9017C40.9991 56.8165 41.2879 55.7533 41.8195 54.8084C42.3511 53.8635 43.1087 53.0667 44.0238 52.49C45.7042 51.4615 47.668 51 49.6281 51.173C50.2015 49.1634 50.6862 47.2497 51.1026 45.3567C49.8808 45.2778 48.6705 45.0709 47.4915 44.7394C46.0765 44.3581 44.8086 43.5574 43.8531 42.4416C43.2336 41.6202 42.8124 40.6653 42.6228 39.6524C42.4333 38.6394 42.4806 37.5961 42.7609 36.6046C43.2792 34.8191 44.2983 33.2214 45.6962 32.0023C44.6791 30.411 43.5528 28.8129 42.1807 27.0364C40.5697 28.2299 38.8905 29.3753 36.9245 29.4713C35.9008 29.4818 34.8888 29.2508 33.9701 28.7969C33.0513 28.3431 32.2512 27.679 31.6342 26.8581C30.4949 25.3204 29.7877 23.5035 29.5864 21.5972L24.3097 21.1994C23.9268 22.9233 23.043 24.4941 21.7704 25.7126C20.378 27.0247 18.532 27.7406 16.6234 27.7086C15.8734 27.661 15.1289 27.5485 14.3981 27.3725C13.275 27.2035 12.2081 26.7686 11.2853 26.1036C10.1522 26.8992 9.03267 27.7772 7.80395 28.8472C8.21479 29.3071 8.52831 29.8462 8.72549 30.4316C9.37821 31.8686 9.59202 33.4679 9.33985 35.0271C9.11934 35.8269 8.73614 36.572 8.21446 37.2154C7.69279 37.8588 7.04397 38.3865 6.30901 38.7652C5.01555 39.4332 3.59701 39.8211 2.14503 39.9038C1.81046 41.8651 1.61428 43.8477 1.55798 45.8368L1.67402 45.8779C2.78534 46.2292 3.85988 46.6886 4.88234 47.2497C6.10774 47.914 7.08695 48.958 7.67426 50.2265C7.95439 50.9634 8.08424 51.7493 8.05609 52.5375C8.02795 53.3258 7.84239 54.1004 7.51043 54.8152C6.9394 56.0557 6.09981 57.1524 5.05299 58.0251C6.2271 59.9319 7.35343 61.7084 8.4661 63.43C9.49134 62.8187 10.6323 62.4291 11.8159 62.2862C12.9996 62.1433 14.1999 62.2502 15.3401 62.6001C15.9621 62.788 16.5449 63.0877 17.0603 63.4849C17.6845 64.0101 18.1876 64.6654 18.5347 65.4054C19.3017 66.9409 19.6324 68.6592 19.4904 70.3713Z" fill="#1A1A1A"/>
<path d="M25.6821 51.3787C24.7799 51.3632 23.8955 51.1233 23.1082 50.6804C22.3208 50.2375 21.6549 49.6055 21.17 48.8409C20.6517 47.9637 20.342 46.9781 20.2651 45.9609C20.1881 44.9436 20.3459 43.9223 20.7263 42.9765C21.2158 41.6906 22.1006 40.595 23.252 39.8488C23.8373 39.4673 24.494 39.2097 25.1817 39.0918C25.8695 38.9739 26.574 38.9981 27.2521 39.1629C28.5378 39.4432 29.6975 40.1367 30.556 41.1383C31.4348 42.3254 31.8916 43.7746 31.853 45.2536C31.8755 46.2132 31.6396 47.1612 31.1704 47.9972C30.8059 48.5859 30.3442 49.1078 29.8051 49.5405C28.8706 50.4244 27.7144 51.0361 26.4603 51.3101C26.2035 51.3563 25.943 51.3793 25.6821 51.3787ZM26.0371 40.0889C25.2459 40.0924 24.471 40.3155 23.7981 40.7336C22.8381 41.3634 22.1019 42.2833 21.6956 43.3606C21.3741 44.1524 21.2388 45.0082 21.3004 45.8612C21.3619 46.7143 21.6187 47.5415 22.0506 48.2784C22.4882 48.9889 23.1218 49.5563 23.8743 49.9119C24.6268 50.2674 25.4659 50.3957 26.2896 50.2813C27.3595 50.0377 28.3434 49.5066 29.1362 48.7449C29.5909 48.3847 29.983 47.9513 30.2966 47.4622C30.6597 46.792 30.8387 46.0369 30.8154 45.2742C30.8427 44.0427 30.4635 42.8368 29.7369 41.8447C29.0208 41.0316 28.0636 40.4713 27.0064 40.2466C26.6922 40.1497 26.3657 40.0989 26.0371 40.0957V40.0889Z" fill="#1A1A1A"/>
<path d="M26.0507 56.2345C24.0804 56.2115 22.1539 55.6479 20.4792 54.6046C18.8045 53.5614 17.4454 52.0782 16.5486 50.3152C15.7576 48.7138 15.3599 46.9453 15.3887 45.1577C15.4175 43.3702 15.8719 41.6155 16.7141 40.0407C17.5563 38.4658 18.7616 37.1165 20.2292 36.1057C21.6968 35.095 23.384 34.4521 25.1496 34.231C28.4331 33.8126 32.3991 35.6508 34.5766 38.6002C35.7026 40.1545 36.4024 41.9787 36.6061 43.8903C36.8097 45.8018 36.5101 47.7336 35.7371 49.4922C34.8817 51.3466 33.5652 52.9482 31.9144 54.1425C30.967 54.8586 29.9083 55.4125 28.7812 55.7818C27.9004 56.0763 26.9789 56.2291 26.0507 56.2345ZM26.1053 35.2393C25.8223 35.24 25.5396 35.2583 25.2589 35.2941C23.6629 35.4976 22.1383 36.0814 20.8124 36.9969C19.4864 37.9123 18.3973 39.1329 17.6359 40.5569C16.8745 41.981 16.4629 43.5672 16.4352 45.1835C16.4076 46.7998 16.7648 48.3993 17.477 49.8488C19.4566 53.8956 24.3783 56.1248 28.4399 54.8147C29.4573 54.4771 30.4139 53.9768 31.2728 53.3332C32.78 52.2435 33.9816 50.781 34.7609 49.0875C35.4163 47.6114 35.6998 45.9958 35.5864 44.3834C35.4729 42.7711 34.966 41.2116 34.1105 39.8428C33.2549 38.474 32.077 37.338 30.6809 36.5351C29.2847 35.7322 27.7133 35.2872 26.1053 35.2393Z" fill="#1A1A1A"/>
<path d="M76.8441 12.8793L75.7041 9.1137L78.1069 5.68422L72.1955 1.56885L69.9019 5.30698C69.8656 5.37291 69.8169 5.43114 69.7585 5.47845C69.6646 5.52951 69.5576 5.55102 69.4513 5.54018C68.1339 5.54018 66.8164 5.49903 65.499 5.46473C64.8163 4.23012 64.2225 3.05724 63.5125 1.93237C63.4907 1.88462 63.4595 1.84179 63.4208 1.80643C63.3821 1.77108 63.3367 1.74393 63.2873 1.7266C63.1803 1.71399 63.0727 1.74349 62.9869 1.80891L58.2905 4.6348C58.2499 4.65894 58.2131 4.68899 58.1813 4.72396C58.1605 4.77991 58.1545 4.84035 58.1641 4.8993C58.1737 4.95825 58.1984 5.01366 58.2359 5.06005C58.8254 6.10847 59.5282 7.08836 60.3315 7.98197C59.6442 9.25076 58.8877 10.4804 58.0652 11.6652C58.0034 11.8115 57.9126 11.9436 57.7983 12.0536C57.6841 12.1635 57.5488 12.249 57.4007 12.3048C57.2526 12.3606 57.0948 12.3856 56.9368 12.3782C56.7787 12.3709 56.6239 12.3313 56.4815 12.262C55.3825 11.9533 54.2903 11.5761 53.2118 11.2057C52.2825 13.412 52.1119 15.8666 52.7271 18.1812C52.809 18.3596 56.8979 17.7697 56.8979 17.7697L59.3349 22.0017L57.3826 25.2254L61.8606 28.4902L64.1883 25.0608L68.284 25.1431L69.8882 28.744L76.0318 26.6177L74.5505 22.9345L76.7554 19.361L80.9057 19.0317L81.0354 13.9561L76.8441 12.8793ZM69.7926 14.7998C69.7889 15.0402 69.7255 15.276 69.6083 15.4857C69.5576 15.6276 69.4912 15.7633 69.4104 15.8903C69.2491 16.1406 69.0589 16.3708 68.8438 16.5762C68.4131 16.9751 67.907 17.2829 67.3557 17.4816C67.1356 17.5667 66.9066 17.6266 66.6731 17.6599C66.4692 17.6872 66.2626 17.6872 66.0587 17.6599C65.9277 17.6349 65.7956 17.6166 65.6628 17.6051C66.0314 17.6051 65.6287 17.6051 65.4921 17.6051C64.832 17.3956 64.2757 16.9421 63.9358 16.3362C63.7302 15.9914 63.6043 15.6046 63.5671 15.2044C63.5644 14.8408 63.6389 14.4807 63.7856 14.1482C63.9639 13.6678 64.1927 13.2079 64.4682 12.7764C64.7819 12.2687 65.2157 11.8469 65.7311 11.5486C65.9779 11.417 66.2495 11.3392 66.5283 11.3203C66.8071 11.3014 67.0867 11.3418 67.3489 11.4389C67.5603 11.331 67.8056 11.3113 68.0315 11.384C68.4086 11.5068 68.7459 11.7296 69.0076 12.0288C69.255 12.3291 69.4532 12.6671 69.5947 13.0302C69.6356 13.1468 69.6766 13.2634 69.7107 13.3868L69.7517 13.6063C69.7517 13.7229 69.7517 13.8327 69.7995 13.9493V13.867C69.7995 13.7709 69.7995 13.7709 69.7995 13.867C69.7995 13.963 69.8336 14.0933 69.8472 14.2099C69.8609 14.3265 69.8472 14.3265 69.8472 14.3814C69.8447 14.5225 69.8264 14.6628 69.7926 14.7998Z" fill="white"/>
<path d="M58.8701 17.4267H58.8155C58.7715 17.4125 58.7348 17.3816 58.7131 17.3406C58.6915 17.2996 58.6865 17.2518 58.6994 17.2072C59.8735 13.2016 61.2524 9.20282 62.7951 5.32751C62.8007 5.30186 62.8118 5.27775 62.8277 5.25691C62.8436 5.23607 62.8638 5.21901 62.887 5.20695C62.9103 5.19489 62.9358 5.18812 62.9619 5.18714C62.988 5.18615 63.014 5.19097 63.0381 5.20125C63.0621 5.21153 63.0836 5.22702 63.101 5.2466C63.1184 5.26619 63.1313 5.28939 63.1387 5.31456C63.1462 5.33972 63.148 5.36623 63.144 5.39218C63.1401 5.41813 63.1305 5.44289 63.116 5.46469C61.5664 9.32628 60.1875 13.3113 59.0203 17.3101C59.0095 17.3423 58.9895 17.3706 58.9628 17.3913C58.9361 17.4121 58.9038 17.4244 58.8701 17.4267Z" fill="#1A1A1A"/>
<path d="M60.6328 18.0782H60.585C60.541 18.0639 60.5043 18.0331 60.4827 17.9921C60.461 17.9511 60.4561 17.9032 60.469 17.8587C61.552 14.0506 62.973 10.348 64.7149 6.79519C64.7366 6.75519 64.7728 6.72508 64.816 6.71105C64.8591 6.69702 64.906 6.70013 64.9469 6.71974C64.9679 6.72929 64.9867 6.74298 65.0022 6.76001C65.0177 6.77703 65.0297 6.79704 65.0373 6.81881C65.045 6.84059 65.0482 6.8637 65.0467 6.88675C65.0453 6.9098 65.0392 6.93231 65.0289 6.95295C63.2925 10.4749 61.8782 14.1481 60.8034 17.9273C60.7971 17.9685 60.7765 18.0062 60.7453 18.0338C60.7141 18.0613 60.6743 18.0771 60.6328 18.0782Z" fill="#1A1A1A"/>
<path d="M59.9555 25.3142H59.8941C59.8728 25.3059 59.8534 25.2934 59.837 25.2775C59.8206 25.2615 59.8076 25.2424 59.7987 25.2213C59.7898 25.2002 59.7852 25.1776 59.7852 25.1546C59.7851 25.1317 59.7897 25.109 59.7985 25.0879L62.7747 17.9066C62.783 17.8852 62.7954 17.8657 62.8113 17.8492C62.8272 17.8328 62.8462 17.8197 62.8672 17.8107C62.8882 17.8018 62.9108 17.7972 62.9336 17.7971C62.9564 17.7971 62.979 17.8016 63 17.8105C63.0423 17.8301 63.0757 17.865 63.0934 17.9083C63.1111 17.9515 63.1119 17.9999 63.0956 18.0437L60.1193 25.2251C60.1024 25.2532 60.0783 25.2763 60.0495 25.292C60.0207 25.3076 59.9882 25.3153 59.9555 25.3142Z" fill="#1A1A1A"/>
<path d="M63.8602 23.7849H63.7988C63.757 23.7667 63.7238 23.733 63.706 23.6909C63.6882 23.6488 63.6872 23.6014 63.7032 23.5585L65.362 19.4432C65.3792 19.4004 65.4126 19.3663 65.4548 19.3483C65.4971 19.3303 65.5447 19.3299 65.5873 19.3471C65.6298 19.3644 65.6638 19.398 65.6817 19.4404C65.6996 19.4829 65.7 19.5307 65.6828 19.5735L64.0241 23.6889C64.0086 23.7188 63.985 23.7437 63.956 23.7607C63.927 23.7777 63.8938 23.7861 63.8602 23.7849Z" fill="#1A1A1A"/>
<path d="M66.9671 10.2246H66.9193C66.897 10.2184 66.8762 10.2077 66.8582 10.1931C66.8401 10.1785 66.8252 10.1604 66.8144 10.1399C66.8035 10.1194 66.7969 10.0968 66.795 10.0737C66.7931 10.0505 66.7959 10.0272 66.8032 10.0051L67.5951 7.47419C67.602 7.45241 67.6132 7.43225 67.628 7.41489C67.6428 7.39752 67.6609 7.38331 67.6813 7.37308C67.7016 7.36286 67.7238 7.35683 67.7465 7.35534C67.7692 7.35386 67.792 7.35695 67.8135 7.36444C67.8575 7.37867 67.8942 7.40955 67.9158 7.45053C67.9375 7.49151 67.9424 7.53937 67.9295 7.58393L67.1377 10.1149C67.123 10.1479 67.0991 10.1759 67.0687 10.1954C67.0384 10.2149 67.0031 10.2251 66.9671 10.2246Z" fill="#1A1A1A"/>
<path d="M70.1005 10.8557H70.0391C69.9961 10.8388 69.9613 10.8057 69.9422 10.7635C69.9231 10.7212 69.9211 10.6731 69.9367 10.6294C70.7519 8.45039 71.6769 6.31449 72.7082 4.22999C72.7177 4.20896 72.7313 4.19008 72.7482 4.17447C72.7652 4.15886 72.7851 4.14686 72.8067 4.13917C72.8284 4.13148 72.8514 4.12828 72.8744 4.12974C72.8973 4.1312 72.9197 4.13731 72.9402 4.14769C72.9818 4.16959 73.013 4.20715 73.0271 4.25214C73.0412 4.29713 73.0369 4.34589 73.0153 4.38775C71.9994 6.46205 71.0881 8.58644 70.2848 10.7529C70.2691 10.7876 70.2427 10.8163 70.2095 10.8348C70.1764 10.8533 70.1382 10.8606 70.1005 10.8557Z" fill="#1A1A1A"/>
<path d="M66.9667 23.8259H66.8916C66.8707 23.8164 66.8519 23.8027 66.8364 23.7856C66.8208 23.7686 66.8089 23.7486 66.8012 23.7268C66.7936 23.7051 66.7904 23.6819 66.7918 23.6589C66.7933 23.6359 66.7994 23.6133 66.8097 23.5927L74.3595 7.54961C74.3825 7.51659 74.4156 7.49203 74.4538 7.47965C74.492 7.46727 74.5332 7.46775 74.5711 7.48103C74.592 7.49057 74.6108 7.50427 74.6264 7.52129C74.6419 7.53832 74.6538 7.55832 74.6615 7.5801C74.6691 7.60188 74.6723 7.62498 74.6709 7.64803C74.6694 7.67108 74.6633 7.6936 74.653 7.71423L67.1237 23.7299C67.1082 23.7583 67.0855 23.7821 67.058 23.799C67.0304 23.8158 66.999 23.8251 66.9667 23.8259Z" fill="#1A1A1A"/>
<path d="M69.9852 24.4709C69.9629 24.4774 69.9392 24.4774 69.9169 24.4709C69.8747 24.4514 69.8418 24.4161 69.8252 24.3725C69.8086 24.3289 69.8097 24.2805 69.8282 24.2377L74.9001 13.3388C74.9194 13.2964 74.9546 13.2633 74.998 13.2466C75.0414 13.23 75.0896 13.231 75.1322 13.2497C75.1732 13.2703 75.2046 13.3062 75.2199 13.3497C75.2351 13.3932 75.2331 13.4409 75.2141 13.4829L70.1422 24.3886C70.1266 24.416 70.1036 24.4383 70.0757 24.4529C70.0479 24.4675 70.0165 24.4737 69.9852 24.4709Z" fill="#1A1A1A"/>
<path d="M75.3904 19.0183C75.3635 19.0244 75.3355 19.0244 75.3085 19.0183C75.2681 18.9952 75.2383 18.9571 75.2256 18.9122C75.2128 18.8674 75.2181 18.8192 75.2402 18.7782L77.4724 14.7314C77.4832 14.7116 77.4977 14.6941 77.5152 14.6799C77.5327 14.6658 77.5528 14.6552 77.5743 14.6488C77.5959 14.6425 77.6185 14.6404 77.6408 14.6428C77.6631 14.6452 77.6848 14.652 77.7045 14.6628C77.7242 14.6736 77.7416 14.6882 77.7557 14.7058C77.7698 14.7234 77.7804 14.7436 77.7867 14.7652C77.793 14.7869 77.7951 14.8096 77.7927 14.832C77.7903 14.8545 77.7835 14.8762 77.7728 14.896L75.5406 18.9497C75.5234 18.9729 75.5006 18.9914 75.4743 19.0034C75.448 19.0154 75.4192 19.0205 75.3904 19.0183Z" fill="#1A1A1A"/>
<path d="M71.6489 26.6861C71.6219 26.6923 71.5939 26.6923 71.567 26.6861C71.5272 26.6643 71.4972 26.6279 71.4832 26.5845C71.4693 26.5412 71.4724 26.4941 71.4919 26.4529L72.5226 24.4089C72.5321 24.3879 72.5458 24.369 72.5627 24.3534C72.5796 24.3378 72.5996 24.3258 72.6212 24.3181C72.6429 24.3104 72.6659 24.3072 72.6888 24.3087C72.7118 24.3102 72.7342 24.3163 72.7547 24.3266C72.7945 24.3485 72.8245 24.3849 72.8385 24.4282C72.8524 24.4716 72.8493 24.5187 72.8298 24.5598L71.8264 26.6175C71.8058 26.6441 71.7784 26.6645 71.7471 26.6766C71.7158 26.6887 71.6819 26.692 71.6489 26.6861Z" fill="#1A1A1A"/>
<path d="M54.5908 16.4873C54.5638 16.4935 54.5358 16.4935 54.5089 16.4873C54.469 16.4654 54.4391 16.4291 54.4251 16.3857C54.4112 16.3424 54.4142 16.2953 54.4338 16.2541L55.799 13.4351C55.8085 13.414 55.8221 13.3952 55.8391 13.3795C55.856 13.3639 55.8759 13.3519 55.8976 13.3442C55.9193 13.3366 55.9423 13.3334 55.9652 13.3348C55.9882 13.3363 56.0106 13.3424 56.0311 13.3528C56.0721 13.3735 56.1035 13.4093 56.1188 13.4528C56.1341 13.4963 56.132 13.544 56.113 13.586L54.7751 16.3981C54.759 16.4318 54.732 16.459 54.6985 16.4752C54.665 16.4914 54.627 16.4957 54.5908 16.4873Z" fill="#1A1A1A"/>
<path d="M60.3446 5.85552C60.318 5.86441 60.2892 5.86441 60.2626 5.85552C60.2429 5.84475 60.2254 5.83017 60.2113 5.8126C60.1972 5.79504 60.1866 5.77484 60.1803 5.75317C60.1739 5.7315 60.1719 5.70879 60.1743 5.68633C60.1768 5.66387 60.1836 5.64212 60.1944 5.62232L61.2046 3.81155C61.2152 3.79157 61.2298 3.774 61.2475 3.75994C61.2652 3.74589 61.2855 3.73564 61.3073 3.72984C61.3291 3.72405 61.3518 3.72284 61.3741 3.72627C61.3964 3.72971 61.4177 3.73773 61.4367 3.74982C61.4565 3.76059 61.474 3.77517 61.4881 3.79274C61.5022 3.8103 61.5128 3.8305 61.5191 3.85217C61.5254 3.87384 61.5275 3.89656 61.525 3.91901C61.5226 3.94147 61.5158 3.96322 61.505 3.98303L60.4947 5.79379C60.4768 5.81579 60.4536 5.83296 60.4274 5.84374C60.4012 5.85451 60.3727 5.85856 60.3446 5.85552Z" fill="#1A1A1A"/>
<path d="M69.8324 29.2377C69.7297 29.2383 69.6293 29.2079 69.5441 29.1504C69.4589 29.0929 69.3929 29.011 69.3545 28.9153C68.9385 27.7917 68.4221 26.7081 67.8118 25.6779C66.5645 25.7915 65.3088 25.7777 64.0642 25.6368C63.7093 26.2609 63.3816 26.9057 63.0062 27.5847L62.3236 28.8056C62.2627 28.9158 62.1642 29.0002 62.0462 29.0431C61.9283 29.086 61.7988 29.0844 61.6819 29.0388C59.7171 28.2938 57.982 27.0425 56.651 25.4104C56.5828 25.3182 56.546 25.2063 56.546 25.0915C56.546 24.9766 56.5828 24.8648 56.651 24.7725C57.3336 23.8534 58.0162 22.9137 58.6988 21.782C57.8744 20.6665 57.1869 19.4551 56.651 18.1742L55.8182 18.3457C54.8625 18.5446 53.8659 18.7504 52.7942 18.9013C52.6695 18.9177 52.5431 18.8887 52.4379 18.8195C52.3327 18.7502 52.2556 18.6454 52.2208 18.524C51.6215 16.0297 51.7978 13.4108 52.7259 11.0203C52.7681 10.8974 52.8546 10.7948 52.9682 10.7326C53.0819 10.6704 53.2146 10.6532 53.3403 10.6842L57.5043 11.6994C58.1067 10.5182 58.7768 9.37311 59.5112 8.26988C58.7542 7.30489 58.0697 6.28467 57.4633 5.21765C57.4047 5.11453 57.383 4.99442 57.4016 4.87718C57.4202 4.75994 57.4781 4.65259 57.5657 4.57291C59.2204 3.14125 61.0914 1.98359 63.1086 1.14343C63.2289 1.08645 63.3662 1.07741 63.4929 1.11814C63.6196 1.15887 63.7262 1.24634 63.7912 1.36292C64.4614 2.52807 65.061 3.73287 65.5865 4.97073C66.9417 4.76506 68.316 4.71673 69.6822 4.82669C70.3034 3.65381 70.9519 2.44663 71.7642 1.18458C71.8347 1.07394 71.9437 0.993664 72.0699 0.959421C72.1961 0.925178 72.3305 0.93943 72.4468 0.999393C74.0556 1.82486 75.5708 2.82294 76.9658 3.97618C77.3412 4.29169 77.703 4.6072 78.0716 4.92957C78.3057 5.10107 78.4819 5.34041 78.5767 5.61547C78.5935 5.68777 78.5955 5.76273 78.5826 5.83583C78.5697 5.90893 78.5421 5.97863 78.5017 6.04072C78.1876 6.50713 77.86 6.96668 77.5255 7.41252C77.0818 8.03668 76.6313 8.68142 76.1603 9.38789C76.5562 10.3687 76.9658 11.3701 77.3412 12.3853C78.7966 12.5017 80.2272 12.8322 81.5871 13.3661C81.6781 13.4028 81.7567 13.4649 81.8136 13.5452C81.8705 13.6254 81.9032 13.7204 81.9079 13.8188C82.0506 15.7779 81.764 17.7445 81.0683 19.5803C81.0316 19.6837 80.9625 19.7723 80.8714 19.8329C80.7804 19.8935 80.6722 19.9228 80.5632 19.9164H80.099C79.0304 19.8546 77.9592 19.8546 76.8907 19.9164C76.3602 21.0686 75.6708 22.14 74.8428 23.0989C75.5033 24.2025 76.0916 25.3481 76.604 26.5284C76.6579 26.6512 76.664 26.7898 76.621 26.9168C76.5781 27.0439 76.4891 27.1501 76.3719 27.2143C74.3645 28.313 72.1649 29.0117 69.8938 29.272L69.8324 29.2377ZM68.0712 24.6285C68.1577 24.6271 68.2432 24.6478 68.3196 24.6885C68.3959 24.7293 68.4608 24.7889 68.5081 24.8617C69.1716 25.9113 69.7273 27.0259 70.1669 28.1883C72.0069 27.9326 73.7908 27.3668 75.4435 26.5147C74.9386 25.4243 74.3757 24.3619 73.7574 23.3321C73.7038 23.2381 73.6802 23.1297 73.69 23.0217C73.6998 22.9137 73.7424 22.8114 73.8121 22.7286C74.7302 21.7002 75.4709 20.5248 76.0033 19.2511C76.0377 19.1604 76.0971 19.0813 76.1744 19.023C76.2517 18.9648 76.3438 18.9297 76.4401 18.9218C77.6584 18.8402 78.8807 18.8402 80.099 18.9218H80.1809C80.7004 17.4317 80.9321 15.8557 80.8635 14.2783C79.5839 13.8194 78.2466 13.5424 76.8907 13.4553C76.7918 13.4467 76.6975 13.4099 76.6188 13.3491C76.5402 13.2883 76.4805 13.2061 76.447 13.1123C76.0169 11.9257 75.5323 10.7391 75.0817 9.5868C75.0506 9.50766 75.0386 9.4222 75.047 9.3375C75.0553 9.2528 75.0836 9.17132 75.1295 9.09982C75.6688 8.29046 76.1807 7.56341 76.6722 6.8638C76.9316 6.50027 77.1842 6.1779 77.4299 5.78694L77.3753 5.74579C77.0204 5.43028 76.6927 5.11477 76.2968 4.81297C75.0854 3.80376 73.7749 2.92125 72.3854 2.17913C71.6413 3.37259 71.0201 4.53176 70.4399 5.64976C70.3946 5.74417 70.3206 5.82163 70.2285 5.87095C70.1365 5.92028 70.0312 5.9389 69.9279 5.92412C68.4028 5.77189 66.864 5.82958 65.3544 6.09559C65.2374 6.11579 65.117 6.0956 65.0129 6.03831C64.9088 5.98102 64.8271 5.89001 64.781 5.78008C64.2963 4.60486 63.7424 3.45967 63.1222 2.35061C61.496 3.06633 59.9754 4.00335 58.6033 5.13534C59.2013 6.12445 59.8602 7.07512 60.576 7.98181C60.6378 8.06893 60.671 8.17322 60.671 8.28017C60.671 8.38712 60.6378 8.49141 60.576 8.57854C59.7105 9.86603 58.9371 11.2138 58.262 12.6116C58.2126 12.7222 58.126 12.8118 58.0173 12.8645C57.9087 12.9172 57.785 12.9297 57.6681 12.8997C56.2551 12.5636 54.9376 12.2138 53.5724 11.9051C52.8997 13.8241 52.7466 15.8882 53.1287 17.8861C53.9956 17.749 54.8216 17.5775 55.6202 17.4129L56.8762 17.1522C56.9935 17.1299 57.1148 17.1482 57.2202 17.2043C57.3257 17.2604 57.409 17.3509 57.4565 17.4609C58.0326 18.9148 58.8143 20.2778 59.7774 21.5077C59.8464 21.5926 59.8875 21.6969 59.8948 21.8063C59.9021 21.9157 59.8754 22.0247 59.8183 22.1181C59.0811 23.2841 58.4053 24.2375 57.7705 25.1498C58.8524 26.3731 60.1905 27.3405 61.6887 27.9825C61.8343 27.7082 61.9777 27.4407 62.1188 27.18C62.5352 26.3912 62.9379 25.6436 63.3611 24.9097C63.4105 24.8228 63.4838 24.752 63.5721 24.7057C63.6605 24.6595 63.7602 24.6398 63.8594 24.6491C65.243 24.831 66.6434 24.8448 68.0303 24.6902L68.0712 24.6285Z" fill="#1A1A1A"/>
<path d="M66.1888 17.8177C65.6205 17.8198 65.0579 17.703 64.5369 17.4748C64.1337 17.3214 63.7814 17.0577 63.5198 16.7134C63.2667 16.3179 63.1273 15.8597 63.1171 15.3896C62.976 14.1509 63.3105 12.9048 64.0522 11.9053C64.4512 11.3809 64.9975 10.9889 65.6206 10.7798C66.2436 10.5707 66.9148 10.5542 67.5473 10.7324C67.6267 10.7592 67.6991 10.8037 67.7589 10.8627C68.394 11.086 68.9493 11.4929 69.3549 12.0323C69.7606 12.5717 69.9985 13.2195 70.0388 13.8944C70.0672 14.5597 69.9176 15.2206 69.6054 15.8081C69.2933 16.3956 68.83 16.8882 68.264 17.2347C67.6394 17.6184 66.921 17.8202 66.1888 17.8177ZM66.6803 11.6446C66.3292 11.6552 65.9847 11.7429 65.6709 11.9017C65.3572 12.0605 65.082 12.2865 64.8646 12.5637C64.291 13.3553 64.0351 14.3348 64.1478 15.3073C64.1548 15.5865 64.2298 15.8597 64.3663 16.103C64.5201 16.2892 64.7203 16.4312 64.9465 16.5145C65.3912 16.7077 65.8748 16.7935 66.3585 16.7649C66.8422 16.7363 67.3125 16.5942 67.7316 16.3499C68.1328 16.0965 68.4615 15.7425 68.6853 15.3228C68.9091 14.9031 69.0203 14.4321 69.0081 13.9561C68.9764 13.4922 68.812 13.0473 68.5347 12.6749C68.2573 12.3026 67.8789 12.0187 67.4449 11.8573H67.3425C67.2173 11.8281 67.099 11.7745 66.9943 11.6995C66.892 11.6683 66.7868 11.6476 66.6803 11.6378V11.6446Z" fill="#1A1A1A"/>
<path d="M58.8701 17.4267H58.8155C58.7715 17.4125 58.7348 17.3816 58.7131 17.3406C58.6915 17.2996 58.6865 17.2518 58.6994 17.2072C59.8735 13.2016 61.2524 9.20282 62.7951 5.32751C62.8007 5.30186 62.8118 5.27775 62.8277 5.25691C62.8436 5.23607 62.8638 5.21901 62.887 5.20695C62.9103 5.19489 62.9358 5.18812 62.9619 5.18714C62.988 5.18615 63.014 5.19097 63.0381 5.20125C63.0621 5.21153 63.0836 5.22702 63.101 5.2466C63.1184 5.26619 63.1313 5.28939 63.1387 5.31456C63.1462 5.33972 63.148 5.36623 63.144 5.39218C63.1401 5.41813 63.1305 5.44289 63.116 5.46469C61.5664 9.32628 60.1875 13.3113 59.0203 17.3101C59.0095 17.3423 58.9895 17.3706 58.9628 17.3913C58.9361 17.4121 58.9038 17.4244 58.8701 17.4267Z" fill="#1A1A1A"/>
<path d="M60.6328 18.0782H60.585C60.541 18.0639 60.5043 18.0331 60.4827 17.9921C60.461 17.9511 60.4561 17.9032 60.469 17.8587C61.552 14.0506 62.973 10.348 64.7149 6.79519C64.7366 6.75519 64.7728 6.72508 64.816 6.71105C64.8591 6.69702 64.906 6.70013 64.9469 6.71974C64.9679 6.72929 64.9867 6.74298 65.0022 6.76001C65.0177 6.77703 65.0297 6.79704 65.0373 6.81881C65.045 6.84059 65.0482 6.8637 65.0467 6.88675C65.0453 6.9098 65.0392 6.93231 65.0289 6.95295C63.2925 10.4749 61.8782 14.1481 60.8034 17.9273C60.7971 17.9685 60.7765 18.0062 60.7453 18.0338C60.7141 18.0613 60.6743 18.0771 60.6328 18.0782Z" fill="#1A1A1A"/>
<path d="M59.9555 25.3142H59.8941C59.8728 25.3059 59.8534 25.2934 59.837 25.2775C59.8206 25.2615 59.8076 25.2424 59.7987 25.2213C59.7898 25.2002 59.7852 25.1776 59.7852 25.1546C59.7851 25.1317 59.7897 25.109 59.7985 25.0879L62.7747 17.9066C62.783 17.8852 62.7954 17.8657 62.8113 17.8492C62.8272 17.8328 62.8462 17.8197 62.8672 17.8107C62.8882 17.8018 62.9108 17.7972 62.9336 17.7971C62.9564 17.7971 62.979 17.8016 63 17.8105C63.0423 17.8301 63.0757 17.865 63.0934 17.9083C63.1111 17.9515 63.1119 17.9999 63.0956 18.0437L60.1193 25.2251C60.1024 25.2532 60.0783 25.2763 60.0495 25.292C60.0207 25.3076 59.9882 25.3153 59.9555 25.3142Z" fill="#1A1A1A"/>
<path d="M63.8602 23.7849H63.7988C63.757 23.7667 63.7238 23.733 63.706 23.6909C63.6882 23.6488 63.6872 23.6014 63.7032 23.5585L65.362 19.4432C65.3792 19.4004 65.4126 19.3663 65.4548 19.3483C65.4971 19.3303 65.5447 19.3299 65.5873 19.3471C65.6298 19.3644 65.6638 19.398 65.6817 19.4404C65.6996 19.4829 65.7 19.5307 65.6828 19.5735L64.0241 23.6889C64.0086 23.7188 63.985 23.7437 63.956 23.7607C63.927 23.7777 63.8938 23.7861 63.8602 23.7849Z" fill="#1A1A1A"/>
<path d="M66.9671 10.2246H66.9193C66.897 10.2184 66.8762 10.2077 66.8582 10.1931C66.8401 10.1785 66.8252 10.1604 66.8144 10.1399C66.8035 10.1194 66.7969 10.0968 66.795 10.0737C66.7931 10.0505 66.7959 10.0272 66.8032 10.0051L67.5951 7.47419C67.602 7.45241 67.6132 7.43225 67.628 7.41489C67.6428 7.39752 67.6609 7.38331 67.6813 7.37308C67.7016 7.36286 67.7238 7.35683 67.7465 7.35534C67.7692 7.35386 67.792 7.35695 67.8135 7.36444C67.8575 7.37867 67.8942 7.40955 67.9158 7.45053C67.9375 7.49151 67.9424 7.53937 67.9295 7.58393L67.1377 10.1149C67.123 10.1479 67.0991 10.1759 67.0687 10.1954C67.0384 10.2149 67.0031 10.2251 66.9671 10.2246Z" fill="#1A1A1A"/>
<path d="M70.1005 10.8557H70.0391C69.9961 10.8388 69.9613 10.8057 69.9422 10.7635C69.9231 10.7212 69.9211 10.6731 69.9367 10.6294C70.7519 8.45039 71.6769 6.31449 72.7082 4.22999C72.7177 4.20896 72.7313 4.19008 72.7482 4.17447C72.7652 4.15886 72.7851 4.14686 72.8067 4.13917C72.8284 4.13148 72.8514 4.12828 72.8744 4.12974C72.8973 4.1312 72.9197 4.13731 72.9402 4.14769C72.9818 4.16959 73.013 4.20715 73.0271 4.25214C73.0412 4.29713 73.0369 4.34589 73.0153 4.38775C71.9994 6.46205 71.0881 8.58644 70.2848 10.7529C70.2691 10.7876 70.2427 10.8163 70.2095 10.8348C70.1764 10.8533 70.1382 10.8606 70.1005 10.8557Z" fill="#1A1A1A"/>
<path d="M66.9667 23.8259H66.8916C66.8707 23.8164 66.8519 23.8027 66.8364 23.7856C66.8208 23.7686 66.8089 23.7486 66.8012 23.7268C66.7936 23.7051 66.7904 23.6819 66.7918 23.6589C66.7933 23.6359 66.7994 23.6133 66.8097 23.5927L74.3595 7.54961C74.3825 7.51659 74.4156 7.49203 74.4538 7.47965C74.492 7.46727 74.5332 7.46775 74.5711 7.48103C74.592 7.49057 74.6108 7.50427 74.6264 7.52129C74.6419 7.53832 74.6538 7.55832 74.6615 7.5801C74.6691 7.60188 74.6723 7.62498 74.6709 7.64803C74.6694 7.67108 74.6633 7.6936 74.653 7.71423L67.1237 23.7299C67.1082 23.7583 67.0855 23.7821 67.058 23.799C67.0304 23.8158 66.999 23.8251 66.9667 23.8259Z" fill="#1A1A1A"/>
<path d="M69.9852 24.4709C69.9629 24.4774 69.9392 24.4774 69.9169 24.4709C69.8747 24.4514 69.8418 24.4161 69.8252 24.3725C69.8086 24.3289 69.8097 24.2805 69.8282 24.2377L74.9001 13.3388C74.9194 13.2964 74.9546 13.2633 74.998 13.2466C75.0414 13.23 75.0896 13.231 75.1322 13.2497C75.1732 13.2703 75.2046 13.3062 75.2199 13.3497C75.2351 13.3932 75.2331 13.4409 75.2141 13.4829L70.1422 24.3886C70.1266 24.416 70.1036 24.4383 70.0757 24.4529C70.0479 24.4675 70.0165 24.4737 69.9852 24.4709Z" fill="#1A1A1A"/>
<path d="M75.3904 19.0183C75.3635 19.0244 75.3355 19.0244 75.3085 19.0183C75.2681 18.9952 75.2383 18.9571 75.2256 18.9122C75.2128 18.8674 75.2181 18.8192 75.2402 18.7782L77.4724 14.7314C77.4832 14.7116 77.4977 14.6941 77.5152 14.6799C77.5327 14.6658 77.5528 14.6552 77.5743 14.6488C77.5959 14.6425 77.6185 14.6404 77.6408 14.6428C77.6631 14.6452 77.6848 14.652 77.7045 14.6628C77.7242 14.6736 77.7416 14.6882 77.7557 14.7058C77.7698 14.7234 77.7804 14.7436 77.7867 14.7652C77.793 14.7869 77.7951 14.8096 77.7927 14.832C77.7903 14.8545 77.7835 14.8762 77.7728 14.896L75.5406 18.9497C75.5234 18.9729 75.5006 18.9914 75.4743 19.0034C75.448 19.0154 75.4192 19.0205 75.3904 19.0183Z" fill="#1A1A1A"/>
<path d="M71.6489 26.6861C71.6219 26.6923 71.5939 26.6923 71.567 26.6861C71.5272 26.6643 71.4972 26.6279 71.4832 26.5845C71.4693 26.5412 71.4724 26.4941 71.4919 26.4529L72.5226 24.4089C72.5321 24.3879 72.5458 24.369 72.5627 24.3534C72.5796 24.3378 72.5996 24.3258 72.6212 24.3181C72.6429 24.3104 72.6659 24.3072 72.6888 24.3087C72.7118 24.3102 72.7342 24.3163 72.7547 24.3266C72.7945 24.3485 72.8245 24.3849 72.8385 24.4282C72.8524 24.4716 72.8493 24.5187 72.8298 24.5598L71.8264 26.6175C71.8058 26.6441 71.7784 26.6645 71.7471 26.6766C71.7158 26.6887 71.6819 26.692 71.6489 26.6861Z" fill="#1A1A1A"/>
<path d="M54.5908 16.4873C54.5638 16.4935 54.5358 16.4935 54.5089 16.4873C54.469 16.4654 54.4391 16.4291 54.4251 16.3857C54.4112 16.3424 54.4142 16.2953 54.4338 16.2541L55.799 13.4351C55.8085 13.414 55.8221 13.3952 55.8391 13.3795C55.856 13.3639 55.8759 13.3519 55.8976 13.3442C55.9193 13.3366 55.9423 13.3334 55.9652 13.3348C55.9882 13.3363 56.0106 13.3424 56.0311 13.3528C56.0721 13.3735 56.1035 13.4093 56.1188 13.4528C56.1341 13.4963 56.132 13.544 56.113 13.586L54.7751 16.3981C54.759 16.4318 54.732 16.459 54.6985 16.4752C54.665 16.4914 54.627 16.4957 54.5908 16.4873Z" fill="#1A1A1A"/>
<path d="M60.3446 5.85552C60.318 5.86441 60.2892 5.86441 60.2626 5.85552C60.2429 5.84475 60.2254 5.83017 60.2113 5.8126C60.1972 5.79504 60.1866 5.77484 60.1803 5.75317C60.1739 5.7315 60.1719 5.70879 60.1743 5.68633C60.1768 5.66387 60.1836 5.64212 60.1944 5.62232L61.2046 3.81155C61.2152 3.79157 61.2298 3.774 61.2475 3.75994C61.2652 3.74589 61.2855 3.73564 61.3073 3.72984C61.3291 3.72405 61.3518 3.72284 61.3741 3.72627C61.3964 3.72971 61.4177 3.73773 61.4367 3.74982C61.4565 3.76059 61.474 3.77517 61.4881 3.79274C61.5022 3.8103 61.5128 3.8305 61.5191 3.85217C61.5254 3.87384 61.5275 3.89656 61.525 3.91901C61.5226 3.94147 61.5158 3.96322 61.505 3.98303L60.4947 5.79379C60.4768 5.81579 60.4536 5.83296 60.4274 5.84374C60.4012 5.85451 60.3727 5.85856 60.3446 5.85552Z" fill="#1A1A1A"/>
<path d="M69.8324 29.2377C69.7297 29.2383 69.6293 29.2079 69.5441 29.1504C69.4589 29.0929 69.3929 29.011 69.3545 28.9153C68.9385 27.7917 68.4221 26.7081 67.8118 25.6779C66.5645 25.7915 65.3088 25.7777 64.0642 25.6368C63.7093 26.2609 63.3816 26.9057 63.0062 27.5847L62.3236 28.8056C62.2627 28.9158 62.1642 29.0002 62.0462 29.0431C61.9283 29.086 61.7988 29.0844 61.6819 29.0388C59.7171 28.2938 57.982 27.0425 56.651 25.4104C56.5828 25.3182 56.546 25.2063 56.546 25.0915C56.546 24.9766 56.5828 24.8648 56.651 24.7725C57.3336 23.8534 58.0162 22.9137 58.6988 21.782C57.8744 20.6665 57.1869 19.4551 56.651 18.1742L55.8182 18.3457C54.8625 18.5446 53.8659 18.7504 52.7942 18.9013C52.6695 18.9177 52.5431 18.8887 52.4379 18.8195C52.3327 18.7502 52.2556 18.6454 52.2208 18.524C51.6215 16.0297 51.7978 13.4108 52.7259 11.0203C52.7681 10.8974 52.8546 10.7948 52.9682 10.7326C53.0819 10.6704 53.2146 10.6532 53.3403 10.6842L57.5043 11.6994C58.1067 10.5182 58.7768 9.37311 59.5112 8.26988C58.7542 7.30489 58.0697 6.28467 57.4633 5.21765C57.4047 5.11453 57.383 4.99442 57.4016 4.87718C57.4202 4.75994 57.4781 4.65259 57.5657 4.57291C59.2204 3.14125 61.0914 1.98359 63.1086 1.14343C63.2289 1.08645 63.3662 1.07741 63.4929 1.11814C63.6196 1.15887 63.7262 1.24634 63.7912 1.36292C64.4614 2.52807 65.061 3.73287 65.5865 4.97073C66.9417 4.76506 68.316 4.71673 69.6822 4.82669C70.3034 3.65381 70.9519 2.44663 71.7642 1.18458C71.8347 1.07394 71.9437 0.993664 72.0699 0.959421C72.1961 0.925178 72.3305 0.93943 72.4468 0.999393C74.0556 1.82486 75.5708 2.82294 76.9658 3.97618C77.3412 4.29169 77.703 4.6072 78.0716 4.92957C78.3057 5.10107 78.4819 5.34041 78.5767 5.61547C78.5935 5.68777 78.5955 5.76273 78.5826 5.83583C78.5697 5.90893 78.5421 5.97863 78.5017 6.04072C78.1876 6.50713 77.86 6.96668 77.5255 7.41252C77.0818 8.03668 76.6313 8.68142 76.1603 9.38789C76.5562 10.3687 76.9658 11.3701 77.3412 12.3853C78.7966 12.5017 80.2272 12.8322 81.5871 13.3661C81.6781 13.4028 81.7567 13.4649 81.8136 13.5452C81.8705 13.6254 81.9032 13.7204 81.9079 13.8188C82.0506 15.7779 81.764 17.7445 81.0683 19.5803C81.0316 19.6837 80.9625 19.7723 80.8714 19.8329C80.7804 19.8935 80.6722 19.9228 80.5632 19.9164H80.099C79.0304 19.8546 77.9592 19.8546 76.8907 19.9164C76.3602 21.0686 75.6708 22.14 74.8428 23.0989C75.5033 24.2025 76.0916 25.3481 76.604 26.5284C76.6579 26.6512 76.664 26.7898 76.621 26.9168C76.5781 27.0439 76.4891 27.1501 76.3719 27.2143C74.3645 28.313 72.1649 29.0117 69.8938 29.272L69.8324 29.2377ZM68.0712 24.6285C68.1577 24.6271 68.2432 24.6478 68.3196 24.6885C68.3959 24.7293 68.4608 24.7889 68.5081 24.8617C69.1716 25.9113 69.7273 27.0259 70.1669 28.1883C72.0069 27.9326 73.7908 27.3668 75.4435 26.5147C74.9386 25.4243 74.3757 24.3619 73.7574 23.3321C73.7038 23.2381 73.6802 23.1297 73.69 23.0217C73.6998 22.9137 73.7424 22.8114 73.8121 22.7286C74.7302 21.7002 75.4709 20.5248 76.0033 19.2511C76.0377 19.1604 76.0971 19.0813 76.1744 19.023C76.2517 18.9648 76.3438 18.9297 76.4401 18.9218C77.6584 18.8402 78.8807 18.8402 80.099 18.9218H80.1809C80.7004 17.4317 80.9321 15.8557 80.8635 14.2783C79.5839 13.8194 78.2466 13.5424 76.8907 13.4553C76.7918 13.4467 76.6975 13.4099 76.6188 13.3491C76.5402 13.2883 76.4805 13.2061 76.447 13.1123C76.0169 11.9257 75.5323 10.7391 75.0817 9.5868C75.0506 9.50766 75.0386 9.4222 75.047 9.3375C75.0553 9.2528 75.0836 9.17132 75.1295 9.09982C75.6688 8.29046 76.1807 7.56341 76.6722 6.8638C76.9316 6.50027 77.1842 6.1779 77.4299 5.78694L77.3753 5.74579C77.0204 5.43028 76.6927 5.11477 76.2968 4.81297C75.0854 3.80376 73.7749 2.92125 72.3854 2.17913C71.6413 3.37259 71.0201 4.53176 70.4399 5.64976C70.3946 5.74417 70.3206 5.82163 70.2285 5.87095C70.1365 5.92028 70.0312 5.9389 69.9279 5.92412C68.4028 5.77189 66.864 5.82958 65.3544 6.09559C65.2374 6.11579 65.117 6.0956 65.0129 6.03831C64.9088 5.98102 64.8271 5.89001 64.781 5.78008C64.2963 4.60486 63.7424 3.45967 63.1222 2.35061C61.496 3.06633 59.9754 4.00335 58.6033 5.13534C59.2013 6.12445 59.8602 7.07512 60.576 7.98181C60.6378 8.06893 60.671 8.17322 60.671 8.28017C60.671 8.38712 60.6378 8.49141 60.576 8.57854C59.7105 9.86603 58.9371 11.2138 58.262 12.6116C58.2126 12.7222 58.126 12.8118 58.0173 12.8645C57.9087 12.9172 57.785 12.9297 57.6681 12.8997C56.2551 12.5636 54.9376 12.2138 53.5724 11.9051C52.8997 13.8241 52.7466 15.8882 53.1287 17.8861C53.9956 17.749 54.8216 17.5775 55.6202 17.4129L56.8762 17.1522C56.9935 17.1299 57.1148 17.1482 57.2202 17.2043C57.3257 17.2604 57.409 17.3509 57.4565 17.4609C58.0326 18.9148 58.8143 20.2778 59.7774 21.5077C59.8464 21.5926 59.8875 21.6969 59.8948 21.8063C59.9021 21.9157 59.8754 22.0247 59.8183 22.1181C59.0811 23.2841 58.4053 24.2375 57.7705 25.1498C58.8524 26.3731 60.1905 27.3405 61.6887 27.9825C61.8343 27.7082 61.9777 27.4407 62.1188 27.18C62.5352 26.3912 62.9379 25.6436 63.3611 24.9097C63.4105 24.8228 63.4838 24.752 63.5721 24.7057C63.6605 24.6595 63.7602 24.6398 63.8594 24.6491C65.243 24.831 66.6434 24.8448 68.0303 24.6902L68.0712 24.6285Z" fill="#1A1A1A"/>
<path d="M66.1888 17.8177C65.6205 17.8198 65.0579 17.703 64.5369 17.4748C64.1337 17.3214 63.7814 17.0577 63.5198 16.7134C63.2667 16.3179 63.1273 15.8597 63.1171 15.3896C62.976 14.1509 63.3105 12.9048 64.0522 11.9053C64.4512 11.3809 64.9975 10.9889 65.6206 10.7798C66.2436 10.5707 66.9148 10.5542 67.5473 10.7324C67.6267 10.7592 67.6991 10.8037 67.7589 10.8627C68.394 11.086 68.9493 11.4929 69.3549 12.0323C69.7606 12.5717 69.9985 13.2195 70.0388 13.8944C70.0672 14.5597 69.9176 15.2206 69.6054 15.8081C69.2933 16.3956 68.83 16.8882 68.264 17.2347C67.6394 17.6184 66.921 17.8202 66.1888 17.8177ZM66.6803 11.6446C66.3292 11.6552 65.9847 11.7429 65.6709 11.9017C65.3572 12.0605 65.082 12.2865 64.8646 12.5637C64.291 13.3553 64.0351 14.3348 64.1478 15.3073C64.1548 15.5865 64.2298 15.8597 64.3663 16.103C64.5201 16.2892 64.7203 16.4312 64.9465 16.5145C65.3912 16.7077 65.8748 16.7935 66.3585 16.7649C66.8422 16.7363 67.3125 16.5942 67.7316 16.3499C68.1328 16.0965 68.4615 15.7425 68.6853 15.3228C68.9091 14.9031 69.0203 14.4321 69.0081 13.9561C68.9764 13.4922 68.812 13.0473 68.5347 12.6749C68.2573 12.3026 67.8789 12.0187 67.4449 11.8573H67.3425C67.2173 11.8281 67.099 11.7745 66.9943 11.6995C66.892 11.6683 66.7868 11.6476 66.6803 11.6378V11.6446Z" fill="#1A1A1A"/>
<path d="M103.322 66.2077C102.551 65.0224 102.032 63.69 101.797 62.2938C101.562 60.8976 101.617 59.4677 101.957 58.0936C102.707 55.7431 104.084 53.6438 105.937 52.0234C103.786 48.7978 101.411 45.7288 98.8306 42.8393C98.6109 42.5839 98.3637 42.3539 98.0934 42.1534C97.6565 41.8379 97.09 41.6252 96.537 41.2411C95.3425 42.5156 93.8958 43.5248 92.2899 44.204C90.684 44.8832 88.9545 45.2174 87.2125 45.185C84.9291 44.855 82.777 43.9107 80.984 42.4521C79.1911 40.9935 77.8241 39.0749 77.0278 36.8994C72.642 37.5995 68.3592 38.8412 64.2764 40.5964C65.0455 42.0392 65.4023 43.6677 65.3072 45.3016C65.3174 47.0667 64.9447 48.8128 64.215 50.4184C63.4732 52.0304 62.1864 53.3259 60.5834 54.0742C59.6392 54.4543 58.6422 54.6857 57.6277 54.7601C55.8857 54.9111 54.134 54.9111 52.392 54.7601C52.392 54.7601 49.0608 67.1543 49.4362 67.1543C50.5193 67.424 51.5933 67.7213 52.6582 68.0459C53.8598 68.3626 55.0094 68.8524 56.0713 69.5C57.1336 70.1523 57.9188 71.1757 58.2762 72.3739C58.4434 73.1861 58.4434 74.0241 58.2762 74.8363C57.7674 77.8167 56.2625 80.5337 54.0098 82.5389C54.0098 82.5389 62.2422 90.7696 62.3787 90.6736C63.3139 89.3018 64.8635 88.4513 66.3447 87.69C66.9602 87.3462 67.6043 87.057 68.2697 86.8257C69.5034 86.4737 70.8072 86.4512 72.0522 86.7603C73.2972 87.0695 74.4405 87.6996 75.369 88.5885C77.2158 90.429 78.2907 92.9106 78.3725 95.5229C81.2941 95.3583 84.2112 95.1296 87.1237 94.837C88.4799 94.8278 89.8003 94.3991 90.9054 93.6092C90.8354 91.0019 91.3854 88.4154 92.5096 86.0644C93.0168 84.9086 93.7639 83.875 94.7008 83.0327C96.1848 81.8597 98.0542 81.2916 99.9365 81.4415C101.822 81.6423 103.664 82.1375 105.397 82.9093C107.309 79.2809 109.241 75.5839 109.862 71.4C107.173 70.4393 104.874 68.6143 103.322 66.2077ZM89.2467 66.9828C89.0102 68.6784 88.3001 70.2718 87.1988 71.5783C86.6658 72.2398 86.0484 72.8279 85.3625 73.3273C84.6622 73.8598 83.871 74.2596 83.028 74.5071C82.1256 74.6546 81.2091 74.6937 80.2975 74.6237C79.3572 74.6766 78.4149 74.5652 77.5124 74.2944C76.6711 73.9667 75.9081 73.4642 75.2734 72.8197C74.5756 72.2595 73.9618 71.6011 73.4508 70.865C71.7375 67.8196 72.2426 63.7796 74.2836 61.0224C75.4257 59.5771 76.8738 58.4056 78.5227 57.5929C80.2603 56.6395 82.2961 56.3939 84.2089 56.907C84.4502 56.9718 84.6581 57.1259 84.791 57.3384C84.924 57.5508 84.972 57.8059 84.9257 58.0524C88.0452 59.678 89.6631 63.5464 89.2467 66.9828Z" fill="white"/>
<path d="M89.0433 54.8085C86.4573 53.1598 83.4057 52.4059 80.3536 52.6616C75.8688 53.1417 72.5512 55.4052 70.203 59.3079C69.0315 61.2519 68.3408 63.4497 68.1887 65.7172C68.0367 67.9846 68.4278 70.2557 69.3293 72.34C70.2723 74.4077 71.7196 76.2028 73.5369 77.5589C75.3543 78.9149 77.4829 79.7881 79.7256 80.0974C81.6083 80.3017 83.5126 80.1103 85.3177 79.5352C87.1228 78.9602 88.7891 78.0141 90.2106 76.7571C93.0503 74.2673 94.2176 70.6184 94.5794 66.8459C94.7705 64.9529 94.006 58.0665 89.0433 54.8085ZM83.9578 74.6377C82.1432 75.2112 80.1968 75.2095 78.3832 74.6327C76.5696 74.056 74.9767 72.9322 73.8209 71.414C73.1342 70.5155 72.6666 69.4678 72.4557 68.3549C72.3013 67.2355 72.378 66.0961 72.6809 65.0077C73.2817 62.2948 74.8689 59.905 77.1316 58.3065C78.2654 57.5292 79.5813 57.0621 80.9495 56.9515C82.3177 56.8408 83.691 57.0904 84.934 57.6755C86.4032 58.4894 87.6379 59.6712 88.5182 61.1062C89.3986 62.5412 89.8946 64.1806 89.9581 65.8651C89.9913 67.7705 89.4307 69.6386 88.3548 71.208C87.2788 72.7773 85.7415 73.9693 83.9578 74.6171V74.6377Z" fill="#FFD803"/>
<path d="M78.1414 95.7764C78.0089 95.7749 77.8819 95.7233 77.7857 95.6317C77.6895 95.5401 77.6312 95.4154 77.6226 95.2825C77.4761 92.7821 76.3817 90.4332 74.5645 88.7185C73.6554 87.7982 72.4753 87.1969 71.1992 87.0038C69.9472 86.973 68.7049 87.2311 67.5677 87.7583C65.7451 88.4442 63.902 89.3564 62.7483 91.126C62.7102 91.187 62.6593 91.2388 62.5992 91.2779C62.5391 91.317 62.4712 91.3424 62.4002 91.3524C62.3302 91.3663 62.2579 91.3649 62.1884 91.3484C62.119 91.3318 62.0538 91.3004 61.9975 91.2563C58.8123 88.8849 55.9505 86.1039 53.4852 82.9845C53.4032 82.8772 53.3659 82.7421 53.3812 82.6077C53.3965 82.4733 53.4631 82.3502 53.5671 82.2643C55.7418 80.4356 57.2162 77.9042 57.7379 75.1035C57.9428 74.2355 57.9263 73.3296 57.6901 72.4697C57.2942 71.2076 56.1815 70.1513 54.277 69.2322C52.5273 68.3934 50.6643 67.818 48.7478 67.5244C48.6799 67.5155 48.6145 67.4926 48.5558 67.4572C48.4971 67.4218 48.4463 67.3746 48.4065 67.3186C48.3248 67.2033 48.2905 67.0608 48.3109 66.9208C49.0477 62.5962 50.2352 58.3615 51.8537 54.2866C51.8777 54.221 51.9148 54.1611 51.9626 54.1104C52.0105 54.0597 52.0681 54.0193 52.1319 53.9917C52.1958 53.9641 52.2646 53.9499 52.3341 53.9499C52.4037 53.9498 52.4725 53.9641 52.5364 53.9917C54.7617 54.7873 60.3251 54.8627 62.5845 52.1535C66.3389 47.6608 64.5573 42.5509 63.9498 41.042C63.8974 40.9168 63.8943 40.7762 63.9412 40.6489C63.9881 40.5215 64.0815 40.4168 64.2023 40.3561C66.3458 39.3272 69.9227 38.2984 73.7044 37.1735C74.8717 36.8306 76.0663 36.4876 77.254 36.1172C77.3441 36.0896 77.44 36.0871 77.5314 36.11C77.6228 36.133 77.7063 36.1805 77.7728 36.2475C77.8377 36.3142 77.8844 36.3966 77.9083 36.4867C77.9322 36.5769 77.9326 36.6717 77.9093 36.762C77.6909 37.5507 79.7524 41.5152 82.9812 43.1751C90.3808 46.9887 95.0704 42.2217 96.3333 40.6716C96.3812 40.6163 96.4398 40.5714 96.5055 40.5396C96.5712 40.5078 96.6427 40.4897 96.7155 40.4864C96.7884 40.4821 96.8613 40.4934 96.9295 40.5194C96.9977 40.5454 97.0597 40.5856 97.1115 40.6373C100.547 44.1033 103.691 47.8497 106.511 51.8379C106.58 51.9469 106.606 52.0779 106.583 52.205C106.56 52.332 106.491 52.4459 106.388 52.5238C104.833 53.6909 103.639 55.2764 102.943 57.0971C102.247 58.9179 102.078 60.8993 102.456 62.8123C102.934 64.7441 103.926 66.5089 105.326 67.9177C106.726 69.3264 108.48 70.3262 110.402 70.8098C110.538 70.8489 110.653 70.94 110.723 71.0636C110.759 71.1237 110.782 71.191 110.79 71.2607C110.799 71.3305 110.792 71.4013 110.771 71.4683C109.535 75.6766 107.785 79.7152 105.562 83.492C105.497 83.6086 105.39 83.6957 105.263 83.7353C105.136 83.7748 104.999 83.7639 104.88 83.7046C102.04 82.4769 99.289 81.4412 96.7565 82.3329C95.7583 82.7361 94.8605 83.3549 94.1268 84.1455C93.393 84.9361 92.8413 85.8791 92.5106 86.9078C91.9242 88.7219 91.5619 90.6017 91.4321 92.5047C91.3843 92.9231 91.3433 93.3483 91.2887 93.7804C91.2743 93.888 91.2273 93.9886 91.154 94.0684C91.0807 94.1481 90.9847 94.2033 90.8791 94.2263C86.6956 95.1099 82.4419 95.6172 78.1687 95.7421L78.1414 95.7764ZM70.7828 85.9338C70.9534 85.9338 71.1241 85.9338 71.3016 85.9338C72.8073 86.1406 74.2034 86.8396 75.2744 87.9229C77.1584 89.7064 78.3469 92.107 78.6261 94.6927C82.5391 94.5563 86.4342 94.0952 90.2716 93.314L90.374 92.4224C90.5067 90.4344 90.8874 88.4711 91.5071 86.5785C91.8928 85.406 92.5297 84.3328 93.373 83.4345C94.2163 82.5362 95.2455 81.8347 96.3879 81.3795C99.1184 80.4329 102.06 81.4275 104.839 82.6141C106.821 79.176 108.406 75.5216 109.562 71.722C107.568 71.1201 105.764 70.0067 104.327 68.4913C102.891 66.976 101.872 65.1109 101.371 63.0798C100.971 61.0539 101.125 58.9568 101.817 57.012C102.51 55.0673 103.714 53.3478 105.303 52.0369C102.708 48.4009 99.8397 44.9705 96.7224 41.7759C95.1114 43.5318 90.0054 47.9901 82.4624 44.1079C79.5476 42.6058 77.2267 39.2243 76.8649 37.3175L73.957 38.1749C70.9474 38.983 67.9848 39.9585 65.0829 41.0968C65.8679 43.1545 67.1922 48.2713 63.3968 52.8188C60.9462 55.7475 55.4307 55.871 52.6865 55.1165C51.2439 58.8225 50.1648 62.6612 49.4646 66.5778C51.3021 66.9002 53.0868 67.4748 54.7685 68.2857C56.9324 69.3351 58.2157 70.5972 58.7072 72.1404C58.9969 73.1664 59.025 74.249 58.7892 75.2887C58.2517 78.1582 56.794 80.772 54.6388 82.7307C56.8688 85.4784 59.4171 87.9491 62.2296 90.0903C63.5402 88.3756 65.3969 87.4839 67.2263 86.7775C68.3512 86.2822 69.5563 85.9964 70.7828 85.9338Z" fill="#1A1A1A"/>
<path d="M80.7824 75.5836C79.271 75.5852 77.7796 75.2357 76.4249 74.5622C75.0703 73.8887 73.8889 72.9097 72.9732 71.7014C72.2443 70.7369 71.751 69.6139 71.5329 68.4228C71.3636 67.231 71.4403 66.0169 71.7581 64.8562C72.4016 62.0212 74.0643 59.5249 76.4273 57.8463C77.6353 57.0121 79.0395 56.5099 80.5004 56.3896C81.9613 56.2692 83.4281 56.535 84.7552 57.1604C86.307 58.015 87.6119 59.259 88.5427 60.7712C89.4735 62.2835 89.9983 64.0122 90.066 65.789C90.102 67.8121 89.5073 69.7958 88.3652 71.4624C87.2232 73.129 85.591 74.3949 83.6972 75.0829C82.7596 75.4098 81.7748 75.579 80.7824 75.5836ZM81.2739 57.4142C79.7537 57.4218 78.2686 57.8747 77.0007 58.7174C74.851 60.2483 73.3429 62.5262 72.7684 65.11C72.4862 66.1318 72.4142 67.2007 72.5568 68.2514C72.7481 69.2817 73.1784 70.2522 73.8128 71.0841C74.9086 72.5078 76.4108 73.5615 78.1185 74.1044C79.8262 74.6474 81.6581 74.6537 83.3695 74.1226C85.0481 73.5126 86.4958 72.392 87.5113 70.9169C88.5267 69.4418 89.0594 67.6853 89.0353 65.8919C88.9754 64.2956 88.5034 62.7424 87.6657 61.3848C86.8279 60.0272 85.6533 58.9118 84.2569 58.1481C83.3348 57.6685 82.3122 57.4169 81.2739 57.4142Z" fill="#1A1A1A"/>
<path d="M80.8044 80.6935C80.2798 80.6948 79.7556 80.665 79.2344 80.6043C76.9032 80.2823 74.6906 79.3742 72.8016 77.9642C70.9127 76.5541 69.4085 74.6878 68.4285 72.5382C67.4861 70.3768 67.076 68.019 67.2328 65.6645C67.3897 63.3101 68.1089 61.0283 69.3296 59.0123C71.8143 54.897 75.364 52.6061 79.8761 52.1534C83.0447 51.8794 86.2158 52.6525 88.9071 54.3551C94.3067 57.9149 94.8391 65.2746 94.6821 66.907C94.2316 71.5094 92.7435 74.8634 90.129 77.1954C87.5345 79.4399 84.228 80.6803 80.8044 80.6935ZM81.1184 53.0999C80.7362 53.0999 80.3539 53.0999 79.9853 53.1548C75.753 53.6143 72.5584 55.7063 70.217 59.5542C69.0832 61.4257 68.4149 63.5443 68.2687 65.7304C68.1226 67.9165 68.5028 70.1058 69.3774 72.1129C70.2812 74.0978 71.6692 75.8212 73.4126 77.1233C75.156 78.4255 77.1984 79.2642 79.3505 79.5618C81.1581 79.7604 82.9872 79.5794 84.7216 79.0304C86.456 78.4813 88.058 77.5762 89.4259 76.3724C91.8287 74.2598 93.2008 71.1321 93.624 66.8041C93.822 64.7464 92.9414 58.2716 88.3133 55.2262C86.1582 53.8595 83.6667 53.1232 81.1184 53.0999Z" fill="#1A1A1A"/>
<path d="M89.0433 54.8085C86.4573 53.1598 83.4057 52.4059 80.3536 52.6616C75.8688 53.1417 72.5512 55.4052 70.203 59.3079C69.0315 61.2519 68.3408 63.4497 68.1887 65.7172C68.0367 67.9846 68.4278 70.2557 69.3293 72.34C70.2723 74.4077 71.7196 76.2028 73.5369 77.5589C75.3543 78.9149 77.4829 79.7881 79.7256 80.0974C81.6083 80.3017 83.5126 80.1103 85.3177 79.5352C87.1228 78.9602 88.7891 78.0141 90.2106 76.7571C93.0503 74.2673 94.2176 70.6184 94.5794 66.8459C94.7705 64.9529 94.006 58.0665 89.0433 54.8085ZM83.9578 74.6377C82.1432 75.2112 80.1968 75.2095 78.3832 74.6327C76.5696 74.056 74.9767 72.9322 73.8209 71.414C73.1342 70.5155 72.6666 69.4678 72.4557 68.3549C72.3013 67.2355 72.378 66.0961 72.6809 65.0077C73.2817 62.2948 74.8689 59.905 77.1316 58.3065C78.2654 57.5292 79.5813 57.0621 80.9495 56.9515C82.3177 56.8408 83.691 57.0904 84.934 57.6755C86.4032 58.4894 87.6379 59.6712 88.5182 61.1062C89.3986 62.5412 89.8946 64.1806 89.9581 65.8651C89.9913 67.7705 89.4307 69.6386 88.3548 71.208C87.2788 72.7773 85.7415 73.9693 83.9578 74.6171V74.6377Z" fill="white"/>
<path d="M78.1414 95.7764C78.0089 95.7749 77.8819 95.7233 77.7857 95.6317C77.6895 95.5401 77.6312 95.4154 77.6226 95.2825C77.4761 92.7821 76.3817 90.4332 74.5645 88.7185C73.6554 87.7982 72.4753 87.1969 71.1992 87.0038C69.9472 86.973 68.7049 87.2311 67.5677 87.7583C65.7451 88.4442 63.902 89.3564 62.7483 91.126C62.7102 91.187 62.6593 91.2388 62.5992 91.2779C62.5391 91.317 62.4712 91.3424 62.4002 91.3524C62.3302 91.3663 62.2579 91.3649 62.1884 91.3484C62.119 91.3318 62.0538 91.3004 61.9975 91.2563C58.8123 88.8849 55.9505 86.1039 53.4852 82.9845C53.4032 82.8772 53.3659 82.7421 53.3812 82.6077C53.3965 82.4733 53.4631 82.3502 53.5671 82.2643C55.7418 80.4356 57.2162 77.9042 57.7379 75.1035C57.9428 74.2355 57.9263 73.3296 57.6901 72.4697C57.2942 71.2076 56.1815 70.1513 54.277 69.2322C52.5273 68.3934 50.6643 67.818 48.7478 67.5244C48.6799 67.5155 48.6145 67.4926 48.5558 67.4572C48.4971 67.4218 48.4463 67.3746 48.4065 67.3186C48.3248 67.2033 48.2905 67.0608 48.3109 66.9208C49.0477 62.5962 50.2352 58.3615 51.8537 54.2866C51.8777 54.221 51.9148 54.1611 51.9626 54.1104C52.0105 54.0597 52.0681 54.0193 52.1319 53.9917C52.1958 53.9641 52.2646 53.9499 52.3341 53.9499C52.4037 53.9498 52.4725 53.9641 52.5364 53.9917C54.7617 54.7873 60.3251 54.8627 62.5845 52.1535C66.3389 47.6608 64.5573 42.5509 63.9498 41.042C63.8974 40.9168 63.8943 40.7762 63.9412 40.6489C63.9881 40.5215 64.0815 40.4168 64.2023 40.3561C66.3458 39.3272 69.9227 38.2984 73.7044 37.1735C74.8717 36.8306 76.0663 36.4876 77.254 36.1172C77.3441 36.0896 77.44 36.0871 77.5314 36.11C77.6228 36.133 77.7063 36.1805 77.7728 36.2475C77.8377 36.3142 77.8844 36.3966 77.9083 36.4867C77.9322 36.5769 77.9326 36.6717 77.9093 36.762C77.6909 37.5507 79.7524 41.5152 82.9812 43.1751C90.3808 46.9887 95.0704 42.2217 96.3333 40.6716C96.3812 40.6163 96.4398 40.5714 96.5055 40.5396C96.5712 40.5078 96.6427 40.4897 96.7155 40.4864C96.7884 40.4821 96.8613 40.4934 96.9295 40.5194C96.9977 40.5454 97.0597 40.5856 97.1115 40.6373C100.547 44.1033 103.691 47.8497 106.511 51.8379C106.58 51.9469 106.606 52.0779 106.583 52.205C106.56 52.332 106.491 52.4459 106.388 52.5238C104.833 53.6909 103.639 55.2764 102.943 57.0971C102.247 58.9179 102.078 60.8993 102.456 62.8123C102.934 64.7441 103.926 66.5089 105.326 67.9177C106.726 69.3264 108.48 70.3262 110.402 70.8098C110.538 70.8489 110.653 70.94 110.723 71.0636C110.759 71.1237 110.782 71.191 110.79 71.2607C110.799 71.3305 110.792 71.4013 110.771 71.4683C109.535 75.6766 107.785 79.7152 105.562 83.492C105.497 83.6086 105.39 83.6957 105.263 83.7353C105.136 83.7748 104.999 83.7639 104.88 83.7046C102.04 82.4769 99.289 81.4412 96.7565 82.3329C95.7583 82.7361 94.8605 83.3549 94.1268 84.1455C93.393 84.9361 92.8413 85.8791 92.5106 86.9078C91.9242 88.7219 91.5619 90.6017 91.4321 92.5047C91.3843 92.9231 91.3433 93.3483 91.2887 93.7804C91.2743 93.888 91.2273 93.9886 91.154 94.0684C91.0807 94.1481 90.9847 94.2033 90.8791 94.2263C86.6956 95.1099 82.4419 95.6172 78.1687 95.7421L78.1414 95.7764ZM70.7828 85.9338C70.9534 85.9338 71.1241 85.9338 71.3016 85.9338C72.8073 86.1406 74.2034 86.8396 75.2744 87.9229C77.1584 89.7064 78.3469 92.107 78.6261 94.6927C82.5391 94.5563 86.4342 94.0952 90.2716 93.314L90.374 92.4224C90.5067 90.4344 90.8874 88.4711 91.5071 86.5785C91.8928 85.406 92.5297 84.3328 93.373 83.4345C94.2163 82.5362 95.2455 81.8347 96.3879 81.3795C99.1184 80.4329 102.06 81.4275 104.839 82.6141C106.821 79.176 108.406 75.5216 109.562 71.722C107.568 71.1201 105.764 70.0067 104.327 68.4913C102.891 66.976 101.872 65.1109 101.371 63.0798C100.971 61.0539 101.125 58.9568 101.817 57.012C102.51 55.0673 103.714 53.3478 105.303 52.0369C102.708 48.4009 99.8397 44.9705 96.7224 41.7759C95.1114 43.5318 90.0054 47.9901 82.4624 44.1079C79.5476 42.6058 77.2267 39.2243 76.8649 37.3175L73.957 38.1749C70.9474 38.983 67.9848 39.9585 65.0829 41.0968C65.8679 43.1545 67.1922 48.2713 63.3968 52.8188C60.9462 55.7475 55.4307 55.871 52.6865 55.1165C51.2439 58.8225 50.1648 62.6612 49.4646 66.5778C51.3021 66.9002 53.0868 67.4748 54.7685 68.2857C56.9324 69.3351 58.2157 70.5972 58.7072 72.1404C58.9969 73.1664 59.025 74.249 58.7892 75.2887C58.2517 78.1582 56.794 80.772 54.6388 82.7307C56.8688 85.4784 59.4171 87.9491 62.2296 90.0903C63.5402 88.3756 65.3969 87.4839 67.2263 86.7775C68.3512 86.2822 69.5563 85.9964 70.7828 85.9338Z" fill="#1A1A1A"/>
<path d="M80.7824 75.5836C79.271 75.5852 77.7796 75.2357 76.4249 74.5622C75.0703 73.8887 73.8889 72.9097 72.9732 71.7014C72.2443 70.7369 71.751 69.6139 71.5329 68.4228C71.3636 67.231 71.4403 66.0169 71.7581 64.8562C72.4016 62.0212 74.0643 59.5249 76.4273 57.8463C77.6353 57.0121 79.0395 56.5099 80.5004 56.3896C81.9613 56.2692 83.4281 56.535 84.7552 57.1604C86.307 58.015 87.6119 59.259 88.5427 60.7712C89.4735 62.2835 89.9983 64.0122 90.066 65.789C90.102 67.8121 89.5073 69.7958 88.3652 71.4624C87.2232 73.129 85.591 74.3949 83.6972 75.0829C82.7596 75.4098 81.7748 75.579 80.7824 75.5836ZM81.2739 57.4142C79.7537 57.4218 78.2686 57.8747 77.0007 58.7174C74.851 60.2483 73.3429 62.5262 72.7684 65.11C72.4862 66.1318 72.4142 67.2007 72.5568 68.2514C72.7481 69.2817 73.1784 70.2522 73.8128 71.0841C74.9086 72.5078 76.4108 73.5615 78.1185 74.1044C79.8262 74.6474 81.6581 74.6537 83.3695 74.1226C85.0481 73.5126 86.4958 72.392 87.5113 70.9169C88.5267 69.4418 89.0594 67.6853 89.0353 65.8919C88.9754 64.2956 88.5034 62.7424 87.6657 61.3848C86.8279 60.0272 85.6533 58.9118 84.2569 58.1481C83.3348 57.6685 82.3122 57.4169 81.2739 57.4142Z" fill="#1A1A1A"/>
<path d="M80.8044 80.6935C80.2798 80.6948 79.7556 80.665 79.2344 80.6043C76.9032 80.2823 74.6906 79.3742 72.8016 77.9642C70.9127 76.5541 69.4085 74.6878 68.4285 72.5382C67.4861 70.3768 67.076 68.019 67.2328 65.6645C67.3897 63.3101 68.1089 61.0283 69.3296 59.0123C71.8143 54.897 75.364 52.6061 79.8761 52.1534C83.0447 51.8794 86.2158 52.6525 88.9071 54.3551C94.3067 57.9149 94.8391 65.2746 94.6821 66.907C94.2316 71.5094 92.7435 74.8634 90.129 77.1954C87.5345 79.4399 84.228 80.6803 80.8044 80.6935ZM81.1184 53.0999C80.7362 53.0999 80.3539 53.0999 79.9853 53.1548C75.753 53.6143 72.5584 55.7063 70.217 59.5542C69.0832 61.4257 68.4149 63.5443 68.2687 65.7304C68.1226 67.9165 68.5028 70.1058 69.3774 72.1129C70.2812 74.0978 71.6692 75.8212 73.4126 77.1233C75.156 78.4255 77.1984 79.2642 79.3505 79.5618C81.1581 79.7604 82.9872 79.5794 84.7216 79.0304C86.456 78.4813 88.058 77.5762 89.4259 76.3724C91.8287 74.2598 93.2008 71.1321 93.624 66.8041C93.822 64.7464 92.9414 58.2716 88.3133 55.2262C86.1582 53.8595 83.6667 53.1232 81.1184 53.0999Z" fill="#1A1A1A"/>
<path d="M106.654 30.8909H106.6C106.531 30.884 106.465 30.8637 106.405 30.8309C106.344 30.7982 106.291 30.7537 106.248 30.7001C106.205 30.6466 106.172 30.5849 106.153 30.5187C106.134 30.4526 106.128 30.3832 106.135 30.3147C106.612 25.7042 105.848 21.0496 103.924 16.8369C103.895 16.7747 103.879 16.7075 103.876 16.6391C103.873 16.5706 103.884 16.5023 103.907 16.4379C103.931 16.3736 103.966 16.3146 104.013 16.2641C104.059 16.2137 104.114 16.1729 104.176 16.1441C104.238 16.1153 104.305 16.099 104.373 16.0962C104.441 16.0933 104.509 16.104 104.573 16.1275C104.637 16.1511 104.696 16.1871 104.746 16.2335C104.796 16.2799 104.837 16.3358 104.866 16.3979C106.881 20.7786 107.682 25.6243 107.187 30.4245C107.173 30.5554 107.11 30.6763 107.012 30.7628C106.913 30.8493 106.785 30.8951 106.654 30.8909Z" fill="#1A1A1A"/>
<path d="M34.2489 98.4101H34.1465C28.8284 97.3363 23.9562 94.6758 20.1665 90.7761C20.1189 90.7265 20.0816 90.6681 20.0566 90.604C20.0316 90.54 20.0193 90.4716 20.0206 90.4029C20.0219 90.3341 20.0366 90.2662 20.064 90.2031C20.0913 90.1401 20.1308 90.0831 20.1801 90.0353C20.2294 89.9876 20.2876 89.9501 20.3513 89.9249C20.4151 89.8998 20.4831 89.8875 20.5516 89.8888C20.62 89.89 20.6875 89.9048 20.7503 89.9323C20.8131 89.9598 20.8698 89.9995 20.9173 90.049C24.5581 93.792 29.2375 96.3449 34.3445 97.3744C34.4116 97.3867 34.4757 97.4124 34.5328 97.4499C34.59 97.4874 34.6391 97.5361 34.6772 97.5929C34.7154 97.6498 34.7419 97.7138 34.755 97.7811C34.7682 97.8484 34.7679 97.9177 34.754 97.9848C34.7319 98.1035 34.6694 98.2109 34.5773 98.2884C34.4852 98.366 34.3691 98.409 34.2489 98.4101Z" fill="#1A1A1A"/>
</g>
<defs>
<clipPath id="clip0_501_31635">
<rect width="110.25" height="97.5" fill="white" transform="translate(0.5 0.911133)"/>
</clipPath>
</defs>
</svg>
