<svg width="100" height="64" viewBox="0 0 100 64" fill="none" xmlns="http://www.w3.org/2000/svg">
<g clip-path="url(#clip0_1009_32913)">
<path d="M72.3718 63.16H71.1274C70.9758 63.16 70.8303 63.0997 70.7231 62.9924C70.6159 62.8851 70.5557 62.7395 70.5557 62.5878C70.5557 62.436 70.6159 62.2904 70.7231 62.1831C70.8303 62.0758 70.9758 62.0155 71.1274 62.0155H72.2542V62.5878V62.0155C73.9818 62.0178 75.7072 61.8941 77.4169 61.6452C77.4921 61.6333 77.569 61.6366 77.6429 61.6548C77.7168 61.673 77.7862 61.7058 77.8473 61.7512C77.9084 61.7967 77.9598 61.8539 77.9985 61.9195C78.0372 61.9851 78.0625 62.0578 78.0727 62.1333C78.0846 62.2076 78.0813 62.2836 78.0629 62.3565C78.0445 62.4295 78.0115 62.4979 77.9659 62.5577C77.9203 62.6175 77.863 62.6674 77.7976 62.7044C77.7321 62.7414 77.6598 62.7647 77.5851 62.7729C75.8592 63.0299 74.1167 63.1593 72.3718 63.16ZM65.477 62.5036H65.3761C63.224 62.1256 61.1084 61.5625 59.053 60.8205C58.9807 60.7963 58.9141 60.7574 58.8574 60.7063C58.8008 60.6552 58.7553 60.593 58.7237 60.5235C58.6921 60.454 58.6752 60.3787 58.674 60.3024C58.6728 60.2261 58.6874 60.1503 58.7167 60.0799C58.7697 59.9405 58.8749 59.8274 59.01 59.7646C59.145 59.7017 59.2992 59.694 59.4398 59.7432C61.4401 60.4779 63.4992 61.041 65.5948 61.4264C65.6689 61.4405 65.7394 61.4691 65.8024 61.5107C65.8654 61.5522 65.9196 61.6058 65.9618 61.6684C66.004 61.731 66.0334 61.8013 66.0483 61.8753C66.0633 61.9493 66.0635 62.0256 66.0488 62.0997C66.0144 62.2225 65.9387 62.3296 65.8345 62.4032C65.7304 62.4768 65.6042 62.5122 65.477 62.5036ZM83.2018 61.5442C83.0692 61.5387 82.9426 61.4872 82.8438 61.3985C82.745 61.3098 82.6801 61.1895 82.6602 61.0582C82.6403 60.9268 82.6668 60.7926 82.7349 60.6786C82.803 60.5646 82.9086 60.4779 83.0337 60.4333C85.0797 59.8207 87.0709 59.0381 88.9868 58.0938C89.1229 58.0301 89.2788 58.0227 89.4204 58.0731C89.562 58.1235 89.6781 58.2276 89.7435 58.3631C89.8084 58.4973 89.8183 58.6516 89.7711 58.7931C89.724 58.9346 89.6237 59.052 89.4913 59.1205C87.5226 60.0945 85.4748 60.8997 83.37 61.5274L83.2018 61.5442ZM54.0248 58.4136C53.929 58.4117 53.8357 58.3825 53.7558 58.3294C51.8236 57.2813 49.984 56.0707 48.2567 54.7107C48.1985 54.6648 48.15 54.6078 48.1142 54.5429C48.0783 54.478 48.0558 54.4066 48.048 54.3329C48.0402 54.2592 48.0471 54.1846 48.0685 54.1136C48.0899 54.0426 48.1253 53.9767 48.1726 53.9196C48.2172 53.8601 48.2732 53.8101 48.3375 53.7727C48.4017 53.7352 48.4728 53.7111 48.5465 53.7017C48.6202 53.6923 48.695 53.6977 48.7666 53.7178C48.8382 53.7379 48.9049 53.7722 48.963 53.8186C50.6407 55.1353 52.4237 56.3119 54.2939 57.3364C54.3618 57.37 54.4221 57.4171 54.4711 57.475C54.5201 57.5328 54.5568 57.6 54.5789 57.6725C54.6009 57.7451 54.6079 57.8214 54.5994 57.8967C54.5909 57.9721 54.567 58.0448 54.5293 58.1106C54.4792 58.201 54.4062 58.2765 54.3176 58.3297C54.2291 58.3829 54.1281 58.4118 54.0248 58.4136ZM94.1663 56.2928C94.0448 56.2918 93.9267 56.252 93.8293 56.1793C93.7318 56.1065 93.6601 56.0046 93.6245 55.8882C93.5889 55.7719 93.5912 55.6472 93.6312 55.5323C93.6712 55.4174 93.7467 55.3183 93.8468 55.2493C95.6029 54.0417 97.2514 52.6845 98.7741 51.1929C98.8272 51.136 98.8913 51.0906 98.9625 51.0594C99.0336 51.0281 99.1104 51.0117 99.1882 51.0112C99.2659 51.0107 99.343 51.0261 99.4146 51.0563C99.4862 51.0866 99.5509 51.1312 99.6047 51.1873C99.6585 51.2435 99.7003 51.31 99.7275 51.3829C99.7548 51.4558 99.7669 51.5334 99.7632 51.6111C99.7594 51.6888 99.7398 51.765 99.7057 51.8349C99.6715 51.9047 99.6235 51.9669 99.5645 52.0176C98.0057 53.5513 96.3178 54.9479 94.5195 56.1918C94.4167 56.2646 94.2921 56.3002 94.1663 56.2928ZM44.4057 50.9741C44.2467 50.97 44.0957 50.9035 43.9853 50.7889C43.6321 50.4187 43.2958 50.0315 42.9595 49.6444C41.8677 48.3697 40.8513 47.0321 39.9156 45.6385C39.8713 45.5759 39.8401 45.5051 39.8238 45.4302C39.8074 45.3553 39.8063 45.2779 39.8204 45.2025C39.8345 45.1271 39.8636 45.0554 39.906 44.9915C39.9483 44.9276 40.0031 44.8729 40.067 44.8306C40.1933 44.7507 40.3453 44.7219 40.4921 44.75C40.6389 44.7782 40.7695 44.8611 40.8574 44.9821C41.7704 46.3379 42.7585 47.6416 43.8171 48.887L44.8261 49.9979C44.9339 50.108 44.9943 50.256 44.9943 50.4102C44.9943 50.5644 44.9339 50.7125 44.8261 50.8226C44.7703 50.8756 44.7042 50.9165 44.6318 50.9426C44.5594 50.9686 44.4824 50.9794 44.4057 50.9741ZM37.4099 40.993C37.308 40.9947 37.2074 40.9691 37.1187 40.9188C37.03 40.8684 36.9564 40.7953 36.9054 40.7069C35.8124 38.7208 34.7697 36.6674 33.9121 34.9169C33.8633 34.8497 33.8297 34.7726 33.8137 34.6911C33.7977 34.6096 33.7995 34.5256 33.8192 34.4449C33.8389 34.3642 33.876 34.2887 33.9277 34.2238C33.9795 34.1588 34.0448 34.1059 34.119 34.0688C34.1932 34.0316 34.2747 34.0111 34.3576 34.0086C34.4406 34.0061 34.5231 34.0218 34.5995 34.0544C34.6758 34.0871 34.7441 34.136 34.7996 34.1977C34.8551 34.2595 34.8966 34.3326 34.9211 34.412C35.7956 36.0951 36.8214 38.1822 37.9145 40.1515C37.9858 40.2854 38.0011 40.4422 37.957 40.5874C37.9128 40.7326 37.8128 40.8543 37.679 40.9257C37.5977 40.9738 37.5042 40.9971 37.4099 40.993ZM31.8772 30.1873C31.7711 30.1885 31.6667 30.161 31.5749 30.1077C31.4831 30.0543 31.4074 29.9772 31.3559 29.8843C30.2124 27.5953 29.237 25.7943 28.2953 24.1953C28.2218 24.0609 28.2035 23.9031 28.2443 23.7554C28.2851 23.6077 28.3818 23.4817 28.5139 23.4042C28.6436 23.33 28.7973 23.3097 28.9418 23.3474C29.0864 23.3852 29.2105 23.478 29.2875 23.6062C30.246 25.2893 31.2214 27.0735 32.3817 29.3625C32.4474 29.4993 32.4578 29.6561 32.4108 29.8003C32.3638 29.9445 32.2631 30.0651 32.1295 30.1368C32.0494 30.1697 31.9638 30.1868 31.8772 30.1873ZM25.6887 19.6676C25.5966 19.672 25.5049 19.6527 25.4225 19.6114C25.34 19.5701 25.2696 19.5084 25.2178 19.432C23.9589 17.7051 22.5942 16.058 21.1314 14.5004C21.0664 14.4495 21.0133 14.3852 20.9755 14.3119C20.9378 14.2385 20.9163 14.1579 20.9126 14.0754C20.9089 13.993 20.9231 13.9107 20.9541 13.8343C20.9852 13.7579 21.0324 13.6891 21.0925 13.6326C21.1526 13.5761 21.2242 13.5333 21.3024 13.5071C21.3805 13.4809 21.4634 13.472 21.5454 13.4809C21.6274 13.4897 21.7065 13.5163 21.7772 13.5586C21.848 13.601 21.9087 13.6581 21.9554 13.7262C23.4611 15.3149 24.8599 17.0017 26.1428 18.7756C26.2312 18.8994 26.2683 19.0526 26.2464 19.2032C26.2244 19.3539 26.1451 19.4901 26.025 19.5835C25.9152 19.6153 25.7985 19.6153 25.6887 19.5835V19.6676ZM17.398 10.747C17.3295 10.7473 17.2615 10.7341 17.198 10.7082C17.1345 10.6822 17.0768 10.6439 17.0281 10.5955C15.4035 9.16489 13.6904 7.83819 11.899 6.6233C11.7778 6.53818 11.6943 6.40931 11.6661 6.26381C11.6378 6.11832 11.6671 5.96755 11.7478 5.84323C11.8284 5.71892 11.9541 5.63077 12.0983 5.59732C12.2426 5.56387 12.3942 5.58773 12.5212 5.66389C14.351 6.86522 16.1034 8.1807 17.768 9.60246C17.8748 9.70973 17.9348 9.85497 17.9348 10.0064C17.9348 10.1578 17.8748 10.3031 17.768 10.4104C17.7265 10.4752 17.6723 10.531 17.6088 10.5743C17.5452 10.6177 17.4735 10.6478 17.398 10.6628V10.747ZM7.30801 4.01442C7.21919 4.03211 7.12776 4.03211 7.03894 4.01442C5.13605 3.03631 3.16968 2.18723 1.15309 1.47289C1.08218 1.44669 1.01718 1.40669 0.961817 1.35518C0.906454 1.30368 0.861817 1.24168 0.830539 1.17281C0.799262 1.10394 0.781946 1.02955 0.779578 0.953941C0.77721 0.878326 0.789827 0.802994 0.816734 0.732299C0.866401 0.589894 0.970255 0.472884 1.10567 0.406694C1.24108 0.340503 1.39715 0.330475 1.53989 0.378828C3.59871 1.12288 5.60935 1.99419 7.56025 2.9877C7.69381 3.05942 7.7946 3.17994 7.84159 3.32417C7.88858 3.4684 7.87814 3.62522 7.81249 3.76196C7.7408 3.82678 7.65346 3.87174 7.55907 3.8924C7.46469 3.91307 7.36658 3.90871 7.2744 3.87977L7.30801 4.01442Z" fill="black"/>
</g>
<g clip-path="url(#clip1_1009_32913)">
<path d="M40.5744 28.1423C37.7466 29.0561 35.3884 31.04 34.0044 33.6698C33.3336 34.9803 32.9839 36.4314 32.9839 37.9036C32.9839 39.3757 33.3336 40.8268 34.0044 42.1373C36.0294 45.8873 41.0769 47.5748 45.0669 46.0523C47.2271 45.1627 48.996 43.5271 50.0518 41.4431C51.1076 39.3591 51.38 36.9653 50.8194 34.6973C49.5144 30.2198 44.3919 26.8673 40.5744 28.1423ZM45.8244 39.8873C45.3673 40.8455 44.6012 41.6221 43.6494 42.0923C42.6792 42.5408 41.5775 42.6151 40.5559 42.3008C39.5343 41.9866 38.6648 41.306 38.1144 40.3898C37.5323 39.4343 37.2428 38.3292 37.2814 37.211C37.3201 36.0928 37.6852 35.0104 38.3319 34.0973C38.6115 33.6338 38.9825 33.232 39.4221 32.9161C39.8617 32.6003 40.3609 32.377 40.8894 32.2598C41.3878 32.1492 41.9046 32.1503 42.4025 32.2631C42.9005 32.376 43.3673 32.5977 43.7694 32.9123C44.3017 32.9959 44.8018 33.2213 45.2169 33.5648C45.9829 34.3771 46.4141 35.4484 46.4244 36.5648C46.4913 37.7007 46.299 38.8368 45.8619 39.8873H45.8244Z" fill="white"/>
<path d="M61.5379 36.5648C60.3739 36.2393 59.3308 35.5796 58.5379 34.6673C58.0287 33.9905 57.6837 33.2046 57.5301 32.3716C57.3765 31.5386 57.4185 30.6813 57.6529 29.8673C58.1376 28.2364 59.1084 26.7922 60.4354 25.7274C59.2894 23.9331 58.0528 22.1984 56.7304 20.5299C55.1629 21.6924 53.6479 22.7799 51.9079 22.8849C51.0623 22.8901 50.2272 22.6975 49.4693 22.3225C48.7114 21.9474 48.0517 21.4003 47.5429 20.7249C46.5426 19.361 45.9309 17.7513 45.7729 16.0674C45.7129 15.9024 45.6229 15.8724 45.5629 15.8649L40.2679 15.4749C39.9841 17.0744 39.1956 18.541 38.0179 19.6598C36.8585 20.7445 35.3229 21.3362 33.7354 21.3099C33.0904 21.2749 32.4501 21.1795 31.8229 21.0249C30.7671 20.8933 29.7747 20.4493 28.9729 19.7499C27.6215 20.6713 26.3266 21.6731 25.0954 22.7499C25.6258 23.1397 26.0132 23.6931 26.1979 24.3248C26.7539 25.5206 26.9393 26.8553 26.7304 28.1573C26.5498 28.8109 26.2361 29.4201 25.8089 29.9467C25.3817 30.4733 24.8502 30.9059 24.2479 31.2174C23.035 31.8249 21.704 32.1602 20.3479 32.1998C19.9769 34.1995 19.7712 36.2264 19.7329 38.2598C20.8457 38.6076 21.925 39.0543 22.9579 39.5948C23.9641 40.1408 24.7685 40.9951 25.2529 42.0323C25.481 42.6352 25.5859 43.2777 25.5614 43.9218C25.5369 44.5659 25.3836 45.1985 25.1104 45.7823C24.5616 46.9451 23.741 47.9586 22.7179 48.7374C23.9254 50.6874 25.0804 52.4873 26.2654 54.2873C27.1605 53.6866 28.1776 53.2916 29.2436 53.1308C30.3096 52.97 31.3979 53.0474 32.4304 53.3574C32.938 53.5061 33.4135 53.7476 33.8329 54.0699C34.338 54.4981 34.7447 55.0302 35.0254 55.6299C35.7388 57.0499 36.0005 58.6542 35.7754 60.2273C37.859 60.6394 39.9652 60.9274 42.0829 61.0899C42.0016 60.0306 42.1901 58.968 42.6308 58.0014C43.0714 57.0348 43.75 56.1956 44.6029 55.5624C45.4659 54.9716 46.4837 54.6481 47.5294 54.6321C48.575 54.616 49.6023 54.9083 50.4829 55.4723C51.2724 56.0707 51.9654 56.7865 52.5379 57.5948C54.4129 56.2673 56.2879 54.9099 58.0129 53.4249C57.0379 51.9249 56.0479 50.4249 56.0104 48.6924C56.0275 47.802 56.2671 46.9301 56.7072 46.1559C57.1473 45.3818 57.7741 44.73 58.5304 44.2598C60.0636 43.3376 61.864 42.9622 63.6379 43.1949C64.2454 41.1324 64.7554 39.1148 65.1829 37.0823C63.9534 37.0359 62.7318 36.8625 61.5379 36.5648ZM50.4604 41.0648C49.7278 42.6496 48.599 44.0186 47.1829 45.0399C46.3723 45.6475 45.4679 46.1187 44.5054 46.4349C40.5679 47.6949 35.9404 45.4748 34.1104 41.7623C33.442 40.4014 33.1078 38.9007 33.1356 37.3848C33.1635 35.8688 33.5525 34.3814 34.2705 33.0459C34.9884 31.7105 36.0146 30.5656 37.2637 29.7062C38.5129 28.8469 39.9491 28.2979 41.4529 28.1048C44.1379 27.7598 47.5354 29.2073 49.4704 31.8548C50.4236 33.1764 51.0162 34.7235 51.1897 36.3437C51.3633 37.9639 51.112 39.6013 50.4604 41.0948V41.0648Z" fill="white"/>
<g opacity="0.13">
<path d="M52.8675 36.7894C52.8263 36.481 52.7662 36.1755 52.6875 35.8744L52.5825 35.6644C52.0251 34.5628 51.362 33.5179 50.6026 32.5444C50.4794 32.6371 50.3877 32.7654 50.34 32.9119C50.265 33.4369 50.67 33.9169 50.7975 34.4119C51.255 35.7844 51.5475 36.4444 51.4125 37.6969C51.2149 38.89 50.8698 40.054 50.385 41.1619C50.0891 41.746 49.7428 42.3031 49.35 42.8269C49.23 42.9694 49.1851 43.0369 49.2001 43.0444C49.0051 43.1944 48.8326 43.3969 48.6376 43.5544L47.4076 44.6044C47.2597 44.7123 47.1194 44.83 46.9876 44.9569C47.0551 44.8594 46.8751 45.0319 46.7101 45.1744C46.5451 45.3169 46.2076 45.5194 45.9976 45.6244C44.7871 46.0571 43.5274 46.3367 42.2476 46.4569C41.2621 46.493 40.2772 46.3715 39.33 46.0969C38.7525 45.9244 38.2425 45.3469 37.62 45.4744C37.4956 45.5045 37.3817 45.5678 37.2905 45.6576C37.1994 45.7475 37.1344 45.8605 37.1025 45.9844L37.2826 46.1719L37.92 46.6969L40.2451 48.1969C41.6487 48.5853 43.1249 48.6316 44.5501 48.3319H44.4526C45.6919 48.1193 46.8862 47.6984 47.985 47.0869C49.0736 46.4109 49.9882 45.4886 50.6551 44.3944L50.715 44.2969C51.513 43.2888 52.1343 42.1527 52.5525 40.9369C52.9369 39.59 53.0441 38.179 52.8675 36.7894Z" fill="black"/>
</g>
<g opacity="0.13">
<path d="M57.0674 50.9126C56.8967 50.9192 56.7298 50.9654 56.5799 51.0476C56.371 51.1809 56.1984 51.3638 56.0774 51.5801C55.9441 51.7386 55.819 51.9039 55.7024 52.0751C55.3424 52.5798 54.9383 53.0517 54.495 53.4851C54.075 53.9351 53.415 54.2351 53.1375 54.7826L52.6499 55.0601C52.3424 55.2476 51.9449 55.3376 51.7274 55.6451C51.599 55.8228 51.5347 56.0388 51.545 56.2578C51.5554 56.4768 51.6399 56.6857 51.7845 56.8504C51.9292 57.0152 52.1255 57.1259 52.3414 57.1644C52.5572 57.2029 52.7797 57.1671 52.9724 57.0626C53.8861 56.5798 54.7395 55.9907 55.5149 55.3076C55.5149 55.3076 55.5899 55.2326 55.6274 55.1951C56.2318 54.7328 56.8055 54.2318 57.3449 53.6951C57.5678 53.4603 57.7734 53.2097 57.9599 52.9451C57.7649 52.5476 57.5849 52.1276 57.4274 51.7076C57.2924 51.4601 57.1724 51.1901 57.0674 50.9126Z" fill="black"/>
</g>
<g opacity="0.13">
<path d="M63.0148 37.0308C62.6698 38.3658 62.2823 39.6908 61.8523 41.0058C61.6498 41.6133 61.4548 42.2283 61.2598 42.8358C61.3724 42.9862 61.5281 43.099 61.7062 43.1593C61.8842 43.2195 62.0764 43.2244 62.2573 43.1733H62.3098C62.3933 43.2827 62.5053 43.367 62.6335 43.4171C62.7618 43.4671 62.9013 43.4808 63.0368 43.4568C63.1724 43.4328 63.2987 43.3719 63.402 43.2809C63.5052 43.1899 63.5815 43.0722 63.6223 42.9408C63.6973 42.6483 63.8173 42.3633 63.9223 42.0708C63.9865 42.0405 64.0469 42.0027 64.1023 41.9583C64.432 41.6255 64.6496 41.1981 64.7248 40.7358C64.9343 39.8779 65.055 39.0008 65.0848 38.1183C65.0848 38.0658 65.0848 38.0133 65.0848 37.9608C64.3948 37.6608 63.7048 37.3533 63.0148 37.0308Z" fill="black"/>
</g>
<path d="M42.1043 61.3978C39.9788 61.2349 37.865 60.9444 35.7743 60.5278C35.7097 60.5167 35.6521 60.4806 35.6141 60.4271C35.5762 60.3737 35.561 60.3074 35.5718 60.2427C35.7783 58.7185 35.5167 57.1675 34.8218 55.7953C34.6015 55.2771 34.2672 54.8152 33.844 54.4439C33.4207 54.0725 32.9193 53.8013 32.3768 53.6503C31.3803 53.3539 30.3306 53.2809 29.3026 53.4364C28.2746 53.592 27.2936 53.9723 26.4293 54.5503C26.3735 54.5877 26.3052 54.6017 26.2392 54.589C26.1732 54.5764 26.1148 54.5382 26.0768 54.4828C24.9068 52.7203 23.7443 50.8977 22.5218 48.9177C22.4902 48.8648 22.4789 48.8022 22.4899 48.7415C22.501 48.6808 22.5336 48.6262 22.5818 48.5878C23.5715 47.8341 24.3662 46.8542 24.8993 45.7302C25.157 45.1804 25.3018 44.5845 25.325 43.9777C25.3482 43.3709 25.2493 42.7656 25.0343 42.1978C24.5699 41.2116 23.8026 40.3997 22.8443 39.8803C21.9637 39.4107 21.0424 39.0216 20.0918 38.7178L19.6643 38.5678C19.613 38.5511 19.5688 38.5176 19.5389 38.4726C19.5089 38.4277 19.495 38.3741 19.4993 38.3203C19.5388 36.2745 19.7445 34.2352 20.1143 32.2227C20.1245 32.1657 20.1538 32.1138 20.1974 32.0756C20.2411 32.0374 20.2964 32.0153 20.3543 32.0127C21.6743 31.9809 22.9707 31.6555 24.1493 31.0603C24.7213 30.7676 25.2261 30.3591 25.6316 29.8607C26.0371 29.3623 26.3343 28.7849 26.5043 28.1653C26.6947 26.916 26.5148 25.6383 25.9868 24.4902C25.8223 23.8931 25.4666 23.3662 24.9743 22.9902C24.9423 22.9681 24.9155 22.9391 24.8961 22.9054C24.8766 22.8717 24.8649 22.8341 24.8618 22.7952C24.8589 22.7556 24.8655 22.7158 24.8811 22.6792C24.8968 22.6427 24.9211 22.6104 24.9518 22.5852C26.1887 21.4896 27.4911 20.4702 28.8518 19.5327C28.8985 19.495 28.9568 19.4744 29.0168 19.4744C29.0769 19.4744 29.1351 19.495 29.1818 19.5327C29.9487 20.1904 30.8937 20.6054 31.8968 20.7253C32.5083 20.8821 33.1339 20.9776 33.7643 21.0103C35.2863 21.0403 36.7593 20.4721 37.8668 19.4277C38.9986 18.3434 39.7508 16.9232 40.0118 15.3777C40.0449 15.3296 40.0931 15.2939 40.1488 15.2762C40.2045 15.2585 40.2645 15.26 40.3193 15.2803L45.6143 15.6702C45.7152 15.6813 45.8104 15.7222 45.8879 15.7876C45.9654 15.8531 46.0216 15.9402 46.0493 16.0378C46.0493 16.0378 46.0493 16.0378 46.0493 16.0903C46.2072 17.7186 46.8033 19.2737 47.7743 20.5903C48.2563 21.2343 48.8826 21.7565 49.6029 22.1146C50.3232 22.4728 51.1174 22.6571 51.9218 22.6528C53.6168 22.5628 55.1393 21.4378 56.6093 20.3503C56.6624 20.3104 56.7289 20.2928 56.7947 20.3012C56.8605 20.3096 56.9205 20.3434 56.9618 20.3953C58.2788 22.06 59.508 23.7923 60.6443 25.5852C60.6767 25.6374 60.6893 25.6994 60.6796 25.76C60.67 25.8207 60.6388 25.8758 60.5918 25.9153C59.3086 26.9475 58.3675 28.3436 57.8918 29.9202C57.6709 30.6961 57.6318 31.5124 57.7775 32.3059C57.9232 33.0993 58.2497 33.8485 58.7318 34.4953C59.4975 35.3788 60.5115 36.0113 61.6418 36.3103C62.8229 36.6281 64.035 36.8168 65.2568 36.8728C65.2937 36.876 65.3295 36.8871 65.3618 36.9052C65.3941 36.9233 65.4222 36.948 65.4443 36.9778C65.4849 37.0369 65.5011 37.1095 65.4893 37.1802C65.0693 39.1752 64.5593 41.1778 63.9368 43.3078C63.9199 43.3651 63.8839 43.4149 63.8348 43.449C63.7857 43.4831 63.7264 43.4994 63.6668 43.4953C61.9482 43.2699 60.2038 43.632 58.7168 44.5227C57.998 44.9686 57.4019 45.5871 56.9827 46.3219C56.5636 47.0566 56.3347 47.8845 56.3168 48.7302C56.3543 50.3427 57.3143 51.8353 58.2443 53.2753V53.3277C58.2776 53.379 58.2914 53.4405 58.2832 53.5011C58.2749 53.5617 58.2451 53.6173 58.1993 53.6577C56.3993 55.2027 54.4943 56.5827 52.7018 57.8502C52.6484 57.887 52.583 57.902 52.5189 57.8923C52.4549 57.8825 52.3969 57.8487 52.3568 57.7978C51.8012 57.0101 51.1284 56.312 50.3618 55.7277C49.5216 55.1967 48.5447 54.9224 47.5509 54.9384C46.5571 54.9543 45.5895 55.26 44.7668 55.8178C43.9525 56.4283 43.3052 57.2341 42.8844 58.1609C42.4636 59.0876 42.283 60.1053 42.3593 61.1202C42.359 61.1959 42.3295 61.2685 42.2768 61.3228C42.2314 61.3695 42.1694 61.3964 42.1043 61.3978ZM36.1043 60.0777C38.0064 60.4428 39.9266 60.7057 41.8568 60.8652C41.8267 59.8094 42.0516 58.7618 42.5125 57.8113C42.9733 56.8608 43.6566 56.0355 44.5043 55.4053C45.4075 54.7815 46.4756 54.4399 47.5731 54.4239C48.6707 54.4079 49.7483 54.7181 50.6693 55.3153C51.4237 55.869 52.0846 56.54 52.6268 57.3027C54.2993 56.1177 56.0543 54.8353 57.7193 53.4253C56.7818 51.9253 55.8368 50.4252 55.7993 48.7527C55.8148 47.8195 56.0638 46.9049 56.5237 46.0927C56.9835 45.2804 57.6396 44.5963 58.4318 44.1027C59.9489 43.1789 61.7282 42.7809 63.4943 42.9702C64.0568 41.0277 64.5293 39.2202 64.9193 37.3677C63.7578 37.3006 62.6065 37.112 61.4843 36.8052C60.2579 36.4749 59.1583 35.7854 58.3268 34.8252C57.7923 34.1174 57.4294 33.2951 57.2667 32.4231C57.104 31.5511 57.146 30.6533 57.3893 29.8003C57.8692 28.192 58.8075 26.7586 60.0893 25.6753C59.1293 24.1753 58.0193 22.6078 56.7068 20.9128C55.2068 22.0003 53.7068 23.0803 51.9368 23.1628C51.0528 23.1698 50.1793 22.9699 49.3863 22.5793C48.5932 22.1886 47.9025 21.6179 47.3693 20.9128C46.3369 19.5216 45.7042 17.8748 45.5393 16.1503L40.4918 15.7753C40.1821 17.3418 39.3963 18.7745 38.2418 19.8777C37.0267 21.0209 35.4095 21.6381 33.7418 21.5952C33.0813 21.5618 32.4257 21.4638 31.7843 21.3027C30.7555 21.1613 29.7825 20.7498 28.9643 20.1103C27.7645 20.942 26.6126 21.8409 25.5143 22.8027C25.946 23.2176 26.2681 23.733 26.4518 24.3027C27.0248 25.5467 27.2128 26.9336 26.9918 28.2852C26.8061 28.9743 26.4778 29.6167 26.0283 30.171C25.5787 30.7252 25.0178 31.1789 24.3818 31.5027C23.1994 32.1094 21.8996 32.4522 20.5718 32.5078C20.2423 34.371 20.0518 36.2562 20.0018 38.1477L20.2568 38.2378C21.2396 38.5485 22.1912 38.9503 23.0993 39.4377C24.153 40.0142 24.9941 40.9132 25.4993 42.0027C25.741 42.6337 25.853 43.307 25.8285 43.9823C25.804 44.6575 25.6436 45.3209 25.3568 45.9328C24.832 47.068 24.0486 48.0646 23.0693 48.8428C24.1943 50.6652 25.2743 52.3527 26.3543 53.9878C27.2646 53.4174 28.2868 53.0492 29.3517 52.9082C30.4167 52.7672 31.4994 52.8565 32.5268 53.1703C33.0694 53.3241 33.5782 53.5785 34.0268 53.9203C34.5604 54.3704 34.9903 54.9308 35.2868 55.5628C35.9811 56.9598 36.2571 58.5276 36.0818 60.0777H36.1043Z" fill="black"/>
<path d="M41.8645 42.7451C41.0915 42.7322 40.3338 42.5274 39.6596 42.149C38.9854 41.7707 38.4158 41.2307 38.002 40.5776C37.5533 39.8242 37.2853 38.977 37.2189 38.1026C37.1526 37.2281 37.2896 36.3502 37.6195 35.5376C38.0398 34.4318 38.8017 33.4886 39.7945 32.8451C40.2992 32.5271 40.8628 32.3141 41.4517 32.2187C42.0406 32.1234 42.6427 32.1476 43.222 32.2901C44.331 32.5258 45.3321 33.1185 46.072 33.9776C46.8279 34.9976 47.2213 36.241 47.1894 37.5101C47.2138 38.3192 47.0195 39.1198 46.6269 39.8276C46.3075 40.3345 45.9043 40.7834 45.4345 41.1551C44.621 41.9092 43.6177 42.4278 42.532 42.6551C42.3124 42.7041 42.0891 42.7342 41.8645 42.7451ZM42.187 32.6651C41.436 32.6682 40.7008 32.8813 40.0644 33.2801C39.1625 33.8634 38.4713 34.7203 38.092 35.7251C37.7916 36.4621 37.6658 37.2585 37.7243 38.0522C37.7829 38.8459 38.0242 39.6152 38.4295 40.3001C38.846 40.9692 39.4471 41.5036 40.1603 41.8389C40.8735 42.1742 41.6685 42.2962 42.4495 42.1901C43.4469 41.9637 44.3644 41.4712 45.1045 40.7651C45.53 40.4301 45.8975 40.0272 46.192 39.5726C46.5354 38.9409 46.7036 38.2288 46.6795 37.5101C46.7113 36.3546 46.3549 35.2217 45.667 34.2926C44.9934 33.5249 44.0874 32.9982 43.087 32.7926C42.7944 32.7083 42.4914 32.6653 42.187 32.6651Z" fill="black"/>
<path d="M42.1954 47.0726C40.4713 47.0484 38.7864 46.5545 37.3221 45.6439C35.8578 44.7334 34.6696 43.4407 33.8854 41.9051C33.1898 40.5089 32.8393 38.9662 32.8635 37.4065C32.8876 35.8468 33.2856 34.3156 34.024 32.9416C34.7625 31.5676 35.8198 30.3908 37.1073 29.5101C38.3947 28.6293 39.8746 28.0704 41.4229 27.8801C44.2879 27.5126 47.7604 29.1176 49.6729 31.6976C50.6607 33.0532 51.275 34.6446 51.454 36.3124C51.633 37.9802 51.3706 39.6657 50.6929 41.2001C49.9409 42.8234 48.7838 44.2259 47.3329 45.2726C46.5019 45.8962 45.5747 46.3801 44.5879 46.7051C43.8142 46.9505 43.0071 47.0745 42.1954 47.0726ZM41.4454 28.3826C39.9829 28.5731 38.5869 29.1096 37.3731 29.9475C36.1594 30.7854 35.1629 31.9006 34.4663 33.2007C33.7697 34.5007 33.3931 35.948 33.3678 37.4227C33.3424 38.8974 33.669 40.3568 34.3204 41.6801C36.1429 45.3851 40.6654 47.4176 44.4079 46.2251C45.3423 45.9145 46.221 45.4562 47.0104 44.8676C48.3911 43.8713 49.4915 42.5358 50.2054 40.9901C50.837 39.5345 51.0799 37.9399 50.9103 36.3623C50.7407 34.7847 50.1644 33.2781 49.2379 31.9901C47.4529 29.5301 44.1829 28.0301 41.4829 28.3826H41.4454Z" fill="black"/>
<path d="M61.5379 36.5648C60.3739 36.2393 59.3308 35.5796 58.5379 34.6673C58.0287 33.9905 57.6837 33.2046 57.5301 32.3716C57.3765 31.5386 57.4185 30.6813 57.6529 29.8673C58.1376 28.2364 59.1084 26.7922 60.4354 25.7274C59.2894 23.9331 58.0528 22.1984 56.7304 20.5299C55.1629 21.6924 53.6479 22.7799 51.9079 22.8849C51.0623 22.8901 50.2272 22.6975 49.4693 22.3225C48.7114 21.9474 48.0517 21.4003 47.5429 20.7249C46.5426 19.361 45.9309 17.7513 45.7729 16.0674C45.7129 15.9024 45.6229 15.8724 45.5629 15.8649L40.2679 15.4749C39.9841 17.0744 39.1956 18.541 38.0179 19.6598C36.8585 20.7445 35.3229 21.3362 33.7354 21.3099C33.0904 21.2749 32.4501 21.1795 31.8229 21.0249C30.7671 20.8933 29.7747 20.4493 28.9729 19.7499C27.6215 20.6713 26.3266 21.6731 25.0954 22.7499C25.6258 23.1397 26.0132 23.6931 26.1979 24.3248C26.7539 25.5206 26.9393 26.8553 26.7304 28.1573C26.5498 28.8109 26.2361 29.4201 25.8089 29.9467C25.3817 30.4733 24.8502 30.9059 24.2479 31.2174C23.035 31.8249 21.704 32.1602 20.3479 32.1998C19.9769 34.1995 19.7712 36.2264 19.7329 38.2598C20.8457 38.6076 21.925 39.0543 22.9579 39.5948C23.9641 40.1408 24.7685 40.9951 25.2529 42.0323C25.481 42.6352 25.5859 43.2777 25.5614 43.9218C25.5369 44.5659 25.3836 45.1985 25.1104 45.7823C24.5616 46.9451 23.741 47.9586 22.7179 48.7374C23.9254 50.6874 25.0804 52.4873 26.2654 54.2873C27.1605 53.6866 28.1776 53.2916 29.2436 53.1308C30.3096 52.97 31.3979 53.0474 32.4304 53.3574C32.938 53.5061 33.4135 53.7476 33.8329 54.0699C34.338 54.4981 34.7447 55.0302 35.0254 55.6299C35.7388 57.0499 36.0005 58.6542 35.7754 60.2273C37.859 60.6394 39.9652 60.9274 42.0829 61.0899C42.0016 60.0306 42.1901 58.968 42.6308 58.0014C43.0714 57.0348 43.75 56.1956 44.6029 55.5624C45.4659 54.9716 46.4837 54.6481 47.5294 54.6321C48.575 54.616 49.6023 54.9083 50.4829 55.4723C51.2724 56.0707 51.9654 56.7865 52.5379 57.5948C54.4129 56.2673 56.2879 54.9099 58.0129 53.4249C57.0379 51.9249 56.0479 50.4249 56.0104 48.6924C56.0275 47.802 56.2671 46.9301 56.7072 46.1559C57.1473 45.3818 57.7741 44.73 58.5304 44.2598C60.0636 43.3376 61.864 42.9622 63.6379 43.1949C64.2454 41.1324 64.7554 39.1148 65.1829 37.0823C63.9534 37.0359 62.7318 36.8625 61.5379 36.5648ZM50.4604 41.0648C49.7278 42.6496 48.599 44.0186 47.1829 45.0399C46.3723 45.6475 45.4679 46.1187 44.5054 46.4349C40.5679 47.6949 35.9404 45.4748 34.1104 41.7623C33.442 40.4014 33.1078 38.9007 33.1356 37.3848C33.1635 35.8688 33.5525 34.3814 34.2705 33.0459C34.9884 31.7105 36.0146 30.5656 37.2637 29.7062C38.5129 28.8469 39.9491 28.2979 41.4529 28.1048C44.1379 27.7598 47.5354 29.2073 49.4704 31.8548C50.4236 33.1764 51.0162 34.7235 51.1897 36.3437C51.3633 37.9639 51.112 39.6013 50.4604 41.0948V41.0648Z" fill="white"/>
<g opacity="0.13">
<path d="M52.8675 36.7894C52.8263 36.481 52.7662 36.1755 52.6875 35.8744L52.5825 35.6644C52.0251 34.5628 51.362 33.5179 50.6026 32.5444C50.4794 32.6371 50.3877 32.7654 50.34 32.9119C50.265 33.4369 50.67 33.9169 50.7975 34.4119C51.255 35.7844 51.5475 36.4444 51.4125 37.6969C51.2149 38.89 50.8698 40.054 50.385 41.1619C50.0891 41.746 49.7428 42.3031 49.35 42.8269C49.23 42.9694 49.1851 43.0369 49.2001 43.0444C49.0051 43.1944 48.8326 43.3969 48.6376 43.5544L47.4076 44.6044C47.2597 44.7123 47.1194 44.83 46.9876 44.9569C47.0551 44.8594 46.8751 45.0319 46.7101 45.1744C46.5451 45.3169 46.2076 45.5194 45.9976 45.6244C44.7871 46.0571 43.5274 46.3367 42.2476 46.4569C41.2621 46.493 40.2772 46.3715 39.33 46.0969C38.7525 45.9244 38.2425 45.3469 37.62 45.4744C37.4956 45.5045 37.3817 45.5678 37.2905 45.6576C37.1994 45.7475 37.1344 45.8605 37.1025 45.9844L37.2826 46.1719L37.92 46.6969L40.2451 48.1969C41.6487 48.5853 43.1249 48.6316 44.5501 48.3319H44.4526C45.6919 48.1193 46.8862 47.6984 47.985 47.0869C49.0736 46.4109 49.9882 45.4886 50.6551 44.3944L50.715 44.2969C51.513 43.2888 52.1343 42.1527 52.5525 40.9369C52.9369 39.59 53.0441 38.179 52.8675 36.7894Z" fill="black"/>
</g>
<g opacity="0.13">
<path d="M57.0674 50.9126C56.8967 50.9192 56.7298 50.9654 56.5799 51.0476C56.371 51.1809 56.1984 51.3638 56.0774 51.5801C55.9441 51.7386 55.819 51.9039 55.7024 52.0751C55.3424 52.5798 54.9383 53.0517 54.495 53.4851C54.075 53.9351 53.415 54.2351 53.1375 54.7826L52.6499 55.0601C52.3424 55.2476 51.9449 55.3376 51.7274 55.6451C51.599 55.8228 51.5347 56.0388 51.545 56.2578C51.5554 56.4768 51.6399 56.6857 51.7845 56.8504C51.9292 57.0152 52.1255 57.1259 52.3414 57.1644C52.5572 57.2029 52.7797 57.1671 52.9724 57.0626C53.8861 56.5798 54.7395 55.9907 55.5149 55.3076C55.5149 55.3076 55.5899 55.2326 55.6274 55.1951C56.2318 54.7328 56.8055 54.2318 57.3449 53.6951C57.5678 53.4603 57.7734 53.2097 57.9599 52.9451C57.7649 52.5476 57.5849 52.1276 57.4274 51.7076C57.2924 51.4601 57.1724 51.1901 57.0674 50.9126Z" fill="black"/>
</g>
<g opacity="0.13">
<path d="M63.0148 37.0308C62.6698 38.3658 62.2823 39.6908 61.8523 41.0058C61.6498 41.6133 61.4548 42.2283 61.2598 42.8358C61.3724 42.9862 61.5281 43.099 61.7062 43.1593C61.8842 43.2195 62.0764 43.2244 62.2573 43.1733H62.3098C62.3933 43.2827 62.5053 43.367 62.6335 43.4171C62.7618 43.4671 62.9013 43.4808 63.0368 43.4568C63.1724 43.4328 63.2987 43.3719 63.402 43.2809C63.5052 43.1899 63.5815 43.0722 63.6223 42.9408C63.6973 42.6483 63.8173 42.3633 63.9223 42.0708C63.9865 42.0405 64.0469 42.0027 64.1023 41.9583C64.432 41.6255 64.6496 41.1981 64.7248 40.7358C64.9343 39.8779 65.055 39.0008 65.0848 38.1183C65.0848 38.0658 65.0848 38.0133 65.0848 37.9608C64.3948 37.6608 63.7048 37.3533 63.0148 37.0308Z" fill="black"/>
</g>
<path d="M42.1043 61.3978C39.9788 61.2349 37.865 60.9444 35.7743 60.5278C35.7097 60.5167 35.6521 60.4806 35.6141 60.4271C35.5762 60.3737 35.561 60.3074 35.5718 60.2427C35.7783 58.7185 35.5167 57.1675 34.8218 55.7953C34.6015 55.2771 34.2672 54.8152 33.844 54.4439C33.4207 54.0725 32.9193 53.8013 32.3768 53.6503C31.3803 53.3539 30.3306 53.2809 29.3026 53.4364C28.2746 53.592 27.2936 53.9723 26.4293 54.5503C26.3735 54.5877 26.3052 54.6017 26.2392 54.589C26.1732 54.5764 26.1148 54.5382 26.0768 54.4828C24.9068 52.7203 23.7443 50.8977 22.5218 48.9177C22.4902 48.8648 22.4789 48.8022 22.4899 48.7415C22.501 48.6808 22.5336 48.6262 22.5818 48.5878C23.5715 47.8341 24.3662 46.8542 24.8993 45.7302C25.157 45.1804 25.3018 44.5845 25.325 43.9777C25.3482 43.3709 25.2493 42.7656 25.0343 42.1978C24.5699 41.2116 23.8026 40.3997 22.8443 39.8803C21.9637 39.4107 21.0424 39.0216 20.0918 38.7178L19.6643 38.5678C19.613 38.5511 19.5688 38.5176 19.5389 38.4726C19.5089 38.4277 19.495 38.3741 19.4993 38.3203C19.5388 36.2745 19.7445 34.2352 20.1143 32.2227C20.1245 32.1657 20.1538 32.1138 20.1974 32.0756C20.2411 32.0374 20.2964 32.0153 20.3543 32.0127C21.6743 31.9809 22.9707 31.6555 24.1493 31.0603C24.7213 30.7676 25.2261 30.3591 25.6316 29.8607C26.0371 29.3623 26.3343 28.7849 26.5043 28.1653C26.6947 26.916 26.5148 25.6383 25.9868 24.4902C25.8223 23.8931 25.4666 23.3662 24.9743 22.9902C24.9423 22.9681 24.9155 22.9391 24.8961 22.9054C24.8766 22.8717 24.8649 22.8341 24.8618 22.7952C24.8589 22.7556 24.8655 22.7158 24.8811 22.6792C24.8968 22.6427 24.9211 22.6104 24.9518 22.5852C26.1887 21.4896 27.4911 20.4702 28.8518 19.5327C28.8985 19.495 28.9568 19.4744 29.0168 19.4744C29.0769 19.4744 29.1351 19.495 29.1818 19.5327C29.9487 20.1904 30.8937 20.6054 31.8968 20.7253C32.5083 20.8821 33.1339 20.9776 33.7643 21.0103C35.2863 21.0403 36.7593 20.4721 37.8668 19.4277C38.9986 18.3434 39.7508 16.9232 40.0118 15.3777C40.0449 15.3296 40.0931 15.2939 40.1488 15.2762C40.2045 15.2585 40.2645 15.26 40.3193 15.2803L45.6143 15.6702C45.7152 15.6813 45.8104 15.7222 45.8879 15.7876C45.9654 15.8531 46.0216 15.9402 46.0493 16.0378C46.0493 16.0378 46.0493 16.0378 46.0493 16.0903C46.2072 17.7186 46.8033 19.2737 47.7743 20.5903C48.2563 21.2343 48.8826 21.7565 49.6029 22.1146C50.3232 22.4728 51.1174 22.6571 51.9218 22.6528C53.6168 22.5628 55.1393 21.4378 56.6093 20.3503C56.6624 20.3104 56.7289 20.2928 56.7947 20.3012C56.8605 20.3096 56.9205 20.3434 56.9618 20.3953C58.2788 22.06 59.508 23.7923 60.6443 25.5852C60.6767 25.6374 60.6893 25.6994 60.6796 25.76C60.67 25.8207 60.6388 25.8758 60.5918 25.9153C59.3086 26.9475 58.3675 28.3436 57.8918 29.9202C57.6709 30.6961 57.6318 31.5124 57.7775 32.3059C57.9232 33.0993 58.2497 33.8485 58.7318 34.4953C59.4975 35.3788 60.5115 36.0113 61.6418 36.3103C62.8229 36.6281 64.035 36.8168 65.2568 36.8728C65.2937 36.876 65.3295 36.8871 65.3618 36.9052C65.3941 36.9233 65.4222 36.948 65.4443 36.9778C65.4849 37.0369 65.5011 37.1095 65.4893 37.1802C65.0693 39.1752 64.5593 41.1778 63.9368 43.3078C63.9199 43.3651 63.8839 43.4149 63.8348 43.449C63.7857 43.4831 63.7264 43.4994 63.6668 43.4953C61.9482 43.2699 60.2038 43.632 58.7168 44.5227C57.998 44.9686 57.4019 45.5871 56.9827 46.3219C56.5636 47.0566 56.3347 47.8845 56.3168 48.7302C56.3543 50.3427 57.3143 51.8353 58.2443 53.2753V53.3277C58.2776 53.379 58.2914 53.4405 58.2832 53.5011C58.2749 53.5617 58.2451 53.6173 58.1993 53.6577C56.3993 55.2027 54.4943 56.5827 52.7018 57.8502C52.6484 57.887 52.583 57.902 52.5189 57.8923C52.4549 57.8825 52.3969 57.8487 52.3568 57.7978C51.8012 57.0101 51.1284 56.312 50.3618 55.7277C49.5216 55.1967 48.5447 54.9224 47.5509 54.9384C46.5571 54.9543 45.5895 55.26 44.7668 55.8178C43.9525 56.4283 43.3052 57.2341 42.8844 58.1609C42.4636 59.0876 42.283 60.1053 42.3593 61.1202C42.359 61.1959 42.3295 61.2685 42.2768 61.3228C42.2314 61.3695 42.1694 61.3964 42.1043 61.3978ZM36.1043 60.0777C38.0064 60.4428 39.9266 60.7057 41.8568 60.8652C41.8267 59.8094 42.0516 58.7618 42.5125 57.8113C42.9733 56.8608 43.6566 56.0355 44.5043 55.4053C45.4075 54.7815 46.4756 54.4399 47.5731 54.4239C48.6707 54.4079 49.7483 54.7181 50.6693 55.3153C51.4237 55.869 52.0846 56.54 52.6268 57.3027C54.2993 56.1177 56.0543 54.8353 57.7193 53.4253C56.7818 51.9253 55.8368 50.4252 55.7993 48.7527C55.8148 47.8195 56.0638 46.9049 56.5237 46.0927C56.9835 45.2804 57.6396 44.5963 58.4318 44.1027C59.9489 43.1789 61.7282 42.7809 63.4943 42.9702C64.0568 41.0277 64.5293 39.2202 64.9193 37.3677C63.7578 37.3006 62.6065 37.112 61.4843 36.8052C60.2579 36.4749 59.1583 35.7854 58.3268 34.8252C57.7923 34.1174 57.4294 33.2951 57.2667 32.4231C57.104 31.5511 57.146 30.6533 57.3893 29.8003C57.8692 28.192 58.8075 26.7586 60.0893 25.6753C59.1293 24.1753 58.0193 22.6078 56.7068 20.9128C55.2068 22.0003 53.7068 23.0803 51.9368 23.1628C51.0528 23.1698 50.1793 22.9699 49.3863 22.5793C48.5932 22.1886 47.9025 21.6179 47.3693 20.9128C46.3369 19.5216 45.7042 17.8748 45.5393 16.1503L40.4918 15.7753C40.1821 17.3418 39.3963 18.7745 38.2418 19.8777C37.0267 21.0209 35.4095 21.6381 33.7418 21.5952C33.0813 21.5618 32.4257 21.4638 31.7843 21.3027C30.7555 21.1613 29.7825 20.7498 28.9643 20.1103C27.7645 20.942 26.6126 21.8409 25.5143 22.8027C25.946 23.2176 26.2681 23.733 26.4518 24.3027C27.0248 25.5467 27.2128 26.9336 26.9918 28.2852C26.8061 28.9743 26.4778 29.6167 26.0283 30.171C25.5787 30.7252 25.0178 31.1789 24.3818 31.5027C23.1994 32.1094 21.8996 32.4522 20.5718 32.5078C20.2423 34.371 20.0518 36.2562 20.0018 38.1477L20.2568 38.2378C21.2396 38.5485 22.1912 38.9503 23.0993 39.4377C24.153 40.0142 24.9941 40.9132 25.4993 42.0027C25.741 42.6337 25.853 43.307 25.8285 43.9823C25.804 44.6575 25.6436 45.3209 25.3568 45.9328C24.832 47.068 24.0486 48.0646 23.0693 48.8428C24.1943 50.6652 25.2743 52.3527 26.3543 53.9878C27.2646 53.4174 28.2868 53.0492 29.3517 52.9082C30.4167 52.7672 31.4994 52.8565 32.5268 53.1703C33.0694 53.3241 33.5782 53.5785 34.0268 53.9203C34.5604 54.3704 34.9903 54.9308 35.2868 55.5628C35.9811 56.9598 36.2571 58.5276 36.0818 60.0777H36.1043Z" fill="black"/>
<path d="M41.8645 42.7451C41.0915 42.7322 40.3338 42.5274 39.6596 42.149C38.9854 41.7707 38.4158 41.2307 38.002 40.5776C37.5533 39.8242 37.2853 38.977 37.2189 38.1026C37.1526 37.2281 37.2896 36.3502 37.6195 35.5376C38.0398 34.4318 38.8017 33.4886 39.7945 32.8451C40.2992 32.5271 40.8628 32.3141 41.4517 32.2187C42.0406 32.1234 42.6427 32.1476 43.222 32.2901C44.331 32.5258 45.3321 33.1185 46.072 33.9776C46.8279 34.9976 47.2213 36.241 47.1894 37.5101C47.2138 38.3192 47.0195 39.1198 46.6269 39.8276C46.3075 40.3345 45.9043 40.7834 45.4345 41.1551C44.621 41.9092 43.6177 42.4278 42.532 42.6551C42.3124 42.7041 42.0891 42.7342 41.8645 42.7451ZM42.187 32.6651C41.436 32.6682 40.7008 32.8813 40.0644 33.2801C39.1625 33.8634 38.4713 34.7203 38.092 35.7251C37.7916 36.4621 37.6658 37.2585 37.7243 38.0522C37.7829 38.8459 38.0242 39.6152 38.4295 40.3001C38.846 40.9692 39.4471 41.5036 40.1603 41.8389C40.8735 42.1742 41.6685 42.2962 42.4495 42.1901C43.4469 41.9637 44.3644 41.4712 45.1045 40.7651C45.53 40.4301 45.8975 40.0272 46.192 39.5726C46.5354 38.9409 46.7036 38.2288 46.6795 37.5101C46.7113 36.3546 46.3549 35.2217 45.667 34.2926C44.9934 33.5249 44.0874 32.9982 43.087 32.7926C42.7944 32.7083 42.4914 32.6653 42.187 32.6651Z" fill="black"/>
<path d="M42.1954 47.0726C40.4713 47.0484 38.7864 46.5545 37.3221 45.6439C35.8578 44.7334 34.6696 43.4407 33.8854 41.9051C33.1898 40.5089 32.8393 38.9662 32.8635 37.4065C32.8876 35.8468 33.2856 34.3156 34.024 32.9416C34.7625 31.5676 35.8198 30.3908 37.1073 29.5101C38.3947 28.6293 39.8746 28.0704 41.4229 27.8801C44.2879 27.5126 47.7604 29.1176 49.6729 31.6976C50.6607 33.0532 51.275 34.6446 51.454 36.3124C51.633 37.9802 51.3706 39.6657 50.6929 41.2001C49.9409 42.8234 48.7838 44.2259 47.3329 45.2726C46.5019 45.8962 45.5747 46.3801 44.5879 46.7051C43.8142 46.9505 43.0071 47.0745 42.1954 47.0726ZM41.4454 28.3826C39.9829 28.5731 38.5869 29.1096 37.3731 29.9475C36.1594 30.7854 35.1629 31.9006 34.4663 33.2007C33.7697 34.5007 33.3931 35.948 33.3678 37.4227C33.3424 38.8974 33.669 40.3568 34.3204 41.6801C36.1429 45.3851 40.6654 47.4176 44.4079 46.2251C45.3423 45.9145 46.221 45.4562 47.0104 44.8676C48.3911 43.8713 49.4915 42.5358 50.2054 40.9901C50.837 39.5345 51.0799 37.9399 50.9103 36.3623C50.7407 34.7847 50.1644 33.2781 49.2379 31.9901C47.4529 29.5301 44.1829 28.0301 41.4829 28.3826H41.4454Z" fill="black"/>
<rect x="30.75" y="26.5" width="21.75" height="21.75" rx="10.875" fill="#FFD803"/>
<g clip-path="url(#clip2_1009_32913)">
<path d="M36.3962 32.7833C36.3847 32.7723 36.3755 32.7589 36.3693 32.7441C36.3631 32.7292 36.36 32.7132 36.3602 32.6971C36.2859 32.3543 36.3283 31.7076 37.2194 31.7981C37.2584 31.8038 37.2963 31.8154 37.3318 31.8326L38.8784 33.4063L43.3209 37.9334L44.1823 38.8108C44.1823 38.8108 45.5061 40.35 46.359 41.5055C47.844 43.4241 46.9678 42.9477 45.8116 41.997C45.8986 42.1285 43.13 39.6257 43.13 39.6257L42.3896 38.8733L37.9449 34.3462L36.3962 32.7833Z" fill="#1A1A1A"/>
<path d="M37.331 42.8959C37.3202 42.9077 37.307 42.917 37.2924 42.9233C37.2778 42.9296 37.262 42.9328 37.2462 42.9326C36.9088 43.008 36.2724 42.9649 36.3615 42.0595C36.3671 42.0199 36.3785 41.9814 36.3954 41.9453L37.9442 40.3737L42.3994 35.8596L43.2628 34.9844C43.2628 34.9844 44.7776 33.6392 45.9148 32.7726C47.8029 31.2635 47.3341 32.1539 46.3985 33.3287C46.5279 33.2404 44.0648 36.0536 44.0648 36.0536L43.3244 36.806L38.8798 41.333L37.331 42.8959Z" fill="#1A1A1A"/>
</g>
</g>
<defs>
<clipPath id="clip0_1009_32913">
<rect width="99" height="63" fill="white" transform="translate(0.75 0.161133)"/>
</clipPath>
<clipPath id="clip1_1009_32913">
<rect width="45.9675" height="46.155" fill="white" transform="translate(19.5 15.25)"/>
</clipPath>
<clipPath id="clip2_1009_32913">
<rect width="10.875" height="11.1689" fill="white" transform="translate(36.334 31.7903)"/>
</clipPath>
</defs>
</svg>
