<svg width="140" height="100" viewBox="0 0 140 100" fill="none" xmlns="http://www.w3.org/2000/svg">
<g clip-path="url(#clip0_1009_32910)">
<path d="M1.11469 48.8112C1.05387 48.9516 1.04672 49.1094 1.09458 49.2544C1.14245 49.3994 1.24196 49.5215 1.37411 49.5972C1.44501 49.6384 1.52344 49.665 1.6048 49.6755C1.68615 49.686 1.76883 49.6802 1.84803 49.6584C1.92723 49.6366 2.00141 49.5991 2.0662 49.5484C2.13099 49.4976 2.18511 49.4345 2.22544 49.3626C3.38117 47.3575 4.70047 45.4515 6.16976 43.6644C6.27586 43.5381 6.32777 43.3749 6.3141 43.2107C6.30041 43.0465 6.22224 42.8946 6.0968 42.7886C5.97135 42.6826 5.8089 42.6311 5.64517 42.6454C5.48145 42.6597 5.32987 42.7386 5.22376 42.8648C3.70733 44.7095 2.34796 46.6785 1.16006 48.7509L1.11469 48.8112ZM9.47359 38.4493C9.42436 38.559 9.40885 38.6808 9.42904 38.7992C9.44923 38.9175 9.50421 39.027 9.58692 39.1136C9.69554 39.235 9.84757 39.3083 10.0101 39.3179C10.1726 39.3274 10.3326 39.2724 10.4554 39.1646C12.1614 37.5899 13.989 36.1531 15.9206 34.8679C16.0505 34.7729 16.1388 34.6312 16.1668 34.4727C16.1949 34.3141 16.1606 34.151 16.0711 34.0177C15.9817 33.8844 15.8441 33.7913 15.6872 33.758C15.5304 33.7247 15.3666 33.7538 15.2303 33.8391C13.2545 35.1611 11.3804 36.6306 9.62402 38.2349L9.47359 38.4493ZM20.3746 30.9962C20.3243 31.1135 20.3112 31.2435 20.3371 31.3683C20.3629 31.4931 20.4265 31.6068 20.5191 31.6939C20.6117 31.781 20.7289 31.8373 20.8547 31.8552C20.9805 31.873 21.1089 31.8516 21.2225 31.7937C23.3023 30.7696 25.4554 29.9039 27.6636 29.2037C27.8156 29.1416 27.9371 29.0217 28.0015 28.8703C28.0659 28.7188 28.0679 28.548 28.007 28.3955C27.9457 28.2432 27.8266 28.1218 27.6759 28.0577C27.5251 27.9937 27.355 27.9922 27.2028 28.0538C24.9344 28.7645 22.7247 29.6532 20.5943 30.7119C20.5273 30.7465 20.4679 30.7942 20.4195 30.8522C20.3711 30.9101 20.3347 30.9771 20.3124 31.0493L20.3746 30.9962ZM32.9306 26.9098C32.8635 26.9988 32.8193 27.1029 32.8019 27.2129C32.8139 27.294 32.8419 27.3718 32.8841 27.4419C32.9263 27.512 32.982 27.5729 33.0479 27.6213C33.1138 27.6696 33.1886 27.7043 33.268 27.7235C33.3474 27.7426 33.4299 27.7457 33.5106 27.7327C35.7913 27.3364 38.1006 27.1341 40.4138 27.1278C40.5794 27.127 40.7381 27.0603 40.8551 26.9422C40.972 26.8242 41.0375 26.6645 41.0373 26.4984C41.0371 26.3322 40.9711 26.1732 40.8539 26.0563C40.7366 25.9394 40.5777 25.8741 40.4121 25.875C38.0366 25.8917 35.6657 26.1007 33.3224 26.4999C33.2118 26.5278 33.1108 26.5858 33.0308 26.6675C32.9507 26.7492 32.8945 26.8515 32.8685 26.963L32.9306 26.9098ZM46.0876 26.7162L46.0232 26.8678C46.0099 26.9478 46.0127 27.0296 46.0316 27.1083C46.0505 27.1871 46.085 27.2611 46.1331 27.3261C46.1812 27.3911 46.2419 27.4456 46.3115 27.4864C46.3812 27.5272 46.4584 27.5535 46.5385 27.5637C48.8333 27.8829 51.1037 28.3562 53.3343 28.9805C53.4122 29.0039 53.4942 29.0112 53.5751 29.0019C53.656 28.9927 53.7343 28.967 53.8052 28.9265C53.876 28.8859 53.938 28.8314 53.9873 28.7662C54.0366 28.701 54.0723 28.6265 54.0921 28.5471C54.1346 28.3891 54.1134 28.2208 54.0331 28.0787C53.9527 27.9367 53.8197 27.8323 53.6628 27.7883C51.3875 27.1421 49.0695 26.6553 46.7258 26.3315C46.5762 26.3058 46.4222 26.3362 46.293 26.417C46.1639 26.4977 46.0687 26.6231 46.0255 26.7694L46.0876 26.7162ZM58.8332 30.1443C58.8036 30.2196 58.7895 30.3001 58.7916 30.381C58.7937 30.4618 58.8119 30.5413 58.8453 30.6149C58.8786 30.6884 58.9264 30.7544 58.9857 30.8089C59.045 30.8634 59.1147 30.9054 59.1907 30.9323C60.0452 31.2953 60.8662 31.6442 61.8212 32.05C63.0276 32.5626 64.301 33.1037 65.5721 33.7432C65.646 33.7772 65.7258 33.7963 65.8072 33.7993C65.8885 33.8023 65.9697 33.7892 66.0461 33.7607C66.1225 33.7323 66.1926 33.689 66.2524 33.6334C66.3122 33.5778 66.3605 33.511 66.3946 33.4367C66.4334 33.3648 66.4569 33.2856 66.4634 33.2042C66.4699 33.1228 66.4594 33.0409 66.4325 32.964C66.4056 32.887 66.3628 32.8166 66.3071 32.7573C66.2514 32.698 66.1838 32.6511 66.1089 32.6196C64.7852 32.0572 63.4951 31.509 62.2719 30.9893C61.3672 30.6048 60.4624 30.2204 59.6079 29.8573C59.534 29.8233 59.4541 29.8042 59.3728 29.8012C59.2915 29.7981 59.2103 29.8112 59.1339 29.8397C59.0575 29.8682 58.9874 29.9114 58.9276 29.967C58.8678 30.0226 58.8195 30.0894 58.7854 30.1637L58.8332 30.1443ZM70.7946 35.7436C70.7372 35.8873 70.7336 36.0468 70.7844 36.1926C70.8352 36.3385 70.9369 36.4607 71.0708 36.5368C72.6819 37.4002 74.2787 38.2974 76.3232 39.4444L77.1779 39.9467C77.3214 40.0288 77.4917 40.0501 77.6514 40.0061C77.811 39.9621 77.947 39.8564 78.0292 39.7121C78.1115 39.5678 78.1334 39.3969 78.0902 39.2368C78.0469 39.0768 77.9419 38.9408 77.7984 38.8587L76.9366 38.3733C74.983 37.245 73.2522 36.2909 71.6578 35.4345C71.5859 35.3958 71.507 35.3718 71.4256 35.3638C71.3443 35.3558 71.2621 35.3641 71.1839 35.3882C71.1056 35.4122 71.0329 35.4515 70.9697 35.5038C70.9066 35.5562 70.8544 35.6205 70.8161 35.6931L70.7946 35.7436ZM82.2884 42.2573C82.2276 42.3977 82.2204 42.5556 82.2683 42.7006C82.3161 42.8456 82.4157 42.9676 82.5478 43.0433C84.2309 44.0169 86.4453 45.2759 88.6741 46.5012C88.7457 46.5407 88.8243 46.5657 88.9055 46.5747C88.9868 46.5837 89.0691 46.5766 89.1477 46.5537C89.2263 46.5308 89.2997 46.4926 89.3637 46.4413C89.4277 46.39 89.481 46.3265 89.5207 46.2546C89.5603 46.1827 89.5855 46.1038 89.5947 46.0222C89.604 45.9407 89.5971 45.8581 89.5746 45.7793C89.5521 45.7005 89.5143 45.627 89.4634 45.5629C89.4125 45.4989 89.3495 45.4456 89.2779 45.4061C87.042 44.1976 84.8514 42.9289 83.1684 41.9554C83.0974 41.9142 83.019 41.8876 82.9377 41.8771C82.8563 41.8666 82.7736 41.8724 82.6944 41.8942C82.6152 41.916 82.5411 41.9534 82.4763 42.0042C82.4115 42.0549 82.3574 42.1181 82.317 42.19L82.2884 42.2573ZM93.8466 48.6195C93.7842 48.7655 93.7798 48.9298 93.8343 49.0786C93.8888 49.2274 93.998 49.3495 94.1395 49.4198C95.7793 50.2159 97.2825 50.9143 98.8072 51.5621C99.3936 51.8113 99.9968 52.0676 100.583 52.3168C100.659 52.349 100.74 52.3653 100.822 52.3648C100.904 52.3643 100.985 52.3469 101.061 52.3137C101.136 52.2805 101.204 52.2322 101.26 52.1718C101.316 52.1114 101.359 52.0401 101.387 51.9624C101.416 51.8863 101.431 51.8051 101.429 51.7235C101.428 51.6418 101.41 51.5613 101.378 51.4866C101.345 51.4118 101.298 51.3444 101.24 51.2879C101.181 51.2315 101.112 51.1872 101.036 51.1576C100.45 50.9084 99.8801 50.6664 99.3607 50.4457C97.8695 49.8121 96.3448 49.1642 94.7361 48.3416C94.6641 48.3056 94.5855 48.2845 94.505 48.2796C94.4246 48.2748 94.344 48.2862 94.2679 48.3132C94.1918 48.3402 94.1219 48.3823 94.0623 48.4369C94.0026 48.4915 93.9545 48.5576 93.9208 48.6311L93.8466 48.6195ZM106.099 53.4877C106.052 53.6439 106.069 53.8119 106.145 53.9557C106.221 54.0994 106.35 54.2073 106.504 54.2562C107.057 54.4912 107.667 54.5914 108.273 54.7493C109.98 55.1985 111.71 55.5555 113.456 55.8186C113.618 55.843 113.784 55.8014 113.917 55.7031C114.05 55.6048 114.138 55.4578 114.163 55.2943C114.188 55.1309 114.147 54.9645 114.05 54.8318C113.952 54.699 113.806 54.6107 113.643 54.5863C111.939 54.3342 110.25 53.9883 108.585 53.55C108.048 53.3222 107.448 53.2459 106.816 53.057C106.671 53.0284 106.521 53.0527 106.392 53.1255C106.263 53.1983 106.164 53.3148 106.113 53.454L106.099 53.4877ZM119.079 55.5248C119.034 55.5907 119.002 55.6652 118.986 55.7437C118.987 55.9061 119.051 56.0616 119.165 56.1768C119.279 56.2919 119.433 56.3578 119.595 56.3601C122.016 56.4223 124.438 56.2675 126.833 55.8976C126.914 55.8849 126.991 55.8564 127.061 55.8137C127.131 55.771 127.192 55.715 127.24 55.6488C127.289 55.5826 127.323 55.5075 127.343 55.4278C127.362 55.3482 127.366 55.2656 127.354 55.1846C127.341 55.1037 127.313 55.026 127.271 54.956C127.229 54.8861 127.173 54.8253 127.107 54.777C127.041 54.7287 126.967 54.694 126.887 54.6747C126.808 54.6554 126.726 54.6521 126.645 54.6648C124.367 55.0262 122.063 55.1844 119.758 55.1375C119.625 55.1184 119.488 55.1424 119.369 55.2059C119.25 55.2695 119.153 55.3694 119.094 55.4912L119.079 55.5248ZM132.088 53.5389C132.059 53.6075 132.043 53.6812 132.042 53.7557C132.041 53.8303 132.054 53.9042 132.081 53.9734C132.143 54.1257 132.262 54.2472 132.413 54.3113C132.563 54.3753 132.734 54.3767 132.886 54.3152C135.16 53.5042 137.332 52.4252 139.355 51.1009C139.425 51.0582 139.485 51.0018 139.532 50.935C139.58 50.8683 139.613 50.7926 139.63 50.7126C139.648 50.6325 139.649 50.5499 139.633 50.4696C139.618 50.3893 139.586 50.313 139.54 50.2455C139.448 50.1121 139.309 50.019 139.151 49.985C138.993 49.951 138.827 49.9787 138.688 50.0625C136.767 51.3298 134.702 52.3609 132.537 53.1335C132.449 53.1674 132.369 53.2201 132.302 53.288C132.236 53.3559 132.185 53.4373 132.153 53.5266L132.088 53.5389Z" fill="black"/>
</g>
<g clip-path="url(#clip1_1009_32910)">
<path d="M59.8244 21.6423C56.9966 22.5561 54.6384 24.54 53.2544 27.1698C52.5836 28.4803 52.2339 29.9314 52.2339 31.4036C52.2339 32.8757 52.5836 34.3268 53.2544 35.6373C55.2794 39.3873 60.3269 41.0748 64.3169 39.5523C66.4771 38.6627 68.246 37.0271 69.3018 34.9431C70.3576 32.8591 70.63 30.4653 70.0694 28.1973C68.7644 23.7198 63.6419 20.3673 59.8244 21.6423ZM65.0744 33.3873C64.6173 34.3455 63.8512 35.1221 62.8994 35.5923C61.9292 36.0408 60.8275 36.1151 59.8059 35.8008C58.7843 35.4866 57.9148 34.806 57.3644 33.8898C56.7823 32.9343 56.4928 31.8292 56.5314 30.711C56.5701 29.5928 56.9352 28.5104 57.5819 27.5973C57.8615 27.1338 58.2325 26.732 58.6721 26.4161C59.1117 26.1003 59.6109 25.877 60.1394 25.7598C60.6378 25.6492 61.1546 25.6503 61.6525 25.7631C62.1505 25.876 62.6173 26.0977 63.0194 26.4123C63.5517 26.4959 64.0518 26.7213 64.4669 27.0648C65.2329 27.8771 65.6641 28.9484 65.6744 30.0648C65.7413 31.2007 65.549 32.3368 65.1119 33.3873H65.0744Z" fill="white"/>
<path d="M80.7879 30.0648C79.6239 29.7393 78.5808 29.0796 77.7879 28.1673C77.2787 27.4905 76.9337 26.7046 76.7801 25.8716C76.6265 25.0386 76.6685 24.1813 76.9029 23.3673C77.3876 21.7364 78.3584 20.2922 79.6854 19.2274C78.5394 17.4331 77.3028 15.6984 75.9804 14.0299C74.4129 15.1924 72.8979 16.2799 71.1579 16.3849C70.3123 16.3901 69.4772 16.1975 68.7193 15.8225C67.9614 15.4474 67.3017 14.9003 66.7929 14.2249C65.7926 12.861 65.1809 11.2513 65.0229 9.56735C64.9629 9.40235 64.8729 9.37235 64.8129 9.36485L59.5179 8.97485C59.2341 10.5744 58.4456 12.041 57.2679 13.1598C56.1085 14.2445 54.5729 14.8362 52.9854 14.8099C52.3404 14.7749 51.7001 14.6795 51.0729 14.5249C50.0171 14.3933 49.0247 13.9493 48.2229 13.2499C46.8715 14.1713 45.5766 15.1731 44.3454 16.2499C44.8758 16.6397 45.2632 17.1931 45.4479 17.8248C46.0039 19.0206 46.1893 20.3553 45.9804 21.6573C45.7998 22.3109 45.4861 22.9201 45.0589 23.4467C44.6317 23.9733 44.1002 24.4059 43.4979 24.7174C42.285 25.3249 40.954 25.6602 39.5979 25.6998C39.2269 27.6995 39.0212 29.7264 38.9829 31.7598C40.0957 32.1076 41.175 32.5543 42.2079 33.0948C43.2141 33.6408 44.0185 34.4951 44.5029 35.5323C44.731 36.1352 44.8359 36.7777 44.8114 37.4218C44.7869 38.0659 44.6336 38.6985 44.3604 39.2823C43.8116 40.4451 42.991 41.4586 41.9679 42.2374C43.1754 44.1874 44.3304 45.9873 45.5154 47.7873C46.4105 47.1866 47.4276 46.7916 48.4936 46.6308C49.5596 46.47 50.6479 46.5474 51.6804 46.8574C52.188 47.0061 52.6635 47.2476 53.0829 47.5699C53.588 47.9981 53.9947 48.5302 54.2754 49.1299C54.9888 50.5499 55.2505 52.1542 55.0254 53.7273C57.109 54.1394 59.2152 54.4274 61.3329 54.5899C61.2516 53.5306 61.4401 52.468 61.8808 51.5014C62.3214 50.5348 63 49.6956 63.8529 49.0624C64.7159 48.4716 65.7337 48.1481 66.7794 48.1321C67.825 48.116 68.8523 48.4083 69.7329 48.9723C70.5224 49.5707 71.2154 50.2865 71.7879 51.0948C73.6629 49.7673 75.5379 48.4099 77.2629 46.9249C76.2879 45.4249 75.2979 43.9249 75.2604 42.1924C75.2775 41.302 75.5171 40.4301 75.9572 39.6559C76.3973 38.8818 77.0241 38.23 77.7804 37.7598C79.3136 36.8376 81.114 36.4622 82.8879 36.6949C83.4954 34.6324 84.0054 32.6148 84.4329 30.5823C83.2034 30.5359 81.9818 30.3625 80.7879 30.0648ZM69.7104 34.5648C68.9778 36.1496 67.849 37.5186 66.4329 38.5399C65.6223 39.1475 64.7179 39.6187 63.7554 39.9349C59.8179 41.1949 55.1904 38.9748 53.3604 35.2623C52.692 33.9014 52.3578 32.4007 52.3856 30.8848C52.4135 29.3688 52.8025 27.8814 53.5205 26.5459C54.2384 25.2105 55.2646 24.0656 56.5137 23.2062C57.7629 22.3469 59.1991 21.7979 60.7029 21.6048C63.3879 21.2598 66.7854 22.7073 68.7204 25.3548C69.6736 26.6764 70.2662 28.2235 70.4397 29.8437C70.6133 31.4639 70.362 33.1013 69.7104 34.5948V34.5648Z" fill="white"/>
<g opacity="0.13">
<path d="M72.1175 30.2894C72.0763 29.981 72.0162 29.6755 71.9375 29.3744L71.8325 29.1644C71.2751 28.0628 70.612 27.0179 69.8526 26.0444C69.7294 26.1371 69.6377 26.2654 69.59 26.4119C69.515 26.9369 69.92 27.4169 70.0475 27.9119C70.505 29.2844 70.7975 29.9444 70.6625 31.1969C70.4649 32.39 70.1198 33.554 69.635 34.6619C69.3391 35.246 68.9928 35.8031 68.6 36.3269C68.48 36.4694 68.4351 36.5369 68.4501 36.5444C68.2551 36.6944 68.0826 36.8969 67.8876 37.0544L66.6576 38.1044C66.5097 38.2123 66.3694 38.33 66.2376 38.4569C66.3051 38.3594 66.1251 38.5319 65.9601 38.6744C65.7951 38.8169 65.4576 39.0194 65.2476 39.1244C64.0371 39.5571 62.7774 39.8367 61.4976 39.9569C60.5121 39.993 59.5272 39.8715 58.58 39.5969C58.0025 39.4244 57.4925 38.8469 56.87 38.9744C56.7456 39.0045 56.6317 39.0678 56.5405 39.1576C56.4494 39.2475 56.3844 39.3605 56.3525 39.4844L56.5326 39.6719L57.17 40.1969L59.4951 41.6969C60.8987 42.0853 62.3749 42.1316 63.8001 41.8319H63.7026C64.9419 41.6193 66.1362 41.1984 67.235 40.5869C68.3236 39.9109 69.2382 38.9886 69.9051 37.8944L69.965 37.7969C70.763 36.7888 71.3843 35.6527 71.8025 34.4369C72.1869 33.09 72.2941 31.679 72.1175 30.2894Z" fill="black"/>
</g>
<g opacity="0.13">
<path d="M76.3174 44.4126C76.1467 44.4192 75.9798 44.4654 75.8299 44.5476C75.621 44.6809 75.4484 44.8638 75.3274 45.0801C75.1941 45.2386 75.069 45.4039 74.9524 45.5751C74.5924 46.0798 74.1883 46.5517 73.745 46.9851C73.325 47.4351 72.665 47.7351 72.3875 48.2826L71.8999 48.5601C71.5924 48.7476 71.1949 48.8376 70.9774 49.1451C70.849 49.3228 70.7847 49.5388 70.795 49.7578C70.8054 49.9768 70.8899 50.1857 71.0345 50.3504C71.1792 50.5152 71.3755 50.6259 71.5914 50.6644C71.8072 50.7029 72.0297 50.6671 72.2224 50.5626C73.1361 50.0798 73.9895 49.4907 74.7649 48.8076C74.7649 48.8076 74.8399 48.7326 74.8774 48.6951C75.4818 48.2328 76.0555 47.7318 76.5949 47.1951C76.8178 46.9603 77.0234 46.7097 77.2099 46.4451C77.0149 46.0476 76.8349 45.6276 76.6774 45.2076C76.5424 44.9601 76.4224 44.6901 76.3174 44.4126Z" fill="black"/>
</g>
<g opacity="0.13">
<path d="M82.2648 30.5308C81.9198 31.8658 81.5323 33.1908 81.1023 34.5058C80.8998 35.1133 80.7048 35.7283 80.5098 36.3358C80.6224 36.4862 80.7781 36.599 80.9562 36.6593C81.1342 36.7195 81.3264 36.7244 81.5073 36.6733H81.5598C81.6433 36.7827 81.7553 36.867 81.8835 36.9171C82.0118 36.9671 82.1513 36.9808 82.2868 36.9568C82.4224 36.9328 82.5487 36.8719 82.652 36.7809C82.7552 36.6899 82.8315 36.5722 82.8723 36.4408C82.9473 36.1483 83.0673 35.8633 83.1723 35.5708C83.2365 35.5405 83.2969 35.5027 83.3523 35.4583C83.682 35.1255 83.8996 34.6981 83.9748 34.2358C84.1843 33.3779 84.305 32.5008 84.3348 31.6183C84.3348 31.5658 84.3348 31.5133 84.3348 31.4608C83.6448 31.1608 82.9548 30.8533 82.2648 30.5308Z" fill="black"/>
</g>
<path d="M61.3543 54.8978C59.2288 54.7349 57.115 54.4444 55.0243 54.0278C54.9597 54.0167 54.9021 53.9806 54.8641 53.9271C54.8262 53.8737 54.811 53.8074 54.8218 53.7427C55.0283 52.2185 54.7667 50.6675 54.0718 49.2953C53.8515 48.7771 53.5172 48.3152 53.094 47.9439C52.6707 47.5725 52.1693 47.3013 51.6268 47.1503C50.6303 46.8539 49.5806 46.7809 48.5526 46.9364C47.5246 47.092 46.5436 47.4723 45.6793 48.0503C45.6235 48.0877 45.5552 48.1017 45.4892 48.089C45.4232 48.0764 45.3648 48.0382 45.3268 47.9828C44.1568 46.2203 42.9943 44.3977 41.7718 42.4177C41.7402 42.3648 41.7289 42.3022 41.7399 42.2415C41.751 42.1808 41.7836 42.1262 41.8318 42.0878C42.8215 41.3341 43.6162 40.3542 44.1493 39.2302C44.407 38.6804 44.5518 38.0845 44.575 37.4777C44.5982 36.8709 44.4993 36.2656 44.2843 35.6978C43.8199 34.7116 43.0526 33.8997 42.0943 33.3803C41.2137 32.9107 40.2924 32.5216 39.3418 32.2178L38.9143 32.0678C38.863 32.0511 38.8188 32.0176 38.7889 31.9726C38.7589 31.9277 38.745 31.8741 38.7493 31.8203C38.7888 29.7745 38.9945 27.7352 39.3643 25.7227C39.3745 25.6657 39.4038 25.6138 39.4474 25.5756C39.4911 25.5374 39.5464 25.5153 39.6043 25.5127C40.9243 25.4809 42.2207 25.1555 43.3993 24.5603C43.9713 24.2676 44.4761 23.8591 44.8816 23.3607C45.2871 22.8623 45.5843 22.2849 45.7543 21.6653C45.9447 20.416 45.7648 19.1383 45.2368 17.9902C45.0723 17.3931 44.7166 16.8662 44.2243 16.4902C44.1923 16.4681 44.1655 16.4391 44.1461 16.4054C44.1266 16.3717 44.1149 16.3341 44.1118 16.2952C44.1089 16.2556 44.1155 16.2158 44.1311 16.1792C44.1468 16.1427 44.1711 16.1104 44.2018 16.0852C45.4387 14.9896 46.7411 13.9702 48.1018 13.0327C48.1485 12.995 48.2068 12.9744 48.2668 12.9744C48.3269 12.9744 48.3851 12.995 48.4318 13.0327C49.1987 13.6904 50.1437 14.1054 51.1468 14.2253C51.7583 14.3821 52.3839 14.4776 53.0143 14.5103C54.5363 14.5403 56.0093 13.9721 57.1168 12.9277C58.2486 11.8434 59.0008 10.4232 59.2618 8.87775C59.2949 8.82959 59.3431 8.79385 59.3988 8.77619C59.4545 8.75853 59.5145 8.75996 59.5693 8.78025L64.8643 9.17025C64.9652 9.1813 65.0604 9.22217 65.1379 9.28764C65.2154 9.3531 65.2716 9.44018 65.2993 9.53775C65.2993 9.53775 65.2993 9.53775 65.2993 9.59025C65.4572 11.2186 66.0533 12.7737 67.0243 14.0903C67.5063 14.7343 68.1326 15.2565 68.8529 15.6146C69.5732 15.9728 70.3674 16.1571 71.1718 16.1528C72.8668 16.0628 74.3893 14.9378 75.8593 13.8503C75.9124 13.8104 75.9789 13.7928 76.0447 13.8012C76.1105 13.8096 76.1705 13.8434 76.2118 13.8953C77.5288 15.56 78.758 17.2923 79.8943 19.0852C79.9267 19.1374 79.9393 19.1994 79.9296 19.26C79.92 19.3207 79.8888 19.3758 79.8418 19.4153C78.5586 20.4475 77.6175 21.8436 77.1418 23.4202C76.9209 24.1961 76.8818 25.0124 77.0275 25.8059C77.1732 26.5993 77.4997 27.3485 77.9818 27.9953C78.7475 28.8788 79.7615 29.5113 80.8918 29.8103C82.0729 30.1281 83.285 30.3168 84.5068 30.3728C84.5437 30.376 84.5795 30.3871 84.6118 30.4052C84.6441 30.4233 84.6722 30.448 84.6943 30.4778C84.7349 30.5369 84.7511 30.6095 84.7393 30.6802C84.3193 32.6752 83.8093 34.6778 83.1868 36.8078C83.1699 36.8651 83.1339 36.9149 83.0848 36.949C83.0357 36.9831 82.9764 36.9994 82.9168 36.9953C81.1982 36.7699 79.4538 37.132 77.9668 38.0227C77.248 38.4686 76.6519 39.0871 76.2327 39.8219C75.8136 40.5566 75.5847 41.3845 75.5668 42.2302C75.6043 43.8427 76.5643 45.3353 77.4943 46.7753V46.8277C77.5276 46.879 77.5414 46.9405 77.5332 47.0011C77.5249 47.0617 77.4951 47.1173 77.4493 47.1577C75.6493 48.7027 73.7443 50.0827 71.9518 51.3502C71.8984 51.387 71.833 51.402 71.7689 51.3923C71.7049 51.3825 71.6469 51.3487 71.6068 51.2978C71.0512 50.5101 70.3784 49.812 69.6118 49.2277C68.7716 48.6967 67.7947 48.4224 66.8009 48.4384C65.8071 48.4543 64.8395 48.76 64.0168 49.3178C63.2025 49.9283 62.5552 50.7341 62.1344 51.6609C61.7136 52.5876 61.533 53.6053 61.6093 54.6202C61.609 54.6959 61.5795 54.7685 61.5268 54.8228C61.4814 54.8695 61.4194 54.8964 61.3543 54.8978ZM55.3543 53.5777C57.2564 53.9428 59.1766 54.2057 61.1068 54.3652C61.0767 53.3094 61.3016 52.2618 61.7625 51.3113C62.2233 50.3608 62.9066 49.5355 63.7543 48.9053C64.6575 48.2815 65.7256 47.9399 66.8231 47.9239C67.9207 47.9079 68.9983 48.2181 69.9193 48.8153C70.6737 49.369 71.3346 50.04 71.8768 50.8027C73.5493 49.6177 75.3043 48.3353 76.9693 46.9253C76.0318 45.4253 75.0868 43.9252 75.0493 42.2527C75.0648 41.3195 75.3138 40.4049 75.7737 39.5927C76.2335 38.7804 76.8896 38.0963 77.6818 37.6027C79.1989 36.6789 80.9782 36.2809 82.7443 36.4702C83.3068 34.5277 83.7793 32.7202 84.1693 30.8677C83.0078 30.8006 81.8565 30.612 80.7343 30.3052C79.5079 29.9749 78.4083 29.2854 77.5768 28.3252C77.0423 27.6174 76.6794 26.7951 76.5167 25.9231C76.354 25.0511 76.396 24.1533 76.6393 23.3003C77.1192 21.692 78.0575 20.2586 79.3393 19.1753C78.3793 17.6753 77.2693 16.1078 75.9568 14.4128C74.4568 15.5003 72.9568 16.5803 71.1868 16.6628C70.3028 16.6698 69.4293 16.4699 68.6363 16.0793C67.8432 15.6886 67.1525 15.1179 66.6193 14.4128C65.5869 13.0216 64.9542 11.3748 64.7893 9.65025L59.7418 9.27525C59.4321 10.8418 58.6463 12.2745 57.4918 13.3777C56.2767 14.5209 54.6595 15.1381 52.9918 15.0952C52.3313 15.0618 51.6757 14.9638 51.0343 14.8027C50.0055 14.6613 49.0325 14.2498 48.2143 13.6103C47.0145 14.442 45.8626 15.3409 44.7643 16.3027C45.196 16.7176 45.5181 17.233 45.7018 17.8027C46.2748 19.0467 46.4628 20.4336 46.2418 21.7852C46.0561 22.4743 45.7278 23.1167 45.2783 23.671C44.8287 24.2252 44.2678 24.6789 43.6318 25.0027C42.4494 25.6094 41.1496 25.9522 39.8218 26.0078C39.4923 27.871 39.3018 29.7562 39.2518 31.6477L39.5068 31.7378C40.4896 32.0485 41.4412 32.4503 42.3493 32.9377C43.403 33.5142 44.2441 34.4132 44.7493 35.5027C44.991 36.1337 45.103 36.807 45.0785 37.4823C45.054 38.1575 44.8936 38.8209 44.6068 39.4328C44.082 40.568 43.2986 41.5646 42.3193 42.3428C43.4443 44.1652 44.5243 45.8527 45.6043 47.4878C46.5146 46.9174 47.5368 46.5492 48.6017 46.4082C49.6667 46.2672 50.7494 46.3565 51.7768 46.6703C52.3194 46.8241 52.8282 47.0785 53.2768 47.4203C53.8104 47.8704 54.2403 48.4308 54.5368 49.0628C55.2311 50.4598 55.5071 52.0276 55.3318 53.5777H55.3543Z" fill="black"/>
<path d="M61.1145 36.2451C60.3415 36.2322 59.5838 36.0274 58.9096 35.649C58.2354 35.2707 57.6658 34.7307 57.252 34.0776C56.8033 33.3242 56.5353 32.477 56.4689 31.6026C56.4026 30.7281 56.5396 29.8502 56.8695 29.0376C57.2898 27.9318 58.0517 26.9886 59.0445 26.3451C59.5492 26.0271 60.1128 25.8141 60.7017 25.7187C61.2906 25.6234 61.8927 25.6476 62.472 25.7901C63.581 26.0258 64.5821 26.6185 65.322 27.4776C66.0779 28.4976 66.4713 29.741 66.4394 31.0101C66.4638 31.8192 66.2695 32.6198 65.8769 33.3276C65.5575 33.8345 65.1543 34.2834 64.6845 34.6551C63.871 35.4092 62.8677 35.9278 61.782 36.1551C61.5624 36.2041 61.3391 36.2342 61.1145 36.2451ZM61.437 26.1651C60.686 26.1682 59.9508 26.3813 59.3144 26.7801C58.4125 27.3634 57.7213 28.2203 57.342 29.2251C57.0416 29.9621 56.9158 30.7585 56.9743 31.5522C57.0329 32.3459 57.2742 33.1152 57.6795 33.8001C58.096 34.4692 58.6971 35.0036 59.4103 35.3389C60.1235 35.6742 60.9185 35.7962 61.6995 35.6901C62.6969 35.4637 63.6144 34.9712 64.3545 34.2651C64.78 33.9301 65.1475 33.5272 65.442 33.0726C65.7854 32.4409 65.9536 31.7288 65.9295 31.0101C65.9613 29.8546 65.6049 28.7217 64.917 27.7926C64.2434 27.0249 63.3374 26.4982 62.337 26.2926C62.0444 26.2083 61.7414 26.1653 61.437 26.1651Z" fill="black"/>
<path d="M61.4454 40.5726C59.7213 40.5484 58.0364 40.0545 56.5721 39.1439C55.1078 38.2334 53.9196 36.9407 53.1354 35.4051C52.4398 34.0089 52.0893 32.4662 52.1135 30.9065C52.1376 29.3468 52.5356 27.8156 53.274 26.4416C54.0125 25.0676 55.0698 23.8908 56.3573 23.0101C57.6447 22.1293 59.1246 21.5704 60.6729 21.3801C63.5379 21.0126 67.0104 22.6176 68.9229 25.1976C69.9107 26.5532 70.525 28.1446 70.704 29.8124C70.883 31.4802 70.6206 33.1657 69.9429 34.7001C69.1909 36.3234 68.0338 37.7259 66.5829 38.7726C65.7519 39.3962 64.8247 39.8801 63.8379 40.2051C63.0642 40.4505 62.2571 40.5745 61.4454 40.5726ZM60.6954 21.8826C59.2329 22.0731 57.8369 22.6096 56.6231 23.4475C55.4094 24.2854 54.4129 25.4006 53.7163 26.7007C53.0197 28.0007 52.6431 29.448 52.6178 30.9227C52.5924 32.3974 52.919 33.8568 53.5704 35.1801C55.3929 38.8851 59.9154 40.9176 63.6579 39.7251C64.5923 39.4145 65.471 38.9562 66.2604 38.3676C67.6411 37.3713 68.7415 36.0358 69.4554 34.4901C70.087 33.0345 70.3299 31.4399 70.1603 29.8623C69.9907 28.2847 69.4144 26.7781 68.4879 25.4901C66.7029 23.0301 63.4329 21.5301 60.7329 21.8826H60.6954Z" fill="black"/>
<path d="M80.7879 30.0648C79.6239 29.7393 78.5808 29.0796 77.7879 28.1673C77.2787 27.4905 76.9337 26.7046 76.7801 25.8716C76.6265 25.0386 76.6685 24.1813 76.9029 23.3673C77.3876 21.7364 78.3584 20.2922 79.6854 19.2274C78.5394 17.4331 77.3028 15.6984 75.9804 14.0299C74.4129 15.1924 72.8979 16.2799 71.1579 16.3849C70.3123 16.3901 69.4772 16.1975 68.7193 15.8225C67.9614 15.4474 67.3017 14.9003 66.7929 14.2249C65.7926 12.861 65.1809 11.2513 65.0229 9.56735C64.9629 9.40235 64.8729 9.37235 64.8129 9.36485L59.5179 8.97485C59.2341 10.5744 58.4456 12.041 57.2679 13.1598C56.1085 14.2445 54.5729 14.8362 52.9854 14.8099C52.3404 14.7749 51.7001 14.6795 51.0729 14.5249C50.0171 14.3933 49.0247 13.9493 48.2229 13.2499C46.8715 14.1713 45.5766 15.1731 44.3454 16.2499C44.8758 16.6397 45.2632 17.1931 45.4479 17.8248C46.0039 19.0206 46.1893 20.3553 45.9804 21.6573C45.7998 22.3109 45.4861 22.9201 45.0589 23.4467C44.6317 23.9733 44.1002 24.4059 43.4979 24.7174C42.285 25.3249 40.954 25.6602 39.5979 25.6998C39.2269 27.6995 39.0212 29.7264 38.9829 31.7598C40.0957 32.1076 41.175 32.5543 42.2079 33.0948C43.2141 33.6408 44.0185 34.4951 44.5029 35.5323C44.731 36.1352 44.8359 36.7777 44.8114 37.4218C44.7869 38.0659 44.6336 38.6985 44.3604 39.2823C43.8116 40.4451 42.991 41.4586 41.9679 42.2374C43.1754 44.1874 44.3304 45.9873 45.5154 47.7873C46.4105 47.1866 47.4276 46.7916 48.4936 46.6308C49.5596 46.47 50.6479 46.5474 51.6804 46.8574C52.188 47.0061 52.6635 47.2476 53.0829 47.5699C53.588 47.9981 53.9947 48.5302 54.2754 49.1299C54.9888 50.5499 55.2505 52.1542 55.0254 53.7273C57.109 54.1394 59.2152 54.4274 61.3329 54.5899C61.2516 53.5306 61.4401 52.468 61.8808 51.5014C62.3214 50.5348 63 49.6956 63.8529 49.0624C64.7159 48.4716 65.7337 48.1481 66.7794 48.1321C67.825 48.116 68.8523 48.4083 69.7329 48.9723C70.5224 49.5707 71.2154 50.2865 71.7879 51.0948C73.6629 49.7673 75.5379 48.4099 77.2629 46.9249C76.2879 45.4249 75.2979 43.9249 75.2604 42.1924C75.2775 41.302 75.5171 40.4301 75.9572 39.6559C76.3973 38.8818 77.0241 38.23 77.7804 37.7598C79.3136 36.8376 81.114 36.4622 82.8879 36.6949C83.4954 34.6324 84.0054 32.6148 84.4329 30.5823C83.2034 30.5359 81.9818 30.3625 80.7879 30.0648ZM69.7104 34.5648C68.9778 36.1496 67.849 37.5186 66.4329 38.5399C65.6223 39.1475 64.7179 39.6187 63.7554 39.9349C59.8179 41.1949 55.1904 38.9748 53.3604 35.2623C52.692 33.9014 52.3578 32.4007 52.3856 30.8848C52.4135 29.3688 52.8025 27.8814 53.5205 26.5459C54.2384 25.2105 55.2646 24.0656 56.5137 23.2062C57.7629 22.3469 59.1991 21.7979 60.7029 21.6048C63.3879 21.2598 66.7854 22.7073 68.7204 25.3548C69.6736 26.6764 70.2662 28.2235 70.4397 29.8437C70.6133 31.4639 70.362 33.1013 69.7104 34.5948V34.5648Z" fill="white"/>
<g opacity="0.13">
<path d="M72.1175 30.2894C72.0763 29.981 72.0162 29.6755 71.9375 29.3744L71.8325 29.1644C71.2751 28.0628 70.612 27.0179 69.8526 26.0444C69.7294 26.1371 69.6377 26.2654 69.59 26.4119C69.515 26.9369 69.92 27.4169 70.0475 27.9119C70.505 29.2844 70.7975 29.9444 70.6625 31.1969C70.4649 32.39 70.1198 33.554 69.635 34.6619C69.3391 35.246 68.9928 35.8031 68.6 36.3269C68.48 36.4694 68.4351 36.5369 68.4501 36.5444C68.2551 36.6944 68.0826 36.8969 67.8876 37.0544L66.6576 38.1044C66.5097 38.2123 66.3694 38.33 66.2376 38.4569C66.3051 38.3594 66.1251 38.5319 65.9601 38.6744C65.7951 38.8169 65.4576 39.0194 65.2476 39.1244C64.0371 39.5571 62.7774 39.8367 61.4976 39.9569C60.5121 39.993 59.5272 39.8715 58.58 39.5969C58.0025 39.4244 57.4925 38.8469 56.87 38.9744C56.7456 39.0045 56.6317 39.0678 56.5405 39.1576C56.4494 39.2475 56.3844 39.3605 56.3525 39.4844L56.5326 39.6719L57.17 40.1969L59.4951 41.6969C60.8987 42.0853 62.3749 42.1316 63.8001 41.8319H63.7026C64.9419 41.6193 66.1362 41.1984 67.235 40.5869C68.3236 39.9109 69.2382 38.9886 69.9051 37.8944L69.965 37.7969C70.763 36.7888 71.3843 35.6527 71.8025 34.4369C72.1869 33.09 72.2941 31.679 72.1175 30.2894Z" fill="black"/>
</g>
<g opacity="0.13">
<path d="M76.3174 44.4126C76.1467 44.4192 75.9798 44.4654 75.8299 44.5476C75.621 44.6809 75.4484 44.8638 75.3274 45.0801C75.1941 45.2386 75.069 45.4039 74.9524 45.5751C74.5924 46.0798 74.1883 46.5517 73.745 46.9851C73.325 47.4351 72.665 47.7351 72.3875 48.2826L71.8999 48.5601C71.5924 48.7476 71.1949 48.8376 70.9774 49.1451C70.849 49.3228 70.7847 49.5388 70.795 49.7578C70.8054 49.9768 70.8899 50.1857 71.0345 50.3504C71.1792 50.5152 71.3755 50.6259 71.5914 50.6644C71.8072 50.7029 72.0297 50.6671 72.2224 50.5626C73.1361 50.0798 73.9895 49.4907 74.7649 48.8076C74.7649 48.8076 74.8399 48.7326 74.8774 48.6951C75.4818 48.2328 76.0555 47.7318 76.5949 47.1951C76.8178 46.9603 77.0234 46.7097 77.2099 46.4451C77.0149 46.0476 76.8349 45.6276 76.6774 45.2076C76.5424 44.9601 76.4224 44.6901 76.3174 44.4126Z" fill="black"/>
</g>
<g opacity="0.13">
<path d="M82.2648 30.5308C81.9198 31.8658 81.5323 33.1908 81.1023 34.5058C80.8998 35.1133 80.7048 35.7283 80.5098 36.3358C80.6224 36.4862 80.7781 36.599 80.9562 36.6593C81.1342 36.7195 81.3264 36.7244 81.5073 36.6733H81.5598C81.6433 36.7827 81.7553 36.867 81.8835 36.9171C82.0118 36.9671 82.1513 36.9808 82.2868 36.9568C82.4224 36.9328 82.5487 36.8719 82.652 36.7809C82.7552 36.6899 82.8315 36.5722 82.8723 36.4408C82.9473 36.1483 83.0673 35.8633 83.1723 35.5708C83.2365 35.5405 83.2969 35.5027 83.3523 35.4583C83.682 35.1255 83.8996 34.6981 83.9748 34.2358C84.1843 33.3779 84.305 32.5008 84.3348 31.6183C84.3348 31.5658 84.3348 31.5133 84.3348 31.4608C83.6448 31.1608 82.9548 30.8533 82.2648 30.5308Z" fill="black"/>
</g>
<path d="M61.3543 54.8978C59.2288 54.7349 57.115 54.4444 55.0243 54.0278C54.9597 54.0167 54.9021 53.9806 54.8641 53.9271C54.8262 53.8737 54.811 53.8074 54.8218 53.7427C55.0283 52.2185 54.7667 50.6675 54.0718 49.2953C53.8515 48.7771 53.5172 48.3152 53.094 47.9439C52.6707 47.5725 52.1693 47.3013 51.6268 47.1503C50.6303 46.8539 49.5806 46.7809 48.5526 46.9364C47.5246 47.092 46.5436 47.4723 45.6793 48.0503C45.6235 48.0877 45.5552 48.1017 45.4892 48.089C45.4232 48.0764 45.3648 48.0382 45.3268 47.9828C44.1568 46.2203 42.9943 44.3977 41.7718 42.4177C41.7402 42.3648 41.7289 42.3022 41.7399 42.2415C41.751 42.1808 41.7836 42.1262 41.8318 42.0878C42.8215 41.3341 43.6162 40.3542 44.1493 39.2302C44.407 38.6804 44.5518 38.0845 44.575 37.4777C44.5982 36.8709 44.4993 36.2656 44.2843 35.6978C43.8199 34.7116 43.0526 33.8997 42.0943 33.3803C41.2137 32.9107 40.2924 32.5216 39.3418 32.2178L38.9143 32.0678C38.863 32.0511 38.8188 32.0176 38.7889 31.9726C38.7589 31.9277 38.745 31.8741 38.7493 31.8203C38.7888 29.7745 38.9945 27.7352 39.3643 25.7227C39.3745 25.6657 39.4038 25.6138 39.4474 25.5756C39.4911 25.5374 39.5464 25.5153 39.6043 25.5127C40.9243 25.4809 42.2207 25.1555 43.3993 24.5603C43.9713 24.2676 44.4761 23.8591 44.8816 23.3607C45.2871 22.8623 45.5843 22.2849 45.7543 21.6653C45.9447 20.416 45.7648 19.1383 45.2368 17.9902C45.0723 17.3931 44.7166 16.8662 44.2243 16.4902C44.1923 16.4681 44.1655 16.4391 44.1461 16.4054C44.1266 16.3717 44.1149 16.3341 44.1118 16.2952C44.1089 16.2556 44.1155 16.2158 44.1311 16.1792C44.1468 16.1427 44.1711 16.1104 44.2018 16.0852C45.4387 14.9896 46.7411 13.9702 48.1018 13.0327C48.1485 12.995 48.2068 12.9744 48.2668 12.9744C48.3269 12.9744 48.3851 12.995 48.4318 13.0327C49.1987 13.6904 50.1437 14.1054 51.1468 14.2253C51.7583 14.3821 52.3839 14.4776 53.0143 14.5103C54.5363 14.5403 56.0093 13.9721 57.1168 12.9277C58.2486 11.8434 59.0008 10.4232 59.2618 8.87775C59.2949 8.82959 59.3431 8.79385 59.3988 8.77619C59.4545 8.75853 59.5145 8.75996 59.5693 8.78025L64.8643 9.17025C64.9652 9.1813 65.0604 9.22217 65.1379 9.28764C65.2154 9.3531 65.2716 9.44018 65.2993 9.53775C65.2993 9.53775 65.2993 9.53775 65.2993 9.59025C65.4572 11.2186 66.0533 12.7737 67.0243 14.0903C67.5063 14.7343 68.1326 15.2565 68.8529 15.6146C69.5732 15.9728 70.3674 16.1571 71.1718 16.1528C72.8668 16.0628 74.3893 14.9378 75.8593 13.8503C75.9124 13.8104 75.9789 13.7928 76.0447 13.8012C76.1105 13.8096 76.1705 13.8434 76.2118 13.8953C77.5288 15.56 78.758 17.2923 79.8943 19.0852C79.9267 19.1374 79.9393 19.1994 79.9296 19.26C79.92 19.3207 79.8888 19.3758 79.8418 19.4153C78.5586 20.4475 77.6175 21.8436 77.1418 23.4202C76.9209 24.1961 76.8818 25.0124 77.0275 25.8059C77.1732 26.5993 77.4997 27.3485 77.9818 27.9953C78.7475 28.8788 79.7615 29.5113 80.8918 29.8103C82.0729 30.1281 83.285 30.3168 84.5068 30.3728C84.5437 30.376 84.5795 30.3871 84.6118 30.4052C84.6441 30.4233 84.6722 30.448 84.6943 30.4778C84.7349 30.5369 84.7511 30.6095 84.7393 30.6802C84.3193 32.6752 83.8093 34.6778 83.1868 36.8078C83.1699 36.8651 83.1339 36.9149 83.0848 36.949C83.0357 36.9831 82.9764 36.9994 82.9168 36.9953C81.1982 36.7699 79.4538 37.132 77.9668 38.0227C77.248 38.4686 76.6519 39.0871 76.2327 39.8219C75.8136 40.5566 75.5847 41.3845 75.5668 42.2302C75.6043 43.8427 76.5643 45.3353 77.4943 46.7753V46.8277C77.5276 46.879 77.5414 46.9405 77.5332 47.0011C77.5249 47.0617 77.4951 47.1173 77.4493 47.1577C75.6493 48.7027 73.7443 50.0827 71.9518 51.3502C71.8984 51.387 71.833 51.402 71.7689 51.3923C71.7049 51.3825 71.6469 51.3487 71.6068 51.2978C71.0512 50.5101 70.3784 49.812 69.6118 49.2277C68.7716 48.6967 67.7947 48.4224 66.8009 48.4384C65.8071 48.4543 64.8395 48.76 64.0168 49.3178C63.2025 49.9283 62.5552 50.7341 62.1344 51.6609C61.7136 52.5876 61.533 53.6053 61.6093 54.6202C61.609 54.6959 61.5795 54.7685 61.5268 54.8228C61.4814 54.8695 61.4194 54.8964 61.3543 54.8978ZM55.3543 53.5777C57.2564 53.9428 59.1766 54.2057 61.1068 54.3652C61.0767 53.3094 61.3016 52.2618 61.7625 51.3113C62.2233 50.3608 62.9066 49.5355 63.7543 48.9053C64.6575 48.2815 65.7256 47.9399 66.8231 47.9239C67.9207 47.9079 68.9983 48.2181 69.9193 48.8153C70.6737 49.369 71.3346 50.04 71.8768 50.8027C73.5493 49.6177 75.3043 48.3353 76.9693 46.9253C76.0318 45.4253 75.0868 43.9252 75.0493 42.2527C75.0648 41.3195 75.3138 40.4049 75.7737 39.5927C76.2335 38.7804 76.8896 38.0963 77.6818 37.6027C79.1989 36.6789 80.9782 36.2809 82.7443 36.4702C83.3068 34.5277 83.7793 32.7202 84.1693 30.8677C83.0078 30.8006 81.8565 30.612 80.7343 30.3052C79.5079 29.9749 78.4083 29.2854 77.5768 28.3252C77.0423 27.6174 76.6794 26.7951 76.5167 25.9231C76.354 25.0511 76.396 24.1533 76.6393 23.3003C77.1192 21.692 78.0575 20.2586 79.3393 19.1753C78.3793 17.6753 77.2693 16.1078 75.9568 14.4128C74.4568 15.5003 72.9568 16.5803 71.1868 16.6628C70.3028 16.6698 69.4293 16.4699 68.6363 16.0793C67.8432 15.6886 67.1525 15.1179 66.6193 14.4128C65.5869 13.0216 64.9542 11.3748 64.7893 9.65025L59.7418 9.27525C59.4321 10.8418 58.6463 12.2745 57.4918 13.3777C56.2767 14.5209 54.6595 15.1381 52.9918 15.0952C52.3313 15.0618 51.6757 14.9638 51.0343 14.8027C50.0055 14.6613 49.0325 14.2498 48.2143 13.6103C47.0145 14.442 45.8626 15.3409 44.7643 16.3027C45.196 16.7176 45.5181 17.233 45.7018 17.8027C46.2748 19.0467 46.4628 20.4336 46.2418 21.7852C46.0561 22.4743 45.7278 23.1167 45.2783 23.671C44.8287 24.2252 44.2678 24.6789 43.6318 25.0027C42.4494 25.6094 41.1496 25.9522 39.8218 26.0078C39.4923 27.871 39.3018 29.7562 39.2518 31.6477L39.5068 31.7378C40.4896 32.0485 41.4412 32.4503 42.3493 32.9377C43.403 33.5142 44.2441 34.4132 44.7493 35.5027C44.991 36.1337 45.103 36.807 45.0785 37.4823C45.054 38.1575 44.8936 38.8209 44.6068 39.4328C44.082 40.568 43.2986 41.5646 42.3193 42.3428C43.4443 44.1652 44.5243 45.8527 45.6043 47.4878C46.5146 46.9174 47.5368 46.5492 48.6017 46.4082C49.6667 46.2672 50.7494 46.3565 51.7768 46.6703C52.3194 46.8241 52.8282 47.0785 53.2768 47.4203C53.8104 47.8704 54.2403 48.4308 54.5368 49.0628C55.2311 50.4598 55.5071 52.0276 55.3318 53.5777H55.3543Z" fill="black"/>
<path d="M61.1145 36.2451C60.3415 36.2322 59.5838 36.0274 58.9096 35.649C58.2354 35.2707 57.6658 34.7307 57.252 34.0776C56.8033 33.3242 56.5353 32.477 56.4689 31.6026C56.4026 30.7281 56.5396 29.8502 56.8695 29.0376C57.2898 27.9318 58.0517 26.9886 59.0445 26.3451C59.5492 26.0271 60.1128 25.8141 60.7017 25.7187C61.2906 25.6234 61.8927 25.6476 62.472 25.7901C63.581 26.0258 64.5821 26.6185 65.322 27.4776C66.0779 28.4976 66.4713 29.741 66.4394 31.0101C66.4638 31.8192 66.2695 32.6198 65.8769 33.3276C65.5575 33.8345 65.1543 34.2834 64.6845 34.6551C63.871 35.4092 62.8677 35.9278 61.782 36.1551C61.5624 36.2041 61.3391 36.2342 61.1145 36.2451ZM61.437 26.1651C60.686 26.1682 59.9508 26.3813 59.3144 26.7801C58.4125 27.3634 57.7213 28.2203 57.342 29.2251C57.0416 29.9621 56.9158 30.7585 56.9743 31.5522C57.0329 32.3459 57.2742 33.1152 57.6795 33.8001C58.096 34.4692 58.6971 35.0036 59.4103 35.3389C60.1235 35.6742 60.9185 35.7962 61.6995 35.6901C62.6969 35.4637 63.6144 34.9712 64.3545 34.2651C64.78 33.9301 65.1475 33.5272 65.442 33.0726C65.7854 32.4409 65.9536 31.7288 65.9295 31.0101C65.9613 29.8546 65.6049 28.7217 64.917 27.7926C64.2434 27.0249 63.3374 26.4982 62.337 26.2926C62.0444 26.2083 61.7414 26.1653 61.437 26.1651Z" fill="black"/>
<path d="M61.4454 40.5726C59.7213 40.5484 58.0364 40.0545 56.5721 39.1439C55.1078 38.2334 53.9196 36.9407 53.1354 35.4051C52.4398 34.0089 52.0893 32.4662 52.1135 30.9065C52.1376 29.3468 52.5356 27.8156 53.274 26.4416C54.0125 25.0676 55.0698 23.8908 56.3573 23.0101C57.6447 22.1293 59.1246 21.5704 60.6729 21.3801C63.5379 21.0126 67.0104 22.6176 68.9229 25.1976C69.9107 26.5532 70.525 28.1446 70.704 29.8124C70.883 31.4802 70.6206 33.1657 69.9429 34.7001C69.1909 36.3234 68.0338 37.7259 66.5829 38.7726C65.7519 39.3962 64.8247 39.8801 63.8379 40.2051C63.0642 40.4505 62.2571 40.5745 61.4454 40.5726ZM60.6954 21.8826C59.2329 22.0731 57.8369 22.6096 56.6231 23.4475C55.4094 24.2854 54.4129 25.4006 53.7163 26.7007C53.0197 28.0007 52.6431 29.448 52.6178 30.9227C52.5924 32.3974 52.919 33.8568 53.5704 35.1801C55.3929 38.8851 59.9154 40.9176 63.6579 39.7251C64.5923 39.4145 65.471 38.9562 66.2604 38.3676C67.6411 37.3713 68.7415 36.0358 69.4554 34.4901C70.087 33.0345 70.3299 31.4399 70.1603 29.8623C69.9907 28.2847 69.4144 26.7781 68.4879 25.4901C66.7029 23.0301 63.4329 21.5301 60.7329 21.8826H60.6954Z" fill="black"/>
<rect x="50" y="20" width="21.75" height="21.75" rx="10.875" fill="#FFD803"/>
<g clip-path="url(#clip2_1009_32910)">
<path d="M55.6462 26.2833C55.6347 26.2723 55.6255 26.2589 55.6193 26.2441C55.6131 26.2292 55.61 26.2132 55.6102 26.1971C55.5359 25.8543 55.5783 25.2076 56.4694 25.2981C56.5084 25.3038 56.5463 25.3154 56.5818 25.3326L58.1284 26.9063L62.5709 31.4334L63.4323 32.3108C63.4323 32.3108 64.7561 33.85 65.609 35.0055C67.094 36.9241 66.2178 36.4477 65.0616 35.497C65.1486 35.6285 62.38 33.1257 62.38 33.1257L61.6396 32.3733L57.1949 27.8462L55.6462 26.2833Z" fill="#1A1A1A"/>
<path d="M56.581 36.3959C56.5702 36.4077 56.557 36.417 56.5424 36.4233C56.5278 36.4296 56.512 36.4328 56.4962 36.4326C56.1588 36.508 55.5224 36.4649 55.6115 35.5595C55.6171 35.5199 55.6285 35.4814 55.6454 35.4453L57.1942 33.8737L61.6494 29.3596L62.5128 28.4844C62.5128 28.4844 64.0276 27.1392 65.1648 26.2726C67.0529 24.7635 66.5841 25.6539 65.6485 26.8287C65.7779 26.7404 63.3148 29.5536 63.3148 29.5536L62.5744 30.306L58.1298 34.833L56.581 36.3959Z" fill="#1A1A1A"/>
</g>
</g>
<defs>
<clipPath id="clip0_1009_32910">
<rect width="53.4542" height="128.29" fill="white" transform="matrix(0.39107 -0.920361 -0.920361 -0.39107 118.945 99.5542)"/>
</clipPath>
<clipPath id="clip1_1009_32910">
<rect width="45.9675" height="46.155" fill="white" transform="translate(38.75 8.75)"/>
</clipPath>
<clipPath id="clip2_1009_32910">
<rect width="10.875" height="11.1689" fill="white" transform="translate(55.584 25.2903)"/>
</clipPath>
</defs>
</svg>
