<svg width="138" height="102" viewBox="0 0 138 102" fill="none" xmlns="http://www.w3.org/2000/svg">
<g clip-path="url(#clip0_1009_32912)">
<path d="M19.2582 101.427C19.1461 101.452 19.0285 101.434 18.9287 101.377C18.829 101.319 18.7542 101.227 18.7193 101.117C18.3338 99.9853 17.9939 98.8141 17.6965 97.6461C17.5629 97.1211 17.426 96.583 17.289 96.0449C17.2659 95.926 17.289 95.8028 17.3537 95.7005C17.4184 95.5983 17.5197 95.5249 17.6369 95.4952C17.6958 95.4821 17.7567 95.4806 17.8161 95.4911C17.8756 95.5015 17.9324 95.5236 17.9834 95.556C18.0344 95.5885 18.0785 95.6307 18.1132 95.6802C18.1479 95.7297 18.1726 95.7856 18.1858 95.8446C18.3194 96.3696 18.4563 96.9077 18.5866 97.4195C18.8806 98.5744 19.1745 99.7293 19.5796 100.828C19.6 100.885 19.6088 100.946 19.6056 101.007C19.6024 101.067 19.5872 101.127 19.561 101.181C19.5347 101.236 19.498 101.285 19.4527 101.326C19.4075 101.366 19.3547 101.397 19.2975 101.417L19.2582 101.427ZM17.085 91.8487C17.0252 91.8571 16.9643 91.8533 16.906 91.8374C16.8477 91.8215 16.7933 91.794 16.7459 91.7564C16.6985 91.7187 16.6593 91.6719 16.6305 91.6187C16.6017 91.5654 16.584 91.5069 16.5785 91.4466C16.3506 89.7299 16.2207 87.9603 16.163 86.2002C16.1612 86.1392 16.1714 86.0784 16.193 86.0214C16.2146 85.9644 16.2472 85.9122 16.289 85.8678C16.3308 85.8234 16.3809 85.7878 16.4364 85.7628C16.492 85.7379 16.5519 85.7241 16.6128 85.7224C16.6736 85.7207 16.7343 85.731 16.7912 85.7527C16.8481 85.7745 16.9003 85.8072 16.9446 85.8492C16.9889 85.8911 17.0245 85.9413 17.0495 85.997C17.0745 86.0527 17.0882 86.1128 17.0901 86.1739C17.1411 87.9076 17.2741 89.6346 17.4822 91.3284C17.4907 91.3888 17.4871 91.4503 17.4717 91.5092C17.4562 91.5682 17.4292 91.6235 17.3923 91.6719C17.3553 91.7203 17.3091 91.7609 17.2564 91.7912C17.2036 91.8216 17.1454 91.8411 17.085 91.8487ZM16.7488 82.0405C16.7047 82.0647 16.6551 82.0773 16.6048 82.0771C16.4855 82.069 16.3739 82.0145 16.2939 81.9252C16.214 81.836 16.1718 81.719 16.1765 81.5992C16.2664 79.8715 16.4445 78.1073 16.6981 76.3659C16.7042 76.3054 16.7225 76.2469 16.7519 76.1939C16.7814 76.1408 16.8213 76.0943 16.8692 76.0573C16.9172 76.0202 16.9722 75.9934 17.0309 75.9783C17.0896 75.9633 17.1507 75.9605 17.2106 75.9699C17.2717 75.9774 17.3307 75.9971 17.3841 76.0278C17.4375 76.0586 17.4842 76.0998 17.5214 76.149C17.5586 76.1982 17.5856 76.2543 17.6008 76.3142C17.6159 76.374 17.6189 76.4362 17.6096 76.4972C17.3624 78.2091 17.1907 79.9437 17.0941 81.6452C17.0857 81.7392 17.0478 81.8282 16.9857 81.8992C16.9236 81.9702 16.8407 82.0197 16.7488 82.0405ZM18.0807 72.3247C18.0194 72.3547 17.9525 72.3717 17.8844 72.3747C17.7644 72.3481 17.6595 72.2758 17.5917 72.1731C17.524 72.0704 17.4987 71.9453 17.5213 71.8243C17.8996 70.1349 18.3434 68.4289 18.8627 66.7456C18.8994 66.6289 18.9798 66.531 19.087 66.4724C19.1942 66.4139 19.32 66.3992 19.4378 66.4315C19.4957 66.4497 19.5495 66.4791 19.596 66.5181C19.6425 66.5571 19.6808 66.605 19.7088 66.6589C19.7368 66.7129 19.7538 66.7718 19.759 66.8324C19.7641 66.8929 19.7573 66.9539 19.7388 67.0117C19.2293 68.6786 18.7919 70.355 18.4233 72.0279C18.3967 72.1029 18.3511 72.1697 18.2911 72.2217C18.2311 72.2737 18.1586 72.3092 18.0807 72.3247ZM20.8852 62.9189C20.7961 62.94 20.7027 62.9346 20.6165 62.9035C20.5591 62.8819 20.5067 62.849 20.4621 62.8068C20.4176 62.7645 20.3819 62.7138 20.3572 62.6576C20.3325 62.6014 20.3193 62.5408 20.3183 62.4794C20.3173 62.418 20.3286 62.3571 20.3514 62.3002C20.9729 60.7446 21.6462 59.064 22.3986 57.475C22.4284 57.4239 22.468 57.3793 22.5152 57.3437C22.5623 57.3081 22.6161 57.2823 22.6733 57.2677C22.7306 57.2531 22.7901 57.2501 22.8486 57.2588C22.907 57.2675 22.9632 57.2878 23.0138 57.3184C23.0689 57.3437 23.1185 57.3797 23.1597 57.4243C23.201 57.4688 23.233 57.5211 23.254 57.5781C23.275 57.6351 23.2845 57.6957 23.282 57.7564C23.2796 57.8171 23.2651 57.8767 23.2396 57.9317C22.5134 59.514 21.8264 61.0863 21.2217 62.7075C21.1589 62.8042 21.0622 62.8737 20.9507 62.9022L20.8852 62.9189ZM24.9995 54.0042C24.884 54.0342 24.7615 54.0206 24.6553 53.966C24.5508 53.9035 24.4753 53.8022 24.4453 53.6841C24.4152 53.566 24.4331 53.4409 24.4949 53.3361C25.3197 51.8126 26.2133 50.2855 27.1497 48.8174C27.1797 48.7626 27.2206 48.7144 27.2698 48.676C27.319 48.6375 27.3755 48.6095 27.4359 48.5937C27.4963 48.5779 27.5593 48.5746 27.6211 48.584C27.6828 48.5935 27.742 48.6154 27.795 48.6485C27.8481 48.6816 27.8938 48.7252 27.9295 48.7767C27.9651 48.8281 27.99 48.8862 28.0025 48.9476C28.015 49.0089 28.0149 49.0722 28.0022 49.1334C27.9895 49.1947 27.9644 49.2527 27.9286 49.3039C27.0052 50.7686 26.1181 52.2661 25.29 53.7765C25.2613 53.8336 25.2204 53.8836 25.1702 53.923C25.12 53.9624 25.0617 53.9901 24.9995 54.0042ZM30.2273 45.6864C30.1608 45.7036 30.0912 45.7066 30.0234 45.6949C29.9556 45.6833 29.891 45.6573 29.8338 45.6188C29.7851 45.5827 29.7439 45.5373 29.7127 45.4852C29.6815 45.433 29.6609 45.3753 29.6521 45.3152C29.6433 45.255 29.6464 45.1938 29.6613 45.135C29.6762 45.0761 29.7026 45.0208 29.7389 44.9722C30.774 43.5629 31.8123 42.1667 32.9493 40.8292C32.9878 40.7827 33.035 40.7443 33.0884 40.7161C33.1417 40.6879 33.2001 40.6706 33.2601 40.665C33.3202 40.6594 33.3808 40.6658 33.4384 40.6837C33.496 40.7016 33.5496 40.7307 33.5961 40.7694C33.6425 40.808 33.6809 40.8555 33.7091 40.9089C33.7373 40.9624 33.7546 41.021 33.7603 41.0812C33.7659 41.1414 33.7596 41.2021 33.7418 41.2598C33.724 41.3176 33.6951 41.3713 33.6566 41.4178C32.5982 42.7352 31.5531 44.1052 30.5147 45.5014C30.4495 45.6021 30.3476 45.6732 30.2307 45.6995L30.2273 45.6864ZM36.468 38.1169C36.3924 38.1394 36.3121 38.1407 36.2358 38.1207C36.1594 38.1008 36.09 38.0602 36.0349 38.0035C35.9455 37.9206 35.8926 37.8056 35.8877 37.6837C35.8828 37.5618 35.9264 37.443 36.0088 37.3534C37.2051 36.0847 38.4637 34.842 39.7257 33.6125C39.8172 33.5335 39.9354 33.4927 40.056 33.4984C40.1767 33.504 40.2907 33.5558 40.3746 33.643C40.417 33.6868 40.45 33.7388 40.4715 33.7959C40.4931 33.8529 40.5028 33.9138 40.5001 33.9747C40.4973 34.0356 40.4821 34.0953 40.4554 34.1501C40.4288 34.2049 40.3912 34.2536 40.345 34.2933C39.0958 35.4637 37.86 36.6866 36.6936 38.0176C36.629 38.0715 36.553 38.11 36.4713 38.13L36.468 38.1169ZM121.52 11.8007C121.452 11.8387 121.375 11.8582 121.297 11.8573C119.64 11.3707 117.954 10.9335 116.275 10.5784C116.158 10.5461 116.058 10.4715 115.993 10.3692C115.929 10.2668 115.904 10.144 115.925 10.0247C115.938 9.96516 115.962 9.9088 115.997 9.85889C116.032 9.80897 116.076 9.76649 116.128 9.73393C116.179 9.70136 116.236 9.67935 116.296 9.66916C116.356 9.65897 116.418 9.6608 116.477 9.67457C118.173 10.0395 119.872 10.4734 121.558 10.9664C121.675 11.0033 121.773 11.084 121.831 11.1916C121.89 11.2991 121.905 11.4251 121.873 11.5432C121.837 11.6101 121.787 11.668 121.726 11.7126C121.665 11.7572 121.594 11.7873 121.52 11.8007ZM43.6008 31.4243C43.5024 31.4436 43.4003 31.43 43.3101 31.3856C43.22 31.3412 43.1469 31.2685 43.1018 31.1785C43.0568 31.0885 43.0424 30.9863 43.0608 30.8874C43.0792 30.7886 43.1294 30.6985 43.2038 30.631C44.5123 29.5294 45.8928 28.4374 47.3096 27.378C47.3577 27.3411 47.4128 27.3143 47.4715 27.2995C47.5302 27.2846 47.5914 27.2819 47.6512 27.2915C47.7111 27.3011 47.7683 27.3229 47.8195 27.3554C47.8708 27.388 47.9148 27.4306 47.9491 27.4808C48.0203 27.5777 48.0509 27.6986 48.0344 27.8178C48.0178 27.9369 47.9554 28.0447 47.8604 28.1182C46.4567 29.1742 45.0792 30.2236 43.7872 31.335C43.7314 31.3765 43.6681 31.4068 43.6008 31.4243ZM51.4354 25.5173C51.3447 25.543 51.2482 25.5392 51.1598 25.5065C51.0713 25.4738 50.9954 25.4138 50.9431 25.3352C50.9081 25.2854 50.8833 25.2292 50.8701 25.1698C50.857 25.1103 50.8557 25.0489 50.8664 24.989C50.877 24.9291 50.8995 24.8719 50.9323 24.8208C50.9652 24.7697 51.0079 24.7256 51.0579 24.6911C52.4947 23.7105 53.9775 22.7462 55.4475 21.841C55.4986 21.8084 55.5557 21.7863 55.6155 21.776C55.6753 21.7657 55.7365 21.7673 55.7957 21.7808C55.8549 21.7944 55.9108 21.8195 55.9602 21.8548C56.0097 21.8901 56.0517 21.9349 56.0838 21.9865C56.1459 22.093 56.1642 22.2195 56.1348 22.3391C56.1054 22.4588 56.0307 22.5622 55.9264 22.6274C54.4695 23.5293 52.9965 24.4772 51.5858 25.4511C51.5454 25.4822 51.4984 25.5037 51.4485 25.514L51.4354 25.5173ZM111.923 9.63205C111.869 9.65801 111.811 9.67276 111.752 9.67537C110.057 9.42211 108.303 9.15592 106.612 9.08327C106.548 9.08425 106.484 9.07177 106.425 9.04664C106.366 9.02151 106.313 8.98429 106.269 8.93736C106.226 8.89043 106.192 8.83483 106.171 8.77415C106.15 8.71347 106.141 8.64905 106.147 8.58502C106.152 8.521 106.17 8.45879 106.201 8.4024C106.232 8.34601 106.274 8.29669 106.325 8.2576C106.375 8.21851 106.434 8.19053 106.496 8.17545C106.558 8.16037 106.623 8.15852 106.686 8.17004C108.42 8.30165 110.171 8.49888 111.895 8.7586C112.015 8.78013 112.123 8.84736 112.195 8.94625C112.267 9.04514 112.298 9.16802 112.281 9.2892C112.261 9.37481 112.216 9.45263 112.152 9.5134C112.089 9.57418 112.009 9.61535 111.923 9.63205ZM59.765 20.3508C59.6672 20.3763 59.5637 20.3688 59.4705 20.3293C59.3773 20.2899 59.2996 20.2207 59.2496 20.1326C59.192 20.0232 59.1793 19.8956 59.2142 19.7771C59.2491 19.6585 59.3289 19.5584 59.4365 19.4981C60.9625 18.6485 62.5246 17.8317 64.0739 17.074C64.1824 17.0214 64.3073 17.0138 64.4215 17.0527C64.5357 17.0916 64.6301 17.174 64.6844 17.282C64.7123 17.3355 64.729 17.3941 64.7337 17.4543C64.7383 17.5145 64.7308 17.575 64.7115 17.6322C64.6922 17.6894 64.6615 17.742 64.6213 17.7869C64.5811 17.8318 64.5322 17.8681 64.4777 17.8935C62.9448 18.661 61.3924 19.4614 59.8795 20.3076L59.765 20.3508ZM102.161 8.84662L102.044 8.8766C100.337 8.84999 98.5904 8.88919 96.8741 8.99068C96.8132 8.99629 96.7518 8.98929 96.6937 8.9701C96.6356 8.95091 96.582 8.91996 96.5363 8.87916C96.4907 8.83836 96.4538 8.78859 96.4281 8.73294C96.4024 8.67729 96.3884 8.61695 96.387 8.55568C96.3833 8.49505 96.3915 8.43429 96.4113 8.3769C96.4311 8.31952 96.462 8.26664 96.5023 8.22132C96.5426 8.17599 96.5914 8.13911 96.646 8.11281C96.7006 8.08651 96.7599 8.0713 96.8204 8.06807C98.5663 7.97304 100.325 7.93049 102.059 7.95045C102.172 7.94968 102.282 7.99085 102.366 8.06606C102.451 8.14127 102.506 8.24521 102.519 8.35794C102.532 8.47067 102.503 8.58425 102.438 8.67687C102.372 8.76948 102.275 8.83461 102.165 8.85975L102.161 8.84662ZM68.5541 16.0035C68.447 16.0292 68.3341 16.0166 68.2352 15.9677C68.1362 15.9189 68.0574 15.837 68.0122 15.7362C67.988 15.6799 67.9753 15.6193 67.9748 15.558C67.9742 15.4967 67.9859 15.4359 68.0092 15.3792C68.0324 15.3226 68.0667 15.2711 68.11 15.2279C68.1533 15.1848 68.2048 15.1507 68.2615 15.1277C69.8537 14.429 71.4986 13.7728 73.1141 13.1659C73.2274 13.1253 73.3521 13.1309 73.4614 13.1814C73.5707 13.232 73.6559 13.3235 73.6987 13.4363C73.7209 13.4931 73.7317 13.5538 73.7303 13.6148C73.7289 13.6757 73.7155 13.7358 73.6908 13.7915C73.6661 13.8472 73.6305 13.8974 73.5863 13.9392C73.542 13.981 73.4899 14.0136 73.4329 14.035C71.8271 14.6254 70.2118 15.2881 68.6162 15.9737L68.5541 16.0035ZM92.3613 9.44062C90.6717 9.64711 88.9431 9.91941 87.254 10.2375C87.1346 10.2573 87.0121 10.2303 86.9118 10.1623C86.8115 10.0942 86.741 9.99021 86.7149 9.8717C86.7013 9.81208 86.7002 9.75032 86.7114 9.69025C86.7226 9.63017 86.7461 9.57306 86.7802 9.52246C86.8144 9.47185 86.8585 9.42882 86.9099 9.39602C86.9614 9.36322 87.019 9.34137 87.0792 9.33179C88.7945 9.00699 90.5362 8.73136 92.2553 8.53133C92.3151 8.52291 92.376 8.52674 92.4343 8.54261C92.4926 8.55848 92.5471 8.58606 92.5944 8.62366C92.6418 8.66126 92.6811 8.70811 92.7099 8.76136C92.7386 8.8146 92.7563 8.87314 92.7619 8.93342C92.7752 9.05386 92.7406 9.17466 92.6656 9.26961C92.5907 9.36456 92.4813 9.426 92.3613 9.44062ZM77.7182 12.6368C77.6002 12.6669 77.475 12.6487 77.3703 12.5862C77.2655 12.5238 77.1897 12.4222 77.1596 12.3039C77.1295 12.1855 77.1475 12.0601 77.2096 11.9552C77.2718 11.8502 77.373 11.7744 77.4911 11.7444C79.1529 11.2096 80.8445 10.7371 82.5233 10.3238C82.5817 10.3089 82.6425 10.3057 82.7022 10.3144C82.7619 10.3231 82.8193 10.3434 82.8712 10.3743C82.9231 10.4053 82.9684 10.4461 83.0045 10.4946C83.0407 10.543 83.067 10.5981 83.0819 10.6567C83.112 10.775 83.094 10.9005 83.0318 11.0054C82.9697 11.1103 82.8685 11.1861 82.7504 11.2162C81.0881 11.6393 79.4126 12.0658 77.7575 12.6268L77.7182 12.6368Z" fill="black"/>
</g>
<g clip-path="url(#clip1_1009_32912)">
<path d="M42.0744 23.6423C39.2466 24.5561 36.8884 26.54 35.5044 29.1698C34.8336 30.4803 34.4839 31.9314 34.4839 33.4036C34.4839 34.8757 34.8336 36.3268 35.5044 37.6373C37.5294 41.3873 42.5769 43.0748 46.5669 41.5523C48.7271 40.6627 50.496 39.0271 51.5518 36.9431C52.6076 34.8591 52.88 32.4653 52.3194 30.1973C51.0144 25.7198 45.8919 22.3673 42.0744 23.6423ZM47.3244 35.3873C46.8673 36.3455 46.1012 37.1221 45.1494 37.5923C44.1792 38.0408 43.0775 38.1151 42.0559 37.8008C41.0343 37.4866 40.1648 36.806 39.6144 35.8898C39.0323 34.9343 38.7428 33.8292 38.7814 32.711C38.8201 31.5928 39.1852 30.5104 39.8319 29.5973C40.1115 29.1338 40.4825 28.732 40.9221 28.4161C41.3617 28.1003 41.8609 27.877 42.3894 27.7598C42.8878 27.6492 43.4046 27.6503 43.9025 27.7631C44.4005 27.876 44.8673 28.0977 45.2694 28.4123C45.8017 28.4959 46.3018 28.7213 46.7169 29.0648C47.4829 29.8771 47.9141 30.9484 47.9244 32.0648C47.9913 33.2007 47.799 34.3368 47.3619 35.3873H47.3244Z" fill="white"/>
<path d="M63.0379 32.0648C61.8739 31.7393 60.8308 31.0796 60.0379 30.1673C59.5287 29.4905 59.1837 28.7046 59.0301 27.8716C58.8765 27.0386 58.9185 26.1813 59.1529 25.3673C59.6376 23.7364 60.6084 22.2922 61.9354 21.2274C60.7894 19.4331 59.5528 17.6984 58.2304 16.0299C56.6629 17.1924 55.1479 18.2799 53.4079 18.3849C52.5623 18.3901 51.7272 18.1975 50.9693 17.8225C50.2114 17.4474 49.5517 16.9003 49.0429 16.2249C48.0426 14.861 47.4309 13.2513 47.2729 11.5674C47.2129 11.4024 47.1229 11.3724 47.0629 11.3649L41.7679 10.9749C41.4841 12.5744 40.6956 14.041 39.5179 15.1598C38.3585 16.2445 36.8229 16.8362 35.2354 16.8099C34.5904 16.7749 33.9501 16.6795 33.3229 16.5249C32.2671 16.3933 31.2747 15.9493 30.4729 15.2499C29.1215 16.1713 27.8266 17.1731 26.5954 18.2499C27.1258 18.6397 27.5132 19.1931 27.6979 19.8248C28.2539 21.0206 28.4393 22.3553 28.2304 23.6573C28.0498 24.3109 27.7361 24.9201 27.3089 25.4467C26.8817 25.9733 26.3502 26.4059 25.7479 26.7174C24.535 27.3249 23.204 27.6602 21.8479 27.6998C21.4769 29.6995 21.2712 31.7264 21.2329 33.7598C22.3457 34.1076 23.425 34.5543 24.4579 35.0948C25.4641 35.6408 26.2685 36.4951 26.7529 37.5323C26.981 38.1352 27.0859 38.7777 27.0614 39.4218C27.0369 40.0659 26.8836 40.6985 26.6104 41.2823C26.0616 42.4451 25.241 43.4586 24.2179 44.2374C25.4254 46.1874 26.5804 47.9873 27.7654 49.7873C28.6605 49.1866 29.6776 48.7916 30.7436 48.6308C31.8096 48.47 32.8979 48.5474 33.9304 48.8574C34.438 49.0061 34.9135 49.2476 35.3329 49.5699C35.838 49.9981 36.2447 50.5302 36.5254 51.1299C37.2388 52.5499 37.5005 54.1542 37.2754 55.7273C39.359 56.1394 41.4652 56.4274 43.5829 56.5899C43.5016 55.5306 43.6901 54.468 44.1308 53.5014C44.5714 52.5348 45.25 51.6956 46.1029 51.0624C46.9659 50.4716 47.9837 50.1481 49.0294 50.1321C50.075 50.116 51.1023 50.4083 51.9829 50.9723C52.7724 51.5707 53.4654 52.2865 54.0379 53.0948C55.9129 51.7673 57.7879 50.4099 59.5129 48.9249C58.5379 47.4249 57.5479 45.9249 57.5104 44.1924C57.5275 43.302 57.7671 42.4301 58.2072 41.6559C58.6473 40.8818 59.2741 40.23 60.0304 39.7598C61.5636 38.8376 63.364 38.4622 65.1379 38.6949C65.7454 36.6324 66.2554 34.6148 66.6829 32.5823C65.4534 32.5359 64.2318 32.3625 63.0379 32.0648ZM51.9604 36.5648C51.2278 38.1496 50.099 39.5186 48.6829 40.5399C47.8723 41.1475 46.9679 41.6187 46.0054 41.9349C42.0679 43.1949 37.4404 40.9748 35.6104 37.2623C34.942 35.9014 34.6078 34.4007 34.6356 32.8848C34.6635 31.3688 35.0525 29.8814 35.7705 28.5459C36.4884 27.2105 37.5146 26.0656 38.7637 25.2062C40.0129 24.3469 41.4491 23.7979 42.9529 23.6048C45.6379 23.2598 49.0354 24.7073 50.9704 27.3548C51.9236 28.6764 52.5162 30.2235 52.6897 31.8437C52.8633 33.4639 52.612 35.1013 51.9604 36.5948V36.5648Z" fill="white"/>
<g opacity="0.13">
<path d="M54.3675 32.2894C54.3263 31.981 54.2662 31.6755 54.1875 31.3744L54.0825 31.1644C53.5251 30.0628 52.862 29.0179 52.1026 28.0444C51.9794 28.1371 51.8877 28.2654 51.84 28.4119C51.765 28.9369 52.17 29.4169 52.2975 29.9119C52.755 31.2844 53.0475 31.9444 52.9125 33.1969C52.7149 34.39 52.3698 35.554 51.885 36.6619C51.5891 37.246 51.2428 37.8031 50.85 38.3269C50.73 38.4694 50.6851 38.5369 50.7001 38.5444C50.5051 38.6944 50.3326 38.8969 50.1376 39.0544L48.9076 40.1044C48.7597 40.2123 48.6194 40.33 48.4876 40.4569C48.5551 40.3594 48.3751 40.5319 48.2101 40.6744C48.0451 40.8169 47.7076 41.0194 47.4976 41.1244C46.2871 41.5571 45.0274 41.8367 43.7476 41.9569C42.7621 41.993 41.7772 41.8715 40.83 41.5969C40.2525 41.4244 39.7425 40.8469 39.12 40.9744C38.9956 41.0045 38.8817 41.0678 38.7905 41.1576C38.6994 41.2475 38.6344 41.3605 38.6025 41.4844L38.7826 41.6719L39.42 42.1969L41.7451 43.6969C43.1487 44.0853 44.6249 44.1316 46.0501 43.8319H45.9526C47.1919 43.6193 48.3862 43.1984 49.485 42.5869C50.5736 41.9109 51.4882 40.9886 52.1551 39.8944L52.215 39.7969C53.013 38.7888 53.6343 37.6527 54.0525 36.4369C54.4369 35.09 54.5441 33.679 54.3675 32.2894Z" fill="black"/>
</g>
<g opacity="0.13">
<path d="M58.5674 46.4126C58.3967 46.4192 58.2298 46.4654 58.0799 46.5476C57.871 46.6809 57.6984 46.8638 57.5774 47.0801C57.4441 47.2386 57.319 47.4039 57.2024 47.5751C56.8424 48.0798 56.4383 48.5517 55.995 48.9851C55.575 49.4351 54.915 49.7351 54.6375 50.2826L54.1499 50.5601C53.8424 50.7476 53.4449 50.8376 53.2274 51.1451C53.099 51.3228 53.0347 51.5388 53.045 51.7578C53.0554 51.9768 53.1399 52.1857 53.2845 52.3504C53.4292 52.5152 53.6255 52.6259 53.8414 52.6644C54.0572 52.7029 54.2797 52.6671 54.4724 52.5626C55.3861 52.0798 56.2395 51.4907 57.0149 50.8076C57.0149 50.8076 57.0899 50.7326 57.1274 50.6951C57.7318 50.2328 58.3055 49.7318 58.8449 49.1951C59.0678 48.9603 59.2734 48.7097 59.4599 48.4451C59.2649 48.0476 59.0849 47.6276 58.9274 47.2076C58.7924 46.9601 58.6724 46.6901 58.5674 46.4126Z" fill="black"/>
</g>
<g opacity="0.13">
<path d="M64.5148 32.5308C64.1698 33.8658 63.7823 35.1908 63.3523 36.5058C63.1498 37.1133 62.9548 37.7283 62.7598 38.3358C62.8724 38.4862 63.0281 38.599 63.2062 38.6593C63.3842 38.7195 63.5764 38.7244 63.7573 38.6733H63.8098C63.8933 38.7827 64.0053 38.867 64.1335 38.9171C64.2618 38.9671 64.4013 38.9808 64.5368 38.9568C64.6724 38.9328 64.7987 38.8719 64.902 38.7809C65.0052 38.6899 65.0815 38.5722 65.1223 38.4408C65.1973 38.1483 65.3173 37.8633 65.4223 37.5708C65.4865 37.5405 65.5469 37.5027 65.6023 37.4583C65.932 37.1255 66.1496 36.6981 66.2248 36.2358C66.4343 35.3779 66.555 34.5008 66.5848 33.6183C66.5848 33.5658 66.5848 33.5133 66.5848 33.4608C65.8948 33.1608 65.2048 32.8533 64.5148 32.5308Z" fill="black"/>
</g>
<path d="M43.6043 56.8978C41.4788 56.7349 39.365 56.4444 37.2743 56.0278C37.2097 56.0167 37.1521 55.9806 37.1141 55.9271C37.0762 55.8737 37.061 55.8074 37.0718 55.7427C37.2783 54.2185 37.0167 52.6675 36.3218 51.2953C36.1015 50.7771 35.7672 50.3152 35.344 49.9439C34.9207 49.5725 34.4193 49.3013 33.8768 49.1503C32.8803 48.8539 31.8306 48.7809 30.8026 48.9364C29.7746 49.092 28.7936 49.4723 27.9293 50.0503C27.8735 50.0877 27.8052 50.1017 27.7392 50.089C27.6732 50.0764 27.6148 50.0382 27.5768 49.9828C26.4068 48.2203 25.2443 46.3977 24.0218 44.4177C23.9902 44.3648 23.9789 44.3022 23.9899 44.2415C24.001 44.1808 24.0336 44.1262 24.0818 44.0878C25.0715 43.3341 25.8662 42.3542 26.3993 41.2302C26.657 40.6804 26.8018 40.0845 26.825 39.4777C26.8482 38.8709 26.7493 38.2656 26.5343 37.6978C26.0699 36.7116 25.3026 35.8997 24.3443 35.3803C23.4637 34.9107 22.5424 34.5216 21.5918 34.2178L21.1643 34.0678C21.113 34.0511 21.0688 34.0176 21.0389 33.9726C21.0089 33.9277 20.995 33.8741 20.9993 33.8203C21.0388 31.7745 21.2445 29.7352 21.6143 27.7227C21.6245 27.6657 21.6538 27.6138 21.6974 27.5756C21.7411 27.5374 21.7964 27.5153 21.8543 27.5127C23.1743 27.4809 24.4707 27.1555 25.6493 26.5603C26.2213 26.2676 26.7261 25.8591 27.1316 25.3607C27.5371 24.8623 27.8343 24.2849 28.0043 23.6653C28.1947 22.416 28.0148 21.1383 27.4868 19.9902C27.3223 19.3931 26.9666 18.8662 26.4743 18.4902C26.4423 18.4681 26.4155 18.4391 26.3961 18.4054C26.3766 18.3717 26.3649 18.3341 26.3618 18.2952C26.3589 18.2556 26.3655 18.2158 26.3811 18.1792C26.3968 18.1427 26.4211 18.1104 26.4518 18.0852C27.6887 16.9896 28.9911 15.9702 30.3518 15.0327C30.3985 14.995 30.4568 14.9744 30.5168 14.9744C30.5769 14.9744 30.6351 14.995 30.6818 15.0327C31.4487 15.6904 32.3937 16.1054 33.3968 16.2253C34.0083 16.3821 34.6339 16.4776 35.2643 16.5103C36.7863 16.5403 38.2593 15.9721 39.3668 14.9277C40.4986 13.8434 41.2508 12.4232 41.5118 10.8777C41.5449 10.8296 41.5931 10.7939 41.6488 10.7762C41.7045 10.7585 41.7645 10.76 41.8193 10.7803L47.1143 11.1702C47.2152 11.1813 47.3104 11.2222 47.3879 11.2876C47.4654 11.3531 47.5216 11.4402 47.5493 11.5378C47.5493 11.5378 47.5493 11.5378 47.5493 11.5903C47.7072 13.2186 48.3033 14.7737 49.2743 16.0903C49.7563 16.7343 50.3826 17.2565 51.1029 17.6146C51.8232 17.9728 52.6174 18.1571 53.4218 18.1528C55.1168 18.0628 56.6393 16.9378 58.1093 15.8503C58.1624 15.8104 58.2289 15.7928 58.2947 15.8012C58.3605 15.8096 58.4205 15.8434 58.4618 15.8953C59.7788 17.56 61.008 19.2923 62.1443 21.0852C62.1767 21.1374 62.1893 21.1994 62.1796 21.26C62.17 21.3207 62.1388 21.3758 62.0918 21.4153C60.8086 22.4475 59.8675 23.8436 59.3918 25.4202C59.1709 26.1961 59.1318 27.0124 59.2775 27.8059C59.4232 28.5993 59.7497 29.3485 60.2318 29.9953C60.9975 30.8788 62.0115 31.5113 63.1418 31.8103C64.3229 32.1281 65.535 32.3168 66.7568 32.3728C66.7937 32.376 66.8295 32.3871 66.8618 32.4052C66.8941 32.4233 66.9222 32.448 66.9443 32.4778C66.9849 32.5369 67.0011 32.6095 66.9893 32.6802C66.5693 34.6752 66.0593 36.6778 65.4368 38.8078C65.4199 38.8651 65.3839 38.9149 65.3348 38.949C65.2857 38.9831 65.2264 38.9994 65.1668 38.9953C63.4482 38.7699 61.7038 39.132 60.2168 40.0227C59.498 40.4686 58.9019 41.0871 58.4827 41.8219C58.0636 42.5566 57.8347 43.3845 57.8168 44.2302C57.8543 45.8427 58.8143 47.3353 59.7443 48.7753V48.8277C59.7776 48.879 59.7914 48.9405 59.7832 49.0011C59.7749 49.0617 59.7451 49.1173 59.6993 49.1577C57.8993 50.7027 55.9943 52.0827 54.2018 53.3502C54.1484 53.387 54.083 53.402 54.0189 53.3923C53.9549 53.3825 53.8969 53.3487 53.8568 53.2978C53.3012 52.5101 52.6284 51.812 51.8618 51.2277C51.0216 50.6967 50.0447 50.4224 49.0509 50.4384C48.0571 50.4543 47.0895 50.76 46.2668 51.3178C45.4525 51.9283 44.8052 52.7341 44.3844 53.6609C43.9636 54.5876 43.783 55.6053 43.8593 56.6202C43.859 56.6959 43.8295 56.7685 43.7768 56.8228C43.7314 56.8695 43.6694 56.8964 43.6043 56.8978ZM37.6043 55.5777C39.5064 55.9428 41.4266 56.2057 43.3568 56.3652C43.3267 55.3094 43.5516 54.2618 44.0125 53.3113C44.4733 52.3608 45.1566 51.5355 46.0043 50.9053C46.9075 50.2815 47.9756 49.9399 49.0731 49.9239C50.1707 49.9079 51.2483 50.2181 52.1693 50.8153C52.9237 51.369 53.5846 52.04 54.1268 52.8027C55.7993 51.6177 57.5543 50.3353 59.2193 48.9253C58.2818 47.4253 57.3368 45.9252 57.2993 44.2527C57.3148 43.3195 57.5638 42.4049 58.0237 41.5927C58.4835 40.7804 59.1396 40.0963 59.9318 39.6027C61.4489 38.6789 63.2282 38.2809 64.9943 38.4702C65.5568 36.5277 66.0293 34.7202 66.4193 32.8677C65.2578 32.8006 64.1065 32.612 62.9843 32.3052C61.7579 31.9749 60.6583 31.2854 59.8268 30.3252C59.2923 29.6174 58.9294 28.7951 58.7667 27.9231C58.604 27.0511 58.646 26.1533 58.8893 25.3003C59.3692 23.692 60.3075 22.2586 61.5893 21.1753C60.6293 19.6753 59.5193 18.1078 58.2068 16.4128C56.7068 17.5003 55.2068 18.5803 53.4368 18.6628C52.5528 18.6698 51.6793 18.4699 50.8863 18.0793C50.0932 17.6886 49.4025 17.1179 48.8693 16.4128C47.8369 15.0216 47.2042 13.3748 47.0393 11.6503L41.9918 11.2753C41.6821 12.8418 40.8963 14.2745 39.7418 15.3777C38.5267 16.5209 36.9095 17.1381 35.2418 17.0952C34.5813 17.0618 33.9257 16.9638 33.2843 16.8027C32.2555 16.6613 31.2825 16.2498 30.4643 15.6103C29.2645 16.442 28.1126 17.3409 27.0143 18.3027C27.446 18.7176 27.7681 19.233 27.9518 19.8027C28.5248 21.0467 28.7128 22.4336 28.4918 23.7852C28.3061 24.4743 27.9778 25.1167 27.5283 25.671C27.0787 26.2252 26.5178 26.6789 25.8818 27.0027C24.6994 27.6094 23.3996 27.9522 22.0718 28.0078C21.7423 29.871 21.5518 31.7562 21.5018 33.6477L21.7568 33.7378C22.7396 34.0485 23.6912 34.4503 24.5993 34.9377C25.653 35.5142 26.4941 36.4132 26.9993 37.5027C27.241 38.1337 27.353 38.807 27.3285 39.4823C27.304 40.1575 27.1436 40.8209 26.8568 41.4328C26.332 42.568 25.5486 43.5646 24.5693 44.3428C25.6943 46.1652 26.7743 47.8527 27.8543 49.4878C28.7646 48.9174 29.7868 48.5492 30.8517 48.4082C31.9167 48.2672 32.9994 48.3565 34.0268 48.6703C34.5694 48.8241 35.0782 49.0785 35.5268 49.4203C36.0604 49.8704 36.4903 50.4308 36.7868 51.0628C37.4811 52.4598 37.7571 54.0276 37.5818 55.5777H37.6043Z" fill="black"/>
<path d="M43.3645 38.2451C42.5915 38.2322 41.8338 38.0274 41.1596 37.649C40.4854 37.2707 39.9158 36.7307 39.502 36.0776C39.0533 35.3242 38.7853 34.477 38.7189 33.6026C38.6526 32.7281 38.7896 31.8502 39.1195 31.0376C39.5398 29.9318 40.3017 28.9886 41.2945 28.3451C41.7992 28.0271 42.3628 27.8141 42.9517 27.7187C43.5406 27.6234 44.1427 27.6476 44.722 27.7901C45.831 28.0258 46.8321 28.6185 47.572 29.4776C48.3279 30.4976 48.7213 31.741 48.6894 33.0101C48.7138 33.8192 48.5195 34.6198 48.1269 35.3276C47.8075 35.8345 47.4043 36.2834 46.9345 36.6551C46.121 37.4092 45.1177 37.9278 44.032 38.1551C43.8124 38.2041 43.5891 38.2342 43.3645 38.2451ZM43.687 28.1651C42.936 28.1682 42.2008 28.3813 41.5644 28.7801C40.6625 29.3634 39.9713 30.2203 39.592 31.2251C39.2916 31.9621 39.1658 32.7585 39.2243 33.5522C39.2829 34.3459 39.5242 35.1152 39.9295 35.8001C40.346 36.4692 40.9471 37.0036 41.6603 37.3389C42.3735 37.6742 43.1685 37.7962 43.9495 37.6901C44.9469 37.4637 45.8644 36.9712 46.6045 36.2651C47.03 35.9301 47.3975 35.5272 47.692 35.0726C48.0354 34.4409 48.2036 33.7288 48.1795 33.0101C48.2113 31.8546 47.8549 30.7217 47.167 29.7926C46.4934 29.0249 45.5874 28.4982 44.587 28.2926C44.2944 28.2083 43.9914 28.1653 43.687 28.1651Z" fill="black"/>
<path d="M43.6954 42.5726C41.9713 42.5484 40.2864 42.0545 38.8221 41.1439C37.3578 40.2334 36.1696 38.9407 35.3854 37.4051C34.6898 36.0089 34.3393 34.4662 34.3635 32.9065C34.3876 31.3468 34.7856 29.8156 35.524 28.4416C36.2625 27.0676 37.3198 25.8908 38.6073 25.0101C39.8947 24.1293 41.3746 23.5704 42.9229 23.3801C45.7879 23.0126 49.2604 24.6176 51.1729 27.1976C52.1607 28.5532 52.775 30.1446 52.954 31.8124C53.133 33.4802 52.8706 35.1657 52.1929 36.7001C51.4409 38.3234 50.2838 39.7259 48.8329 40.7726C48.0019 41.3962 47.0747 41.8801 46.0879 42.2051C45.3142 42.4505 44.5071 42.5745 43.6954 42.5726ZM42.9454 23.8826C41.4829 24.0731 40.0869 24.6096 38.8731 25.4475C37.6594 26.2854 36.6629 27.4006 35.9663 28.7007C35.2697 30.0007 34.8931 31.448 34.8678 32.9227C34.8424 34.3974 35.169 35.8568 35.8204 37.1801C37.6429 40.8851 42.1654 42.9176 45.9079 41.7251C46.8423 41.4145 47.721 40.9562 48.5104 40.3676C49.8911 39.3713 50.9915 38.0358 51.7054 36.4901C52.337 35.0345 52.5799 33.4399 52.4103 31.8623C52.2407 30.2847 51.6644 28.7781 50.7379 27.4901C48.9529 25.0301 45.6829 23.5301 42.9829 23.8826H42.9454Z" fill="black"/>
<path d="M63.0379 32.0648C61.8739 31.7393 60.8308 31.0796 60.0379 30.1673C59.5287 29.4905 59.1837 28.7046 59.0301 27.8716C58.8765 27.0386 58.9185 26.1813 59.1529 25.3673C59.6376 23.7364 60.6084 22.2922 61.9354 21.2274C60.7894 19.4331 59.5528 17.6984 58.2304 16.0299C56.6629 17.1924 55.1479 18.2799 53.4079 18.3849C52.5623 18.3901 51.7272 18.1975 50.9693 17.8225C50.2114 17.4474 49.5517 16.9003 49.0429 16.2249C48.0426 14.861 47.4309 13.2513 47.2729 11.5674C47.2129 11.4024 47.1229 11.3724 47.0629 11.3649L41.7679 10.9749C41.4841 12.5744 40.6956 14.041 39.5179 15.1598C38.3585 16.2445 36.8229 16.8362 35.2354 16.8099C34.5904 16.7749 33.9501 16.6795 33.3229 16.5249C32.2671 16.3933 31.2747 15.9493 30.4729 15.2499C29.1215 16.1713 27.8266 17.1731 26.5954 18.2499C27.1258 18.6397 27.5132 19.1931 27.6979 19.8248C28.2539 21.0206 28.4393 22.3553 28.2304 23.6573C28.0498 24.3109 27.7361 24.9201 27.3089 25.4467C26.8817 25.9733 26.3502 26.4059 25.7479 26.7174C24.535 27.3249 23.204 27.6602 21.8479 27.6998C21.4769 29.6995 21.2712 31.7264 21.2329 33.7598C22.3457 34.1076 23.425 34.5543 24.4579 35.0948C25.4641 35.6408 26.2685 36.4951 26.7529 37.5323C26.981 38.1352 27.0859 38.7777 27.0614 39.4218C27.0369 40.0659 26.8836 40.6985 26.6104 41.2823C26.0616 42.4451 25.241 43.4586 24.2179 44.2374C25.4254 46.1874 26.5804 47.9873 27.7654 49.7873C28.6605 49.1866 29.6776 48.7916 30.7436 48.6308C31.8096 48.47 32.8979 48.5474 33.9304 48.8574C34.438 49.0061 34.9135 49.2476 35.3329 49.5699C35.838 49.9981 36.2447 50.5302 36.5254 51.1299C37.2388 52.5499 37.5005 54.1542 37.2754 55.7273C39.359 56.1394 41.4652 56.4274 43.5829 56.5899C43.5016 55.5306 43.6901 54.468 44.1308 53.5014C44.5714 52.5348 45.25 51.6956 46.1029 51.0624C46.9659 50.4716 47.9837 50.1481 49.0294 50.1321C50.075 50.116 51.1023 50.4083 51.9829 50.9723C52.7724 51.5707 53.4654 52.2865 54.0379 53.0948C55.9129 51.7673 57.7879 50.4099 59.5129 48.9249C58.5379 47.4249 57.5479 45.9249 57.5104 44.1924C57.5275 43.302 57.7671 42.4301 58.2072 41.6559C58.6473 40.8818 59.2741 40.23 60.0304 39.7598C61.5636 38.8376 63.364 38.4622 65.1379 38.6949C65.7454 36.6324 66.2554 34.6148 66.6829 32.5823C65.4534 32.5359 64.2318 32.3625 63.0379 32.0648ZM51.9604 36.5648C51.2278 38.1496 50.099 39.5186 48.6829 40.5399C47.8723 41.1475 46.9679 41.6187 46.0054 41.9349C42.0679 43.1949 37.4404 40.9748 35.6104 37.2623C34.942 35.9014 34.6078 34.4007 34.6356 32.8848C34.6635 31.3688 35.0525 29.8814 35.7705 28.5459C36.4884 27.2105 37.5146 26.0656 38.7637 25.2062C40.0129 24.3469 41.4491 23.7979 42.9529 23.6048C45.6379 23.2598 49.0354 24.7073 50.9704 27.3548C51.9236 28.6764 52.5162 30.2235 52.6897 31.8437C52.8633 33.4639 52.612 35.1013 51.9604 36.5948V36.5648Z" fill="white"/>
<g opacity="0.13">
<path d="M54.3675 32.2894C54.3263 31.981 54.2662 31.6755 54.1875 31.3744L54.0825 31.1644C53.5251 30.0628 52.862 29.0179 52.1026 28.0444C51.9794 28.1371 51.8877 28.2654 51.84 28.4119C51.765 28.9369 52.17 29.4169 52.2975 29.9119C52.755 31.2844 53.0475 31.9444 52.9125 33.1969C52.7149 34.39 52.3698 35.554 51.885 36.6619C51.5891 37.246 51.2428 37.8031 50.85 38.3269C50.73 38.4694 50.6851 38.5369 50.7001 38.5444C50.5051 38.6944 50.3326 38.8969 50.1376 39.0544L48.9076 40.1044C48.7597 40.2123 48.6194 40.33 48.4876 40.4569C48.5551 40.3594 48.3751 40.5319 48.2101 40.6744C48.0451 40.8169 47.7076 41.0194 47.4976 41.1244C46.2871 41.5571 45.0274 41.8367 43.7476 41.9569C42.7621 41.993 41.7772 41.8715 40.83 41.5969C40.2525 41.4244 39.7425 40.8469 39.12 40.9744C38.9956 41.0045 38.8817 41.0678 38.7905 41.1576C38.6994 41.2475 38.6344 41.3605 38.6025 41.4844L38.7826 41.6719L39.42 42.1969L41.7451 43.6969C43.1487 44.0853 44.6249 44.1316 46.0501 43.8319H45.9526C47.1919 43.6193 48.3862 43.1984 49.485 42.5869C50.5736 41.9109 51.4882 40.9886 52.1551 39.8944L52.215 39.7969C53.013 38.7888 53.6343 37.6527 54.0525 36.4369C54.4369 35.09 54.5441 33.679 54.3675 32.2894Z" fill="black"/>
</g>
<g opacity="0.13">
<path d="M58.5674 46.4126C58.3967 46.4192 58.2298 46.4654 58.0799 46.5476C57.871 46.6809 57.6984 46.8638 57.5774 47.0801C57.4441 47.2386 57.319 47.4039 57.2024 47.5751C56.8424 48.0798 56.4383 48.5517 55.995 48.9851C55.575 49.4351 54.915 49.7351 54.6375 50.2826L54.1499 50.5601C53.8424 50.7476 53.4449 50.8376 53.2274 51.1451C53.099 51.3228 53.0347 51.5388 53.045 51.7578C53.0554 51.9768 53.1399 52.1857 53.2845 52.3504C53.4292 52.5152 53.6255 52.6259 53.8414 52.6644C54.0572 52.7029 54.2797 52.6671 54.4724 52.5626C55.3861 52.0798 56.2395 51.4907 57.0149 50.8076C57.0149 50.8076 57.0899 50.7326 57.1274 50.6951C57.7318 50.2328 58.3055 49.7318 58.8449 49.1951C59.0678 48.9603 59.2734 48.7097 59.4599 48.4451C59.2649 48.0476 59.0849 47.6276 58.9274 47.2076C58.7924 46.9601 58.6724 46.6901 58.5674 46.4126Z" fill="black"/>
</g>
<g opacity="0.13">
<path d="M64.5148 32.5308C64.1698 33.8658 63.7823 35.1908 63.3523 36.5058C63.1498 37.1133 62.9548 37.7283 62.7598 38.3358C62.8724 38.4862 63.0281 38.599 63.2062 38.6593C63.3842 38.7195 63.5764 38.7244 63.7573 38.6733H63.8098C63.8933 38.7827 64.0053 38.867 64.1335 38.9171C64.2618 38.9671 64.4013 38.9808 64.5368 38.9568C64.6724 38.9328 64.7987 38.8719 64.902 38.7809C65.0052 38.6899 65.0815 38.5722 65.1223 38.4408C65.1973 38.1483 65.3173 37.8633 65.4223 37.5708C65.4865 37.5405 65.5469 37.5027 65.6023 37.4583C65.932 37.1255 66.1496 36.6981 66.2248 36.2358C66.4343 35.3779 66.555 34.5008 66.5848 33.6183C66.5848 33.5658 66.5848 33.5133 66.5848 33.4608C65.8948 33.1608 65.2048 32.8533 64.5148 32.5308Z" fill="black"/>
</g>
<path d="M43.6043 56.8978C41.4788 56.7349 39.365 56.4444 37.2743 56.0278C37.2097 56.0167 37.1521 55.9806 37.1141 55.9271C37.0762 55.8737 37.061 55.8074 37.0718 55.7427C37.2783 54.2185 37.0167 52.6675 36.3218 51.2953C36.1015 50.7771 35.7672 50.3152 35.344 49.9439C34.9207 49.5725 34.4193 49.3013 33.8768 49.1503C32.8803 48.8539 31.8306 48.7809 30.8026 48.9364C29.7746 49.092 28.7936 49.4723 27.9293 50.0503C27.8735 50.0877 27.8052 50.1017 27.7392 50.089C27.6732 50.0764 27.6148 50.0382 27.5768 49.9828C26.4068 48.2203 25.2443 46.3977 24.0218 44.4177C23.9902 44.3648 23.9789 44.3022 23.9899 44.2415C24.001 44.1808 24.0336 44.1262 24.0818 44.0878C25.0715 43.3341 25.8662 42.3542 26.3993 41.2302C26.657 40.6804 26.8018 40.0845 26.825 39.4777C26.8482 38.8709 26.7493 38.2656 26.5343 37.6978C26.0699 36.7116 25.3026 35.8997 24.3443 35.3803C23.4637 34.9107 22.5424 34.5216 21.5918 34.2178L21.1643 34.0678C21.113 34.0511 21.0688 34.0176 21.0389 33.9726C21.0089 33.9277 20.995 33.8741 20.9993 33.8203C21.0388 31.7745 21.2445 29.7352 21.6143 27.7227C21.6245 27.6657 21.6538 27.6138 21.6974 27.5756C21.7411 27.5374 21.7964 27.5153 21.8543 27.5127C23.1743 27.4809 24.4707 27.1555 25.6493 26.5603C26.2213 26.2676 26.7261 25.8591 27.1316 25.3607C27.5371 24.8623 27.8343 24.2849 28.0043 23.6653C28.1947 22.416 28.0148 21.1383 27.4868 19.9902C27.3223 19.3931 26.9666 18.8662 26.4743 18.4902C26.4423 18.4681 26.4155 18.4391 26.3961 18.4054C26.3766 18.3717 26.3649 18.3341 26.3618 18.2952C26.3589 18.2556 26.3655 18.2158 26.3811 18.1792C26.3968 18.1427 26.4211 18.1104 26.4518 18.0852C27.6887 16.9896 28.9911 15.9702 30.3518 15.0327C30.3985 14.995 30.4568 14.9744 30.5168 14.9744C30.5769 14.9744 30.6351 14.995 30.6818 15.0327C31.4487 15.6904 32.3937 16.1054 33.3968 16.2253C34.0083 16.3821 34.6339 16.4776 35.2643 16.5103C36.7863 16.5403 38.2593 15.9721 39.3668 14.9277C40.4986 13.8434 41.2508 12.4232 41.5118 10.8777C41.5449 10.8296 41.5931 10.7939 41.6488 10.7762C41.7045 10.7585 41.7645 10.76 41.8193 10.7803L47.1143 11.1702C47.2152 11.1813 47.3104 11.2222 47.3879 11.2876C47.4654 11.3531 47.5216 11.4402 47.5493 11.5378C47.5493 11.5378 47.5493 11.5378 47.5493 11.5903C47.7072 13.2186 48.3033 14.7737 49.2743 16.0903C49.7563 16.7343 50.3826 17.2565 51.1029 17.6146C51.8232 17.9728 52.6174 18.1571 53.4218 18.1528C55.1168 18.0628 56.6393 16.9378 58.1093 15.8503C58.1624 15.8104 58.2289 15.7928 58.2947 15.8012C58.3605 15.8096 58.4205 15.8434 58.4618 15.8953C59.7788 17.56 61.008 19.2923 62.1443 21.0852C62.1767 21.1374 62.1893 21.1994 62.1796 21.26C62.17 21.3207 62.1388 21.3758 62.0918 21.4153C60.8086 22.4475 59.8675 23.8436 59.3918 25.4202C59.1709 26.1961 59.1318 27.0124 59.2775 27.8059C59.4232 28.5993 59.7497 29.3485 60.2318 29.9953C60.9975 30.8788 62.0115 31.5113 63.1418 31.8103C64.3229 32.1281 65.535 32.3168 66.7568 32.3728C66.7937 32.376 66.8295 32.3871 66.8618 32.4052C66.8941 32.4233 66.9222 32.448 66.9443 32.4778C66.9849 32.5369 67.0011 32.6095 66.9893 32.6802C66.5693 34.6752 66.0593 36.6778 65.4368 38.8078C65.4199 38.8651 65.3839 38.9149 65.3348 38.949C65.2857 38.9831 65.2264 38.9994 65.1668 38.9953C63.4482 38.7699 61.7038 39.132 60.2168 40.0227C59.498 40.4686 58.9019 41.0871 58.4827 41.8219C58.0636 42.5566 57.8347 43.3845 57.8168 44.2302C57.8543 45.8427 58.8143 47.3353 59.7443 48.7753V48.8277C59.7776 48.879 59.7914 48.9405 59.7832 49.0011C59.7749 49.0617 59.7451 49.1173 59.6993 49.1577C57.8993 50.7027 55.9943 52.0827 54.2018 53.3502C54.1484 53.387 54.083 53.402 54.0189 53.3923C53.9549 53.3825 53.8969 53.3487 53.8568 53.2978C53.3012 52.5101 52.6284 51.812 51.8618 51.2277C51.0216 50.6967 50.0447 50.4224 49.0509 50.4384C48.0571 50.4543 47.0895 50.76 46.2668 51.3178C45.4525 51.9283 44.8052 52.7341 44.3844 53.6609C43.9636 54.5876 43.783 55.6053 43.8593 56.6202C43.859 56.6959 43.8295 56.7685 43.7768 56.8228C43.7314 56.8695 43.6694 56.8964 43.6043 56.8978ZM37.6043 55.5777C39.5064 55.9428 41.4266 56.2057 43.3568 56.3652C43.3267 55.3094 43.5516 54.2618 44.0125 53.3113C44.4733 52.3608 45.1566 51.5355 46.0043 50.9053C46.9075 50.2815 47.9756 49.9399 49.0731 49.9239C50.1707 49.9079 51.2483 50.2181 52.1693 50.8153C52.9237 51.369 53.5846 52.04 54.1268 52.8027C55.7993 51.6177 57.5543 50.3353 59.2193 48.9253C58.2818 47.4253 57.3368 45.9252 57.2993 44.2527C57.3148 43.3195 57.5638 42.4049 58.0237 41.5927C58.4835 40.7804 59.1396 40.0963 59.9318 39.6027C61.4489 38.6789 63.2282 38.2809 64.9943 38.4702C65.5568 36.5277 66.0293 34.7202 66.4193 32.8677C65.2578 32.8006 64.1065 32.612 62.9843 32.3052C61.7579 31.9749 60.6583 31.2854 59.8268 30.3252C59.2923 29.6174 58.9294 28.7951 58.7667 27.9231C58.604 27.0511 58.646 26.1533 58.8893 25.3003C59.3692 23.692 60.3075 22.2586 61.5893 21.1753C60.6293 19.6753 59.5193 18.1078 58.2068 16.4128C56.7068 17.5003 55.2068 18.5803 53.4368 18.6628C52.5528 18.6698 51.6793 18.4699 50.8863 18.0793C50.0932 17.6886 49.4025 17.1179 48.8693 16.4128C47.8369 15.0216 47.2042 13.3748 47.0393 11.6503L41.9918 11.2753C41.6821 12.8418 40.8963 14.2745 39.7418 15.3777C38.5267 16.5209 36.9095 17.1381 35.2418 17.0952C34.5813 17.0618 33.9257 16.9638 33.2843 16.8027C32.2555 16.6613 31.2825 16.2498 30.4643 15.6103C29.2645 16.442 28.1126 17.3409 27.0143 18.3027C27.446 18.7176 27.7681 19.233 27.9518 19.8027C28.5248 21.0467 28.7128 22.4336 28.4918 23.7852C28.3061 24.4743 27.9778 25.1167 27.5283 25.671C27.0787 26.2252 26.5178 26.6789 25.8818 27.0027C24.6994 27.6094 23.3996 27.9522 22.0718 28.0078C21.7423 29.871 21.5518 31.7562 21.5018 33.6477L21.7568 33.7378C22.7396 34.0485 23.6912 34.4503 24.5993 34.9377C25.653 35.5142 26.4941 36.4132 26.9993 37.5027C27.241 38.1337 27.353 38.807 27.3285 39.4823C27.304 40.1575 27.1436 40.8209 26.8568 41.4328C26.332 42.568 25.5486 43.5646 24.5693 44.3428C25.6943 46.1652 26.7743 47.8527 27.8543 49.4878C28.7646 48.9174 29.7868 48.5492 30.8517 48.4082C31.9167 48.2672 32.9994 48.3565 34.0268 48.6703C34.5694 48.8241 35.0782 49.0785 35.5268 49.4203C36.0604 49.8704 36.4903 50.4308 36.7868 51.0628C37.4811 52.4598 37.7571 54.0276 37.5818 55.5777H37.6043Z" fill="black"/>
<path d="M43.3645 38.2451C42.5915 38.2322 41.8338 38.0274 41.1596 37.649C40.4854 37.2707 39.9158 36.7307 39.502 36.0776C39.0533 35.3242 38.7853 34.477 38.7189 33.6026C38.6526 32.7281 38.7896 31.8502 39.1195 31.0376C39.5398 29.9318 40.3017 28.9886 41.2945 28.3451C41.7992 28.0271 42.3628 27.8141 42.9517 27.7187C43.5406 27.6234 44.1427 27.6476 44.722 27.7901C45.831 28.0258 46.8321 28.6185 47.572 29.4776C48.3279 30.4976 48.7213 31.741 48.6894 33.0101C48.7138 33.8192 48.5195 34.6198 48.1269 35.3276C47.8075 35.8345 47.4043 36.2834 46.9345 36.6551C46.121 37.4092 45.1177 37.9278 44.032 38.1551C43.8124 38.2041 43.5891 38.2342 43.3645 38.2451ZM43.687 28.1651C42.936 28.1682 42.2008 28.3813 41.5644 28.7801C40.6625 29.3634 39.9713 30.2203 39.592 31.2251C39.2916 31.9621 39.1658 32.7585 39.2243 33.5522C39.2829 34.3459 39.5242 35.1152 39.9295 35.8001C40.346 36.4692 40.9471 37.0036 41.6603 37.3389C42.3735 37.6742 43.1685 37.7962 43.9495 37.6901C44.9469 37.4637 45.8644 36.9712 46.6045 36.2651C47.03 35.9301 47.3975 35.5272 47.692 35.0726C48.0354 34.4409 48.2036 33.7288 48.1795 33.0101C48.2113 31.8546 47.8549 30.7217 47.167 29.7926C46.4934 29.0249 45.5874 28.4982 44.587 28.2926C44.2944 28.2083 43.9914 28.1653 43.687 28.1651Z" fill="black"/>
<path d="M43.6954 42.5726C41.9713 42.5484 40.2864 42.0545 38.8221 41.1439C37.3578 40.2334 36.1696 38.9407 35.3854 37.4051C34.6898 36.0089 34.3393 34.4662 34.3635 32.9065C34.3876 31.3468 34.7856 29.8156 35.524 28.4416C36.2625 27.0676 37.3198 25.8908 38.6073 25.0101C39.8947 24.1293 41.3746 23.5704 42.9229 23.3801C45.7879 23.0126 49.2604 24.6176 51.1729 27.1976C52.1607 28.5532 52.775 30.1446 52.954 31.8124C53.133 33.4802 52.8706 35.1657 52.1929 36.7001C51.4409 38.3234 50.2838 39.7259 48.8329 40.7726C48.0019 41.3962 47.0747 41.8801 46.0879 42.2051C45.3142 42.4505 44.5071 42.5745 43.6954 42.5726ZM42.9454 23.8826C41.4829 24.0731 40.0869 24.6096 38.8731 25.4475C37.6594 26.2854 36.6629 27.4006 35.9663 28.7007C35.2697 30.0007 34.8931 31.448 34.8678 32.9227C34.8424 34.3974 35.169 35.8568 35.8204 37.1801C37.6429 40.8851 42.1654 42.9176 45.9079 41.7251C46.8423 41.4145 47.721 40.9562 48.5104 40.3676C49.8911 39.3713 50.9915 38.0358 51.7054 36.4901C52.337 35.0345 52.5799 33.4399 52.4103 31.8623C52.2407 30.2847 51.6644 28.7781 50.7379 27.4901C48.9529 25.0301 45.6829 23.5301 42.9829 23.8826H42.9454Z" fill="black"/>
<rect x="32.25" y="22" width="21.75" height="21.75" rx="10.875" fill="#FFD803"/>
<g clip-path="url(#clip2_1009_32912)">
<path d="M37.8962 28.2833C37.8847 28.2723 37.8755 28.2589 37.8693 28.2441C37.8631 28.2292 37.86 28.2132 37.8602 28.1971C37.7859 27.8543 37.8283 27.2076 38.7194 27.2981C38.7584 27.3038 38.7963 27.3154 38.8318 27.3326L40.3784 28.9063L44.8209 33.4334L45.6823 34.3108C45.6823 34.3108 47.0061 35.85 47.859 37.0055C49.344 38.9241 48.4678 38.4477 47.3116 37.497C47.3986 37.6285 44.63 35.1257 44.63 35.1257L43.8896 34.3733L39.4449 29.8462L37.8962 28.2833Z" fill="#1A1A1A"/>
<path d="M38.831 38.3959C38.8202 38.4077 38.807 38.417 38.7924 38.4233C38.7778 38.4296 38.762 38.4328 38.7462 38.4326C38.4088 38.508 37.7724 38.4649 37.8615 37.5595C37.8671 37.5199 37.8785 37.4814 37.8954 37.4453L39.4442 35.8737L43.8994 31.3596L44.7628 30.4844C44.7628 30.4844 46.2776 29.1392 47.4148 28.2726C49.3029 26.7635 48.8341 27.6539 47.8985 28.8287C48.0279 28.7404 45.5648 31.5536 45.5648 31.5536L44.8244 32.306L40.3798 36.833L38.831 38.3959Z" fill="#1A1A1A"/>
</g>
</g>
<defs>
<clipPath id="clip0_1009_32912">
<rect width="122.25" height="72.75" fill="white" transform="translate(0.75 31.0674) rotate(-14.2806)"/>
</clipPath>
<clipPath id="clip1_1009_32912">
<rect width="45.9675" height="46.155" fill="white" transform="translate(21 10.75)"/>
</clipPath>
<clipPath id="clip2_1009_32912">
<rect width="10.875" height="11.1689" fill="white" transform="translate(37.834 27.2903)"/>
</clipPath>
</defs>
</svg>
