<svg width="82" height="94" viewBox="0 0 82 94" fill="none" xmlns="http://www.w3.org/2000/svg">
<g clip-path="url(#clip0_1009_32911)">
<path d="M50.2638 93.1684C48.0172 92.0655 45.8537 90.8006 43.7904 89.3837C43.7164 89.3376 43.6527 89.2766 43.6032 89.2048C43.5537 89.1329 43.5195 89.0516 43.5028 88.966C43.486 88.8803 43.4871 88.792 43.5059 88.7067C43.5246 88.6214 43.5607 88.5409 43.6119 88.4701C43.7121 88.3286 43.8627 88.2311 44.0325 88.1977C44.2024 88.1642 44.3786 88.1974 44.5246 88.2904C46.5475 89.6741 48.6658 90.9128 50.8636 91.9973C51.0148 92.0773 51.1287 92.2133 51.1809 92.3763C51.2331 92.5394 51.2196 92.7165 51.1431 92.8698C51.1071 92.9491 51.0552 93.0202 50.9907 93.0787C50.9261 93.1372 50.8503 93.1818 50.7679 93.2098C50.6855 93.2378 50.5982 93.2486 50.5115 93.2415C50.4248 93.2343 50.3405 93.2095 50.2638 93.1684ZM38.6446 85.427L38.4672 85.352C36.5728 83.7243 34.7815 81.9803 33.1034 80.1299C32.9856 79.9981 32.9243 79.8253 32.9325 79.6485C32.9407 79.4718 33.0179 79.3053 33.1475 79.1848C33.2811 79.0712 33.4535 79.014 33.6282 79.0253C33.803 79.0367 33.9665 79.1156 34.084 79.2455C35.7159 81.073 37.4599 82.797 39.3057 84.4076C39.3716 84.4616 39.4259 84.5284 39.4655 84.604C39.505 84.6795 39.529 84.7622 39.536 84.8473C39.543 84.9323 39.5328 85.0179 39.5061 85.0989C39.4794 85.18 39.4366 85.2549 39.3805 85.3191C39.2831 85.4096 39.1606 85.4684 39.0292 85.4877C38.8977 85.5069 38.7636 85.4858 38.6446 85.427ZM29.2789 75.0767C29.1642 75.0329 29.0657 74.9547 28.9971 74.8528C27.5514 72.807 26.2318 70.6747 25.0454 68.4679C24.9902 68.3063 24.9965 68.13 25.0631 67.9726C25.1296 67.8152 25.2518 67.6878 25.4061 67.6147C25.4823 67.5738 25.5658 67.5483 25.6518 67.5397C25.7379 67.5312 25.8247 67.5398 25.9074 67.565C25.99 67.5902 26.0669 67.6315 26.1335 67.6866C26.2001 67.7417 26.2551 67.8095 26.2954 67.886C27.4455 70.0541 28.734 72.1455 30.153 74.1473C30.2032 74.2159 30.2392 74.2938 30.2589 74.3765C30.2786 74.4592 30.2815 74.5451 30.2674 74.629C30.2534 74.7129 30.2227 74.7931 30.1772 74.865C30.1317 74.9369 30.0722 74.9989 30.0024 75.0475C29.9002 75.1281 29.7752 75.1744 29.6453 75.1796C29.5153 75.1849 29.3871 75.1488 29.2789 75.0767ZM22.6251 62.8143C22.4661 62.7388 22.3429 62.604 22.2819 62.4387C21.3706 60.0836 20.6239 57.6677 20.0472 55.2085C20.0244 55.1248 20.0184 55.0374 20.0296 54.9513C20.0407 54.8652 20.0689 54.7821 20.1123 54.7069C20.1558 54.6318 20.2137 54.566 20.2827 54.5134C20.3517 54.4608 20.4305 54.4223 20.5144 54.4004C20.6845 54.3621 20.8626 54.3912 21.0116 54.4815C21.1606 54.5718 21.2688 54.7164 21.3135 54.8849C21.8886 57.2727 22.6308 59.6169 23.5346 61.9C23.5994 62.0609 23.5979 62.241 23.5302 62.4009C23.4626 62.5608 23.3345 62.6874 23.1739 62.753C23.0919 62.8014 23.0006 62.8319 22.906 62.8425C22.8114 62.8531 22.7157 62.8435 22.6251 62.8143ZM19.268 49.2851C19.1597 49.2413 19.065 49.1694 18.9939 49.0767C18.9228 48.984 18.8777 48.8739 18.8634 48.7578C18.5693 46.2647 18.4428 43.7544 18.4847 41.2439C18.4844 41.1574 18.5016 41.0716 18.5354 40.9919C18.5692 40.9122 18.6189 40.8403 18.6814 40.7804C18.7439 40.7206 18.8179 40.6741 18.8989 40.6438C18.9799 40.6136 19.0662 40.6002 19.1526 40.6044C19.3237 40.6067 19.4872 40.676 19.6078 40.7975C19.7284 40.919 19.7967 41.083 19.798 41.2544C19.7427 43.7046 19.8597 46.1554 20.1481 48.5887C20.1605 48.6749 20.1557 48.7627 20.1339 48.8471C20.1121 48.9314 20.0737 49.0106 20.021 49.08C19.9683 49.1494 19.9023 49.2076 19.8269 49.2512C19.7515 49.2948 19.6683 49.323 19.5819 49.334C19.4749 49.343 19.3672 49.3262 19.268 49.2851ZM19.3805 35.3164C19.252 35.2585 19.1457 35.1606 19.0772 35.0373C19.0088 34.914 18.9819 34.7718 19.0006 34.6319C19.3248 32.1413 19.8156 29.675 20.4697 27.2497C20.4897 27.1673 20.526 27.0897 20.5764 27.0214C20.6268 26.9532 20.6903 26.8957 20.7632 26.8523C20.8361 26.809 20.9169 26.7806 21.0009 26.769C21.0848 26.7573 21.1702 26.7626 21.2521 26.7844C21.3367 26.8054 21.4163 26.8431 21.4862 26.8953C21.5561 26.9475 21.6148 27.0132 21.6589 27.0884C21.7031 27.1637 21.7318 27.2471 21.7433 27.3336C21.7549 27.4202 21.749 27.5082 21.7261 27.5925C21.1031 29.964 20.6232 32.3708 20.2892 34.7997C20.2685 34.9715 20.1808 35.1282 20.0452 35.2357C19.9097 35.3432 19.7372 35.3927 19.5655 35.3736L19.3805 35.3164ZM22.8628 21.7878C22.709 21.7177 22.587 21.5924 22.5212 21.4365C22.4554 21.2806 22.4505 21.1056 22.5075 20.9462C22.733 20.413 22.9509 19.8975 23.1764 19.3643C23.9279 17.587 24.6794 15.8096 25.6971 14.1448C25.7815 13.9951 25.9212 13.8844 26.0861 13.8366C26.2511 13.7888 26.4281 13.8077 26.5791 13.8892C26.6575 13.9274 26.7272 13.9814 26.7839 14.0477C26.8406 14.1141 26.883 14.1914 26.9085 14.2749C26.934 14.3584 26.9421 14.4463 26.9322 14.5331C26.9223 14.6198 26.8947 14.7037 26.8511 14.7794C25.9394 16.4405 25.1131 18.147 24.3755 19.8923C24.1575 20.4077 23.9396 20.9231 23.7216 21.4386C23.6905 21.5189 23.6438 21.5924 23.5842 21.6547C23.5247 21.717 23.4535 21.767 23.3747 21.8018C23.2959 21.8365 23.211 21.8554 23.1249 21.8574C23.0389 21.8593 22.9533 21.8443 22.873 21.8131L22.8628 21.7878ZM29.4702 9.47583L29.346 9.42331C29.206 9.3192 29.1119 9.16481 29.0833 8.99256C29.0547 8.82031 29.094 8.64359 29.1927 8.49952C30.6454 6.45472 32.2304 4.50735 33.9375 2.67002C33.9968 2.60676 34.0681 2.5559 34.1471 2.52034C34.2262 2.48479 34.3114 2.46529 34.398 2.46293C34.4846 2.46058 34.5708 2.47544 34.6515 2.50664C34.7323 2.53785 34.8061 2.58476 34.8686 2.64471C34.9319 2.70183 34.983 2.77112 35.019 2.84846C35.0549 2.9258 35.075 3.00959 35.078 3.09489C35.0809 3.18018 35.0667 3.26526 35.0362 3.34499C35.0057 3.42472 34.9595 3.49749 34.9003 3.55902C33.2289 5.35493 31.6815 7.26261 30.2689 9.26879C30.1714 9.3877 30.0363 9.46977 29.886 9.50145C29.7357 9.53314 29.5791 9.51253 29.4422 9.44303L29.4702 9.47583Z" fill="black"/>
</g>
<g clip-path="url(#clip1_1009_32911)">
<path d="M21.8244 40.1423C18.9966 41.0561 16.6384 43.04 15.2544 45.6698C14.5836 46.9803 14.2339 48.4314 14.2339 49.9036C14.2339 51.3757 14.5836 52.8268 15.2544 54.1373C17.2794 57.8873 22.3269 59.5748 26.3169 58.0523C28.4771 57.1627 30.246 55.5271 31.3018 53.4431C32.3576 51.3591 32.63 48.9653 32.0694 46.6973C30.7644 42.2198 25.6419 38.8673 21.8244 40.1423ZM27.0744 51.8873C26.6173 52.8455 25.8512 53.6221 24.8994 54.0923C23.9292 54.5408 22.8275 54.6151 21.8059 54.3008C20.7843 53.9866 19.9148 53.306 19.3644 52.3898C18.7823 51.4343 18.4928 50.3292 18.5314 49.211C18.5701 48.0928 18.9352 47.0104 19.5819 46.0973C19.8615 45.6338 20.2325 45.232 20.6721 44.9161C21.1117 44.6003 21.6109 44.377 22.1394 44.2598C22.6378 44.1492 23.1546 44.1503 23.6525 44.2631C24.1505 44.376 24.6173 44.5977 25.0194 44.9123C25.5517 44.9959 26.0518 45.2213 26.4669 45.5648C27.2329 46.3771 27.6641 47.4484 27.6744 48.5648C27.7413 49.7007 27.549 50.8368 27.1119 51.8873H27.0744Z" fill="white"/>
<path d="M42.7879 48.5648C41.6239 48.2393 40.5808 47.5796 39.7879 46.6673C39.2787 45.9905 38.9337 45.2046 38.7801 44.3716C38.6265 43.5386 38.6685 42.6813 38.9029 41.8673C39.3876 40.2364 40.3584 38.7922 41.6854 37.7274C40.5394 35.9331 39.3028 34.1984 37.9804 32.5299C36.4129 33.6924 34.8979 34.7799 33.1579 34.8849C32.3123 34.8901 31.4772 34.6975 30.7193 34.3225C29.9614 33.9474 29.3017 33.4003 28.7929 32.7249C27.7926 31.361 27.1809 29.7513 27.0229 28.0674C26.9629 27.9024 26.8729 27.8724 26.8129 27.8649L21.5179 27.4749C21.2341 29.0744 20.4456 30.541 19.2679 31.6598C18.1085 32.7445 16.5729 33.3362 14.9854 33.3099C14.3404 33.2749 13.7001 33.1795 13.0729 33.0249C12.0171 32.8933 11.0247 32.4493 10.2229 31.7499C8.87147 32.6713 7.57665 33.6731 6.34543 34.7499C6.87575 35.1397 7.26316 35.6931 7.44793 36.3248C8.00388 37.5206 8.18933 38.8553 7.98042 40.1573C7.79983 40.8109 7.48608 41.4201 7.05888 41.9467C6.63167 42.4733 6.10025 42.9059 5.49792 43.2174C4.28498 43.8249 2.95395 44.1602 1.59792 44.1998C1.22687 46.1995 1.02117 48.2264 0.98291 50.2598C2.09566 50.6076 3.17499 51.0543 4.20792 51.5948C5.2141 52.1408 6.01854 52.9951 6.50292 54.0323C6.73098 54.6352 6.83586 55.2777 6.81139 55.9218C6.78691 56.5659 6.63357 57.1985 6.36042 57.7823C5.81164 58.9451 4.99102 59.9586 3.96792 60.7374C5.17542 62.6874 6.33043 64.4873 7.51543 66.2873C8.41054 65.6866 9.42763 65.2916 10.4936 65.1308C11.5596 64.97 12.6479 65.0474 13.6804 65.3574C14.188 65.5061 14.6635 65.7476 15.0829 66.0699C15.588 66.4981 15.9947 67.0302 16.2754 67.6299C16.9888 69.0499 17.2505 70.6542 17.0254 72.2273C19.109 72.6394 21.2152 72.9274 23.3329 73.0899C23.2516 72.0306 23.4401 70.968 23.8808 70.0014C24.3214 69.0348 25 68.1956 25.8529 67.5624C26.7159 66.9716 27.7337 66.6481 28.7794 66.6321C29.825 66.616 30.8523 66.9083 31.7329 67.4723C32.5224 68.0707 33.2154 68.7865 33.7879 69.5948C35.6629 68.2673 37.5379 66.9099 39.2629 65.4249C38.2879 63.9249 37.2979 62.4249 37.2604 60.6924C37.2775 59.802 37.5171 58.9301 37.9572 58.1559C38.3973 57.3818 39.0241 56.73 39.7804 56.2598C41.3136 55.3376 43.114 54.9622 44.8879 55.1949C45.4954 53.1324 46.0054 51.1148 46.4329 49.0823C45.2034 49.0359 43.9818 48.8625 42.7879 48.5648ZM31.7104 53.0648C30.9778 54.6496 29.849 56.0186 28.4329 57.0399C27.6223 57.6475 26.7179 58.1187 25.7554 58.4349C21.8179 59.6949 17.1904 57.4748 15.3604 53.7623C14.692 52.4014 14.3578 50.9007 14.3856 49.3848C14.4135 47.8688 14.8025 46.3814 15.5205 45.0459C16.2384 43.7105 17.2646 42.5656 18.5137 41.7062C19.7629 40.8469 21.1991 40.2979 22.7029 40.1048C25.3879 39.7598 28.7854 41.2073 30.7204 43.8548C31.6736 45.1764 32.2662 46.7235 32.4397 48.3437C32.6133 49.9639 32.362 51.6013 31.7104 53.0948V53.0648Z" fill="white"/>
<g opacity="0.13">
<path d="M34.1175 48.7894C34.0763 48.481 34.0162 48.1755 33.9375 47.8744L33.8325 47.6644C33.2751 46.5628 32.612 45.5179 31.8526 44.5444C31.7294 44.6371 31.6377 44.7654 31.59 44.9119C31.515 45.4369 31.92 45.9169 32.0475 46.4119C32.505 47.7844 32.7975 48.4444 32.6625 49.6969C32.4649 50.89 32.1198 52.054 31.635 53.1619C31.3391 53.746 30.9928 54.3031 30.6 54.8269C30.48 54.9694 30.4351 55.0369 30.4501 55.0444C30.2551 55.1944 30.0826 55.3969 29.8876 55.5544L28.6576 56.6044C28.5097 56.7123 28.3694 56.83 28.2376 56.9569C28.3051 56.8594 28.1251 57.0319 27.9601 57.1744C27.7951 57.3169 27.4576 57.5194 27.2476 57.6244C26.0371 58.0571 24.7774 58.3367 23.4976 58.4569C22.5121 58.493 21.5272 58.3715 20.58 58.0969C20.0025 57.9244 19.4925 57.3469 18.87 57.4744C18.7456 57.5045 18.6317 57.5678 18.5405 57.6576C18.4494 57.7475 18.3844 57.8605 18.3525 57.9844L18.5326 58.1719L19.17 58.6969L21.4951 60.1969C22.8987 60.5853 24.3749 60.6316 25.8001 60.3319H25.7026C26.9419 60.1193 28.1362 59.6984 29.235 59.0869C30.3236 58.4109 31.2382 57.4886 31.9051 56.3944L31.965 56.2969C32.763 55.2888 33.3843 54.1527 33.8025 52.9369C34.1869 51.59 34.2941 50.179 34.1175 48.7894Z" fill="black"/>
</g>
<g opacity="0.13">
<path d="M38.3174 62.9126C38.1467 62.9192 37.9798 62.9654 37.8299 63.0476C37.621 63.1809 37.4484 63.3638 37.3274 63.5801C37.1941 63.7386 37.069 63.9039 36.9524 64.0751C36.5924 64.5798 36.1883 65.0517 35.745 65.4851C35.325 65.9351 34.665 66.2351 34.3875 66.7826L33.8999 67.0601C33.5924 67.2476 33.1949 67.3376 32.9774 67.6451C32.849 67.8228 32.7847 68.0388 32.795 68.2578C32.8054 68.4768 32.8899 68.6857 33.0345 68.8504C33.1792 69.0152 33.3755 69.1259 33.5914 69.1644C33.8072 69.2029 34.0297 69.1671 34.2224 69.0626C35.1361 68.5798 35.9895 67.9907 36.7649 67.3076C36.7649 67.3076 36.8399 67.2326 36.8774 67.1951C37.4818 66.7328 38.0555 66.2318 38.5949 65.6951C38.8178 65.4603 39.0234 65.2097 39.2099 64.9451C39.0149 64.5476 38.8349 64.1276 38.6774 63.7076C38.5424 63.4601 38.4224 63.1901 38.3174 62.9126Z" fill="black"/>
</g>
<g opacity="0.13">
<path d="M44.2648 49.0308C43.9198 50.3658 43.5323 51.6908 43.1023 53.0058C42.8998 53.6133 42.7048 54.2283 42.5098 54.8358C42.6224 54.9862 42.7781 55.099 42.9562 55.1593C43.1342 55.2195 43.3264 55.2244 43.5073 55.1733H43.5598C43.6433 55.2827 43.7553 55.367 43.8835 55.4171C44.0118 55.4671 44.1513 55.4808 44.2868 55.4568C44.4224 55.4328 44.5487 55.3719 44.652 55.2809C44.7552 55.1899 44.8315 55.0722 44.8723 54.9408C44.9473 54.6483 45.0673 54.3633 45.1723 54.0708C45.2365 54.0405 45.2969 54.0027 45.3523 53.9583C45.682 53.6255 45.8996 53.1981 45.9748 52.7358C46.1843 51.8779 46.305 51.0008 46.3348 50.1183C46.3348 50.0658 46.3348 50.0133 46.3348 49.9608C45.6448 49.6608 44.9548 49.3533 44.2648 49.0308Z" fill="black"/>
</g>
<path d="M23.3543 73.3978C21.2288 73.2349 19.115 72.9444 17.0243 72.5278C16.9597 72.5167 16.9021 72.4806 16.8641 72.4271C16.8262 72.3737 16.811 72.3074 16.8218 72.2427C17.0283 70.7185 16.7667 69.1675 16.0718 67.7953C15.8515 67.2771 15.5172 66.8152 15.094 66.4439C14.6707 66.0725 14.1693 65.8013 13.6268 65.6503C12.6303 65.3539 11.5806 65.2809 10.5526 65.4364C9.52462 65.592 8.54358 65.9723 7.67932 66.5503C7.62353 66.5877 7.55518 66.6017 7.48917 66.589C7.42316 66.5764 7.36483 66.5382 7.32682 66.4828C6.15682 64.7203 4.99431 62.8977 3.77181 60.9177C3.74022 60.8648 3.72889 60.8022 3.73993 60.7415C3.75096 60.6808 3.78361 60.6262 3.83182 60.5878C4.82153 59.8341 5.61622 58.8542 6.14932 57.7302C6.40704 57.1804 6.55178 56.5845 6.57497 55.9777C6.59816 55.3709 6.49932 54.7656 6.28431 54.1978C5.81989 53.2116 5.05261 52.3997 4.09433 51.8803C3.21369 51.4107 2.29244 51.0216 1.34182 50.7178L0.91431 50.5678C0.862984 50.5511 0.818799 50.5176 0.78886 50.4726C0.758922 50.4277 0.744977 50.3741 0.749309 50.3203C0.788838 48.2745 0.99452 46.2352 1.36431 44.2227C1.37449 44.1657 1.40382 44.1138 1.44744 44.0756C1.49107 44.0374 1.5464 44.0153 1.60432 44.0127C2.92434 43.9809 4.22069 43.6555 5.39932 43.0603C5.97133 42.7676 6.47615 42.3591 6.8816 41.8607C7.28706 41.3623 7.58426 40.7849 7.75431 40.1653C7.94468 38.916 7.76478 37.6383 7.23683 36.4902C7.07227 35.8931 6.71663 35.3662 6.22432 34.9902C6.19228 34.9681 6.16555 34.9391 6.14609 34.9054C6.12663 34.8717 6.11494 34.8341 6.11183 34.7952C6.10885 34.7556 6.11548 34.7158 6.13115 34.6792C6.14681 34.6427 6.17105 34.6104 6.20182 34.5852C7.43874 33.4896 8.74113 32.4702 10.1018 31.5327C10.1485 31.495 10.2068 31.4744 10.2668 31.4744C10.3269 31.4744 10.3851 31.495 10.4318 31.5327C11.1987 32.1904 12.1437 32.6054 13.1468 32.7253C13.7583 32.8821 14.3839 32.9776 15.0143 33.0103C16.5363 33.0403 18.0093 32.4721 19.1168 31.4277C20.2486 30.3434 21.0008 28.9232 21.2618 27.3777C21.2949 27.3296 21.3431 27.2939 21.3988 27.2762C21.4545 27.2585 21.5145 27.26 21.5693 27.2803L26.8643 27.6702C26.9652 27.6813 27.0604 27.7222 27.1379 27.7876C27.2154 27.8531 27.2716 27.9402 27.2993 28.0378C27.2993 28.0378 27.2993 28.0378 27.2993 28.0903C27.4572 29.7186 28.0533 31.2737 29.0243 32.5903C29.5063 33.2343 30.1326 33.7565 30.8529 34.1146C31.5732 34.4728 32.3674 34.6571 33.1718 34.6528C34.8668 34.5628 36.3893 33.4378 37.8593 32.3503C37.9124 32.3104 37.9789 32.2928 38.0447 32.3012C38.1105 32.3096 38.1705 32.3434 38.2118 32.3953C39.5288 34.06 40.758 35.7923 41.8943 37.5852C41.9267 37.6374 41.9393 37.6994 41.9296 37.76C41.92 37.8207 41.8888 37.8758 41.8418 37.9153C40.5586 38.9475 39.6175 40.3436 39.1418 41.9202C38.9209 42.6961 38.8818 43.5124 39.0275 44.3059C39.1732 45.0993 39.4997 45.8485 39.9818 46.4953C40.7475 47.3788 41.7615 48.0113 42.8918 48.3103C44.0729 48.6281 45.285 48.8168 46.5068 48.8728C46.5437 48.876 46.5795 48.8871 46.6118 48.9052C46.6441 48.9233 46.6722 48.948 46.6943 48.9778C46.7349 49.0369 46.7511 49.1095 46.7393 49.1802C46.3193 51.1752 45.8093 53.1778 45.1868 55.3078C45.1699 55.3651 45.1339 55.4149 45.0848 55.449C45.0357 55.4831 44.9764 55.4994 44.9168 55.4953C43.1982 55.2699 41.4538 55.632 39.9668 56.5227C39.248 56.9686 38.6519 57.5871 38.2327 58.3219C37.8136 59.0566 37.5847 59.8845 37.5668 60.7302C37.6043 62.3427 38.5643 63.8353 39.4943 65.2753V65.3277C39.5276 65.379 39.5414 65.4405 39.5332 65.5011C39.5249 65.5617 39.4951 65.6173 39.4493 65.6577C37.6493 67.2027 35.7443 68.5827 33.9518 69.8502C33.8984 69.887 33.833 69.902 33.7689 69.8923C33.7049 69.8825 33.6469 69.8487 33.6068 69.7978C33.0512 69.0101 32.3784 68.312 31.6118 67.7277C30.7716 67.1967 29.7947 66.9224 28.8009 66.9384C27.8071 66.9543 26.8395 67.26 26.0168 67.8178C25.2025 68.4283 24.5552 69.2341 24.1344 70.1609C23.7136 71.0876 23.533 72.1053 23.6093 73.1202C23.609 73.1959 23.5795 73.2685 23.5268 73.3228C23.4814 73.3695 23.4194 73.3964 23.3543 73.3978ZM17.3543 72.0777C19.2564 72.4428 21.1766 72.7057 23.1068 72.8652C23.0767 71.8094 23.3016 70.7618 23.7625 69.8113C24.2233 68.8608 24.9066 68.0355 25.7543 67.4053C26.6575 66.7815 27.7256 66.4399 28.8231 66.4239C29.9207 66.4079 30.9983 66.7181 31.9193 67.3153C32.6737 67.869 33.3346 68.54 33.8768 69.3027C35.5493 68.1177 37.3043 66.8353 38.9693 65.4253C38.0318 63.9253 37.0868 62.4252 37.0493 60.7527C37.0648 59.8195 37.3138 58.9049 37.7737 58.0927C38.2335 57.2804 38.8896 56.5963 39.6818 56.1027C41.1989 55.1789 42.9782 54.7809 44.7443 54.9702C45.3068 53.0277 45.7793 51.2202 46.1693 49.3677C45.0078 49.3006 43.8565 49.112 42.7343 48.8052C41.5079 48.4749 40.4083 47.7854 39.5768 46.8252C39.0423 46.1174 38.6794 45.2951 38.5167 44.4231C38.354 43.5511 38.396 42.6533 38.6393 41.8003C39.1192 40.192 40.0575 38.7586 41.3393 37.6753C40.3793 36.1753 39.2693 34.6078 37.9568 32.9128C36.4568 34.0003 34.9568 35.0803 33.1868 35.1628C32.3028 35.1698 31.4293 34.9699 30.6363 34.5793C29.8432 34.1886 29.1525 33.6179 28.6193 32.9128C27.5869 31.5216 26.9542 29.8748 26.7893 28.1503L21.7418 27.7753C21.4321 29.3418 20.6463 30.7745 19.4918 31.8777C18.2767 33.0209 16.6595 33.6381 14.9918 33.5952C14.3313 33.5618 13.6757 33.4638 13.0343 33.3027C12.0055 33.1613 11.0325 32.7498 10.2143 32.1103C9.01447 32.942 7.86265 33.8409 6.76432 34.8027C7.19597 35.2176 7.51808 35.733 7.70182 36.3027C8.27477 37.5467 8.46282 38.9336 8.24182 40.2852C8.05611 40.9743 7.72784 41.6167 7.27825 42.171C6.82867 42.7252 6.26776 43.1789 5.63182 43.5027C4.44945 44.1094 3.14956 44.4522 1.82183 44.5078C1.49231 46.371 1.30178 48.2562 1.25182 50.1477L1.50682 50.2378C2.48955 50.5485 3.44118 50.9503 4.34932 51.4377C5.40295 52.0142 6.24408 52.9132 6.74931 54.0027C6.99101 54.6337 7.10297 55.307 7.07849 55.9823C7.054 56.6575 6.89357 57.3209 6.60681 57.9328C6.08196 59.068 5.29855 60.0646 4.31932 60.8428C5.44432 62.6652 6.52432 64.3527 7.60432 65.9878C8.51462 65.4174 9.53682 65.0492 10.6017 64.9082C11.6667 64.7672 12.7494 64.8565 13.7768 65.1703C14.3194 65.3241 14.8282 65.5785 15.2768 65.9203C15.8104 66.3704 16.2403 66.9308 16.5368 67.5628C17.2311 68.9598 17.5071 70.5276 17.3318 72.0777H17.3543Z" fill="black"/>
<path d="M23.1145 54.7451C22.3415 54.7322 21.5838 54.5274 20.9096 54.149C20.2354 53.7707 19.6658 53.2307 19.252 52.5776C18.8033 51.8242 18.5353 50.977 18.4689 50.1026C18.4026 49.2281 18.5396 48.3502 18.8695 47.5376C19.2898 46.4318 20.0517 45.4886 21.0445 44.8451C21.5492 44.5271 22.1128 44.3141 22.7017 44.2187C23.2906 44.1234 23.8927 44.1476 24.472 44.2901C25.581 44.5258 26.5821 45.1185 27.322 45.9776C28.0779 46.9976 28.4713 48.241 28.4394 49.5101C28.4638 50.3192 28.2695 51.1198 27.8769 51.8276C27.5575 52.3345 27.1543 52.7834 26.6845 53.1551C25.871 53.9092 24.8677 54.4278 23.782 54.6551C23.5624 54.7041 23.3391 54.7342 23.1145 54.7451ZM23.437 44.6651C22.686 44.6682 21.9508 44.8813 21.3144 45.2801C20.4125 45.8634 19.7213 46.7203 19.342 47.7251C19.0416 48.4621 18.9158 49.2585 18.9743 50.0522C19.0329 50.8459 19.2742 51.6152 19.6795 52.3001C20.096 52.9692 20.6971 53.5036 21.4103 53.8389C22.1235 54.1742 22.9185 54.2962 23.6995 54.1901C24.6969 53.9637 25.6144 53.4712 26.3545 52.7651C26.78 52.4301 27.1475 52.0272 27.442 51.5726C27.7854 50.9409 27.9536 50.2288 27.9295 49.5101C27.9613 48.3546 27.6049 47.2217 26.917 46.2926C26.2434 45.5249 25.3374 44.9982 24.337 44.7926C24.0444 44.7083 23.7414 44.6653 23.437 44.6651Z" fill="black"/>
<path d="M23.4454 59.0726C21.7213 59.0484 20.0364 58.5545 18.5721 57.6439C17.1078 56.7334 15.9196 55.4407 15.1354 53.9051C14.4398 52.5089 14.0893 50.9662 14.1135 49.4065C14.1376 47.8468 14.5356 46.3156 15.274 44.9416C16.0125 43.5676 17.0698 42.3908 18.3573 41.5101C19.6447 40.6293 21.1246 40.0704 22.6729 39.8801C25.5379 39.5126 29.0104 41.1176 30.9229 43.6976C31.9107 45.0532 32.525 46.6446 32.704 48.3124C32.883 49.9802 32.6206 51.6657 31.9429 53.2001C31.1909 54.8234 30.0338 56.2259 28.5829 57.2726C27.7519 57.8962 26.8247 58.3801 25.8379 58.7051C25.0642 58.9505 24.2571 59.0745 23.4454 59.0726ZM22.6954 40.3826C21.2329 40.5731 19.8369 41.1096 18.6231 41.9475C17.4094 42.7854 16.4129 43.9006 15.7163 45.2007C15.0197 46.5007 14.6431 47.948 14.6178 49.4227C14.5924 50.8974 14.919 52.3568 15.5704 53.6801C17.3929 57.3851 21.9154 59.4176 25.6579 58.2251C26.5923 57.9145 27.471 57.4562 28.2604 56.8676C29.6411 55.8713 30.7415 54.5358 31.4554 52.9901C32.087 51.5345 32.3299 49.9399 32.1603 48.3623C31.9907 46.7847 31.4144 45.2781 30.4879 43.9901C28.7029 41.5301 25.4329 40.0301 22.7329 40.3826H22.6954Z" fill="black"/>
<path d="M42.7879 48.5648C41.6239 48.2393 40.5808 47.5796 39.7879 46.6673C39.2787 45.9905 38.9337 45.2046 38.7801 44.3716C38.6265 43.5386 38.6685 42.6813 38.9029 41.8673C39.3876 40.2364 40.3584 38.7922 41.6854 37.7274C40.5394 35.9331 39.3028 34.1984 37.9804 32.5299C36.4129 33.6924 34.8979 34.7799 33.1579 34.8849C32.3123 34.8901 31.4772 34.6975 30.7193 34.3225C29.9614 33.9474 29.3017 33.4003 28.7929 32.7249C27.7926 31.361 27.1809 29.7513 27.0229 28.0674C26.9629 27.9024 26.8729 27.8724 26.8129 27.8649L21.5179 27.4749C21.2341 29.0744 20.4456 30.541 19.2679 31.6598C18.1085 32.7445 16.5729 33.3362 14.9854 33.3099C14.3404 33.2749 13.7001 33.1795 13.0729 33.0249C12.0171 32.8933 11.0247 32.4493 10.2229 31.7499C8.87147 32.6713 7.57665 33.6731 6.34543 34.7499C6.87575 35.1397 7.26316 35.6931 7.44793 36.3248C8.00388 37.5206 8.18933 38.8553 7.98042 40.1573C7.79983 40.8109 7.48608 41.4201 7.05888 41.9467C6.63167 42.4733 6.10025 42.9059 5.49792 43.2174C4.28498 43.8249 2.95395 44.1602 1.59792 44.1998C1.22687 46.1995 1.02117 48.2264 0.98291 50.2598C2.09566 50.6076 3.17499 51.0543 4.20792 51.5948C5.2141 52.1408 6.01854 52.9951 6.50292 54.0323C6.73098 54.6352 6.83586 55.2777 6.81139 55.9218C6.78691 56.5659 6.63357 57.1985 6.36042 57.7823C5.81164 58.9451 4.99102 59.9586 3.96792 60.7374C5.17542 62.6874 6.33043 64.4873 7.51543 66.2873C8.41054 65.6866 9.42763 65.2916 10.4936 65.1308C11.5596 64.97 12.6479 65.0474 13.6804 65.3574C14.188 65.5061 14.6635 65.7476 15.0829 66.0699C15.588 66.4981 15.9947 67.0302 16.2754 67.6299C16.9888 69.0499 17.2505 70.6542 17.0254 72.2273C19.109 72.6394 21.2152 72.9274 23.3329 73.0899C23.2516 72.0306 23.4401 70.968 23.8808 70.0014C24.3214 69.0348 25 68.1956 25.8529 67.5624C26.7159 66.9716 27.7337 66.6481 28.7794 66.6321C29.825 66.616 30.8523 66.9083 31.7329 67.4723C32.5224 68.0707 33.2154 68.7865 33.7879 69.5948C35.6629 68.2673 37.5379 66.9099 39.2629 65.4249C38.2879 63.9249 37.2979 62.4249 37.2604 60.6924C37.2775 59.802 37.5171 58.9301 37.9572 58.1559C38.3973 57.3818 39.0241 56.73 39.7804 56.2598C41.3136 55.3376 43.114 54.9622 44.8879 55.1949C45.4954 53.1324 46.0054 51.1148 46.4329 49.0823C45.2034 49.0359 43.9818 48.8625 42.7879 48.5648ZM31.7104 53.0648C30.9778 54.6496 29.849 56.0186 28.4329 57.0399C27.6223 57.6475 26.7179 58.1187 25.7554 58.4349C21.8179 59.6949 17.1904 57.4748 15.3604 53.7623C14.692 52.4014 14.3578 50.9007 14.3856 49.3848C14.4135 47.8688 14.8025 46.3814 15.5205 45.0459C16.2384 43.7105 17.2646 42.5656 18.5137 41.7062C19.7629 40.8469 21.1991 40.2979 22.7029 40.1048C25.3879 39.7598 28.7854 41.2073 30.7204 43.8548C31.6736 45.1764 32.2662 46.7235 32.4397 48.3437C32.6133 49.9639 32.362 51.6013 31.7104 53.0948V53.0648Z" fill="white"/>
<g opacity="0.13">
<path d="M34.1175 48.7894C34.0763 48.481 34.0162 48.1755 33.9375 47.8744L33.8325 47.6644C33.2751 46.5628 32.612 45.5179 31.8526 44.5444C31.7294 44.6371 31.6377 44.7654 31.59 44.9119C31.515 45.4369 31.92 45.9169 32.0475 46.4119C32.505 47.7844 32.7975 48.4444 32.6625 49.6969C32.4649 50.89 32.1198 52.054 31.635 53.1619C31.3391 53.746 30.9928 54.3031 30.6 54.8269C30.48 54.9694 30.4351 55.0369 30.4501 55.0444C30.2551 55.1944 30.0826 55.3969 29.8876 55.5544L28.6576 56.6044C28.5097 56.7123 28.3694 56.83 28.2376 56.9569C28.3051 56.8594 28.1251 57.0319 27.9601 57.1744C27.7951 57.3169 27.4576 57.5194 27.2476 57.6244C26.0371 58.0571 24.7774 58.3367 23.4976 58.4569C22.5121 58.493 21.5272 58.3715 20.58 58.0969C20.0025 57.9244 19.4925 57.3469 18.87 57.4744C18.7456 57.5045 18.6317 57.5678 18.5405 57.6576C18.4494 57.7475 18.3844 57.8605 18.3525 57.9844L18.5326 58.1719L19.17 58.6969L21.4951 60.1969C22.8987 60.5853 24.3749 60.6316 25.8001 60.3319H25.7026C26.9419 60.1193 28.1362 59.6984 29.235 59.0869C30.3236 58.4109 31.2382 57.4886 31.9051 56.3944L31.965 56.2969C32.763 55.2888 33.3843 54.1527 33.8025 52.9369C34.1869 51.59 34.2941 50.179 34.1175 48.7894Z" fill="black"/>
</g>
<g opacity="0.13">
<path d="M38.3174 62.9126C38.1467 62.9192 37.9798 62.9654 37.8299 63.0476C37.621 63.1809 37.4484 63.3638 37.3274 63.5801C37.1941 63.7386 37.069 63.9039 36.9524 64.0751C36.5924 64.5798 36.1883 65.0517 35.745 65.4851C35.325 65.9351 34.665 66.2351 34.3875 66.7826L33.8999 67.0601C33.5924 67.2476 33.1949 67.3376 32.9774 67.6451C32.849 67.8228 32.7847 68.0388 32.795 68.2578C32.8054 68.4768 32.8899 68.6857 33.0345 68.8504C33.1792 69.0152 33.3755 69.1259 33.5914 69.1644C33.8072 69.2029 34.0297 69.1671 34.2224 69.0626C35.1361 68.5798 35.9895 67.9907 36.7649 67.3076C36.7649 67.3076 36.8399 67.2326 36.8774 67.1951C37.4818 66.7328 38.0555 66.2318 38.5949 65.6951C38.8178 65.4603 39.0234 65.2097 39.2099 64.9451C39.0149 64.5476 38.8349 64.1276 38.6774 63.7076C38.5424 63.4601 38.4224 63.1901 38.3174 62.9126Z" fill="black"/>
</g>
<g opacity="0.13">
<path d="M44.2648 49.0308C43.9198 50.3658 43.5323 51.6908 43.1023 53.0058C42.8998 53.6133 42.7048 54.2283 42.5098 54.8358C42.6224 54.9862 42.7781 55.099 42.9562 55.1593C43.1342 55.2195 43.3264 55.2244 43.5073 55.1733H43.5598C43.6433 55.2827 43.7553 55.367 43.8835 55.4171C44.0118 55.4671 44.1513 55.4808 44.2868 55.4568C44.4224 55.4328 44.5487 55.3719 44.652 55.2809C44.7552 55.1899 44.8315 55.0722 44.8723 54.9408C44.9473 54.6483 45.0673 54.3633 45.1723 54.0708C45.2365 54.0405 45.2969 54.0027 45.3523 53.9583C45.682 53.6255 45.8996 53.1981 45.9748 52.7358C46.1843 51.8779 46.305 51.0008 46.3348 50.1183C46.3348 50.0658 46.3348 50.0133 46.3348 49.9608C45.6448 49.6608 44.9548 49.3533 44.2648 49.0308Z" fill="black"/>
</g>
<path d="M23.3543 73.3978C21.2288 73.2349 19.115 72.9444 17.0243 72.5278C16.9597 72.5167 16.9021 72.4806 16.8641 72.4271C16.8262 72.3737 16.811 72.3074 16.8218 72.2427C17.0283 70.7185 16.7667 69.1675 16.0718 67.7953C15.8515 67.2771 15.5172 66.8152 15.094 66.4439C14.6707 66.0725 14.1693 65.8013 13.6268 65.6503C12.6303 65.3539 11.5806 65.2809 10.5526 65.4364C9.52462 65.592 8.54358 65.9723 7.67932 66.5503C7.62353 66.5877 7.55518 66.6017 7.48917 66.589C7.42316 66.5764 7.36483 66.5382 7.32682 66.4828C6.15682 64.7203 4.99431 62.8977 3.77181 60.9177C3.74022 60.8648 3.72889 60.8022 3.73993 60.7415C3.75096 60.6808 3.78361 60.6262 3.83182 60.5878C4.82153 59.8341 5.61622 58.8542 6.14932 57.7302C6.40704 57.1804 6.55178 56.5845 6.57497 55.9777C6.59816 55.3709 6.49932 54.7656 6.28431 54.1978C5.81989 53.2116 5.05261 52.3997 4.09433 51.8803C3.21369 51.4107 2.29244 51.0216 1.34182 50.7178L0.91431 50.5678C0.862984 50.5511 0.818799 50.5176 0.78886 50.4726C0.758922 50.4277 0.744977 50.3741 0.749309 50.3203C0.788838 48.2745 0.99452 46.2352 1.36431 44.2227C1.37449 44.1657 1.40382 44.1138 1.44744 44.0756C1.49107 44.0374 1.5464 44.0153 1.60432 44.0127C2.92434 43.9809 4.22069 43.6555 5.39932 43.0603C5.97133 42.7676 6.47615 42.3591 6.8816 41.8607C7.28706 41.3623 7.58426 40.7849 7.75431 40.1653C7.94468 38.916 7.76478 37.6383 7.23683 36.4902C7.07227 35.8931 6.71663 35.3662 6.22432 34.9902C6.19228 34.9681 6.16555 34.9391 6.14609 34.9054C6.12663 34.8717 6.11494 34.8341 6.11183 34.7952C6.10885 34.7556 6.11548 34.7158 6.13115 34.6792C6.14681 34.6427 6.17105 34.6104 6.20182 34.5852C7.43874 33.4896 8.74113 32.4702 10.1018 31.5327C10.1485 31.495 10.2068 31.4744 10.2668 31.4744C10.3269 31.4744 10.3851 31.495 10.4318 31.5327C11.1987 32.1904 12.1437 32.6054 13.1468 32.7253C13.7583 32.8821 14.3839 32.9776 15.0143 33.0103C16.5363 33.0403 18.0093 32.4721 19.1168 31.4277C20.2486 30.3434 21.0008 28.9232 21.2618 27.3777C21.2949 27.3296 21.3431 27.2939 21.3988 27.2762C21.4545 27.2585 21.5145 27.26 21.5693 27.2803L26.8643 27.6702C26.9652 27.6813 27.0604 27.7222 27.1379 27.7876C27.2154 27.8531 27.2716 27.9402 27.2993 28.0378C27.2993 28.0378 27.2993 28.0378 27.2993 28.0903C27.4572 29.7186 28.0533 31.2737 29.0243 32.5903C29.5063 33.2343 30.1326 33.7565 30.8529 34.1146C31.5732 34.4728 32.3674 34.6571 33.1718 34.6528C34.8668 34.5628 36.3893 33.4378 37.8593 32.3503C37.9124 32.3104 37.9789 32.2928 38.0447 32.3012C38.1105 32.3096 38.1705 32.3434 38.2118 32.3953C39.5288 34.06 40.758 35.7923 41.8943 37.5852C41.9267 37.6374 41.9393 37.6994 41.9296 37.76C41.92 37.8207 41.8888 37.8758 41.8418 37.9153C40.5586 38.9475 39.6175 40.3436 39.1418 41.9202C38.9209 42.6961 38.8818 43.5124 39.0275 44.3059C39.1732 45.0993 39.4997 45.8485 39.9818 46.4953C40.7475 47.3788 41.7615 48.0113 42.8918 48.3103C44.0729 48.6281 45.285 48.8168 46.5068 48.8728C46.5437 48.876 46.5795 48.8871 46.6118 48.9052C46.6441 48.9233 46.6722 48.948 46.6943 48.9778C46.7349 49.0369 46.7511 49.1095 46.7393 49.1802C46.3193 51.1752 45.8093 53.1778 45.1868 55.3078C45.1699 55.3651 45.1339 55.4149 45.0848 55.449C45.0357 55.4831 44.9764 55.4994 44.9168 55.4953C43.1982 55.2699 41.4538 55.632 39.9668 56.5227C39.248 56.9686 38.6519 57.5871 38.2327 58.3219C37.8136 59.0566 37.5847 59.8845 37.5668 60.7302C37.6043 62.3427 38.5643 63.8353 39.4943 65.2753V65.3277C39.5276 65.379 39.5414 65.4405 39.5332 65.5011C39.5249 65.5617 39.4951 65.6173 39.4493 65.6577C37.6493 67.2027 35.7443 68.5827 33.9518 69.8502C33.8984 69.887 33.833 69.902 33.7689 69.8923C33.7049 69.8825 33.6469 69.8487 33.6068 69.7978C33.0512 69.0101 32.3784 68.312 31.6118 67.7277C30.7716 67.1967 29.7947 66.9224 28.8009 66.9384C27.8071 66.9543 26.8395 67.26 26.0168 67.8178C25.2025 68.4283 24.5552 69.2341 24.1344 70.1609C23.7136 71.0876 23.533 72.1053 23.6093 73.1202C23.609 73.1959 23.5795 73.2685 23.5268 73.3228C23.4814 73.3695 23.4194 73.3964 23.3543 73.3978ZM17.3543 72.0777C19.2564 72.4428 21.1766 72.7057 23.1068 72.8652C23.0767 71.8094 23.3016 70.7618 23.7625 69.8113C24.2233 68.8608 24.9066 68.0355 25.7543 67.4053C26.6575 66.7815 27.7256 66.4399 28.8231 66.4239C29.9207 66.4079 30.9983 66.7181 31.9193 67.3153C32.6737 67.869 33.3346 68.54 33.8768 69.3027C35.5493 68.1177 37.3043 66.8353 38.9693 65.4253C38.0318 63.9253 37.0868 62.4252 37.0493 60.7527C37.0648 59.8195 37.3138 58.9049 37.7737 58.0927C38.2335 57.2804 38.8896 56.5963 39.6818 56.1027C41.1989 55.1789 42.9782 54.7809 44.7443 54.9702C45.3068 53.0277 45.7793 51.2202 46.1693 49.3677C45.0078 49.3006 43.8565 49.112 42.7343 48.8052C41.5079 48.4749 40.4083 47.7854 39.5768 46.8252C39.0423 46.1174 38.6794 45.2951 38.5167 44.4231C38.354 43.5511 38.396 42.6533 38.6393 41.8003C39.1192 40.192 40.0575 38.7586 41.3393 37.6753C40.3793 36.1753 39.2693 34.6078 37.9568 32.9128C36.4568 34.0003 34.9568 35.0803 33.1868 35.1628C32.3028 35.1698 31.4293 34.9699 30.6363 34.5793C29.8432 34.1886 29.1525 33.6179 28.6193 32.9128C27.5869 31.5216 26.9542 29.8748 26.7893 28.1503L21.7418 27.7753C21.4321 29.3418 20.6463 30.7745 19.4918 31.8777C18.2767 33.0209 16.6595 33.6381 14.9918 33.5952C14.3313 33.5618 13.6757 33.4638 13.0343 33.3027C12.0055 33.1613 11.0325 32.7498 10.2143 32.1103C9.01447 32.942 7.86265 33.8409 6.76432 34.8027C7.19597 35.2176 7.51808 35.733 7.70182 36.3027C8.27477 37.5467 8.46282 38.9336 8.24182 40.2852C8.05611 40.9743 7.72784 41.6167 7.27825 42.171C6.82867 42.7252 6.26776 43.1789 5.63182 43.5027C4.44945 44.1094 3.14956 44.4522 1.82183 44.5078C1.49231 46.371 1.30178 48.2562 1.25182 50.1477L1.50682 50.2378C2.48955 50.5485 3.44118 50.9503 4.34932 51.4377C5.40295 52.0142 6.24408 52.9132 6.74931 54.0027C6.99101 54.6337 7.10297 55.307 7.07849 55.9823C7.054 56.6575 6.89357 57.3209 6.60681 57.9328C6.08196 59.068 5.29855 60.0646 4.31932 60.8428C5.44432 62.6652 6.52432 64.3527 7.60432 65.9878C8.51462 65.4174 9.53682 65.0492 10.6017 64.9082C11.6667 64.7672 12.7494 64.8565 13.7768 65.1703C14.3194 65.3241 14.8282 65.5785 15.2768 65.9203C15.8104 66.3704 16.2403 66.9308 16.5368 67.5628C17.2311 68.9598 17.5071 70.5276 17.3318 72.0777H17.3543Z" fill="black"/>
<path d="M23.1145 54.7451C22.3415 54.7322 21.5838 54.5274 20.9096 54.149C20.2354 53.7707 19.6658 53.2307 19.252 52.5776C18.8033 51.8242 18.5353 50.977 18.4689 50.1026C18.4026 49.2281 18.5396 48.3502 18.8695 47.5376C19.2898 46.4318 20.0517 45.4886 21.0445 44.8451C21.5492 44.5271 22.1128 44.3141 22.7017 44.2187C23.2906 44.1234 23.8927 44.1476 24.472 44.2901C25.581 44.5258 26.5821 45.1185 27.322 45.9776C28.0779 46.9976 28.4713 48.241 28.4394 49.5101C28.4638 50.3192 28.2695 51.1198 27.8769 51.8276C27.5575 52.3345 27.1543 52.7834 26.6845 53.1551C25.871 53.9092 24.8677 54.4278 23.782 54.6551C23.5624 54.7041 23.3391 54.7342 23.1145 54.7451ZM23.437 44.6651C22.686 44.6682 21.9508 44.8813 21.3144 45.2801C20.4125 45.8634 19.7213 46.7203 19.342 47.7251C19.0416 48.4621 18.9158 49.2585 18.9743 50.0522C19.0329 50.8459 19.2742 51.6152 19.6795 52.3001C20.096 52.9692 20.6971 53.5036 21.4103 53.8389C22.1235 54.1742 22.9185 54.2962 23.6995 54.1901C24.6969 53.9637 25.6144 53.4712 26.3545 52.7651C26.78 52.4301 27.1475 52.0272 27.442 51.5726C27.7854 50.9409 27.9536 50.2288 27.9295 49.5101C27.9613 48.3546 27.6049 47.2217 26.917 46.2926C26.2434 45.5249 25.3374 44.9982 24.337 44.7926C24.0444 44.7083 23.7414 44.6653 23.437 44.6651Z" fill="black"/>
<path d="M23.4454 59.0726C21.7213 59.0484 20.0364 58.5545 18.5721 57.6439C17.1078 56.7334 15.9196 55.4407 15.1354 53.9051C14.4398 52.5089 14.0893 50.9662 14.1135 49.4065C14.1376 47.8468 14.5356 46.3156 15.274 44.9416C16.0125 43.5676 17.0698 42.3908 18.3573 41.5101C19.6447 40.6293 21.1246 40.0704 22.6729 39.8801C25.5379 39.5126 29.0104 41.1176 30.9229 43.6976C31.9107 45.0532 32.525 46.6446 32.704 48.3124C32.883 49.9802 32.6206 51.6657 31.9429 53.2001C31.1909 54.8234 30.0338 56.2259 28.5829 57.2726C27.7519 57.8962 26.8247 58.3801 25.8379 58.7051C25.0642 58.9505 24.2571 59.0745 23.4454 59.0726ZM22.6954 40.3826C21.2329 40.5731 19.8369 41.1096 18.6231 41.9475C17.4094 42.7854 16.4129 43.9006 15.7163 45.2007C15.0197 46.5007 14.6431 47.948 14.6178 49.4227C14.5924 50.8974 14.919 52.3568 15.5704 53.6801C17.3929 57.3851 21.9154 59.4176 25.6579 58.2251C26.5923 57.9145 27.471 57.4562 28.2604 56.8676C29.6411 55.8713 30.7415 54.5358 31.4554 52.9901C32.087 51.5345 32.3299 49.9399 32.1603 48.3623C31.9907 46.7847 31.4144 45.2781 30.4879 43.9901C28.7029 41.5301 25.4329 40.0301 22.7329 40.3826H22.6954Z" fill="black"/>
<rect x="12" y="38.5" width="21.75" height="21.75" rx="10.875" fill="#FFD803"/>
<g clip-path="url(#clip2_1009_32911)">
<path d="M17.6462 44.7833C17.6347 44.7723 17.6255 44.7589 17.6193 44.7441C17.6131 44.7292 17.61 44.7132 17.6102 44.6971C17.5359 44.3543 17.5783 43.7076 18.4694 43.7981C18.5084 43.8038 18.5463 43.8154 18.5818 43.8326L20.1284 45.4063L24.5709 49.9334L25.4323 50.8108C25.4323 50.8108 26.7561 52.35 27.609 53.5055C29.094 55.4241 28.2178 54.9477 27.0616 53.997C27.1486 54.1285 24.38 51.6257 24.38 51.6257L23.6396 50.8733L19.1949 46.3462L17.6462 44.7833Z" fill="#1A1A1A"/>
<path d="M18.581 54.8959C18.5702 54.9077 18.557 54.917 18.5424 54.9233C18.5278 54.9296 18.512 54.9328 18.4962 54.9326C18.1588 55.008 17.5224 54.9649 17.6115 54.0595C17.6171 54.0199 17.6285 53.9814 17.6454 53.9453L19.1942 52.3737L23.6494 47.8596L24.5128 46.9844C24.5128 46.9844 26.0276 45.6392 27.1648 44.7726C29.0529 43.2635 28.5841 44.1539 27.6485 45.3287C27.7779 45.2404 25.3148 48.0536 25.3148 48.0536L24.5744 48.806L20.1298 53.333L18.581 54.8959Z" fill="#1A1A1A"/>
</g>
</g>
<defs>
<clipPath id="clip0_1009_32911">
<rect width="54.3855" height="77.4581" fill="white" transform="translate(30.918 0.911133) rotate(22.9204)"/>
</clipPath>
<clipPath id="clip1_1009_32911">
<rect width="45.9675" height="46.155" fill="white" transform="translate(0.75 27.25)"/>
</clipPath>
<clipPath id="clip2_1009_32911">
<rect width="10.875" height="11.1689" fill="white" transform="translate(17.584 43.7903)"/>
</clipPath>
</defs>
</svg>
