<svg width="81" height="98" viewBox="0 0 81 98" fill="none" xmlns="http://www.w3.org/2000/svg">
<path d="M1.11897 12.0958C21.3469 12.0958 43.9156 11.4234 64.2707 10.751L63.94 79.9326C63.94 82.9901 63.9399 86.1872 65.632 88.8768C67.324 91.5665 68.3672 91.9598 75.5169 92.7717C67.5148 99.1152 33.2673 97.2248 14.3116 96.286C9.46457 96.0449 3.35805 94.421 2.48023 81.3662C0.72066 58.32 0.266179 35.1931 1.11897 12.0958Z" fill="white"/>
<path d="M44.5137 97.9099C34.4379 97.9099 23.8787 97.377 15.6476 96.971H14.2863C8.95584 96.7046 2.72209 94.7001 1.81884 81.4296C-0.0131258 54.305 -0.458391 31.6209 0.470312 12.0831C0.479912 11.9169 0.552111 11.7606 0.672431 11.6453C0.792751 11.53 0.952315 11.4643 1.11914 11.4614C21.4743 11.4614 44.3738 10.7763 64.2455 10.1166C64.335 10.1126 64.4242 10.1275 64.5075 10.1603C64.5909 10.1931 64.6663 10.243 64.7289 10.3069C64.7925 10.3677 64.8432 10.4405 64.8782 10.5211C64.9131 10.6017 64.9315 10.6885 64.9324 10.7763L64.6271 79.8945C64.6271 82.711 64.6271 85.8954 66.2174 88.4962C67.7058 90.8687 68.3928 91.2619 75.6189 92.0866C75.7487 92.0996 75.8716 92.1514 75.9714 92.2351C76.0713 92.3189 76.1435 92.4307 76.1787 92.556C76.2124 92.682 76.2088 92.8149 76.1681 92.9388C76.1275 93.0627 76.0516 93.1721 75.9497 93.2538C71.2935 96.9076 58.3679 97.9099 44.5137 97.9099ZM1.75524 12.7047C0.864705 32.0522 1.32264 54.4827 3.12916 81.214C3.95608 93.3807 9.26115 95.2837 14.3499 95.5374L15.7112 95.6009C32.7968 96.4509 63.7493 97.986 73.5834 93.0635C68.1002 92.3911 66.7898 91.7948 65.0851 89.0925C63.3804 86.3902 63.2786 82.6348 63.2913 79.793L63.6094 11.2838C44.1448 12.0957 21.7033 12.6667 1.75524 12.7047Z" fill="#1A1A1A"/>
<path d="M75.1605 93.0004C76.9146 91.7563 78.2461 90.008 78.977 87.9891C79.7993 86.0245 80.2521 83.9258 80.3128 81.7979C74.8424 81.4807 69.3592 81.2143 63.7743 81.1001C63.7608 82.9528 63.9055 84.8033 64.2068 86.6316C64.4931 88.131 65.3048 89.4801 66.4967 90.4376C67.3203 91.0554 68.2342 91.5433 69.2065 91.884C71.1004 92.6353 73.1222 93.0144 75.1605 93.0004Z" fill="white"/>
<path d="M74.8045 93.6597C72.8207 93.5692 70.8671 93.1401 69.0288 92.391C67.9878 92.0302 67.0124 91.5031 66.1409 90.8305C64.8298 89.7945 63.9285 88.3294 63.5965 86.6945C63.2914 84.8282 63.1425 82.9398 63.1512 81.0489C63.1644 80.8815 63.2364 80.7242 63.3548 80.6048C63.4907 80.4904 63.6605 80.4236 63.8382 80.4146C68.6725 80.516 73.914 80.7444 80.3767 81.1123C80.5511 81.1253 80.7135 81.2054 80.8298 81.3356C80.9461 81.4657 81.0072 81.6359 81.0001 81.8101C80.9278 84.0169 80.4537 86.1922 79.6007 88.2297C78.8063 90.3709 77.3775 92.2204 75.5042 93.5328C75.4084 93.5927 75.299 93.6276 75.1862 93.6343L74.8045 93.6597ZM64.4998 81.7721C64.5144 83.358 64.6548 84.9403 64.9195 86.5042C65.1928 87.8306 65.9162 89.0224 66.9678 89.879C67.7408 90.453 68.5994 90.9025 69.5122 91.2111C71.2399 91.9126 73.0798 92.2993 74.9444 92.3529C76.5191 91.1778 77.7134 89.5677 78.3794 87.7222C79.1065 86.0363 79.5369 84.2381 79.6516 82.4064C73.8249 82.0765 68.9906 81.8736 64.5252 81.7721H64.4998Z" fill="#1A1A1A"/>
<path d="M24.4378 31.9384C23.1656 31.9384 22.5549 30.898 21.9824 30.0099C21.5372 29.3375 21.1301 28.7413 20.583 28.6398C20.036 28.5383 19.6034 29.0965 18.9546 29.9084C18.3058 30.7204 17.4534 31.7734 16.1685 31.6592C15.7305 31.5768 15.3148 31.4031 14.9487 31.1495C14.5826 30.8959 14.2743 30.5681 14.0439 30.1876C13.7851 29.8121 13.457 29.4892 13.0771 29.236C11.7285 28.4748 9.99835 30.3398 9.26048 31.1771C9.21127 31.2574 9.14542 31.3262 9.06737 31.3789C8.98931 31.4317 8.90089 31.4672 8.80795 31.4831C8.715 31.499 8.61971 31.4948 8.52849 31.471C8.43727 31.4472 8.35219 31.4042 8.279 31.3449C8.20582 31.2856 8.14621 31.2114 8.10414 31.1272C8.06207 31.043 8.03854 30.9508 8.03511 30.8569C8.03167 30.7629 8.04837 30.6693 8.08418 30.5823C8.12 30.4953 8.17408 30.417 8.24274 30.3525C10.1256 28.0308 12.0593 27.2061 13.6623 28.0942C14.1609 28.4356 14.5922 28.8656 14.9345 29.3629C15.4179 29.9465 15.736 30.3144 16.2067 30.3525C16.6774 30.3906 17.1863 29.9085 17.8478 29.0838C18.5093 28.2592 19.349 27.2188 20.6339 27.333C21.9188 27.4472 22.4405 28.4114 23.0003 29.2868C23.56 30.1622 23.8908 30.5555 24.3996 30.6189C24.9085 30.6189 25.2774 30.1114 25.8118 29.2741C26.0483 28.8699 26.3208 28.4878 26.626 28.1323C27.0281 27.7356 27.5137 27.433 28.0475 27.2464C28.5813 27.0598 29.1501 26.9938 29.7126 27.0533C30.2751 27.1128 30.8173 27.2962 31.3 27.5904C31.7826 27.8845 32.1938 28.2819 32.5035 28.7539L32.7198 29.1726C32.8133 29.4216 32.9611 29.647 33.1523 29.8323C33.2143 29.8763 33.2847 29.9069 33.3592 29.9222C33.4337 29.9375 33.5105 29.9371 33.5848 29.9211C34.1428 29.7575 34.6277 29.4083 34.9588 28.9315L35.1497 28.6778C35.7858 27.7897 36.5745 26.6987 37.8721 26.6606C38.3877 26.6991 38.8888 26.8483 39.3411 27.098C39.7934 27.3476 40.1864 27.6917 40.4929 28.1069C40.8865 28.6283 41.4336 29.0142 42.0577 29.2106C42.7956 29.2995 43.5207 28.627 44.284 27.942C45.2764 27.0285 46.3959 26.0009 47.8462 26.5591C48.4911 26.8733 49.0272 27.3725 49.3856 27.9927C49.5974 28.3566 49.8834 28.6721 50.2252 28.9189C50.3557 29.0028 50.5035 29.0566 50.6575 29.0764C50.8116 29.0961 50.9681 29.0813 51.1157 29.033C52.201 28.5434 53.076 27.6844 53.5838 26.6098C53.6681 26.4584 53.8094 26.3466 53.9764 26.2991C54.1434 26.2515 54.3225 26.272 54.4743 26.3561C54.6262 26.4402 54.7382 26.5811 54.7859 26.7476C54.8337 26.9142 54.8131 27.0928 54.7287 27.2442C54.0377 28.6183 52.8787 29.7022 51.4593 30.3017C51.1405 30.3906 50.807 30.4139 50.4789 30.3703C50.1509 30.3266 49.8352 30.217 49.551 30.048C49.0426 29.7184 48.6093 29.2862 48.2788 28.7793C48.0614 28.3765 47.7352 28.0425 47.3373 27.8151C46.7012 27.5741 46.0651 28.0815 45.1491 28.9442C44.7576 29.4373 44.2613 29.8376 43.6959 30.1162C43.1305 30.3949 42.5102 30.5449 41.8796 30.5555C40.947 30.346 40.1156 29.8216 39.5261 29.0711C38.9536 28.5002 38.4701 27.98 37.8976 28.0181C37.3251 28.0561 36.7018 28.7793 36.1802 29.4898L35.9893 29.7562C35.4526 30.515 34.6563 31.0519 33.7502 31.2659C33.2543 31.347 32.7464 31.2284 32.3381 30.9361C31.9763 30.6307 31.6927 30.2436 31.5112 29.8069C31.5112 29.6927 31.3967 29.5786 31.3331 29.4644C31.1324 29.1571 30.8652 28.8984 30.5513 28.7073C30.2375 28.5162 29.8847 28.3975 29.5189 28.3598C29.153 28.3221 28.7834 28.3663 28.437 28.4894C28.0905 28.6125 27.7761 28.8112 27.5165 29.0711C27.2567 29.3695 27.0266 29.6925 26.8295 30.0353C26.4606 30.86 25.71 31.9384 24.4378 31.9384Z" fill="#1A1A1A"/>
<path d="M24.1458 59.8872C22.8736 59.8872 22.263 58.8469 21.6905 57.9461C21.2452 57.2737 20.8381 56.6774 20.2911 56.5886C19.7441 56.4998 19.3115 57.0326 18.6499 57.8573C17.9884 58.6819 17.1615 59.7096 15.8765 59.5954C15.4385 59.513 15.0229 59.3393 14.6568 59.0857C14.2907 58.8321 13.9824 58.5043 13.752 58.1237C13.4862 57.7541 13.1592 57.4324 12.7851 57.1722C11.4366 56.411 9.7064 58.2886 8.96853 59.126C8.8569 59.2602 8.69653 59.3448 8.52251 59.3614C8.34849 59.3781 8.175 59.3254 8.03985 59.2148C7.97364 59.1608 7.91875 59.0943 7.87842 59.019C7.83808 58.9438 7.81308 58.8614 7.80481 58.7765C7.79653 58.6916 7.80514 58.6059 7.8302 58.5244C7.85525 58.4428 7.89625 58.367 7.95079 58.3013C9.83363 55.9796 11.7674 55.155 13.3703 56.0431C13.8695 56.3838 14.3009 56.814 14.6425 57.3118C15.126 57.908 15.444 58.2759 15.9147 58.314C16.3855 58.3521 16.8943 57.87 17.5558 57.0453C18.2174 56.2207 19.0825 55.2311 20.3547 55.2311C21.6269 55.2311 22.1739 56.3222 22.7337 57.1849C23.2935 58.0476 23.6242 58.4536 24.1331 58.517C24.6419 58.517 25.0109 58.0095 25.5325 57.1849C25.7747 56.7813 26.0513 56.3992 26.3594 56.0431C26.7529 55.6361 27.2358 55.3257 27.7701 55.1364C28.3043 54.947 28.8753 54.8839 29.4382 54.952C30.0055 54.9966 30.554 55.1752 31.0384 55.473C31.5229 55.7708 31.9294 56.1793 32.2243 56.6647C32.3108 56.7985 32.3873 56.9384 32.4533 57.0834C32.5466 57.3289 32.6944 57.5501 32.8858 57.7304C32.9464 57.7773 33.0164 57.8106 33.091 57.8281C33.1656 57.8457 33.2432 57.8469 33.3184 57.8319C33.8782 57.665 34.3633 57.3112 34.6923 56.8297L34.8704 56.5759C35.5192 55.7005 36.308 54.6094 37.6057 54.5587C38.1222 54.5987 38.6239 54.7499 39.0763 55.0017C39.5287 55.2536 39.9211 55.6002 40.2264 56.0177C40.6201 56.5363 41.1676 56.9181 41.7911 57.1088C42.529 57.1976 43.2542 56.5379 44.0175 55.8401C45.0098 54.9393 46.1293 53.899 47.5796 54.4699C48.2273 54.7801 48.7644 55.2803 49.119 55.9035C49.3343 56.2648 49.6197 56.5797 49.9586 56.8297C50.0905 56.9104 50.2382 56.9624 50.3917 56.982C50.5452 57.0017 50.7011 56.9887 50.8492 56.9438C51.9328 56.4456 52.8064 55.5834 53.3172 54.5079C53.3543 54.4233 53.4089 54.3474 53.4773 54.2851C53.5457 54.2228 53.6264 54.1755 53.7143 54.1464C53.8022 54.1172 53.8952 54.1067 53.9874 54.1157C54.0796 54.1246 54.1689 54.1528 54.2495 54.1983C54.3301 54.2439 54.4002 54.3057 54.4552 54.38C54.5103 54.4543 54.5492 54.5393 54.5692 54.6295C54.5893 54.7197 54.5901 54.813 54.5716 54.9035C54.5532 54.9941 54.516 55.0797 54.4622 55.155C53.7712 56.5291 52.6121 57.613 51.1927 58.2125C50.874 58.3014 50.5405 58.3247 50.2125 58.2811C49.8844 58.2374 49.5686 58.1278 49.2844 57.9588C48.7734 57.6325 48.3393 57.1997 48.0122 56.6901C47.7983 56.2848 47.4713 55.9499 47.0708 55.7259C46.4347 55.4849 45.7986 55.9796 44.8826 56.8423C44.488 57.3361 43.9895 57.7374 43.4224 58.018C42.8552 58.2986 42.2333 58.4516 41.6004 58.4662C40.6728 58.2531 39.8465 57.7292 39.2595 56.9819C38.687 56.3983 38.1909 55.8908 37.6311 55.9162C37.0714 55.9416 36.4352 56.6774 35.9136 57.4005L35.7228 57.6543C35.1944 58.4239 34.3952 58.9673 33.4838 59.1767C33.2374 59.2179 32.9852 59.2089 32.7424 59.15C32.4997 59.0911 32.2714 58.9836 32.0716 58.8342C31.7097 58.5288 31.4262 58.1417 31.2447 57.7051C31.2447 57.5909 31.1302 57.4767 31.0666 57.3625C30.8569 57.0761 30.5893 56.8368 30.2812 56.6598C29.9731 56.4829 29.6312 56.3724 29.2776 56.3353C28.924 56.2983 28.5665 56.3356 28.2283 56.4447C27.89 56.5539 27.5783 56.7326 27.3136 56.9692C27.0598 57.2723 26.8302 57.5947 26.6266 57.9334C26.105 58.8088 25.418 59.8872 24.1458 59.8872Z" fill="#1A1A1A"/>
<path d="M16.2829 46.1851C15.7792 46.1361 15.2917 45.9807 14.853 45.7291C14.4143 45.4775 14.0344 45.1356 13.7385 44.7261C13.3578 44.2489 12.8637 43.8738 12.3009 43.635C11.5122 43.4067 10.5962 43.9396 9.41302 45.2971C9.35953 45.3723 9.29084 45.4354 9.21136 45.4825C9.13189 45.5296 9.04343 45.5596 8.95163 45.5705C8.85983 45.5814 8.76672 45.573 8.67838 45.5458C8.59004 45.5186 8.50845 45.4733 8.43876 45.4127C8.36907 45.3521 8.31288 45.2776 8.27383 45.194C8.23479 45.1105 8.21372 45.0196 8.21203 44.9275C8.21033 44.8353 8.22802 44.7438 8.26397 44.6588C8.29992 44.5739 8.35333 44.4974 8.42074 44.4343C9.40034 43.3179 10.9015 41.8969 12.6572 42.3664C13.4502 42.6634 14.1488 43.1673 14.6799 43.8254C15.227 44.3836 15.6977 44.8784 16.2447 44.8784C16.8554 44.8784 17.377 44.2313 17.9367 43.6097C18.6746 42.7343 19.5143 41.7447 20.8246 41.935C21.6655 42.1355 22.3979 42.6482 22.8729 43.3686C23.2927 43.8761 23.6616 44.3075 24.1451 44.3582C24.6285 44.409 25.1374 43.9776 25.8244 43.2291C26.1252 42.769 26.5311 42.3866 27.0087 42.1131C27.4864 41.8397 28.0222 41.683 28.5723 41.6559C29.0545 41.7488 29.5124 41.9398 29.9174 42.2171C30.3223 42.4943 30.6656 42.8518 30.9259 43.2671C31.5238 43.9649 31.9309 44.3963 32.3889 44.3328C32.8468 44.2694 33.0886 43.8888 33.5084 43.2545C33.8894 42.554 34.4812 41.9904 35.2004 41.6432C36.5871 41.1358 37.7448 42.1 38.7117 42.9119C39.6786 43.7239 40.3019 44.1806 40.9253 43.9903C41.5487 43.8 41.6759 43.356 42.0194 42.785C42.343 42.1252 42.8288 41.5579 43.4316 41.1358C45.0345 40.1969 46.5484 41.3007 47.8715 42.2902C48.9529 43.0768 49.9706 43.838 50.9375 43.5589C51.9044 43.2798 52.3624 42.4425 52.8713 41.5164C52.913 41.4414 52.9692 41.3754 53.0366 41.322C53.1039 41.2687 53.1811 41.2291 53.2638 41.2056C53.3465 41.182 53.433 41.1749 53.5185 41.1847C53.6039 41.1945 53.6866 41.2209 53.7618 41.2626C53.837 41.3043 53.9031 41.3603 53.9566 41.4275C54.0101 41.4946 54.0498 41.5716 54.0734 41.6541C54.097 41.7366 54.1042 41.8229 54.0944 41.9081C54.0846 41.9933 54.0579 42.0757 54.0162 42.1507C53.7706 42.7674 53.3963 43.325 52.9181 43.7865C52.44 44.2481 51.8689 44.6029 51.2428 44.8276C49.678 45.1955 48.304 44.1806 47.0954 43.2925C45.8868 42.4044 44.8946 41.7447 44.1058 42.2141C43.695 42.5314 43.364 42.9397 43.1389 43.4067C42.7839 44.201 42.1442 44.8344 41.3452 45.1828C39.9712 45.6396 38.8008 44.7007 37.8594 43.9142C36.9179 43.1276 36.2818 42.6455 35.6584 42.8485C35.2065 43.1122 34.8401 43.4997 34.6025 43.9649C34.4061 44.3735 34.1201 44.7327 33.7655 45.0161C33.4109 45.2994 32.9969 45.4995 32.5543 45.6015C31.3584 45.7538 30.5569 44.8276 29.9208 44.0791C29.2847 43.3306 28.9794 42.9753 28.4706 42.9373C27.9617 42.8992 27.351 43.4701 26.7912 44.0918C26.2315 44.7134 25.2264 45.7918 23.9797 45.6269C23.1309 45.4367 22.3909 44.9219 21.9187 44.1933C21.5116 43.7112 21.1427 43.2671 20.6465 43.2037C20.1504 43.1403 19.6288 43.6097 18.9418 44.4724C18.654 44.9427 18.2671 45.3452 17.8081 45.6518C17.349 45.9585 16.8286 46.1621 16.2829 46.2486V46.1851Z" fill="#1A1A1A"/>
<path d="M17.0092 76.6342C16.5069 76.5851 16.0207 76.4309 15.5822 76.1817C15.1438 75.9325 14.763 75.5939 14.4648 75.1879C14.0844 74.7071 13.5905 74.3279 13.0272 74.0841C12.2384 73.8684 11.3224 74.4013 10.1393 75.7588C10.0223 75.8864 9.86061 75.9642 9.68768 75.976C9.51474 75.9878 9.3439 75.9327 9.2106 75.8222C9.14435 75.7663 9.08999 75.6977 9.0508 75.6204C9.01162 75.5432 8.9884 75.4589 8.98247 75.3726C8.97654 75.2862 8.98807 75.1995 9.01633 75.1177C9.04459 75.0358 9.08902 74.9605 9.14701 74.8961C10.1266 73.7669 11.6913 72.3587 13.3834 72.8281C14.178 73.1159 14.8778 73.6163 15.4062 74.2744C15.9532 74.8453 16.4239 75.3274 16.971 75.3274C17.5816 75.3274 18.1032 74.6804 18.663 74.0587C19.4009 73.1833 20.2406 72.1811 21.5509 72.3714C22.3932 72.5762 23.1256 73.0934 23.5991 73.8177C24.019 74.3125 24.3879 74.7438 24.8713 74.8072C25.3548 74.8707 25.8636 74.414 26.5506 73.6781C26.8516 73.2171 27.2572 72.8333 27.7346 72.5578C28.212 72.2822 28.7478 72.1228 29.2985 72.0923C29.7785 72.1915 30.2339 72.385 30.638 72.6616C31.0421 72.9383 31.3868 73.2925 31.6521 73.7035C32.2501 74.414 32.6571 74.8326 33.1151 74.7692C33.5731 74.7058 33.8148 74.3251 34.2347 73.6908C34.6177 72.995 35.2094 72.4361 35.9267 72.0923C37.3134 71.5721 38.4711 72.5363 39.438 73.361C40.4048 74.1856 41.0282 74.6297 41.6516 74.4394C42.275 74.2491 42.4022 73.7923 42.7457 73.1707C43.0663 72.5124 43.5529 71.9484 44.1578 71.534C45.7607 70.5825 47.2747 71.699 48.5978 72.6759C49.6792 73.4751 50.6969 74.2237 51.6638 73.9445C52.6306 73.6654 53.0886 72.8281 53.5975 71.902C53.6819 71.7506 53.823 71.6387 53.99 71.5912C54.157 71.5436 54.3362 71.5641 54.4881 71.6482C54.6399 71.7323 54.752 71.8731 54.7997 72.0397C54.8474 72.2062 54.8268 72.3849 54.7424 72.5363C54.4955 73.1537 54.1209 73.7123 53.6431 74.1758C53.1652 74.6392 52.5948 74.997 51.9691 75.2259C50.4043 75.5939 49.0303 74.5789 47.8217 73.6781C46.6131 72.7774 45.6208 72.1303 44.8321 72.6124C44.4215 72.9247 44.0903 73.3289 43.8652 73.7923C43.5148 74.5928 42.8742 75.2318 42.0714 75.5812C40.6975 76.0379 39.5271 75.0864 38.5856 74.249C37.6442 73.4117 37.0081 72.9803 36.3847 73.196C35.9333 73.4546 35.5665 73.8379 35.3287 74.2998C35.1308 74.7086 34.8445 75.0686 34.4904 75.3538C34.1362 75.639 33.723 75.8423 33.2805 75.9491C32.0083 76.1013 31.2832 75.1752 30.6471 74.4267C30.011 73.6781 29.7057 73.3102 29.1968 73.2721C28.6879 73.2341 28.0773 73.8177 27.5175 74.4267C26.7796 75.2259 25.9527 76.1394 24.7059 75.9745C23.8584 75.7737 23.1206 75.2559 22.645 74.5281C22.2379 74.0587 21.8562 73.602 21.3728 73.5386C20.8894 73.4751 20.355 73.9572 19.668 74.8072C19.3802 75.2776 18.9933 75.68 18.5343 75.9867C18.0752 76.2934 17.5549 76.4969 17.0092 76.5834V76.6342Z" fill="#1A1A1A"/>
<path d="M1.11897 12.0958C21.3469 12.0958 43.9156 11.4234 64.2707 10.751L63.94 79.9326C63.94 82.9901 63.9399 86.1872 65.632 88.8768C67.324 91.5665 68.3672 91.9598 75.5169 92.7717C67.5148 99.1152 33.2673 97.2248 14.3116 96.286C9.46457 96.0449 3.35805 94.421 2.48023 81.3662C0.72066 58.32 0.266179 35.1931 1.11897 12.0958Z" fill="white"/>
<path d="M44.5137 97.9099C34.4379 97.9099 23.8787 97.377 15.6476 96.971H14.2863C8.95584 96.7046 2.72209 94.7001 1.81884 81.4296C-0.0131258 54.305 -0.458391 31.6209 0.470312 12.0831C0.479912 11.9169 0.552111 11.7606 0.672431 11.6453C0.792751 11.53 0.952315 11.4643 1.11914 11.4614C21.4743 11.4614 44.3738 10.7763 64.2455 10.1166C64.335 10.1126 64.4242 10.1275 64.5075 10.1603C64.5909 10.1931 64.6663 10.243 64.7289 10.3069C64.7925 10.3677 64.8432 10.4405 64.8782 10.5211C64.9131 10.6017 64.9315 10.6885 64.9324 10.7763L64.6271 79.8945C64.6271 82.711 64.6271 85.8954 66.2174 88.4962C67.7058 90.8687 68.3928 91.2619 75.6189 92.0866C75.7487 92.0996 75.8716 92.1514 75.9714 92.2351C76.0713 92.3189 76.1435 92.4307 76.1787 92.556C76.2124 92.682 76.2088 92.8149 76.1681 92.9388C76.1275 93.0627 76.0516 93.1721 75.9497 93.2538C71.2935 96.9076 58.3679 97.9099 44.5137 97.9099ZM1.75524 12.7047C0.864705 32.0522 1.32264 54.4827 3.12916 81.214C3.95608 93.3807 9.26115 95.2837 14.3499 95.5374L15.7112 95.6009C32.7968 96.4509 63.7493 97.986 73.5834 93.0635C68.1002 92.3911 66.7898 91.7948 65.0851 89.0925C63.3804 86.3902 63.2786 82.6348 63.2913 79.793L63.6094 11.2838C44.1448 12.0957 21.7033 12.6667 1.75524 12.7047Z" fill="#1A1A1A"/>
<path d="M75.1605 93.0004C76.9146 91.7563 78.2461 90.008 78.977 87.9891C79.7993 86.0245 80.2521 83.9258 80.3128 81.7979C74.8424 81.4807 69.3592 81.2143 63.7743 81.1001C63.7608 82.9528 63.9055 84.8033 64.2068 86.6316C64.4931 88.131 65.3048 89.4801 66.4967 90.4376C67.3203 91.0554 68.2342 91.5433 69.2065 91.884C71.1004 92.6353 73.1222 93.0144 75.1605 93.0004Z" fill="white"/>
<path d="M74.8045 93.6597C72.8207 93.5692 70.8671 93.1401 69.0288 92.391C67.9878 92.0302 67.0124 91.5031 66.1409 90.8305C64.8298 89.7945 63.9285 88.3294 63.5965 86.6945C63.2914 84.8282 63.1425 82.9398 63.1512 81.0489C63.1644 80.8815 63.2364 80.7242 63.3548 80.6048C63.4907 80.4904 63.6605 80.4236 63.8382 80.4146C68.6725 80.516 73.914 80.7444 80.3767 81.1123C80.5511 81.1253 80.7135 81.2054 80.8298 81.3356C80.9461 81.4657 81.0072 81.6359 81.0001 81.8101C80.9278 84.0169 80.4537 86.1922 79.6007 88.2297C78.8063 90.3709 77.3775 92.2204 75.5042 93.5328C75.4084 93.5927 75.299 93.6276 75.1862 93.6343L74.8045 93.6597ZM64.4998 81.7721C64.5144 83.358 64.6548 84.9403 64.9195 86.5042C65.1928 87.8306 65.9162 89.0224 66.9678 89.879C67.7408 90.453 68.5994 90.9025 69.5122 91.2111C71.2399 91.9126 73.0798 92.2993 74.9444 92.3529C76.5191 91.1778 77.7134 89.5677 78.3794 87.7222C79.1065 86.0363 79.5369 84.2381 79.6516 82.4064C73.8249 82.0765 68.9906 81.8736 64.5252 81.7721H64.4998Z" fill="#1A1A1A"/>
<path d="M24.4378 31.9384C23.1656 31.9384 22.5549 30.898 21.9824 30.0099C21.5372 29.3375 21.1301 28.7413 20.583 28.6398C20.036 28.5383 19.6034 29.0965 18.9546 29.9084C18.3058 30.7204 17.4534 31.7734 16.1685 31.6592C15.7305 31.5768 15.3148 31.4031 14.9487 31.1495C14.5826 30.8959 14.2743 30.5681 14.0439 30.1876C13.7851 29.8121 13.457 29.4892 13.0771 29.236C11.7285 28.4748 9.99835 30.3398 9.26048 31.1771C9.21127 31.2574 9.14542 31.3262 9.06737 31.3789C8.98931 31.4317 8.90089 31.4672 8.80795 31.4831C8.715 31.499 8.61971 31.4948 8.52849 31.471C8.43727 31.4472 8.35219 31.4042 8.279 31.3449C8.20582 31.2856 8.14621 31.2114 8.10414 31.1272C8.06207 31.043 8.03854 30.9508 8.03511 30.8569C8.03167 30.7629 8.04837 30.6693 8.08418 30.5823C8.12 30.4953 8.17408 30.417 8.24274 30.3525C10.1256 28.0308 12.0593 27.2061 13.6623 28.0942C14.1609 28.4356 14.5922 28.8656 14.9345 29.3629C15.4179 29.9465 15.736 30.3144 16.2067 30.3525C16.6774 30.3906 17.1863 29.9085 17.8478 29.0838C18.5093 28.2592 19.349 27.2188 20.6339 27.333C21.9188 27.4472 22.4405 28.4114 23.0003 29.2868C23.56 30.1622 23.8908 30.5555 24.3996 30.6189C24.9085 30.6189 25.2774 30.1114 25.8118 29.2741C26.0483 28.8699 26.3208 28.4878 26.626 28.1323C27.0281 27.7356 27.5137 27.433 28.0475 27.2464C28.5813 27.0598 29.1501 26.9938 29.7126 27.0533C30.2751 27.1128 30.8173 27.2962 31.3 27.5904C31.7826 27.8845 32.1938 28.2819 32.5035 28.7539L32.7198 29.1726C32.8133 29.4216 32.9611 29.647 33.1523 29.8323C33.2143 29.8763 33.2847 29.9069 33.3592 29.9222C33.4337 29.9375 33.5105 29.9371 33.5848 29.9211C34.1428 29.7575 34.6277 29.4083 34.9588 28.9315L35.1497 28.6778C35.7858 27.7897 36.5745 26.6987 37.8721 26.6606C38.3877 26.6991 38.8888 26.8483 39.3411 27.098C39.7934 27.3476 40.1864 27.6917 40.4929 28.1069C40.8865 28.6283 41.4336 29.0142 42.0577 29.2106C42.7956 29.2995 43.5207 28.627 44.284 27.942C45.2764 27.0285 46.3959 26.0009 47.8462 26.5591C48.4911 26.8733 49.0272 27.3725 49.3856 27.9927C49.5974 28.3566 49.8834 28.6721 50.2252 28.9189C50.3557 29.0028 50.5035 29.0566 50.6575 29.0764C50.8116 29.0961 50.9681 29.0813 51.1157 29.033C52.201 28.5434 53.076 27.6844 53.5838 26.6098C53.6681 26.4584 53.8094 26.3466 53.9764 26.2991C54.1434 26.2515 54.3225 26.272 54.4743 26.3561C54.6262 26.4402 54.7382 26.5811 54.7859 26.7476C54.8337 26.9142 54.8131 27.0928 54.7287 27.2442C54.0377 28.6183 52.8787 29.7022 51.4593 30.3017C51.1405 30.3906 50.807 30.4139 50.4789 30.3703C50.1509 30.3266 49.8352 30.217 49.551 30.048C49.0426 29.7184 48.6093 29.2862 48.2788 28.7793C48.0614 28.3765 47.7352 28.0425 47.3373 27.8151C46.7012 27.5741 46.0651 28.0815 45.1491 28.9442C44.7576 29.4373 44.2613 29.8376 43.6959 30.1162C43.1305 30.3949 42.5102 30.5449 41.8796 30.5555C40.947 30.346 40.1156 29.8216 39.5261 29.0711C38.9536 28.5002 38.4701 27.98 37.8976 28.0181C37.3251 28.0561 36.7018 28.7793 36.1802 29.4898L35.9893 29.7562C35.4526 30.515 34.6563 31.0519 33.7502 31.2659C33.2543 31.347 32.7464 31.2284 32.3381 30.9361C31.9763 30.6307 31.6927 30.2436 31.5112 29.8069C31.5112 29.6927 31.3967 29.5786 31.3331 29.4644C31.1324 29.1571 30.8652 28.8984 30.5513 28.7073C30.2375 28.5162 29.8847 28.3975 29.5189 28.3598C29.153 28.3221 28.7834 28.3663 28.437 28.4894C28.0905 28.6125 27.7761 28.8112 27.5165 29.0711C27.2567 29.3695 27.0266 29.6925 26.8295 30.0353C26.4606 30.86 25.71 31.9384 24.4378 31.9384Z" fill="#1A1A1A"/>
<path d="M24.1458 59.8872C22.8736 59.8872 22.263 58.8469 21.6905 57.9461C21.2452 57.2737 20.8381 56.6774 20.2911 56.5886C19.7441 56.4998 19.3115 57.0326 18.6499 57.8573C17.9884 58.6819 17.1615 59.7096 15.8765 59.5954C15.4385 59.513 15.0229 59.3393 14.6568 59.0857C14.2907 58.8321 13.9824 58.5043 13.752 58.1237C13.4862 57.7541 13.1592 57.4324 12.7851 57.1722C11.4366 56.411 9.7064 58.2886 8.96853 59.126C8.8569 59.2602 8.69653 59.3448 8.52251 59.3614C8.34849 59.3781 8.175 59.3254 8.03985 59.2148C7.97364 59.1608 7.91875 59.0943 7.87842 59.019C7.83808 58.9438 7.81308 58.8614 7.80481 58.7765C7.79653 58.6916 7.80514 58.6059 7.8302 58.5244C7.85525 58.4428 7.89625 58.367 7.95079 58.3013C9.83363 55.9796 11.7674 55.155 13.3703 56.0431C13.8695 56.3838 14.3009 56.814 14.6425 57.3118C15.126 57.908 15.444 58.2759 15.9147 58.314C16.3855 58.3521 16.8943 57.87 17.5558 57.0453C18.2174 56.2207 19.0825 55.2311 20.3547 55.2311C21.6269 55.2311 22.1739 56.3222 22.7337 57.1849C23.2935 58.0476 23.6242 58.4536 24.1331 58.517C24.6419 58.517 25.0109 58.0095 25.5325 57.1849C25.7747 56.7813 26.0513 56.3992 26.3594 56.0431C26.7529 55.6361 27.2358 55.3257 27.7701 55.1364C28.3043 54.947 28.8753 54.8839 29.4382 54.952C30.0055 54.9966 30.554 55.1752 31.0384 55.473C31.5229 55.7708 31.9294 56.1793 32.2243 56.6647C32.3108 56.7985 32.3873 56.9384 32.4533 57.0834C32.5466 57.3289 32.6944 57.5501 32.8858 57.7304C32.9464 57.7773 33.0164 57.8106 33.091 57.8281C33.1656 57.8457 33.2432 57.8469 33.3184 57.8319C33.8782 57.665 34.3633 57.3112 34.6923 56.8297L34.8704 56.5759C35.5192 55.7005 36.308 54.6094 37.6057 54.5587C38.1222 54.5987 38.6239 54.7499 39.0763 55.0017C39.5287 55.2536 39.9211 55.6002 40.2264 56.0177C40.6201 56.5363 41.1676 56.9181 41.7911 57.1088C42.529 57.1976 43.2542 56.5379 44.0175 55.8401C45.0098 54.9393 46.1293 53.899 47.5796 54.4699C48.2273 54.7801 48.7644 55.2803 49.119 55.9035C49.3343 56.2648 49.6197 56.5797 49.9586 56.8297C50.0905 56.9104 50.2382 56.9624 50.3917 56.982C50.5452 57.0017 50.7011 56.9887 50.8492 56.9438C51.9328 56.4456 52.8064 55.5834 53.3172 54.5079C53.3543 54.4233 53.4089 54.3474 53.4773 54.2851C53.5457 54.2228 53.6264 54.1755 53.7143 54.1464C53.8022 54.1172 53.8952 54.1067 53.9874 54.1157C54.0796 54.1246 54.1689 54.1528 54.2495 54.1983C54.3301 54.2439 54.4002 54.3057 54.4552 54.38C54.5103 54.4543 54.5492 54.5393 54.5692 54.6295C54.5893 54.7197 54.5901 54.813 54.5716 54.9035C54.5532 54.9941 54.516 55.0797 54.4622 55.155C53.7712 56.5291 52.6121 57.613 51.1927 58.2125C50.874 58.3014 50.5405 58.3247 50.2125 58.2811C49.8844 58.2374 49.5686 58.1278 49.2844 57.9588C48.7734 57.6325 48.3393 57.1997 48.0122 56.6901C47.7983 56.2848 47.4713 55.9499 47.0708 55.7259C46.4347 55.4849 45.7986 55.9796 44.8826 56.8423C44.488 57.3361 43.9895 57.7374 43.4224 58.018C42.8552 58.2986 42.2333 58.4516 41.6004 58.4662C40.6728 58.2531 39.8465 57.7292 39.2595 56.9819C38.687 56.3983 38.1909 55.8908 37.6311 55.9162C37.0714 55.9416 36.4352 56.6774 35.9136 57.4005L35.7228 57.6543C35.1944 58.4239 34.3952 58.9673 33.4838 59.1767C33.2374 59.2179 32.9852 59.2089 32.7424 59.15C32.4997 59.0911 32.2714 58.9836 32.0716 58.8342C31.7097 58.5288 31.4262 58.1417 31.2447 57.7051C31.2447 57.5909 31.1302 57.4767 31.0666 57.3625C30.8569 57.0761 30.5893 56.8368 30.2812 56.6598C29.9731 56.4829 29.6312 56.3724 29.2776 56.3353C28.924 56.2983 28.5665 56.3356 28.2283 56.4447C27.89 56.5539 27.5783 56.7326 27.3136 56.9692C27.0598 57.2723 26.8302 57.5947 26.6266 57.9334C26.105 58.8088 25.418 59.8872 24.1458 59.8872Z" fill="#1A1A1A"/>
<path d="M16.2829 46.1851C15.7792 46.1361 15.2917 45.9807 14.853 45.7291C14.4143 45.4775 14.0344 45.1356 13.7385 44.7261C13.3578 44.2489 12.8637 43.8738 12.3009 43.635C11.5122 43.4067 10.5962 43.9396 9.41302 45.2971C9.35953 45.3723 9.29084 45.4354 9.21136 45.4825C9.13189 45.5296 9.04343 45.5596 8.95163 45.5705C8.85983 45.5814 8.76672 45.573 8.67838 45.5458C8.59004 45.5186 8.50845 45.4733 8.43876 45.4127C8.36907 45.3521 8.31288 45.2776 8.27383 45.194C8.23479 45.1105 8.21372 45.0196 8.21203 44.9275C8.21033 44.8353 8.22802 44.7438 8.26397 44.6588C8.29992 44.5739 8.35333 44.4974 8.42074 44.4343C9.40034 43.3179 10.9015 41.8969 12.6572 42.3664C13.4502 42.6634 14.1488 43.1673 14.6799 43.8254C15.227 44.3836 15.6977 44.8784 16.2447 44.8784C16.8554 44.8784 17.377 44.2313 17.9367 43.6097C18.6746 42.7343 19.5143 41.7447 20.8246 41.935C21.6655 42.1355 22.3979 42.6482 22.8729 43.3686C23.2927 43.8761 23.6616 44.3075 24.1451 44.3582C24.6285 44.409 25.1374 43.9776 25.8244 43.2291C26.1252 42.769 26.5311 42.3866 27.0087 42.1131C27.4864 41.8397 28.0222 41.683 28.5723 41.6559C29.0545 41.7488 29.5124 41.9398 29.9174 42.2171C30.3223 42.4943 30.6656 42.8518 30.9259 43.2671C31.5238 43.9649 31.9309 44.3963 32.3889 44.3328C32.8468 44.2694 33.0886 43.8888 33.5084 43.2545C33.8894 42.554 34.4812 41.9904 35.2004 41.6432C36.5871 41.1358 37.7448 42.1 38.7117 42.9119C39.6786 43.7239 40.3019 44.1806 40.9253 43.9903C41.5487 43.8 41.6759 43.356 42.0194 42.785C42.343 42.1252 42.8288 41.5579 43.4316 41.1358C45.0345 40.1969 46.5484 41.3007 47.8715 42.2902C48.9529 43.0768 49.9706 43.838 50.9375 43.5589C51.9044 43.2798 52.3624 42.4425 52.8713 41.5164C52.913 41.4414 52.9692 41.3754 53.0366 41.322C53.1039 41.2687 53.1811 41.2291 53.2638 41.2056C53.3465 41.182 53.433 41.1749 53.5185 41.1847C53.6039 41.1945 53.6866 41.2209 53.7618 41.2626C53.837 41.3043 53.9031 41.3603 53.9566 41.4275C54.0101 41.4946 54.0498 41.5716 54.0734 41.6541C54.097 41.7366 54.1042 41.8229 54.0944 41.9081C54.0846 41.9933 54.0579 42.0757 54.0162 42.1507C53.7706 42.7674 53.3963 43.325 52.9181 43.7865C52.44 44.2481 51.8689 44.6029 51.2428 44.8276C49.678 45.1955 48.304 44.1806 47.0954 43.2925C45.8868 42.4044 44.8946 41.7447 44.1058 42.2141C43.695 42.5314 43.364 42.9397 43.1389 43.4067C42.7839 44.201 42.1442 44.8344 41.3452 45.1828C39.9712 45.6396 38.8008 44.7007 37.8594 43.9142C36.9179 43.1276 36.2818 42.6455 35.6584 42.8485C35.2065 43.1122 34.8401 43.4997 34.6025 43.9649C34.4061 44.3735 34.1201 44.7327 33.7655 45.0161C33.4109 45.2994 32.9969 45.4995 32.5543 45.6015C31.3584 45.7538 30.5569 44.8276 29.9208 44.0791C29.2847 43.3306 28.9794 42.9753 28.4706 42.9373C27.9617 42.8992 27.351 43.4701 26.7912 44.0918C26.2315 44.7134 25.2264 45.7918 23.9797 45.6269C23.1309 45.4367 22.3909 44.9219 21.9187 44.1933C21.5116 43.7112 21.1427 43.2671 20.6465 43.2037C20.1504 43.1403 19.6288 43.6097 18.9418 44.4724C18.654 44.9427 18.2671 45.3452 17.8081 45.6518C17.349 45.9585 16.8286 46.1621 16.2829 46.2486V46.1851Z" fill="#1A1A1A"/>
<path d="M17.0092 76.6342C16.5069 76.5851 16.0207 76.4309 15.5822 76.1817C15.1438 75.9325 14.763 75.5939 14.4648 75.1879C14.0844 74.7071 13.5905 74.3279 13.0272 74.0841C12.2384 73.8684 11.3224 74.4013 10.1393 75.7588C10.0223 75.8864 9.86061 75.9642 9.68768 75.976C9.51474 75.9878 9.3439 75.9327 9.2106 75.8222C9.14435 75.7663 9.08999 75.6977 9.0508 75.6204C9.01162 75.5432 8.9884 75.4589 8.98247 75.3726C8.97654 75.2862 8.98807 75.1995 9.01633 75.1177C9.04459 75.0358 9.08902 74.9605 9.14701 74.8961C10.1266 73.7669 11.6913 72.3587 13.3834 72.8281C14.178 73.1159 14.8778 73.6163 15.4062 74.2744C15.9532 74.8453 16.4239 75.3274 16.971 75.3274C17.5816 75.3274 18.1032 74.6804 18.663 74.0587C19.4009 73.1833 20.2406 72.1811 21.5509 72.3714C22.3932 72.5762 23.1256 73.0934 23.5991 73.8177C24.019 74.3125 24.3879 74.7438 24.8713 74.8072C25.3548 74.8707 25.8636 74.414 26.5506 73.6781C26.8516 73.2171 27.2572 72.8333 27.7346 72.5578C28.212 72.2822 28.7478 72.1228 29.2985 72.0923C29.7785 72.1915 30.2339 72.385 30.638 72.6616C31.0421 72.9383 31.3868 73.2925 31.6521 73.7035C32.2501 74.414 32.6571 74.8326 33.1151 74.7692C33.5731 74.7058 33.8148 74.3251 34.2347 73.6908C34.6177 72.995 35.2094 72.4361 35.9267 72.0923C37.3134 71.5721 38.4711 72.5363 39.438 73.361C40.4048 74.1856 41.0282 74.6297 41.6516 74.4394C42.275 74.2491 42.4022 73.7923 42.7457 73.1707C43.0663 72.5124 43.5529 71.9484 44.1578 71.534C45.7607 70.5825 47.2747 71.699 48.5978 72.6759C49.6792 73.4751 50.6969 74.2237 51.6638 73.9445C52.6306 73.6654 53.0886 72.8281 53.5975 71.902C53.6819 71.7506 53.823 71.6387 53.99 71.5912C54.157 71.5436 54.3362 71.5641 54.4881 71.6482C54.6399 71.7323 54.752 71.8731 54.7997 72.0397C54.8474 72.2062 54.8268 72.3849 54.7424 72.5363C54.4955 73.1537 54.1209 73.7123 53.6431 74.1758C53.1652 74.6392 52.5948 74.997 51.9691 75.2259C50.4043 75.5939 49.0303 74.5789 47.8217 73.6781C46.6131 72.7774 45.6208 72.1303 44.8321 72.6124C44.4215 72.9247 44.0903 73.3289 43.8652 73.7923C43.5148 74.5928 42.8742 75.2318 42.0714 75.5812C40.6975 76.0379 39.5271 75.0864 38.5856 74.249C37.6442 73.4117 37.0081 72.9803 36.3847 73.196C35.9333 73.4546 35.5665 73.8379 35.3287 74.2998C35.1308 74.7086 34.8445 75.0686 34.4904 75.3538C34.1362 75.639 33.723 75.8423 33.2805 75.9491C32.0083 76.1013 31.2832 75.1752 30.6471 74.4267C30.011 73.6781 29.7057 73.3102 29.1968 73.2721C28.6879 73.2341 28.0773 73.8177 27.5175 74.4267C26.7796 75.2259 25.9527 76.1394 24.7059 75.9745C23.8584 75.7737 23.1206 75.2559 22.645 74.5281C22.2379 74.0587 21.8562 73.602 21.3728 73.5386C20.8894 73.4751 20.355 73.9572 19.668 74.8072C19.3802 75.2776 18.9933 75.68 18.5343 75.9867C18.0752 76.2934 17.5549 76.4969 17.0092 76.5834V76.6342Z" fill="#1A1A1A"/>
<g opacity="0.13">
<path d="M74.1563 91.0326L73.5712 90.9438C73.762 90.9438 74.0927 91.0326 73.6983 90.9438C72.8515 90.7987 72.0319 90.5249 71.2684 90.1318H71.1921C70.4408 89.7853 69.7286 89.36 69.0675 88.8631C68.5927 88.4319 68.1425 87.9744 67.719 87.4929V87.4168C67.1055 86.4178 66.6748 85.3182 66.4468 84.169C66.2803 83.5058 66.2118 82.822 66.2433 82.1391C66.2939 81.8269 66.2587 81.5068 66.1415 81.213C66.074 80.8765 65.8753 80.5805 65.589 80.3902C65.3027 80.1998 64.9523 80.1307 64.6149 80.198C64.2774 80.2653 63.9807 80.4635 63.7898 80.749C63.599 81.0345 63.5296 81.3839 63.5971 81.7204C63.482 83.3255 63.663 84.9381 64.1314 86.478C64.3457 87.9175 65.0784 89.2299 66.1924 90.1699C67.8274 91.8747 69.944 93.0429 72.2608 93.5192C73.1259 93.5192 74.1818 93.9633 74.8815 93.2909C75.0557 93.1179 75.1786 92.9002 75.2368 92.662C75.295 92.4238 75.2861 92.1742 75.2111 91.9407C75.1361 91.7072 74.9979 91.4988 74.8118 91.3386C74.6257 91.1784 74.3989 91.0725 74.1563 91.0326Z" fill="#1A1A1A"/>
</g>
<g clip-path="url(#clip0_501_31490)">
<path d="M38.6045 22.217C38.3898 18.439 39.302 14.6821 41.227 11.4163C43.152 8.15058 46.0042 5.52107 49.4267 3.85686C52.8492 2.19265 56.69 1.56765 60.4685 2.06009C64.247 2.55254 67.7953 4.14055 70.6693 6.62539C73.5434 9.11023 75.6156 12.3815 76.6266 16.0299C77.6376 19.6783 77.5425 23.5417 76.3532 27.1367C75.1639 30.7317 72.9332 33.8986 69.9403 36.241C66.9474 38.5834 63.3252 39.9974 59.527 40.306C56.956 40.487 54.3744 40.1623 51.9301 39.3504C49.4858 38.5386 47.227 37.2556 45.2832 35.575C43.3394 33.8944 41.7488 31.8493 40.6027 29.5571C39.4567 27.2648 38.7776 24.7704 38.6045 22.217Z" fill="#FFD803"/>
<path d="M57.978 40.9025C52.9045 40.8414 48.0386 38.8925 44.3422 35.4412C40.6458 31.9898 38.388 27.2871 38.015 22.2625C37.749 19.6392 38.0126 16.9895 38.7901 14.4685C39.5677 11.9474 40.8437 9.60557 42.5435 7.57996C44.2433 5.55435 46.3328 3.8856 48.6898 2.67129C51.0467 1.45698 53.6239 0.721509 56.2706 0.507855C58.9172 0.2942 61.5802 0.606658 64.1038 1.42697C66.6273 2.24729 68.9608 3.55898 70.9678 5.28535C72.9748 7.01172 74.6151 9.11813 75.7926 11.4814C76.97 13.8446 77.6611 16.4172 77.8255 19.0488C78.292 24.3734 76.6312 29.6667 73.2017 33.7863C71.5273 35.8057 69.461 37.4703 67.1257 38.681C64.7904 39.8916 62.2338 40.6237 59.6079 40.8336C59.0531 40.8795 58.5098 40.9025 57.978 40.9025ZM39.2056 22.1593C39.564 27.1463 41.8999 31.7885 45.7009 35.0677C49.5018 38.3469 54.4574 39.9954 59.4807 39.6514C61.9478 39.4523 64.3495 38.7636 66.5436 37.626C68.7376 36.4884 70.6794 34.9251 72.2538 33.0287C75.4973 29.1518 77.0714 24.162 76.6349 19.1406C76.5034 16.6497 75.8701 14.2102 74.7723 11.9666C73.6746 9.72298 72.1348 7.7208 70.244 6.07851C68.3533 4.43622 66.15 3.18718 63.7645 2.40533C61.379 1.62347 58.8598 1.32466 56.3559 1.52659C53.8521 1.72853 51.4145 2.42712 49.1873 3.58099C46.9602 4.73485 44.9887 6.32055 43.3897 8.24429C41.7906 10.168 40.5964 12.3907 39.8777 14.7808C39.1591 17.1709 38.9305 19.6799 39.2056 22.1593Z" fill="#1A1A1A"/>
<path d="M57.5393 30.3317C54.7786 30.3355 52.0804 29.5158 49.7945 27.9788C49.6648 27.8885 49.5763 27.751 49.5482 27.5963C49.5201 27.4415 49.5546 27.282 49.6442 27.1524C49.6882 27.0874 49.7449 27.0319 49.8109 26.9891C49.877 26.9462 49.951 26.917 50.0286 26.9031C50.1062 26.8892 50.1858 26.8909 50.2627 26.9081C50.3397 26.9253 50.4123 26.9576 50.4765 27.0032C52.0572 28.0681 53.8625 28.7594 55.7541 29.024C57.6456 29.2887 59.573 29.1196 61.3885 28.5297C62.2378 28.3023 63.009 27.85 63.6195 27.2213C64.8679 25.7636 64.2437 23.3877 62.9028 22.171C61.2607 20.9035 59.1941 20.3043 57.1231 20.4953H55.9672C54.9458 20.6155 53.9137 20.6155 52.8924 20.4953C52.1138 20.4048 51.3711 20.1193 50.7341 19.6656C50.0972 19.2118 49.5869 18.6047 49.2512 17.9013C48.9294 16.9718 48.9499 15.9592 49.309 15.0433C49.8168 13.8366 50.6292 12.7802 51.6679 11.976C52.7066 11.1718 53.9365 10.647 55.239 10.4522C57.7007 10.1319 60.1996 10.2368 62.6254 10.7621C62.7812 10.7875 62.9207 10.8728 63.0137 10.9995C63.1067 11.1262 63.1458 11.2842 63.1224 11.4393C63.0941 11.5949 63.0059 11.7335 62.8764 11.8256C62.7469 11.9178 62.5864 11.9562 62.4289 11.9328C60.1524 11.4323 57.8058 11.3274 55.4932 11.6229C54.3996 11.7717 53.3625 12.1957 52.4803 12.8546C51.5982 13.5135 50.9005 14.3855 50.4534 15.3877C50.1899 16.0436 50.1653 16.7702 50.384 17.4422C50.6482 17.9511 51.0359 18.3866 51.5123 18.7093C51.9886 19.0319 52.5384 19.2316 53.112 19.2901C54.0415 19.3937 54.9799 19.3937 55.9094 19.2901L57.0653 19.2327C59.4337 19.0446 61.7853 19.7587 63.6426 21.2298C65.4228 22.8482 66.1857 25.9242 64.4633 27.9214C63.7185 28.7176 62.7663 29.2936 61.7122 29.5857C60.3714 30.0582 58.9619 30.3102 57.5393 30.3317Z" fill="#1A1A1A"/>
<path d="M57.6662 35.5766C57.5107 35.5767 57.3613 35.517 57.2492 35.41C57.1371 35.303 57.0711 35.157 57.0651 35.0027L56.3369 5.47038C56.3338 5.39256 56.3464 5.3149 56.3739 5.24197C56.4014 5.16903 56.4433 5.10229 56.4971 5.04564C56.551 4.98899 56.6156 4.94357 56.6874 4.91205C56.7591 4.88052 56.8364 4.86353 56.9149 4.86206C57.0715 4.86181 57.2223 4.92118 57.3363 5.02792C57.4502 5.13465 57.5186 5.28066 57.5275 5.43595L58.2673 34.9683C58.2688 35.0467 58.2548 35.1246 58.226 35.1976C58.1972 35.2706 58.1542 35.3372 58.0995 35.3937C58.0447 35.4502 57.9793 35.4954 57.9069 35.5268C57.8346 35.5582 57.7567 35.5751 57.6778 35.5766H57.6662Z" fill="#1A1A1A"/>
</g>
<defs>
<clipPath id="clip0_501_31490">
<rect width="39.9492" height="40.4936" fill="white" transform="translate(37.9453 0.409668)"/>
</clipPath>
</defs>
</svg>
