<svg width="136" height="99" viewBox="0 0 136 99" fill="none" xmlns="http://www.w3.org/2000/svg">
<g clip-path="url(#clip0_501_31554)">
<path d="M134.563 32.4732L115.86 97.2634L35.5966 94.0609L25.8877 32.2214L134.563 32.4732Z" fill="#FFD42E"/>
<path d="M115.861 97.9491L35.5975 94.7466C35.4377 94.7365 35.2859 94.6731 35.1665 94.5666C35.047 94.4601 34.967 94.3167 34.939 94.1593L25.2301 32.3198C25.2153 32.2221 25.2227 32.1223 25.2518 32.0279C25.2809 31.9335 25.331 31.8468 25.3983 31.7744C25.4619 31.6992 25.5414 31.639 25.6309 31.5979C25.7205 31.5568 25.818 31.5359 25.9166 31.5366L134.592 31.7884C134.701 31.7872 134.808 31.812 134.906 31.8606C135.003 31.9093 135.088 31.9804 135.152 32.0681C135.216 32.1529 135.258 32.252 135.275 32.3567C135.292 32.4614 135.284 32.5687 135.25 32.6694L116.519 97.3897C116.49 97.5441 116.409 97.684 116.289 97.7859C116.169 97.8877 116.018 97.9453 115.861 97.9491ZM36.1859 93.3901L115.342 96.5506L133.653 33.1588L26.6871 32.9071L36.1859 93.3901Z" fill="black"/>
<path d="M116.364 1.59595L115.075 97.7255L29.1662 97.5157L28.8159 1.59595H116.364Z" fill="white"/>
<path d="M115.076 98.4105L29.1671 98.2007C28.9861 98.1971 28.8136 98.1238 28.6857 97.996C28.5577 97.8683 28.4842 97.6961 28.4806 97.5154L28.1304 1.59568C28.1321 1.41378 28.2021 1.23913 28.3265 1.10621C28.4581 0.979591 28.6341 0.909353 28.8168 0.910449H116.365C116.457 0.909331 116.548 0.927413 116.633 0.96354C116.717 0.999667 116.793 1.05303 116.855 1.12021C116.982 1.25157 117.053 1.42723 117.052 1.60967L115.763 97.7392C115.759 97.9185 115.685 98.0892 115.557 98.2147C115.428 98.3402 115.256 98.4105 115.076 98.4105ZM29.8536 96.8162L114.404 97.04L115.665 2.2809H29.5034L29.8536 96.8162Z" fill="black"/>
<path d="M100.869 40.4728H66.1806C66.15 40.4747 66.1193 40.4703 66.0905 40.4599C66.0617 40.4495 66.0353 40.4334 66.0129 40.4124C65.9906 40.3915 65.9728 40.3661 65.9607 40.338C65.9486 40.3099 65.9423 40.2797 65.9424 40.2491C65.9524 40.1935 65.9818 40.1433 66.0254 40.1075C66.069 40.0716 66.1241 40.0524 66.1806 40.0533H100.939C101.001 40.0566 101.06 40.0827 101.104 40.1266C101.148 40.1705 101.174 40.229 101.177 40.291C101.171 40.3242 101.158 40.3558 101.138 40.3834C101.119 40.4111 101.094 40.4344 101.065 40.4516C101.035 40.4688 101.003 40.4796 100.969 40.4832C100.936 40.4869 100.901 40.4833 100.869 40.4728Z" fill="black"/>
<path d="M100.87 55.2686H70.2725C70.2131 55.2686 70.156 55.245 70.114 55.203C70.0719 55.161 70.0483 55.1041 70.0483 55.0448C70.0483 54.9855 70.0719 54.9286 70.114 54.8866C70.156 54.8446 70.2131 54.821 70.2725 54.821H100.87C100.93 54.821 100.987 54.8446 101.029 54.8866C101.071 54.9286 101.094 54.9855 101.094 55.0448C101.094 55.1041 101.071 55.161 101.029 55.203C100.987 55.245 100.93 55.2686 100.87 55.2686Z" fill="black"/>
<path d="M100.87 70.0782H70.2725C70.2118 70.0746 70.1548 70.048 70.1131 70.0038C70.0714 69.9596 70.0482 69.9011 70.0483 69.8404C70.0483 69.7811 70.0719 69.7242 70.114 69.6822C70.156 69.6402 70.2131 69.6167 70.2725 69.6167H100.87C100.931 69.6166 100.99 69.6397 101.034 69.6813C101.078 69.7229 101.105 69.7798 101.108 69.8404C101.105 69.9024 101.079 69.9609 101.035 70.0048C100.991 70.0487 100.932 70.0748 100.87 70.0782Z" fill="black"/>
<path d="M37.9934 18.7688L51.2608 32.5995L101.613 31.9422L115.076 97.7253L17.0765 97.5016L0.937012 18.6709L37.9934 18.7688Z" fill="white"/>
<path d="M115.075 98.4103L17.1453 98.1865C16.9868 98.1893 16.8324 98.1361 16.7093 98.0363C16.5863 97.9366 16.5025 97.7966 16.4728 97.6411L0.333355 18.8104C0.312435 18.7105 0.314161 18.6071 0.3384 18.5079C0.36264 18.4087 0.408789 18.3162 0.473463 18.2371C0.540305 18.1611 0.622019 18.0995 0.713576 18.0562C0.805132 18.0129 0.9046 17.9888 1.00585 17.9854L38.0622 18.0833C38.2466 18.0874 38.4223 18.1625 38.5525 18.293L51.6238 31.9L101.667 31.2566C101.828 31.2533 101.984 31.306 102.109 31.4056C102.235 31.5052 102.321 31.6455 102.354 31.8021L115.817 97.5293C115.838 97.629 115.837 97.7321 115.812 97.8311C115.788 97.9301 115.742 98.0225 115.678 98.1016C115.613 98.1806 115.532 98.2443 115.44 98.288C115.348 98.3317 115.247 98.3544 115.145 98.3543L115.075 98.4103ZM17.6357 96.816L114.234 97.0398L101.051 32.6411L51.2596 33.2844C51.0731 33.2766 50.8971 33.1963 50.7692 33.0607L37.7119 19.4398L1.73435 19.3558L17.6357 96.816Z" fill="black"/>
<path d="M98.9776 17.5518H50.1529C50.0934 17.5518 50.0364 17.5282 49.9944 17.4862C49.9523 17.4442 49.9287 17.3873 49.9287 17.328C49.9287 17.2687 49.9523 17.2118 49.9944 17.1698C50.0364 17.1278 50.0934 17.1042 50.1529 17.1042H98.9776C99.0371 17.1042 99.0941 17.1278 99.1361 17.1698C99.1781 17.2118 99.2018 17.2687 99.2018 17.328C99.2018 17.3873 99.1781 17.4442 99.1361 17.4862C99.0941 17.5282 99.0371 17.5518 98.9776 17.5518Z" fill="black"/>
<path d="M98.9778 25.0057H72.583C72.5523 25.0057 72.522 24.9995 72.4939 24.9874C72.4657 24.9753 72.4403 24.9576 72.4193 24.9353C72.3983 24.913 72.3821 24.8866 72.3717 24.8579C72.3613 24.8291 72.3569 24.7985 72.3588 24.7679C72.3588 24.7086 72.3824 24.6517 72.4245 24.6097C72.4665 24.5677 72.5236 24.5442 72.583 24.5442H98.9778C99.0372 24.5442 99.0942 24.5677 99.1363 24.6097C99.1783 24.6517 99.2019 24.7086 99.2019 24.7679C99.2038 24.7985 99.1995 24.8291 99.1891 24.8579C99.1787 24.8866 99.1624 24.913 99.1414 24.9353C99.1204 24.9576 99.0951 24.9753 99.0669 24.9874C99.0388 24.9995 99.0084 25.0057 98.9778 25.0057Z" fill="black"/>
<path d="M28.8855 82.2854V80.6534H30.0458V82.2854H28.8855ZM31.8421 82.2854V73.2329H35.6416C36.0496 73.2329 36.4236 73.3179 36.7636 73.4879C37.1036 73.6579 37.4011 73.8832 37.6561 74.1637C37.9111 74.4442 38.1066 74.7587 38.2426 75.1072C38.3786 75.4557 38.4466 75.8127 38.4466 76.1781C38.4466 76.6797 38.3319 77.1599 38.1024 77.6189C37.8814 78.0694 37.5626 78.4349 37.1461 78.7154C36.7381 78.9959 36.2621 79.1362 35.7181 79.1362H33.2701V82.2854H31.8421ZM33.2701 77.8739H35.6289C35.9009 77.8739 36.1389 77.8017 36.3429 77.6572C36.5469 77.5042 36.7041 77.3002 36.8146 77.0452C36.9336 76.7902 36.9931 76.5012 36.9931 76.1781C36.9931 75.8467 36.9251 75.5534 36.7891 75.2984C36.6531 75.0434 36.4746 74.8479 36.2536 74.7119C36.0411 74.5674 35.8074 74.4952 35.5524 74.4952H33.2701V77.8739ZM39.786 82.2854V73.2329H42.999C43.9765 73.2329 44.7925 73.4369 45.447 73.8449C46.1015 74.2444 46.5902 74.7884 46.9132 75.4769C47.2447 76.1569 47.4105 76.9134 47.4105 77.7464C47.4105 78.6644 47.2277 79.4634 46.8622 80.1434C46.5052 80.8234 45.9952 81.3504 45.3322 81.7244C44.6692 82.0984 43.8915 82.2854 42.999 82.2854H39.786ZM45.957 77.7464C45.957 77.1089 45.838 76.5479 45.6 76.0634C45.3705 75.5704 45.0347 75.1879 44.5927 74.9159C44.1592 74.6354 43.628 74.4952 42.999 74.4952H41.214V81.0232H42.999C43.6365 81.0232 44.172 80.8787 44.6055 80.5897C45.0475 80.3007 45.3832 79.9097 45.6127 79.4167C45.8422 78.9237 45.957 78.3669 45.957 77.7464ZM48.9127 82.2854V73.2329H54.9434V74.4952H50.3407V77.1982H54.1912V78.3839H50.3407V82.2854H48.9127Z" fill="black"/>
</g>
<defs>
<clipPath id="clip0_501_31554">
<rect width="135" height="97.5" fill="white" transform="translate(0.25 0.911133)"/>
</clipPath>
</defs>
</svg>
