<svg width="69" height="98" viewBox="0 0 69 98" fill="none" xmlns="http://www.w3.org/2000/svg">
<g clip-path="url(#clip0_501_31584)">
<path d="M63.0838 96.2546C67.9998 95.8468 67.4342 87.3097 67.5212 83.0411C67.6082 76.9159 67.7011 70.7936 67.7997 64.6742C68.0782 46.073 67.9737 28.2354 68.2521 9.59948C68.2521 7.63005 68.2521 5.53047 67.295 3.88204C65.607 1.07104 61.9787 0.836801 58.8986 0.906208C44.603 1.22722 30.6989 0.828124 16.4033 1.14913C15.0286 1.14913 13.5582 1.24456 12.4619 2.14686C10.8783 3.45692 10.7217 5.94692 10.7217 8.10723L9.99077 87.0581C9.99077 89.9472 9.67752 93.9988 12.427 95.2742C17.5693 97.6774 54.3655 96.9747 63.0838 96.2546Z" fill="#FFD803"/>
<path d="M18.7868 9.94689L61.2385 9.59985V87.9781L17.499 87.8827L18.7868 9.94689Z" fill="white"/>
<path d="M37.9294 97.6688C26.392 97.6688 14.9068 97.2523 12.0877 95.9336C9.11199 94.5455 9.17286 90.5979 9.22506 87.7089V87.0408L9.94725 8.08993C9.94725 5.54788 10.2344 3.00583 11.9832 1.56563C13.3145 0.46379 15.0808 0.420418 16.3772 0.39439C23.5294 0.229548 30.6989 0.255576 37.6336 0.272928C44.5682 0.29028 51.7291 0.272929 58.8726 0.151466C62.3529 0.0820584 66.0768 0.41174 67.9214 3.48302C69.0438 5.37437 69.0091 7.71687 68.983 9.55616C68.8438 18.8567 68.8003 28.1226 68.7568 37.0935C68.7133 46.0644 68.6698 55.313 68.5305 64.6396L68.2521 82.9978C68.2521 83.4316 68.2521 83.8654 68.2521 84.4033C68.2521 89.2271 68.2521 96.5496 63.1446 96.9314C59.1335 97.3565 48.5097 97.6688 37.9294 97.6688ZM30.4988 1.74783C25.8438 1.74783 21.1279 1.74784 16.412 1.88665C15.0199 1.88665 13.8018 1.99943 12.9317 2.71086C11.6526 3.778 11.4612 5.9383 11.4351 8.11595L10.6955 87.7436C10.6955 90.3463 10.6085 93.6258 12.7141 94.6062C17.5867 96.8706 53.5475 96.298 63.0228 95.5172C66.7642 95.2049 66.7729 88.7326 66.7729 84.4554C66.7729 83.9435 66.7729 83.4663 66.7729 83.0325L67.0513 64.6656C67.1905 55.3737 67.2341 46.0991 67.2776 37.1369C67.3211 28.1747 67.3646 18.9175 67.5038 9.59086C67.5038 7.85567 67.5647 5.78214 66.6337 4.25517C65.1806 1.83459 61.9004 1.57431 58.8899 1.6524C51.729 1.81724 44.5508 1.79121 37.6162 1.77386L30.4988 1.74783Z" fill="black"/>
<path d="M61.2303 88.6808L17.4994 88.62C17.401 88.6205 17.3035 88.6016 17.2124 88.5643C17.1213 88.5271 17.0385 88.4723 16.9687 88.4031C16.8988 88.3343 16.8442 88.2517 16.8082 88.1605C16.7723 88.0694 16.7558 87.9718 16.7599 87.8739L18.0476 9.93812C18.0499 9.74554 18.1276 9.56147 18.2642 9.42528C18.4008 9.28909 18.5853 9.21159 18.7785 9.20934L61.2303 8.8623C61.4264 8.8623 61.6146 8.94 61.7533 9.0783C61.892 9.2166 61.9698 9.40418 61.9698 9.59976V87.978C61.9684 88.1732 61.8903 88.3601 61.7523 88.4986C61.6089 88.6252 61.4215 88.6906 61.2303 88.6808ZM18.2477 87.1191L60.4994 87.2059V10.3459L19.5094 10.6756L18.2477 87.1191Z" fill="black"/>
<path d="M34.9616 6.3205C34.7786 6.30973 34.6062 6.23156 34.4777 6.10118C34.3492 5.97079 34.2738 5.79748 34.2663 5.61484C34.2587 5.4322 34.3194 5.25327 34.4366 5.11273C34.5539 4.9722 34.7192 4.88009 34.9007 4.85427C38.5021 4.5335 42.12 4.43788 45.7334 4.56796C45.8309 4.57016 45.927 4.59181 46.016 4.63161C46.1049 4.67141 46.185 4.72857 46.2515 4.79972C46.318 4.87087 46.3695 4.95457 46.4031 5.04589C46.4366 5.13721 46.4515 5.23429 46.4469 5.33143C46.4459 5.42789 46.4252 5.52315 46.3861 5.6114C46.347 5.69964 46.2904 5.77904 46.2196 5.84478C46.1488 5.91051 46.0653 5.9612 45.9743 5.99376C45.8832 6.02632 45.7864 6.04008 45.6899 6.03419C42.1316 5.9128 38.5691 6.00842 35.0225 6.3205H34.9616Z" fill="black"/>
<g opacity="0.13">
<path d="M61.8746 10.4422C61.5527 9.34031 60.5173 9.21017 59.5254 9.39236C55.7753 9.65264 52.0165 9.60926 48.2577 9.7047C42.7848 10.0344 37.3119 10.312 31.8303 10.2947C30.0118 10.2513 28.2021 10.3988 26.3836 10.2947L26.7751 10.3467C24.6695 10.1211 22.5639 10.0344 20.4496 9.96498C20.2322 9.85823 19.991 9.80881 19.749 9.82142C19.507 9.83403 19.2723 9.90827 19.0672 10.037C18.8622 10.1658 18.6936 10.3448 18.5777 10.557C18.4617 10.7691 18.4022 11.0074 18.4048 11.249C18.5005 15.908 18.022 20.5409 17.935 25.1912C17.761 34.7781 17.6652 44.365 17.4303 53.9432C17.265 56.9191 17.6304 58.8885 17.5521 62.5671C17.5521 65.1091 17.3955 67.6512 17.3172 70.1845C17.4129 72.5964 17.3955 72.8741 17.439 75.1385C17.5374 75.898 17.6798 76.6511 17.8654 77.3942C17.928 78.2348 17.8635 79.0801 17.674 79.9016C17.4044 81.6087 17.2272 83.329 17.1432 85.0551C16.9779 86.7903 16.6212 88.5254 18.6572 88.7597C20.0928 88.6556 20.319 87.5711 20.2668 86.3478C20.2146 85.1245 20.38 84.0313 20.3539 82.8774C20.3539 81.4112 20.5017 79.9536 20.5191 78.4961C20.3922 76.575 20.3922 74.6477 20.5191 72.7266C20.5974 71.7202 20.5191 70.7138 20.5191 69.7161C20.6496 67.3475 20.7454 64.979 20.7454 62.6105C20.8498 58.689 20.6845 56.7802 20.5365 53.4227C20.6323 49.718 20.5365 46.0134 20.5365 42.3088C20.7193 37.5544 20.5366 32.7653 20.728 28.0543C20.8324 23.0743 21.076 18.0856 21.1717 13.1057C23.9734 13.1577 26.7751 13.3746 29.5768 13.2445C31.7172 13.1404 33.849 13.2445 35.9894 13.1751C38.4256 13.097 40.8706 12.9235 43.3155 12.9235C47.3412 12.8656 51.3697 12.8107 55.4011 12.7586C57.1413 12.7066 59.5776 12.3856 60.1257 12.4116C60.3858 12.4545 60.6525 12.4309 60.901 12.343C61.1494 12.2551 61.3714 12.1058 61.5462 11.909C61.721 11.7122 61.8428 11.4744 61.9002 11.2178C61.9576 10.9613 61.9488 10.6944 61.8746 10.4422Z" fill="black"/>
</g>
<path d="M3.83546 62.0197L3.73975 73.4112L23.021 73.4979L23.3951 80.725L37.2035 67.2339L23.4908 54.5237L23.021 61.8375L3.83546 62.0197Z" fill="white"/>
<path d="M23.395 81.4623C23.3026 81.4628 23.2109 81.4451 23.1253 81.4103C22.9924 81.3586 22.8773 81.2696 22.7939 81.1542C22.7106 81.0387 22.6625 80.9017 22.6555 80.7596L22.3248 74.2353L3.73964 74.1485C3.54386 74.1471 3.35646 74.0693 3.2176 73.9316C3.08505 73.7903 3.01053 73.6046 3.00879 73.4111L3.10449 62.0196C3.10449 61.8263 3.18149 61.641 3.31856 61.5043C3.45562 61.3676 3.64155 61.2908 3.83539 61.2908L22.3335 61.1086L22.7599 54.4802C22.7684 54.3419 22.8163 54.2088 22.898 54.0966C22.9796 53.9844 23.0917 53.8978 23.221 53.8469C23.3501 53.795 23.4913 53.7805 23.6283 53.8051C23.7653 53.8296 23.8925 53.8923 23.9954 53.9857L37.7168 66.6959C37.7881 66.7654 37.8447 66.8484 37.8834 66.94C37.922 67.0317 37.942 67.1301 37.942 67.2295C37.942 67.3289 37.922 67.4273 37.8834 67.519C37.8447 67.6106 37.7881 67.6936 37.7168 67.7631L23.8997 81.2541C23.7633 81.3837 23.5834 81.458 23.395 81.4623ZM4.47925 72.6823L23.0296 72.7691C23.2184 72.7711 23.3992 72.845 23.5351 72.9756C23.671 73.1063 23.7516 73.2838 23.7605 73.4718L24.0476 79.0591L36.1419 67.2512L24.0998 56.12L23.7344 61.8895C23.7233 62.0751 23.6414 62.2496 23.5055 62.377C23.3696 62.5044 23.19 62.5752 23.0035 62.5749L4.54016 62.7571L4.47925 72.6823Z" fill="black"/>
<g opacity="0.13">
<path d="M36.8894 66.9906C36.8846 66.6969 36.7858 66.4124 36.6075 66.1785C36.4292 65.9446 36.1808 65.7736 35.8982 65.6904C35.6157 65.6071 35.3139 65.6159 35.0367 65.7156C34.7596 65.8153 34.5216 66.0006 34.3574 66.2445C34.2791 66.3226 34.2095 66.4007 34.1312 66.4701C33.1906 67.1767 32.2955 67.9417 31.4513 68.7605C29.6589 70.6345 27.7622 72.4131 25.9698 74.2871C25.9468 73.5889 25.8056 72.8995 25.5521 72.2482C25.4877 71.8374 25.2634 71.4684 24.9278 71.2215C24.5922 70.9746 24.1724 70.8697 23.7597 70.9295C22.8461 70.3482 21.48 70.4957 20.4359 70.4089C16.8338 70.2962 13.2316 70.4089 9.62071 70.3395C8.68971 70.3395 7.75003 70.4176 6.81033 70.3395C6.14947 70.2357 5.47425 70.2682 4.82649 70.435C4.48304 70.5855 4.20154 70.8486 4.02868 71.1806C3.85582 71.5126 3.80205 71.8936 3.87621 72.2603C3.95037 72.627 4.14804 72.9574 4.43643 73.1966C4.72482 73.4359 5.08659 73.5696 5.4617 73.5757C9.17699 74.0528 12.901 73.7405 16.6336 73.6537C18.1824 73.7145 19.7312 73.6017 21.2712 73.6017C21.7513 73.6032 22.2309 73.6351 22.7069 73.6971C22.7069 73.7492 22.7069 73.8099 22.7504 73.8706V74.0181C22.6982 74.9291 22.472 75.2501 22.3154 77.3063C22.2449 77.5747 22.2399 77.8561 22.301 78.1268C22.362 78.3975 22.4873 78.6496 22.6663 78.8621C22.8453 79.0746 23.0727 79.2411 23.3296 79.3478C23.5865 79.4545 23.8652 79.4982 24.1425 79.4753C24.4073 79.5735 24.6951 79.5922 24.9704 79.5289C25.2457 79.4657 25.4963 79.3234 25.6913 79.1196C26.9965 77.5232 28.5191 76.1003 29.9025 74.5734C31.286 73.0464 32.7651 71.372 34.3052 69.8797C34.9143 69.2984 35.5408 68.7345 36.1846 68.1966C36.3961 68.0729 36.5721 67.8969 36.6955 67.6857C36.819 67.4745 36.8857 67.2351 36.8894 66.9906Z" fill="black"/>
</g>
</g>
<defs>
<clipPath id="clip0_501_31584">
<rect width="68.25" height="97.5" fill="white" transform="translate(0.75 0.161133)"/>
</clipPath>
</defs>
</svg>
