<svg width="107" height="29" viewBox="0 0 107 29" fill="none" xmlns="http://www.w3.org/2000/svg">
<path d="M105.913 21.7061C105.974 21.7592 106.022 21.8244 106.056 21.8976C106.08 21.9763 106.088 22.0591 106.078 22.1407C106.068 22.2223 106.041 22.3008 105.999 22.3712C105.957 22.4416 105.901 22.5023 105.834 22.5493C105.766 22.5963 105.69 22.6286 105.61 22.6442C105.434 22.7072 105.253 22.7507 105.068 22.7739C104.989 22.7925 104.908 22.7953 104.829 22.782C104.749 22.7688 104.673 22.7398 104.605 22.6968C104.536 22.6538 104.477 22.5976 104.431 22.5315C104.385 22.4654 104.352 22.3907 104.334 22.3119C104.314 22.2316 104.31 22.1481 104.322 22.0663C104.335 21.9845 104.363 21.9061 104.406 21.8356C104.449 21.7651 104.505 21.7039 104.572 21.6556C104.639 21.6074 104.715 21.5729 104.795 21.5544L105.308 21.4466C105.423 21.4292 105.54 21.4444 105.647 21.4902C105.754 21.5361 105.846 21.6109 105.913 21.7061ZM99.2051 22.4727C99.2866 22.5789 99.3282 22.7103 99.3227 22.8438C99.3219 23.0067 99.2575 23.1625 99.1433 23.2779C99.029 23.3933 98.874 23.4591 98.7114 23.4612C96.3118 23.4298 93.9208 23.1474 91.5772 22.6186C91.414 22.5943 91.2668 22.5062 91.1678 22.3737C91.0688 22.2412 91.0261 22.0751 91.0489 21.9117C91.0767 21.7506 91.165 21.6064 91.2956 21.5088C91.4263 21.4112 91.5895 21.3674 91.7519 21.3864C94.0143 21.9011 96.3233 22.1758 98.6407 22.2059C98.75 22.1929 98.8609 22.211 98.9608 22.2582C99.0606 22.3054 99.1453 22.3797 99.2051 22.4727ZM86.2146 19.9014C86.2765 19.9825 86.3171 20.0779 86.3326 20.1787C86.348 20.2795 86.3379 20.3824 86.303 20.4779C86.2462 20.6328 86.1302 20.7585 85.9805 20.8273C85.8308 20.8961 85.6597 20.9025 85.5046 20.845C83.2508 20.0386 81.0391 19.1175 78.878 18.0854C78.7288 18.0113 78.6148 17.881 78.561 17.7231C78.5073 17.5653 78.5183 17.3929 78.5915 17.2438C78.6647 17.0948 78.7942 16.9813 78.9515 16.9283C79.1088 16.8753 79.281 16.8872 79.4302 16.9613C81.5297 17.9913 83.6804 18.9122 85.8737 19.7201C86.0038 19.7418 86.1235 19.8054 86.2146 19.9014ZM74.1776 14.2079C74.2476 14.3051 74.2892 14.4199 74.2977 14.5392C74.3062 14.6586 74.2813 14.7777 74.2258 14.8833C74.1429 15.0245 74.0091 15.1282 73.8517 15.1733C73.6944 15.2183 73.5254 15.2012 73.3796 15.1254C71.8987 14.3042 70.4104 13.4426 68.9698 12.6142L67.225 11.623C67.0832 11.5368 66.98 11.3991 66.9368 11.2389C66.8937 11.0787 66.914 10.9083 66.9934 10.7633C67.034 10.6915 67.0885 10.6285 67.1538 10.578C67.219 10.5276 67.2937 10.4907 67.3735 10.4696C67.4532 10.4484 67.5365 10.4434 67.6184 10.4548C67.7003 10.4662 67.7792 10.4938 67.8506 10.536L69.5954 11.5271C71.0214 12.3665 72.4986 13.2133 73.9796 14.0345C74.0577 14.0767 74.1254 14.1359 74.1776 14.2079ZM62.5648 7.64658C62.6348 7.74383 62.6764 7.85859 62.6849 7.97793C62.6934 8.09726 62.6685 8.21642 62.613 8.32199C62.536 8.46634 62.4052 8.57422 62.2489 8.62229C62.0926 8.67036 61.9234 8.65475 61.7778 8.57884C59.4649 7.34662 57.394 6.34664 55.4441 5.50867C55.3685 5.47826 55.2997 5.43294 55.2419 5.37539C55.184 5.31784 55.1383 5.24928 55.1075 5.17377C55.0766 5.09827 55.0613 5.01738 55.0623 4.93596C55.0634 4.85454 55.0808 4.77426 55.1136 4.69991C55.1444 4.6232 55.1903 4.55349 55.2484 4.49485C55.3065 4.43622 55.3758 4.38984 55.4522 4.35841C55.5286 4.32698 55.6105 4.31112 55.6932 4.31178C55.776 4.31245 55.8578 4.32962 55.934 4.36228C57.8985 5.1893 60.0025 6.23346 62.3411 7.46947C62.4259 7.51413 62.5018 7.57419 62.5648 7.64658ZM50.3267 2.44759C50.4094 2.5536 50.456 2.68336 50.4594 2.81757C50.4629 2.95178 50.423 3.08328 50.3457 3.19256C50.2685 3.30183 50.158 3.38305 50.0306 3.42414C49.9032 3.46523 49.7658 3.464 49.6387 3.42063C48.6969 3.13757 47.7477 2.90585 46.8096 2.68886C45.497 2.41442 44.171 2.21011 42.8374 2.07677C42.6743 2.05242 42.5271 1.96435 42.4281 1.83185C42.3291 1.69935 42.2864 1.53323 42.3092 1.36988C42.3327 1.20661 42.4198 1.05964 42.5516 0.96118C42.6834 0.86272 42.849 0.820785 43.0122 0.84457C44.398 0.981166 45.7747 1.20173 47.1346 1.50503C48.0874 1.71109 49.0732 1.96131 49.9968 2.28099C50.1195 2.3059 50.2335 2.36345 50.3267 2.44759ZM37.1612 1.01678C37.2519 1.08372 37.3208 1.17597 37.3593 1.28187C37.3757 1.36681 37.3738 1.4542 37.3537 1.53816C37.3336 1.62211 37.2957 1.70067 37.2427 1.76858C37.1896 1.83648 37.1226 1.89213 37.0462 1.93181C36.9697 1.97149 36.8856 1.99427 36.7994 1.99861C34.4866 2.17431 32.1946 2.55089 29.949 3.12412C29.7908 3.16141 29.6239 3.1351 29.4841 3.0508C29.3444 2.96651 29.2428 2.83095 29.2012 2.67313C29.1798 2.59445 29.1745 2.51235 29.1855 2.43173C29.1965 2.3511 29.2237 2.27362 29.2653 2.20391C29.307 2.13421 29.3623 2.07372 29.428 2.02606C29.4937 1.97839 29.5683 1.94454 29.6475 1.92652C31.9615 1.32173 34.3268 0.92936 36.714 0.754256C36.8025 0.764611 36.888 0.793297 36.965 0.838497C37.042 0.883694 37.1088 0.944414 37.1612 1.01678ZM24.3186 4.14131L24.4066 4.25912C24.4414 4.33409 24.4606 4.41532 24.4629 4.49781C24.4653 4.5803 24.4508 4.66232 24.4203 4.73881C24.3898 4.81531 24.344 4.88468 24.2857 4.94266C24.2274 5.00065 24.1578 5.04602 24.0812 5.07599C21.9466 5.98013 19.8922 7.06225 17.9398 8.31098C17.798 8.39938 17.6269 8.4285 17.4633 8.39211C17.2996 8.35573 17.1563 8.25672 17.064 8.11627C16.9805 7.97373 16.9548 7.80479 16.9922 7.64443C17.0295 7.48406 17.1272 7.34456 17.2648 7.25482C19.2777 5.97436 21.3929 4.86199 23.5893 3.92891C23.7172 3.88214 23.8569 3.87752 23.988 3.91571C24.1192 3.95391 24.235 4.03294 24.3186 4.14131ZM13.0877 11.1334C13.1863 11.2568 13.2331 11.4136 13.2182 11.5705C13.2032 11.7273 13.1278 11.8719 13.0079 11.9733C11.2625 13.4994 9.64643 15.1675 8.17598 16.9608C8.12552 17.0258 8.06229 17.0797 7.99016 17.1191C7.91803 17.1586 7.83853 17.1829 7.75653 17.1904C7.67454 17.198 7.59177 17.1886 7.51333 17.163C7.43489 17.1374 7.36242 17.096 7.30038 17.0414C7.23526 16.9905 7.18116 16.9269 7.14135 16.8544C7.10155 16.7819 7.07692 16.7022 7.06895 16.62C7.06099 16.5379 7.06986 16.455 7.09504 16.3766C7.12022 16.2982 7.16115 16.2258 7.21535 16.164C8.72645 14.3156 10.3892 12.5972 12.1863 11.0266C12.2488 10.9737 12.3211 10.9338 12.3991 10.9091C12.4772 10.8843 12.5594 10.8753 12.6411 10.8825C12.7228 10.8897 12.8024 10.9129 12.8752 10.9509C12.9481 10.9889 13.0128 11.0409 13.0657 11.1039L13.0877 11.1334ZM4.70646 21.2975C4.7785 21.3964 4.8201 21.5142 4.82607 21.6362C4.83204 21.7582 4.80213 21.8791 4.74005 21.9839C3.60282 23.9946 2.66238 26.1114 1.93177 28.3051C1.90861 28.3833 1.86983 28.456 1.81779 28.5187C1.76576 28.5814 1.70155 28.6328 1.62901 28.6698C1.55646 28.7069 1.47709 28.7288 1.3957 28.7343C1.3143 28.7397 1.23255 28.7286 1.15538 28.7016C0.997643 28.6479 0.866591 28.535 0.789895 28.3868C0.713198 28.2386 0.696865 28.0666 0.744339 27.9072C1.49264 25.6323 2.47033 23.4407 3.66234 21.3663C3.70101 21.2925 3.75454 21.2276 3.81958 21.1757C3.88462 21.1238 3.95976 21.0859 4.04026 21.0646C4.12076 21.0432 4.2049 21.0388 4.28737 21.0516C4.36984 21.0644 4.44886 21.0941 4.51947 21.1389C4.60761 21.1984 4.6775 21.2813 4.7212 21.3783L4.70646 21.2975Z" fill="black"/>
</svg>
