<svg width="141" height="24" viewBox="0 0 141 24" fill="none" xmlns="http://www.w3.org/2000/svg">
<path d="M140.258 23.0447C140.168 23.1441 140.045 23.2076 139.911 23.2235C139.778 23.2394 139.644 23.2066 139.532 23.1313C137.878 22.0579 135.965 20.791 134.055 19.5957C133.93 19.5135 133.841 19.3858 133.809 19.2398C133.776 19.0938 133.802 18.941 133.881 18.8139C133.919 18.7477 133.97 18.69 134.031 18.6445C134.092 18.599 134.162 18.5665 134.237 18.5492C134.311 18.5319 134.388 18.5301 134.463 18.5439C134.539 18.5577 134.61 18.5868 134.674 18.6294C136.584 19.8247 138.497 21.0915 140.151 22.1649C140.278 22.2491 140.366 22.3799 140.397 22.5288C140.427 22.6776 140.397 22.8324 140.314 22.9591L140.258 23.0447ZM129.873 16.5258C129.784 16.621 129.664 16.6826 129.535 16.7004C129.405 16.7182 129.273 16.6912 129.161 16.6238C127.132 15.4567 125.266 14.4628 123.416 13.5996C123.348 13.5686 123.287 13.5242 123.237 13.4691C123.186 13.414 123.147 13.3493 123.122 13.2789C123.097 13.2086 123.087 13.1339 123.091 13.0594C123.095 12.9849 123.115 12.9121 123.148 12.8453C123.217 12.7082 123.337 12.6036 123.482 12.5536C123.627 12.5037 123.786 12.5123 123.926 12.5777C125.764 13.477 127.656 14.4939 129.719 15.6477C129.852 15.7221 129.95 15.846 129.991 15.9923C130.033 16.1385 130.015 16.2951 129.941 16.4277L129.873 16.5258ZM118.865 11.1524C118.784 11.2349 118.68 11.2922 118.567 11.3176C118.454 11.343 118.335 11.3353 118.226 11.2955C116.224 10.5241 114.172 9.88973 112.084 9.39673C112.01 9.37909 111.939 9.34698 111.877 9.30223C111.815 9.25748 111.763 9.20097 111.722 9.13593C111.682 9.07087 111.655 8.99855 111.643 8.92311C111.63 8.84766 111.633 8.77055 111.651 8.6962C111.668 8.62185 111.7 8.5517 111.745 8.48976C111.789 8.42781 111.846 8.37528 111.911 8.33517C111.975 8.29507 112.048 8.26818 112.123 8.25602C112.199 8.24386 112.276 8.24668 112.35 8.26431C114.469 8.76673 116.553 9.4078 118.588 10.1834C118.66 10.2089 118.725 10.2486 118.781 10.3002C118.836 10.3518 118.881 10.4141 118.911 10.4834C118.942 10.5527 118.958 10.6275 118.959 10.7032C118.96 10.7789 118.945 10.8539 118.916 10.9237C118.919 11.0031 118.902 11.082 118.865 11.1524ZM106.977 8.29569C106.919 8.36255 106.847 8.41433 106.765 8.4465C106.683 8.47867 106.594 8.49028 106.506 8.48028L105.799 8.42281C103.902 8.30051 101.999 8.31099 100.104 8.45417C99.9556 8.45964 99.8111 8.40772 99.7003 8.30925C99.5895 8.21079 99.521 8.07341 99.509 7.92582C99.497 7.77823 99.5426 7.63185 99.6361 7.51729C99.7297 7.40274 99.8639 7.32887 100.011 7.31112C101.958 7.15766 103.914 7.14923 105.862 7.28594C106.113 7.28861 106.365 7.31514 106.604 7.33017C106.712 7.33909 106.815 7.37823 106.902 7.44306C106.988 7.5079 107.055 7.5958 107.094 7.69667C107.133 7.79753 107.142 7.90726 107.122 8.01323C107.101 8.11921 107.051 8.21711 106.977 8.29569ZM94.7642 9.0456C94.6787 9.13258 94.5683 9.19089 94.4483 9.21252C92.4348 9.6452 90.4462 10.1009 88.2027 10.757C88.0669 10.7764 87.9284 10.7464 87.8126 10.6725C87.6967 10.5986 87.6111 10.4857 87.5713 10.3542C87.5314 10.2228 87.54 10.0815 87.5954 9.95604C87.6509 9.83059 87.7495 9.72927 87.8734 9.67048C90.1398 8.9896 92.222 8.48271 94.2363 8.07388C94.3583 8.04639 94.486 8.05953 94.6001 8.11131C94.7141 8.16309 94.8081 8.25067 94.8679 8.3607C94.9277 8.47074 94.9499 8.59719 94.9312 8.72083C94.9124 8.84448 94.8538 8.95852 94.7642 9.0456ZM82.999 12.3705C82.9577 12.4524 82.8942 12.5209 82.8157 12.5683C80.7544 13.3014 78.6826 14.0706 76.7167 14.8001C76.6472 14.8274 76.5729 14.8406 76.4983 14.8386C76.4236 14.8367 76.35 14.8198 76.282 14.7889C76.2139 14.758 76.1527 14.7137 76.102 14.6587C76.0514 14.6037 76.0123 14.5391 75.987 14.4687C75.9333 14.325 75.9375 14.166 75.9989 14.0256C76.0602 13.8851 76.1739 13.7742 76.3158 13.7162C78.2702 12.9991 80.3535 12.2175 82.4387 11.4836C82.5826 11.4384 82.7384 11.45 82.8743 11.516C83.0101 11.582 83.1157 11.6975 83.1693 11.8387C83.1977 11.9358 83.1992 12.0387 83.1735 12.1364C83.1479 12.2341 83.0962 12.323 83.0238 12.3934L82.999 12.3705ZM71.509 16.6167C71.4633 16.6884 71.4051 16.7512 71.3371 16.8022C68.9465 17.6668 66.9902 18.3362 65.1618 18.9173C65.0148 18.9616 64.8561 18.9467 64.7195 18.876C64.583 18.8052 64.4792 18.6841 64.4303 18.5383C64.4079 18.4654 64.4003 18.3888 64.4078 18.313C64.4153 18.2372 64.4379 18.1637 64.4742 18.0967C64.5105 18.0298 64.5598 17.9708 64.6191 17.9232C64.6785 17.8755 64.7468 17.8402 64.8201 17.8193C66.66 17.2258 68.5122 16.6438 70.9362 15.7183C71.06 15.6653 71.1985 15.6576 71.3275 15.6965C71.4566 15.7353 71.568 15.8183 71.6422 15.9309C71.7164 16.0435 71.7486 16.1785 71.7334 16.3123C71.7181 16.446 71.6562 16.5701 71.5586 16.6626L71.509 16.6167ZM59.8276 20.249C59.7502 20.33 59.6542 20.3909 59.5479 20.4265C58.755 20.6111 57.962 20.7956 57.2034 20.9431C55.8408 21.2204 54.4515 21.427 53.0279 21.6706C52.8761 21.676 52.7283 21.621 52.6168 21.5176C52.5053 21.4143 52.4391 21.2711 52.4329 21.1194C52.4272 20.9677 52.4819 20.82 52.585 20.7087C52.6881 20.5975 52.8312 20.5317 52.9829 20.5258C54.3263 20.3687 55.6661 20.1162 57.0057 19.8636C57.7529 19.7285 58.5344 19.5563 59.3035 19.3727C59.4509 19.3356 59.6071 19.3587 59.7378 19.4367C59.8686 19.5147 59.9631 19.6414 60.0006 19.7888C60.0158 19.8754 60.0103 19.9643 59.9846 20.0483C59.9588 20.1323 59.9135 20.2089 59.8524 20.272L59.8276 20.249ZM47.7079 21.8434C47.6557 21.9013 47.5926 21.9483 47.5222 21.9816C47.4518 22.0149 47.3754 22.034 47.2975 22.0377C45.1067 22.0815 42.915 22.007 40.7317 21.8146C40.6484 21.8213 40.5645 21.8098 40.486 21.7808C40.4075 21.7518 40.3363 21.7059 40.2773 21.6466C40.2182 21.5872 40.1729 21.5156 40.1444 21.4369C40.1159 21.3583 40.1049 21.2743 40.1122 21.1911C40.1196 21.1078 40.145 21.0271 40.1868 20.9548C40.2286 20.8825 40.2857 20.8202 40.3542 20.7723C40.4226 20.7244 40.5007 20.6921 40.5831 20.6776C40.6654 20.6631 40.7499 20.6667 40.8308 20.6883C42.9986 20.8549 45.1734 20.9061 47.346 20.8416C47.5006 20.8375 47.6508 20.8941 47.7643 20.9993C47.8779 21.1045 47.9457 21.2499 47.9534 21.4044C47.9563 21.4935 47.9378 21.582 47.8994 21.6624C47.861 21.7428 47.8038 21.8127 47.7326 21.8663L47.7079 21.8434ZM35.5232 20.8725C35.4571 20.9445 35.3736 20.9984 35.2808 21.029C35.1879 21.0596 35.0887 21.0659 34.9926 21.0474C32.8385 20.6666 30.7061 20.1714 28.6042 19.5638C28.4582 19.5164 28.3362 19.4142 28.264 19.2787C28.1918 19.1431 28.1751 18.985 28.2174 18.8376C28.2633 18.694 28.3639 18.5744 28.4975 18.5047C28.6312 18.4349 28.787 18.4206 28.9313 18.4649C30.9945 19.0675 33.0869 19.5641 35.2004 19.9529C35.3503 19.9792 35.4837 20.0638 35.5715 20.1882C35.6592 20.3126 35.6941 20.4666 35.6684 20.6164C35.6558 20.7191 35.614 20.816 35.548 20.8955L35.5232 20.8725ZM23.8392 17.4469C23.7588 17.5312 23.6552 17.5898 23.5414 17.6153C23.4277 17.6407 23.3088 17.6319 23.1999 17.59C21.1626 16.7771 19.1691 15.8582 17.2275 14.837C17.0917 14.766 16.9895 14.644 16.9434 14.4979C16.8974 14.3518 16.9112 14.1935 16.9819 14.0579C17.0526 13.9222 17.1744 13.8204 17.3204 13.7747C17.4664 13.7289 17.6248 13.7431 17.7606 13.8141C19.664 14.816 21.6169 15.7204 23.6119 16.5238C23.7531 16.5792 23.8668 16.6881 23.9282 16.8268C23.9896 16.9654 23.9936 17.1227 23.9395 17.2641C23.9207 17.332 23.8864 17.3946 23.8392 17.4469ZM12.9516 11.7945C12.859 11.8928 12.7352 11.9563 12.6011 11.9743C12.467 11.9923 12.3307 11.9637 12.215 11.8933C10.3755 10.6715 8.59232 9.36407 6.91414 7.99299C6.85568 7.94504 6.80723 7.88604 6.77158 7.81938C6.73593 7.75273 6.71378 7.67971 6.70639 7.60454C6.69899 7.52936 6.70651 7.45351 6.72851 7.38132C6.75051 7.30912 6.78656 7.24201 6.83459 7.18384C6.88241 7.1255 6.9413 7.0772 7.00789 7.04171C7.07448 7.00622 7.14745 6.98424 7.22262 6.97702C7.29779 6.9698 7.37368 6.97749 7.44594 6.99966C7.51819 7.02182 7.5854 7.05801 7.6437 7.10617C9.30816 8.46667 11.0405 9.74194 12.8339 10.927C12.8985 10.9668 12.9545 11.0189 12.9988 11.0804C13.0432 11.1419 13.0749 11.2115 13.0922 11.2852C13.1096 11.359 13.1121 11.4354 13.0998 11.51C13.0875 11.5847 13.0605 11.6561 13.0204 11.7203L12.9516 11.7945ZM3.46324 4.06009C3.40889 4.1124 3.34472 4.15346 3.27441 4.18089C3.2041 4.20832 3.12904 4.22159 3.05352 4.21994C2.97801 4.2183 2.90352 4.20177 2.83434 4.17129C2.76516 4.14082 2.70264 4.09701 2.65038 4.04237C1.88191 3.33033 1.18126 2.52025 0.481535 1.73402C0.380117 1.61686 0.328662 1.46467 0.33823 1.31021C0.347797 1.15576 0.417629 1.01136 0.532701 0.908098C0.650524 0.811952 0.801031 0.765086 0.952827 0.777277C1.10462 0.789467 1.24599 0.859768 1.34743 0.973523C2.02237 1.73678 2.745 2.49828 3.4667 3.23593C3.53142 3.29337 3.58237 3.36465 3.61572 3.44446C3.64908 3.52427 3.66398 3.61056 3.65933 3.69685C3.65468 3.78314 3.63061 3.86721 3.58888 3.9428C3.54715 4.01839 3.48885 4.08356 3.41834 4.1334L3.46324 4.06009Z" fill="black"/>
</svg>
