<svg width="105" height="66" viewBox="0 0 105 66" fill="none" xmlns="http://www.w3.org/2000/svg">
<path d="M75.6275 65.6606H74.3265C74.168 65.6606 74.0159 65.5982 73.9038 65.487C73.7917 65.3759 73.7288 65.2251 73.7288 65.0679C73.7288 64.9107 73.7917 64.76 73.9038 64.6488C74.0159 64.5377 74.168 64.4752 74.3265 64.4752H75.5045V65.0679V64.4752C77.3107 64.4776 79.1145 64.3495 80.9018 64.0917C80.9805 64.0794 81.0609 64.0827 81.1381 64.1016C81.2154 64.1204 81.288 64.1544 81.3519 64.2015C81.4157 64.2486 81.4695 64.3079 81.5099 64.3758C81.5504 64.4438 81.5768 64.519 81.5875 64.5972C81.5999 64.6742 81.5964 64.7528 81.5772 64.8284C81.558 64.904 81.5235 64.9749 81.4758 65.0368C81.4281 65.0988 81.3683 65.1505 81.2998 65.1888C81.2314 65.2271 81.1558 65.2512 81.0777 65.2597C79.2734 65.5258 77.4517 65.6598 75.6275 65.6606ZM68.4193 64.9807H68.3138C66.0639 64.5892 63.8521 64.006 61.7033 63.2375C61.6277 63.2124 61.5581 63.1722 61.4988 63.1193C61.4396 63.0664 61.392 63.0019 61.359 62.9299C61.326 62.8579 61.3083 62.78 61.3071 62.7009C61.3058 62.6219 61.321 62.5434 61.3517 62.4705C61.4071 62.3262 61.5171 62.209 61.6583 62.1439C61.7995 62.0788 61.9607 62.0708 62.1077 62.1218C64.1989 62.8827 66.3515 63.4659 68.5424 63.8651C68.6199 63.8797 68.6936 63.9093 68.7595 63.9524C68.8253 63.9954 68.882 64.0509 68.9261 64.1157C68.9702 64.1806 69.001 64.2534 69.0166 64.33C69.0322 64.4067 69.0324 64.4857 69.0171 64.5624C68.9811 64.6896 68.9019 64.8006 68.793 64.8768C68.6842 64.953 68.5522 64.9897 68.4193 64.9807ZM86.9497 63.9871C86.8111 63.9814 86.6788 63.9281 86.5755 63.8362C86.4721 63.7444 86.4043 63.6197 86.3835 63.4837C86.3627 63.3477 86.3904 63.2087 86.4616 63.0906C86.5329 62.9725 86.6433 62.8827 86.774 62.8366C88.913 62.202 90.9947 61.3915 92.9977 60.4134C93.14 60.3475 93.303 60.3398 93.451 60.392C93.5991 60.4442 93.7204 60.5521 93.7888 60.6924C93.8566 60.8314 93.867 60.9912 93.8177 61.1377C93.7684 61.2842 93.6635 61.4059 93.5252 61.4768C91.4669 62.4856 89.326 63.3196 87.1256 63.9697L86.9497 63.9871ZM56.4466 60.7447C56.3463 60.7427 56.2488 60.7125 56.1653 60.6575C54.1453 59.5719 52.222 58.3181 50.4163 56.9095C50.3554 56.862 50.3047 56.8029 50.2672 56.7357C50.2297 56.6685 50.2062 56.5946 50.198 56.5182C50.1899 56.4419 50.1971 56.3646 50.2195 56.2911C50.2419 56.2176 50.2789 56.1493 50.3283 56.0902C50.3749 56.0285 50.4335 55.9768 50.5007 55.938C50.5678 55.8992 50.6421 55.8742 50.7192 55.8645C50.7962 55.8547 50.8745 55.8604 50.9493 55.8812C51.0241 55.902 51.0939 55.9375 51.1546 55.9855C52.9086 57.3493 54.7727 58.5679 56.7279 59.629C56.7989 59.6638 56.8619 59.7126 56.9131 59.7725C56.9644 59.8324 57.0027 59.902 57.0257 59.9771C57.0488 60.0523 57.0561 60.1313 57.0472 60.2093C57.0383 60.2874 57.0134 60.3627 56.974 60.4309C56.9216 60.5244 56.8452 60.6027 56.7527 60.6578C56.6601 60.7129 56.5545 60.7428 56.4466 60.7447ZM98.4127 58.5481C98.2856 58.5471 98.1621 58.5059 98.0603 58.4305C97.9584 58.3552 97.8834 58.2496 97.8462 58.1291C97.809 58.0086 97.8114 57.8795 97.8532 57.7605C97.895 57.6415 97.974 57.5388 98.0786 57.4673C99.9145 56.2166 101.638 54.811 103.23 53.2661C103.285 53.2072 103.352 53.1601 103.427 53.1278C103.501 53.0954 103.581 53.0784 103.663 53.0779C103.744 53.0774 103.825 53.0933 103.899 53.1246C103.974 53.156 104.042 53.2022 104.098 53.2603C104.154 53.3185 104.198 53.3874 104.227 53.4629C104.255 53.5383 104.268 53.6188 104.264 53.6993C104.26 53.7797 104.239 53.8586 104.204 53.931C104.168 54.0034 104.118 54.0678 104.056 54.1203C102.426 55.7088 100.662 57.1552 98.7819 58.4435C98.6744 58.5189 98.5441 58.5558 98.4127 58.5481ZM46.3902 53.0395C46.2239 53.0353 46.0661 52.9664 45.9506 52.8477C45.5814 52.4642 45.2298 52.0632 44.8782 51.6623C43.7368 50.342 42.6742 48.9567 41.696 47.5133C41.6497 47.4485 41.6171 47.3751 41.6 47.2976C41.5829 47.22 41.5817 47.1398 41.5965 47.0617C41.6112 46.9837 41.6416 46.9094 41.6859 46.8432C41.7302 46.7771 41.7875 46.7204 41.8543 46.6766C41.9863 46.5938 42.1452 46.564 42.2987 46.5931C42.4521 46.6223 42.5887 46.7082 42.6806 46.8335C43.6351 48.2377 44.6681 49.588 45.7748 50.8778L46.8297 52.0284C46.9424 52.1424 47.0056 52.2958 47.0056 52.4555C47.0056 52.6152 46.9424 52.7685 46.8297 52.8826C46.7714 52.9375 46.7022 52.9798 46.6266 53.0068C46.5509 53.0338 46.4704 53.045 46.3902 53.0395ZM39.0764 42.702C38.9698 42.7037 38.8647 42.6771 38.772 42.625C38.6793 42.5729 38.6023 42.4972 38.549 42.4056C37.4062 40.3486 36.3162 38.2218 35.4196 36.4088C35.3686 36.3392 35.3335 36.2594 35.3167 36.175C35.3 36.0905 35.3019 36.0035 35.3225 35.9199C35.3431 35.8363 35.3818 35.7582 35.4359 35.6909C35.49 35.6236 35.5583 35.5689 35.6359 35.5304C35.7135 35.4919 35.7986 35.4706 35.8854 35.4681C35.9721 35.4655 36.0584 35.4817 36.1382 35.5155C36.218 35.5494 36.2894 35.6 36.3475 35.6639C36.4055 35.7279 36.4489 35.8036 36.4744 35.8858C37.3887 37.6291 38.4611 39.7907 39.6039 41.8303C39.6785 41.969 39.6945 42.1315 39.6483 42.2818C39.6021 42.4322 39.4976 42.5583 39.3577 42.6322C39.2727 42.682 39.175 42.7062 39.0764 42.702ZM33.2922 31.5103C33.1813 31.5115 33.0721 31.4831 32.9761 31.4278C32.8802 31.3726 32.8011 31.2927 32.7472 31.1965C31.5517 28.8257 30.532 26.9604 29.5475 25.3043C29.4706 25.1651 29.4515 25.0016 29.4942 24.8487C29.5368 24.6957 29.6379 24.5652 29.776 24.485C29.9116 24.4081 30.0723 24.387 30.2234 24.4261C30.3746 24.4652 30.5043 24.5614 30.5848 24.6941C31.5869 26.4374 32.6066 28.2852 33.8197 30.6561C33.8883 30.7977 33.8992 30.9601 33.85 31.1095C33.8009 31.2589 33.6956 31.3837 33.556 31.458C33.4723 31.4921 33.3827 31.5098 33.2922 31.5103ZM26.8224 20.6149C26.7261 20.6195 26.6303 20.5994 26.5441 20.5567C26.4579 20.5139 26.3842 20.45 26.3301 20.3709C25.014 18.5823 23.5872 16.8764 22.0579 15.2631C21.9901 15.2104 21.9345 15.1439 21.895 15.0679C21.8556 14.9919 21.8331 14.9084 21.8292 14.823C21.8254 14.7376 21.8402 14.6524 21.8726 14.5733C21.9051 14.4941 21.9545 14.4228 22.0173 14.3643C22.0801 14.3059 22.155 14.2615 22.2367 14.2344C22.3184 14.2073 22.4051 14.198 22.4908 14.2072C22.5765 14.2164 22.6592 14.2439 22.7331 14.2877C22.8071 14.3316 22.8706 14.3908 22.9194 14.4612C24.4935 16.1067 25.956 17.8538 27.2971 19.691C27.3896 19.8192 27.4284 19.978 27.4054 20.134C27.3825 20.2899 27.2996 20.4311 27.174 20.5278C27.0592 20.5607 26.9372 20.5607 26.8224 20.5278V20.6149ZM18.1549 11.3757C18.0832 11.376 18.0121 11.3624 17.9458 11.3355C17.8794 11.3085 17.819 11.2689 17.7681 11.2188C16.0697 9.73708 14.2787 8.36299 12.4059 7.10471C12.2792 7.01656 12.1919 6.88308 12.1624 6.7324C12.1329 6.58171 12.1635 6.42555 12.2478 6.29679C12.3321 6.16804 12.4635 6.07674 12.6143 6.0421C12.7651 6.00746 12.9236 6.03216 13.0564 6.11105C14.9694 7.35528 16.8014 8.71774 18.5417 10.1903C18.6533 10.3014 18.716 10.4518 18.716 10.6086C18.716 10.7655 18.6533 10.9159 18.5417 11.027C18.4983 11.0942 18.4417 11.1519 18.3752 11.1969C18.3087 11.2418 18.2338 11.273 18.1549 11.2885V11.3757ZM7.60624 4.40267C7.51338 4.42098 7.41779 4.42098 7.32493 4.40267C5.33555 3.38962 3.27979 2.51022 1.17154 1.77036C1.09741 1.74323 1.02946 1.7018 0.971578 1.64845C0.913699 1.59511 0.867032 1.5309 0.834333 1.45957C0.801634 1.38824 0.783531 1.3112 0.781055 1.23288C0.77858 1.15457 0.791771 1.07655 0.8199 1.00333C0.871825 0.855835 0.980399 0.734646 1.12197 0.666091C1.26354 0.597537 1.42669 0.58715 1.57593 0.63723C3.72833 1.40786 5.83036 2.31028 7.86994 3.33928C8.00957 3.41356 8.11494 3.53839 8.16407 3.68777C8.2132 3.83714 8.20228 3.99957 8.13365 4.14119C8.0587 4.20833 7.96738 4.25489 7.86871 4.27629C7.77004 4.29769 7.66747 4.29318 7.57109 4.2632L7.60624 4.40267Z" fill="black"/>
</svg>
