<svg width="109" height="41" viewBox="0 0 109 41" fill="none" xmlns="http://www.w3.org/2000/svg">
<path d="M0.293111 28.4073C0.220461 28.3085 0.186817 28.1863 0.198583 28.0642C0.210342 27.9421 0.266693 27.8286 0.356871 27.7455C0.405152 27.7005 0.461921 27.6655 0.523854 27.6426C0.585786 27.6196 0.651645 27.6092 0.717638 27.612C0.78363 27.6147 0.848447 27.6306 0.908274 27.6586C0.968101 27.6866 1.02176 27.7262 1.06616 27.7752C2.32876 29.1349 3.70201 30.3876 5.17177 31.5201C5.27741 31.5997 5.34711 31.718 5.36557 31.849C5.38403 31.9799 5.3497 32.1128 5.27017 32.2185C5.19063 32.3241 5.0724 32.3937 4.94147 32.4122C4.81053 32.4306 4.67764 32.3962 4.57201 32.3166C3.05506 31.1476 1.63918 29.8529 0.339403 28.4463L0.293111 28.4073ZM8.68927 35.0029C8.63117 34.926 8.59736 34.8335 8.59216 34.7372C8.58696 34.641 8.61062 34.5454 8.6601 34.4627C8.72371 34.3481 8.8299 34.2632 8.95566 34.2264C9.08142 34.1895 9.21663 34.2037 9.33206 34.2658C10.9497 35.1894 12.6382 35.9831 14.3813 36.6394C14.5 36.6902 14.5944 36.7851 14.6446 36.9041C14.6948 37.0231 14.6969 37.1569 14.6504 37.2773C14.604 37.3978 14.5126 37.4955 14.3955 37.5499C14.2784 37.6043 14.1448 37.6112 14.0228 37.569C12.2384 36.8919 10.5077 36.0811 8.84533 35.1434L8.68927 35.0029ZM18.562 38.8633C18.5018 38.7806 18.4684 38.6813 18.4665 38.579C18.4646 38.4766 18.4942 38.3762 18.5514 38.2913C18.6085 38.2064 18.6904 38.1412 18.7859 38.1045C18.8814 38.0678 18.9859 38.0613 19.0852 38.0861C20.8981 38.5113 22.7404 38.7994 24.5965 38.948C24.7267 38.9691 24.8433 39.041 24.9207 39.1478C24.9981 39.2547 25.03 39.3879 25.0094 39.5182C24.9884 39.6485 24.9165 39.765 24.8097 39.8424C24.7029 39.9197 24.5698 39.9516 24.4395 39.9309C22.5343 39.785 20.6436 39.4891 18.7848 39.046C18.7262 39.031 18.6711 39.0044 18.6228 38.9678C18.5746 38.9313 18.5341 38.8854 18.5038 38.833L18.562 38.8633ZM29.1344 39.7906C29.066 39.7331 29.0128 39.6597 28.9796 39.5767C28.9746 39.5111 28.9827 39.4452 29.0034 39.3827C29.024 39.3203 29.0568 39.2625 29.0999 39.2128C29.143 39.1631 29.1955 39.1224 29.2544 39.093C29.3133 39.0637 29.3774 39.0464 29.443 39.0419C31.3019 38.9397 33.1487 38.6806 34.9639 38.2673C35.0939 38.238 35.2302 38.2616 35.3429 38.3328C35.4555 38.404 35.5353 38.5171 35.5647 38.6471C35.594 38.7771 35.5705 38.9135 35.4993 39.0261C35.4282 39.1388 35.3152 39.2185 35.1852 39.2478C33.3194 39.6641 31.423 39.9292 29.5145 40.0405C29.4227 40.0386 29.3333 40.0115 29.256 39.962C29.1786 39.9126 29.1164 39.8427 29.0762 39.7602L29.1344 39.7906ZM39.4863 37.5638L39.4089 37.4569C39.3842 37.3967 39.3719 37.3322 39.3727 37.2671C39.3735 37.2021 39.3874 37.138 39.4136 37.0784C39.4398 37.0189 39.4777 36.9653 39.5251 36.9208C39.5724 36.8762 39.6283 36.8417 39.6893 36.8192C41.4321 36.1548 43.1284 35.3741 44.7667 34.4825C44.8236 34.45 44.8866 34.4295 44.9517 34.4222C45.0168 34.4148 45.0828 34.4207 45.1456 34.4396C45.2083 34.4585 45.2666 34.49 45.3169 34.5321C45.3671 34.5742 45.4083 34.626 45.4379 34.6845C45.4994 34.8005 45.5127 34.936 45.4749 35.0616C45.4371 35.1873 45.3514 35.293 45.2362 35.3558C43.5667 36.2726 41.8355 37.0724 40.0552 37.7494C39.9424 37.7966 39.8162 37.8006 39.7006 37.7608C39.585 37.721 39.488 37.6401 39.4281 37.5334L39.4863 37.5638ZM48.872 32.578C48.8355 32.5244 48.8101 32.464 48.7974 32.4004C48.7846 32.3367 48.7848 32.2712 48.7979 32.2077C48.811 32.1441 48.8367 32.0839 48.8735 32.0305C48.9104 31.9771 48.9576 31.9317 49.0124 31.8969C49.6179 31.4584 50.1998 31.0371 50.8766 30.547C51.7315 29.9279 52.6339 29.2744 53.5171 28.5444C53.569 28.5044 53.6282 28.475 53.6915 28.4579C53.7547 28.4409 53.8207 28.4365 53.8856 28.4449C53.9506 28.4534 54.0133 28.4746 54.07 28.5072C54.1268 28.5399 54.1766 28.5835 54.2166 28.6354C54.2598 28.6846 54.2923 28.7424 54.3118 28.8049C54.3314 28.8674 54.3377 28.9333 54.3302 28.9984C54.3228 29.0635 54.3018 29.1263 54.2687 29.1828C54.2355 29.2392 54.1909 29.2881 54.1377 29.3263C53.1996 30.0056 52.2853 30.6677 51.4185 31.2954C50.7773 31.7597 50.1361 32.224 49.5305 32.6625C49.4787 32.7025 49.4194 32.7318 49.3562 32.7489C49.2929 32.766 49.227 32.7704 49.162 32.7619C49.097 32.7535 49.0344 32.7323 48.9776 32.6996C48.9208 32.6669 48.871 32.6234 48.8311 32.5715L48.872 32.578ZM57.257 26.0353C57.1865 25.9332 57.1553 25.8091 57.1692 25.6859C57.1831 25.5626 57.2412 25.4486 57.3327 25.3649C58.4427 24.3981 59.5354 23.4076 60.9349 22.1407L61.5159 21.5932C61.6138 21.5031 61.7436 21.4556 61.8766 21.4612C62.0096 21.4667 62.135 21.5249 62.2251 21.6229C62.3153 21.7209 62.3629 21.8507 62.3574 21.9837C62.3519 22.1167 62.2938 22.2421 62.1958 22.3322L61.6062 22.8678C60.2747 24.1036 59.087 25.1629 57.9889 26.1211C57.9394 26.1644 57.8817 26.1974 57.8194 26.2184C57.757 26.2393 57.6911 26.2477 57.6255 26.243C57.5598 26.2384 57.4958 26.2208 57.437 26.1912C57.3782 26.1617 57.3258 26.1208 57.2828 26.0709L57.257 26.0353ZM65.1129 18.8618C65.0402 18.7629 65.0065 18.6407 65.0183 18.5186C65.0301 18.3965 65.0864 18.2831 65.1766 18.2C66.3234 17.1341 67.8363 15.7488 69.3663 14.3874C69.4154 14.3435 69.4726 14.3097 69.5347 14.288C69.5969 14.2663 69.6626 14.257 69.7284 14.2607C69.7941 14.2644 69.8584 14.281 69.9177 14.3096C69.977 14.3382 70.0301 14.3782 70.074 14.4273C70.1179 14.4763 70.1516 14.5336 70.1734 14.5957C70.1951 14.6578 70.2044 14.7236 70.2007 14.7893C70.1971 14.855 70.1805 14.9194 70.152 14.9787C70.1234 15.038 70.0835 15.0911 70.0344 15.135C68.4958 16.4846 67.0034 17.8731 65.8565 18.9389C65.8083 18.984 65.7515 19.019 65.6896 19.0419C65.6276 19.0648 65.5618 19.0752 65.4958 19.0725C65.4298 19.0697 65.365 19.0539 65.3052 19.0259C65.2453 18.9979 65.1917 18.9582 65.1473 18.9093L65.1129 18.8618ZM73.0461 11.7952C72.9712 11.6922 72.9386 11.5645 72.9549 11.4382C72.9711 11.312 73.0351 11.1967 73.1336 11.1161C74.278 10.1969 75.3327 9.3788 76.4132 8.59634C76.8288 8.2954 77.2563 7.98586 77.6719 7.68491C77.7253 7.64606 77.7862 7.6186 77.8507 7.60418C77.9152 7.58975 77.9819 7.58868 78.0468 7.60105C78.1118 7.61342 78.1735 7.63896 78.2282 7.67609C78.2829 7.71323 78.3293 7.76114 78.3648 7.81693C78.4017 7.87109 78.4275 7.93201 78.4409 7.99615C78.4542 8.0603 78.4548 8.12643 78.4425 8.19079C78.4303 8.25514 78.4055 8.31642 78.3696 8.37118C78.3336 8.42593 78.2873 8.47309 78.2331 8.5099C77.8175 8.81085 77.4138 9.10319 77.0457 9.36974C75.9889 10.135 74.9083 10.9174 73.793 11.8518C73.7429 11.893 73.685 11.9237 73.6228 11.942C73.5606 11.9604 73.4953 11.966 73.4309 11.9587C73.3664 11.9513 73.3041 11.931 73.2477 11.899C73.1912 11.8671 73.1417 11.8241 73.1022 11.7727L73.0461 11.7952ZM81.7891 5.77188C81.725 5.65808 81.708 5.52363 81.7419 5.39749C81.7758 5.27135 81.8578 5.16359 81.9704 5.09735C82.3622 4.81361 82.8229 4.6249 83.2696 4.39194C84.5284 3.73192 85.8218 3.13993 87.144 2.6185C87.2673 2.57003 87.4049 2.57251 87.5264 2.62546C87.6479 2.6784 87.7434 2.77744 87.7919 2.90079C87.8404 3.02414 87.838 3.16171 87.7851 3.28321C87.7322 3.40471 87.6332 3.50021 87.5099 3.54869C86.2183 4.05396 84.9555 4.62987 83.7272 5.27383C83.3472 5.54898 82.8899 5.71721 82.428 5.97924C82.3195 6.02776 82.1973 6.0359 82.0833 6.00223C81.9693 5.96857 81.8711 5.89531 81.8063 5.79563L81.7891 5.77188ZM91.6063 1.8318C91.5588 1.78852 91.5208 1.73595 91.4944 1.67737C91.4662 1.55017 91.4888 1.41698 91.5575 1.30631C91.6262 1.19563 91.7355 1.11625 91.862 1.08519C93.7494 0.598931 95.6765 0.28218 97.6204 0.138638C97.6859 0.133971 97.7517 0.142246 97.8141 0.163026C97.8765 0.183804 97.9341 0.216647 97.9838 0.259706C98.0334 0.302768 98.0742 0.355207 98.1036 0.413994C98.133 0.47278 98.1506 0.536766 98.1552 0.60233C98.1599 0.667894 98.1517 0.733749 98.1309 0.796109C98.1102 0.858466 98.0773 0.916111 98.0343 0.965771C97.9913 1.01543 97.9389 1.05615 97.8801 1.08555C97.8213 1.11495 97.7574 1.13247 97.6918 1.13714C95.8414 1.26608 94.0061 1.5589 92.2075 2.01212C92.1061 2.0512 91.9949 2.05707 91.89 2.02893C91.785 2.0008 91.6917 1.9401 91.6235 1.85555L91.6063 1.8318ZM102.16 1.034C102.125 0.985732 102.1 0.930941 102.085 0.872815C102.071 0.814692 102.069 0.754375 102.078 0.695281C102.099 0.565044 102.171 0.44846 102.278 0.3711C102.384 0.29374 102.518 0.261913 102.648 0.282557C104.576 0.50586 106.47 0.957451 108.292 1.62784C108.354 1.64863 108.412 1.68186 108.461 1.72553C108.51 1.7692 108.549 1.82239 108.577 1.88185C108.605 1.94132 108.62 2.00581 108.622 2.07143C108.625 2.13704 108.613 2.20242 108.589 2.26353C108.541 2.38452 108.448 2.48253 108.33 2.53773C108.212 2.59292 108.078 2.60114 107.954 2.56071C106.222 1.91645 104.42 1.48309 102.585 1.26998C102.509 1.25944 102.437 1.23271 102.373 1.19162C102.309 1.15053 102.254 1.09607 102.213 1.03195L102.16 1.034Z" fill="black"/>
</svg>
