<svg width="43" height="88" viewBox="0 0 43 88" fill="none" xmlns="http://www.w3.org/2000/svg">
<path d="M33.0623 87.1354C34.4497 85.0523 35.6838 82.8711 36.7549 80.6089C36.7957 80.5318 36.8201 80.4471 36.8268 80.3601C36.8334 80.2731 36.8221 80.1857 36.7935 80.1032C36.7649 80.0208 36.7196 79.945 36.6604 79.8807C36.6013 79.8164 36.5296 79.7649 36.4498 79.7295C36.2921 79.6576 36.1129 79.649 35.9492 79.7055C35.7855 79.762 35.6499 79.8792 35.5705 80.033C34.5176 82.2463 33.3094 84.3821 31.955 86.4246C31.8645 86.5698 31.8345 86.7446 31.8713 86.9118C31.9082 87.079 32.0089 87.2252 32.1521 87.3193C32.2231 87.3698 32.3037 87.4052 32.3889 87.4233C32.4741 87.4414 32.562 87.4418 32.6474 87.4246C32.7327 87.4073 32.8135 87.3728 32.8849 87.323C32.9563 87.2733 33.0167 87.2094 33.0623 87.1354ZM39.2134 74.6014L39.3291 74.4473C40.1481 72.0879 40.8196 69.6796 41.3397 67.2364C41.3753 67.0633 41.3414 66.8831 41.2454 66.7344C41.1494 66.5858 40.999 66.4807 40.8264 66.4416C40.6538 66.4106 40.4761 66.4479 40.3307 66.5455C40.1853 66.6432 40.0837 66.7937 40.0475 66.965C39.5557 69.3652 38.9151 71.7323 38.1294 74.0527C38.0996 74.1325 38.0862 74.2175 38.09 74.3027C38.0938 74.3879 38.1147 74.4715 38.1514 74.5485C38.1881 74.6255 38.24 74.6944 38.3038 74.751C38.3677 74.8076 38.4422 74.8509 38.5231 74.8781C38.6528 74.9074 38.7882 74.8966 38.9115 74.8472C39.0348 74.7978 39.1401 74.7121 39.2134 74.6014ZM42.1048 60.9455C42.182 60.8499 42.2277 60.7328 42.2359 60.6102C42.4568 58.1149 42.5254 55.6083 42.4413 53.1042C42.4077 52.9367 42.3136 52.7875 42.1769 52.6849C42.0403 52.5823 41.8706 52.5336 41.7005 52.5481C41.614 52.551 41.529 52.5709 41.4504 52.6068C41.3717 52.6427 41.301 52.6938 41.2422 52.7571C41.1834 52.8205 41.1377 52.8949 41.1079 52.976C41.078 53.0571 41.0645 53.1433 41.0682 53.2297C41.1642 55.6821 41.102 58.1378 40.882 60.5816C40.873 60.6661 40.8811 60.7516 40.9057 60.833C40.9303 60.9144 40.9709 60.99 41.0252 61.0555C41.0795 61.121 41.1464 61.1749 41.2219 61.2142C41.2974 61.2534 41.38 61.2772 41.4647 61.284C41.5936 61.3023 41.7249 61.2794 41.8399 61.2187C41.9549 61.1579 42.0476 61.0622 42.1048 60.9455ZM41.6907 47.0003C41.7902 46.8551 41.8289 46.6766 41.7985 46.5031C41.402 44.0091 40.8327 41.5453 40.0946 39.1297C40.0723 39.0458 40.0335 38.9672 39.9806 38.8984C39.9276 38.8296 39.8615 38.772 39.7862 38.7289C39.7108 38.6857 39.6277 38.658 39.5416 38.6472C39.4555 38.6364 39.3681 38.6428 39.2845 38.6661C39.1183 38.7185 38.9788 38.8332 38.8955 38.9862C38.8121 39.1391 38.7913 39.3185 38.8374 39.4867C39.5409 41.8398 40.078 44.2393 40.4447 46.6673C40.4696 46.8389 40.5615 46.9938 40.7004 47.0981C40.8392 47.2023 41.0137 47.2473 41.1855 47.2233C41.2807 47.2239 41.375 47.2043 41.462 47.1659C41.5491 47.1275 41.627 47.071 41.6907 47.0003ZM37.7899 33.6177C37.8615 33.5254 37.9071 33.4156 37.922 33.2997C37.9368 33.1838 37.9204 33.066 37.8745 32.9585C36.8751 30.6556 35.7222 28.4221 34.4237 26.2731C34.3805 26.1981 34.3225 26.1326 34.2532 26.0808C34.1839 26.0289 34.1048 25.9917 34.0207 25.9714C33.9365 25.9511 33.8492 25.9481 33.7639 25.9627C33.6787 25.9772 33.5974 26.009 33.5249 26.0561C33.3781 26.1442 33.2717 26.2863 33.2285 26.452C33.1853 26.6176 33.2087 26.7937 33.2938 26.9425C34.5736 29.0326 35.7047 31.2099 36.6789 33.4582C36.7115 33.539 36.7598 33.6125 36.8211 33.6745C36.8824 33.7364 36.9554 33.7856 37.0358 33.8191C37.1163 33.8525 37.2026 33.8697 37.2897 33.8695C37.3768 33.8692 37.4629 33.8517 37.5431 33.8178C37.6401 33.7717 37.7248 33.7031 37.7899 33.6177ZM30.6689 21.5998C30.7509 21.4851 30.7936 21.347 30.7908 21.206C30.7879 21.065 30.7397 20.9287 30.6532 20.8171C29.1206 18.8272 27.4563 16.9422 25.6715 15.1747C25.6127 15.1135 25.5423 15.0646 25.4644 15.031C25.3865 14.9973 25.3027 14.9796 25.2179 14.9787C25.1331 14.9779 25.049 14.9941 24.9706 15.0262C24.8922 15.0583 24.821 15.1058 24.7612 15.1658C24.6986 15.2265 24.6487 15.2992 24.6146 15.3794C24.5804 15.4597 24.5627 15.546 24.5624 15.6332C24.562 15.7205 24.5792 15.807 24.6127 15.8876C24.6463 15.9682 24.6956 16.0413 24.7577 16.1027C26.4887 17.8393 28.1136 19.6785 29.6237 21.6101C29.728 21.7482 29.8826 21.8395 30.0538 21.8643C30.225 21.889 30.399 21.8452 30.5378 21.7423L30.6689 21.5998ZM20.8565 11.6567C20.9543 11.5188 20.9966 11.3491 20.9751 11.1813C20.9536 11.0134 20.8699 10.8597 20.7405 10.7505C20.2775 10.403 19.8299 10.067 19.3669 9.71951C17.8236 8.56106 16.2803 7.40261 14.5636 6.47526C14.4153 6.38827 14.2389 6.36284 14.0723 6.40446C13.9057 6.44607 13.7622 6.55141 13.6727 6.69781C13.6241 6.77025 13.5909 6.85193 13.5753 6.93778C13.5597 7.02362 13.5619 7.11177 13.5819 7.19678C13.6018 7.28178 13.639 7.3618 13.6912 7.43187C13.7433 7.50193 13.8094 7.56057 13.8852 7.60407C15.5084 8.58144 17.0807 9.64107 18.5959 10.7788C19.0435 11.1148 19.491 11.4507 19.9386 11.7867C20.0059 11.8404 20.0832 11.8804 20.166 11.9044C20.2488 11.9283 20.3355 11.9357 20.4211 11.9261C20.5067 11.9166 20.5895 11.8902 20.6649 11.8486C20.7403 11.807 20.8067 11.751 20.8604 11.6837L20.8565 11.6567ZM8.95454 4.33654L9.0355 4.22869C9.10411 4.06834 9.10786 3.88755 9.04595 3.72429C8.98403 3.56103 8.86127 3.428 8.70345 3.35313C6.41961 2.31604 4.07037 1.4297 1.67091 0.699889C1.58784 0.67502 1.50069 0.666875 1.4145 0.675884C1.3283 0.684894 1.2448 0.710908 1.16877 0.752406C1.09274 0.793903 1.02573 0.850077 0.971604 0.917662C0.917474 0.985248 0.87729 1.0629 0.853405 1.14615C0.827427 1.22734 0.818055 1.31295 0.825849 1.39788C0.833643 1.48282 0.858424 1.56535 0.898754 1.64056C0.939084 1.71578 0.994151 1.78218 1.06062 1.83575C1.12709 1.88932 1.20362 1.92899 1.28569 1.95243C3.63346 2.6644 5.93023 3.53533 8.16005 4.55918C8.30412 4.61293 8.46215 4.61596 8.60801 4.56776C8.75387 4.51957 8.87883 4.42304 8.96223 4.29412L8.95454 4.33654Z" fill="black"/>
</svg>
