<svg width="74" height="98" viewBox="0 0 74 98" fill="none" xmlns="http://www.w3.org/2000/svg">
<g clip-path="url(#clip0_501_31567)">
<path d="M72.0615 12.5335C71.1822 40.6959 71.448 68.8632 72.8588 97.0355C48.7611 96.2635 24.8722 96.0283 1.00552 96.6532C0.498833 68.1428 0.662738 40.0441 0.655287 11.6733C23.8662 11.6733 47.0697 11.666 72.0615 12.5335Z" fill="white"/>
<path d="M72.8588 97.6679C46.7195 96.8371 23.2254 96.7121 1.03535 97.2929C0.951147 97.2978 0.866886 97.2846 0.788396 97.2541C0.709905 97.2236 0.639076 97.1767 0.580828 97.1165C0.457156 97.0016 0.384777 96.8429 0.379627 96.6754C-0.0227452 74.0023 -0.000376591 51.1822 0.0219774 29.112C0.0219774 23.3139 0.0219774 17.5035 0.0219774 11.6808C0.0219774 11.5151 0.088709 11.3561 0.207488 11.2389C0.326266 11.1217 0.487345 11.0559 0.655323 11.0559C23.4862 11.0559 47.0847 11.0559 72.0839 11.9087C72.2532 11.9164 72.4128 11.9891 72.5284 12.1114C72.644 12.2337 72.7064 12.3958 72.7023 12.563C71.8231 40.5882 72.0913 69.003 73.4996 97.0062C73.5047 97.0922 73.4919 97.1784 73.462 97.2594C73.432 97.3404 73.3856 97.4146 73.3256 97.4772C73.2656 97.5399 73.1932 97.5898 73.113 97.6238C73.0327 97.6579 72.9462 97.6753 72.8588 97.6752V97.6679ZM29.1493 95.6682C42.7852 95.6682 57.0396 95.9034 72.1882 96.4033C70.8171 68.7899 70.5563 40.7941 71.3983 13.1659C46.8909 12.3278 23.7098 12.3278 1.29617 12.3278C1.29617 17.9348 1.29617 23.5344 1.29617 29.1267C1.29617 50.9837 1.25144 73.5759 1.63891 96.0284C10.5656 95.7784 19.7084 95.6682 29.1493 95.6682Z" fill="black"/>
<path d="M65.184 16.8783C63.7459 41.529 64.5431 65.7827 66.1452 90.3966C46.5854 90.0732 27.0927 89.7423 7.65962 90.4775C7.44353 65.621 6.91449 41.257 6.45996 16.7754C26.7947 17.0033 46.4215 17.0548 65.184 16.8783Z" fill="white"/>
<path d="M7.6606 91.1394C7.49672 91.1375 7.33962 91.0744 7.22095 90.9629C7.15816 90.9057 7.10793 90.8364 7.07333 90.7592C7.03873 90.6821 7.02051 90.5988 7.0198 90.5145C6.86332 72.201 6.5131 53.8582 6.17779 36.1109C6.05857 29.6707 5.94181 23.2329 5.82756 16.7976C5.82442 16.713 5.83939 16.6287 5.87149 16.5501C5.90359 16.4716 5.95208 16.4006 6.01384 16.3418C6.07313 16.2825 6.14398 16.2357 6.22209 16.2041C6.3002 16.1725 6.384 16.1568 6.46841 16.158C28.4797 16.3712 47.6818 16.3933 65.1849 16.2315C65.2718 16.2303 65.358 16.2474 65.4376 16.2816C65.5173 16.3158 65.5886 16.3664 65.6469 16.43C65.7085 16.4917 65.7562 16.5655 65.787 16.6465C65.8179 16.7276 65.831 16.8141 65.8257 16.9006C64.5739 38.2797 64.872 60.9454 66.787 90.3748C66.7929 90.4617 66.7808 90.549 66.7513 90.6312C66.7218 90.7133 66.6757 90.7887 66.6156 90.8526C66.4878 90.975 66.3168 91.0436 66.1387 91.0438H65.863C46.7652 90.7203 27.0117 90.3895 7.68293 91.1246L7.6606 91.1394ZM7.14646 17.4372C7.25078 23.6667 7.36505 29.8864 7.48924 36.0962C7.8171 53.6303 8.15985 71.7452 8.32378 89.8528C27.3321 89.1617 46.728 89.4705 65.4979 89.7866C63.6351 60.938 63.337 38.5885 64.5441 17.5108C47.3837 17.6725 28.5691 17.6431 7.14646 17.4372Z" fill="black"/>
<path d="M54.6103 10.5415C52.2258 10.4312 45.0651 10.3577 42.6434 10.3062C41.5257 9.26964 42.7626 4.10866 40.8104 2.18248C39.675 1.21357 38.2038 0.715648 36.7047 0.792986C35.3634 0.792986 33.6645 0.932666 32.5096 2.02809C30.453 3.98368 30.9672 9.87985 30.535 10.2916C27.9568 10.2916 20.3937 10.3724 17.8081 10.4386C17.8081 18.2095 20.96 19.5402 28.5231 19.7681C40.2888 20.1357 47.5389 20.0915 50.5269 18.8564C54.3047 17.2978 55.266 14.2101 54.6103 10.5415ZM33.6869 10.2548C33.6869 8.60798 33.2696 4.91001 36.7941 4.91001C39.253 4.91001 38.7165 9.87249 38.9401 10.2621C37.1965 10.2474 35.4454 10.245 33.6869 10.2548Z" fill="#FFD803"/>
<path d="M38.7992 20.5989C35.8186 20.5989 32.4134 20.5253 28.5014 20.4004C20.6701 20.1578 17.168 18.6653 17.168 10.4386C17.1698 10.274 17.2359 10.1164 17.3524 9.99868C17.469 9.88092 17.6271 9.81204 17.7939 9.80637C19.5226 9.76226 23.4942 9.72551 26.6759 9.6961H30.0439C30.0439 9.39467 30.1109 8.96091 30.1333 8.55656C30.2748 6.38777 30.4835 3.1162 32.0706 1.60172C33.4789 0.263689 35.5728 0.219579 36.6905 0.190172C38.3648 0.108369 40.0055 0.672615 41.2656 1.76346C42.5547 3.03533 42.6366 5.285 42.7037 7.26999C42.6912 8.0918 42.7838 8.91187 42.9794 9.71079L45.5128 9.7549C48.635 9.79901 52.8971 9.85784 54.6407 9.94606C54.7861 9.95118 54.9251 10.0061 55.0339 10.1013C55.1427 10.1966 55.2144 10.3262 55.2368 10.468C56.0192 14.8277 54.4917 17.9375 50.766 19.4667C48.702 20.3048 44.7081 20.5989 38.7992 20.5989ZM18.457 11.0415C18.5986 17.6581 21.1917 18.9006 28.5461 19.1285C40.1181 19.4814 47.3831 19.452 50.2817 18.261C53.3144 17.0038 54.5588 14.6733 54.0595 11.1371C52.1073 11.0635 48.3294 11.0121 45.4979 10.968L42.6292 10.9239C42.4713 10.921 42.3201 10.8608 42.2044 10.7548C41.5338 10.1298 41.4593 8.86534 41.4593 7.26999C41.4593 5.67464 41.3252 3.53526 40.3938 2.61628C39.3824 1.76545 38.0768 1.33343 36.7501 1.41058C35.4386 1.41058 33.9558 1.54291 32.9871 2.46924C31.7577 3.63819 31.5565 6.74065 31.4373 8.58596C31.3553 9.93135 31.3255 10.4313 31.0051 10.7327C30.8875 10.8413 30.7339 10.9041 30.5729 10.9091H26.7206C23.8518 10.99 20.3944 11.0194 18.457 11.0562V11.0415ZM38.9408 10.8797C37.2269 10.8797 35.461 10.8797 33.7248 10.8797C33.6402 10.8827 33.5559 10.8679 33.4775 10.8362C33.3991 10.8045 33.3285 10.7567 33.2703 10.6959C33.2094 10.6392 33.1608 10.5708 33.1275 10.495C33.0942 10.4192 33.0769 10.3375 33.0766 10.2548C33.0766 10.1078 33.0766 9.95341 33.0766 9.78432C33.0766 8.45364 33.0095 6.44659 34.2241 5.22618C34.5698 4.8999 34.9795 4.64681 35.428 4.48245C35.8765 4.3181 36.3543 4.24595 36.8321 4.27044C39.3506 4.27044 39.4772 7.71845 39.5443 9.37262C39.5443 9.62258 39.5443 9.91665 39.5443 10.0269C39.5814 10.1146 39.5967 10.2097 39.5889 10.3043C39.5811 10.3989 39.5505 10.4904 39.4996 10.571C39.444 10.669 39.3629 10.7507 39.2647 10.8075C39.1665 10.8644 39.0546 10.8944 38.9408 10.8944V10.8797ZM36.1838 9.60787H38.2329C38.2329 9.54905 38.2329 9.48289 38.2329 9.41673C38.1882 8.15221 38.0913 5.5276 36.8022 5.5276C36.4943 5.50212 36.1843 5.53992 35.8919 5.63862C35.5994 5.73732 35.331 5.89478 35.1033 6.10104C34.3061 6.90974 34.3061 8.49774 34.3582 9.60787H36.1838Z" fill="black"/>
<path d="M18.0099 37.9489C17.8919 37.9465 17.7767 37.9123 17.6769 37.8502C17.5771 37.788 17.4964 37.7001 17.4436 37.596C16.715 36.1567 15.8359 34.7966 14.8207 33.5378C14.717 33.4067 14.6699 33.2406 14.6894 33.0755C14.7089 32.9104 14.7936 32.7595 14.925 32.6555C15.059 32.5528 15.2286 32.5061 15.3971 32.5254C15.5657 32.5446 15.7199 32.6283 15.8266 32.7585C16.6606 33.7898 17.4082 34.8864 18.062 36.0374L20.9308 30.7588C21.023 30.6426 21.1534 30.5619 21.2995 30.5307C21.4457 30.4995 21.5982 30.5196 21.7309 30.5877C21.8636 30.6557 21.9679 30.7674 22.0259 30.9034C22.0839 31.0393 22.0919 31.191 22.0485 31.3322L18.5985 37.6621C18.5357 37.7578 18.4479 37.835 18.3442 37.8855C18.2406 37.936 18.1251 37.9579 18.0099 37.9489Z" fill="black"/>
<path d="M18.0099 54.608C17.8919 54.6056 17.7767 54.5715 17.6769 54.5093C17.5771 54.4471 17.4965 54.3592 17.4436 54.2551C16.7234 52.7922 15.8466 51.4095 14.8281 50.1307C14.7361 49.9983 14.6986 49.8362 14.7232 49.6774C14.7479 49.5186 14.8328 49.3751 14.9609 49.2759C15.0889 49.1767 15.2505 49.1293 15.4126 49.1433C15.5748 49.1573 15.7255 49.2318 15.834 49.3514C16.668 50.3803 17.4156 51.4744 18.0694 52.623L20.9382 47.3517C21.0183 47.2036 21.1547 47.0928 21.3175 47.0439C21.4803 46.9949 21.6561 47.0118 21.8063 47.0907C21.9565 47.1697 22.0687 47.3043 22.1183 47.4649C22.1679 47.6256 22.1509 47.7991 22.0709 47.9472L18.6209 54.2772C18.5609 54.3834 18.4717 54.4708 18.3636 54.5293C18.2555 54.5878 18.1329 54.6151 18.0099 54.608Z" fill="black"/>
<path d="M16.7506 71.2377C16.6319 71.2346 16.5162 71.1994 16.4163 71.1359C16.3165 71.0723 16.2362 70.9829 16.1843 70.8774C15.4595 69.4194 14.5829 68.0396 13.5689 66.7604C13.5164 66.6953 13.4775 66.6206 13.4544 66.5406C13.4312 66.4606 13.4242 66.3769 13.4339 66.2942C13.4436 66.2116 13.4698 66.1317 13.5108 66.059C13.5519 65.9863 13.6071 65.9224 13.6732 65.8708C13.8082 65.769 13.9783 65.7234 14.1469 65.7441C14.3155 65.7647 14.4692 65.8498 14.5748 65.9811C15.3959 67.0113 16.131 68.1054 16.773 69.2527L19.6418 63.9741C19.7237 63.8287 19.8597 63.7206 20.0211 63.6725C20.1824 63.6245 20.3564 63.6403 20.5061 63.7167C20.5807 63.7561 20.6467 63.8096 20.7003 63.8742C20.7538 63.9388 20.7939 64.0133 20.8181 64.0932C20.8424 64.1732 20.8503 64.2571 20.8415 64.3401C20.8327 64.4231 20.8074 64.5036 20.7669 64.5769L17.3244 70.8995C17.2695 71.0025 17.187 71.0885 17.0857 71.1482C16.9845 71.2079 16.8686 71.2388 16.7506 71.2377Z" fill="black"/>
<path d="M33.1663 38.2499H28.1813C28.0114 38.2499 27.8484 38.1833 27.7282 38.0647C27.608 37.9461 27.5405 37.7853 27.5405 37.6176C27.5405 37.4499 27.608 37.2891 27.7282 37.1706C27.8484 37.052 28.0114 36.9854 28.1813 36.9854C38.0991 37.081 48.1584 36.9045 58.0761 36.4634C58.1602 36.46 58.2443 36.473 58.3233 36.5017C58.4024 36.5303 58.475 36.5741 58.5369 36.6304C58.5988 36.6867 58.6489 36.7545 58.6842 36.8299C58.7196 36.9053 58.7396 36.9869 58.743 37.0699C58.7464 37.153 58.7332 37.2358 58.7042 37.3139C58.6752 37.3919 58.6309 37.4634 58.5738 37.5245C58.5167 37.5856 58.448 37.6351 58.3715 37.67C58.2951 37.7049 58.2124 37.7246 58.1283 37.7279C49.8647 38.0661 41.4894 38.2499 33.1663 38.2499Z" fill="black"/>
<path d="M33.1664 54.5564H28.1815C28.092 54.5659 28.0016 54.5568 27.9159 54.5296C27.8303 54.5023 27.7514 54.4576 27.6845 54.3983C27.6175 54.339 27.564 54.2665 27.5273 54.1854C27.4906 54.1043 27.4717 54.0166 27.4717 53.9278C27.4717 53.839 27.4906 53.7512 27.5273 53.6702C27.564 53.5891 27.6175 53.5165 27.6845 53.4573C27.7514 53.398 27.8303 53.3533 27.9159 53.326C28.0016 53.2988 28.092 53.2897 28.1815 53.2992C38.0992 53.3874 48.1585 53.211 58.0762 52.7772C58.1597 52.7723 58.2433 52.7838 58.3221 52.8113C58.4009 52.8387 58.4734 52.8814 58.5352 52.9369C58.597 52.9924 58.6469 53.0596 58.682 53.1344C58.7171 53.2093 58.7366 53.2903 58.7394 53.3727C58.7444 53.456 58.7325 53.5394 58.7044 53.6181C58.6762 53.6968 58.6323 53.769 58.5754 53.8307C58.5184 53.8924 58.4495 53.9422 58.3728 53.9771C58.296 54.0121 58.2129 54.0316 58.1284 54.0344C49.8649 54.3726 41.4896 54.5564 33.1664 54.5564Z" fill="black"/>
<path d="M33.6131 70.87C31.944 70.87 30.2824 70.87 28.6282 70.87C28.4582 70.87 28.2952 70.8034 28.175 70.6848C28.0548 70.5662 27.9873 70.4054 27.9873 70.2377C27.9873 70.0701 28.0548 69.9092 28.175 69.7907C28.2952 69.6721 28.4582 69.6055 28.6282 69.6055C38.5533 69.6937 48.6126 69.5173 58.5229 69.0835C58.6878 69.0833 58.8464 69.1459 58.9658 69.2582C59.0852 69.3704 59.1561 69.5238 59.1637 69.6864C59.1698 69.8536 59.1093 70.0165 58.9951 70.1402C58.8809 70.2639 58.722 70.3385 58.5527 70.348C50.3115 70.6862 41.9288 70.87 33.6131 70.87Z" fill="black"/>
<g opacity="0.13">
<path d="M55.9885 14.2684C55.9673 14.0666 55.8849 13.8758 55.7519 13.721C55.619 13.5662 55.4417 13.4546 55.2434 13.4009C54.3865 13.1877 53.8873 13.8935 53.8202 14.6434C53.8202 14.8272 53.5445 15.5476 53.5818 15.5035C53.4952 15.7091 53.3982 15.9103 53.2911 16.1064C53.2241 16.2755 52.8291 16.8857 52.7174 17.0695C52.6107 17.1894 52.4962 17.3024 52.3746 17.4076C51.9706 17.7135 51.5419 17.9865 51.093 18.2237C50.4596 18.4443 49.7816 18.5251 49.1407 18.7383C48.5878 18.943 48.023 19.1149 47.4493 19.253C46.6148 19.253 45.8026 19.422 44.9755 19.5103C43.951 19.618 42.9204 19.6573 41.8906 19.6279C39.6552 19.6279 37.4719 19.8852 35.2664 19.8852C32.9639 19.7676 30.6689 19.6205 28.3664 19.4956C25.9447 19.3118 25.1325 19.2456 23.2697 18.5325C23.4336 18.5986 23.5678 18.6648 23.2697 18.5325H23.2175H23.143H23.2101C22.6346 18.2004 22.0252 17.9294 21.392 17.7238C21.1091 17.6921 20.8237 17.7565 20.583 17.9063C20.3422 18.0562 20.1604 18.2825 20.0675 18.548C19.9746 18.8135 19.9763 19.1023 20.0721 19.3668C20.1679 19.6313 20.3522 19.8556 20.5947 20.0028C22.5022 21.01 24.3874 22.1569 26.5557 22.4804C28.5322 22.7378 30.5232 22.8704 32.5168 22.8774C34.1185 22.9962 35.7262 23.0158 37.3304 22.9362C38.9131 22.9324 40.4938 22.8243 42.062 22.6127C42.5538 22.6127 45.4225 22.2231 45.6982 22.1422C46.6786 22.0436 47.6517 21.884 48.6117 21.6644C49.7965 21.2527 51.0185 20.9292 52.1958 20.4734C52.7094 20.1935 53.1914 19.8609 53.6339 19.4809L53.3806 19.672C53.943 19.2933 54.4075 18.7897 54.7367 18.2016C55.2343 17.2753 55.6004 16.2857 55.8246 15.2609C55.9438 14.9436 55.9994 14.6066 55.9885 14.2684Z" fill="black"/>
</g>
<g opacity="0.13">
<path d="M67.6581 75.2593C67.4644 72.7156 67.5314 70.1718 67.3079 67.6355C67.0545 63.9595 66.6596 60.2322 66.5031 56.5195C66.5553 54.4904 66.1082 52.4907 66.1231 50.4616C66.0263 47.3591 66.2573 44.2566 66.3467 41.1615C66.4063 36.9048 66.2871 32.6481 66.682 28.4061C66.6571 26.0163 66.7815 23.6274 67.0546 21.2527C67.1067 20.4367 67.0546 19.628 67.1365 18.8119C67.1365 18.7311 67.1365 18.6575 67.1365 18.5767C67.1625 18.4555 67.1625 18.3303 67.1365 18.2091C67.1113 17.9787 67.0159 17.7612 66.8629 17.5854C66.7099 17.4095 66.5066 17.2835 66.2796 17.2239C64.0442 16.8343 64.7148 20.3926 64.4019 21.9879C64.0219 24.3258 64.1783 26.6857 64.0293 29.0383C63.6418 33.4494 64.0293 37.8238 63.9548 42.2128C63.9548 45.2638 63.8058 48.3148 63.8132 51.3585C63.8132 52.873 64.1262 54.3654 64.1411 55.8799C64.1932 58.9162 64.4391 61.9451 64.5211 64.9741C64.7695 68.998 64.8937 73.0195 64.8937 77.0385C65.1246 80.7144 65.2886 84.4417 65.1917 88.1471C65.1946 88.7248 65.0989 89.2989 64.9086 89.8453C63.5578 89.6993 62.1977 89.6551 60.8401 89.713C57.4125 89.713 53.9849 89.6395 50.5573 89.713C48.0164 89.7498 45.4829 89.9777 42.942 89.9997C39.0971 89.9997 35.2522 90.0365 31.4073 89.963C29.8213 89.8332 28.2287 89.7988 26.6385 89.86C22.9128 90.0585 19.1052 89.86 15.3423 89.7718C13.5393 89.6321 11.728 89.6321 9.92511 89.7718C9.50821 89.7607 9.09365 89.7065 8.68821 89.6101C8.50056 89.5406 8.30025 89.5107 8.10016 89.5221C7.90008 89.5335 7.70464 89.5861 7.52635 89.6764C7.34806 89.7667 7.19087 89.8928 7.06487 90.0466C6.93887 90.2004 6.84684 90.3784 6.79468 90.5693C6.74252 90.7603 6.73138 90.9599 6.76198 91.1553C6.79258 91.3507 6.86424 91.5377 6.97237 91.7042C7.0805 91.8707 7.2227 92.013 7.38987 92.1221C7.55703 92.2312 7.74547 92.3046 7.94308 92.3376C10.3499 92.8964 12.846 92.5655 15.2826 92.8522C18.4966 92.9748 21.7057 93.0311 24.9098 93.0213C27.0707 92.9184 29.2241 92.8743 31.3775 92.9552C38.2551 93.0801 45.1327 93.014 51.9954 92.6023C55.8626 92.3744 59.7373 92.6023 63.6046 92.4185C64.4913 92.3597 65.378 92.5508 66.2573 92.4185C66.5084 92.3496 66.7338 92.21 66.9058 92.0168C67.0779 91.8235 67.1891 91.585 67.2259 91.3304C67.3476 91.1837 67.4364 91.0134 67.4867 90.8305C67.9235 89.0374 68.1313 87.1974 68.1052 85.3534C68.1482 81.9831 67.999 78.613 67.6581 75.2593Z" fill="black"/>
</g>
</g>
<defs>
<clipPath id="clip0_501_31567">
<rect width="73.5" height="97.5" fill="white" transform="translate(0 0.161133)"/>
</clipPath>
</defs>
</svg>
