<svg width="51" height="50" viewBox="0 0 51 50" fill="none" xmlns="http://www.w3.org/2000/svg">
<rect x="0.75" y="0.5" width="49.5" height="49.5" rx="3" fill="#FFD803"/>
<g clip-path="url(#clip0_501_31463)">
<path d="M13.5987 14.8012C13.5724 14.7761 13.5515 14.7457 13.5374 14.7119C13.5233 14.6781 13.5162 14.6417 13.5167 14.605C13.3477 13.8249 13.4442 12.3531 15.4721 12.5591C15.5608 12.572 15.6471 12.5985 15.728 12.6376L19.2479 16.2191L29.3584 26.5221L31.3187 28.5189C31.3187 28.5189 34.3316 32.0219 36.2726 34.6516C39.6524 39.0181 37.6583 37.9339 35.0269 35.7703C35.2248 36.0695 28.9238 30.3735 28.9238 30.3735L27.2388 28.6612L17.1234 18.3582L13.5987 14.8012Z" fill="#1A1A1A"/>
<path d="M15.7287 37.8161C15.704 37.8428 15.674 37.8641 15.6408 37.8784C15.6076 37.8928 15.5717 37.9 15.5356 37.8995C14.7679 38.0712 13.3194 37.9731 13.5222 35.9125C13.5349 35.8224 13.5609 35.7347 13.5994 35.6525L17.1241 32.0759L27.2636 21.8023L29.2287 19.8104C29.2287 19.8104 32.6762 16.749 35.2641 14.7767C39.5613 11.3424 38.4943 13.3686 36.365 16.0425C36.6595 15.8413 31.0538 22.2439 31.0538 22.2439L29.3688 23.9562L19.2534 34.2591L15.7287 37.8161Z" fill="#1A1A1A"/>
</g>
<defs>
<clipPath id="clip0_501_31463">
<rect width="24.75" height="25.4189" fill="white" transform="translate(13.459 12.5403)"/>
</clipPath>
</defs>
</svg>
