<svg width="24" height="23" viewBox="0 0 24 23" fill="none" xmlns="http://www.w3.org/2000/svg">
<ellipse cx="12.1661" cy="11.6931" rx="11.1876" ry="11.1755" fill="black"/>
<path d="M15.4421 14.6143V16.1987H9.3285V14.6143H11.6011V9.02886C11.5051 9.15689 11.3557 9.29026 11.153 9.42896C10.9503 9.56766 10.7209 9.70103 10.4648 9.82907C10.2194 9.94643 9.96866 10.0425 9.7126 10.1171C9.45653 10.1918 9.2218 10.2292 9.00841 10.2292V8.58074C9.2218 8.58074 9.4672 8.51672 9.74461 8.38869C10.022 8.26066 10.2941 8.11128 10.5608 7.94057C10.8382 7.75919 11.073 7.58848 11.265 7.42844C11.4571 7.25773 11.5691 7.13503 11.6011 7.06034H13.4096V14.6143H15.4421Z" fill="white"/>
</svg>
