<svg width="24" height="23" viewBox="0 0 24 23" fill="none" xmlns="http://www.w3.org/2000/svg">
<ellipse cx="12.1661" cy="11.694" rx="11.1876" ry="11.1755" fill="#1A1A1A"/>
<path d="M8.30323 16.1997C8.30323 15.7516 8.34057 15.3408 8.41526 14.9674C8.48994 14.5833 8.61798 14.2205 8.79936 13.8791C8.99141 13.5377 9.25281 13.2176 9.58356 12.9188C9.92499 12.6094 10.3571 12.316 10.8799 12.0386C11.2533 11.8252 11.6054 11.6385 11.9362 11.4785C12.2669 11.3078 12.5603 11.1424 12.8164 10.9823C13.0725 10.8116 13.2699 10.6303 13.4086 10.4382C13.5579 10.2462 13.6326 10.0274 13.6326 9.78203C13.6326 9.5473 13.5686 9.32858 13.4406 9.12586C13.3125 8.92314 13.1205 8.7631 12.8644 8.64573C12.6084 8.5177 12.2989 8.45368 11.9362 8.45368C11.6481 8.45368 11.3814 8.49103 11.136 8.56571C10.9012 8.6404 10.6825 8.74176 10.4798 8.86979C10.2877 8.98716 10.1117 9.12052 9.95166 9.2699C9.79162 9.4086 9.65291 9.5473 9.53555 9.68601L8.43126 8.42167C8.53796 8.29364 8.70333 8.1496 8.92739 7.98956C9.16212 7.81885 9.43953 7.65347 9.75961 7.49343C10.0904 7.32272 10.4638 7.18402 10.8799 7.07732C11.296 6.95996 11.7495 6.90128 12.2403 6.90128C12.9338 6.90128 13.5259 7.01864 14.0167 7.25337C14.5075 7.47743 14.8809 7.79218 15.137 8.19762C15.4038 8.59239 15.5371 9.0405 15.5371 9.54197C15.5371 9.93674 15.4571 10.2835 15.2971 10.5822C15.1477 10.881 14.9503 11.1477 14.7049 11.3824C14.4595 11.6065 14.1981 11.8039 13.9207 11.9746C13.654 12.1346 13.4032 12.2787 13.1685 12.4067C12.7524 12.6094 12.3896 12.7962 12.0802 12.9669C11.7815 13.1376 11.5254 13.3083 11.312 13.479C11.0986 13.639 10.9226 13.8097 10.7839 13.9911C10.6452 14.1618 10.5278 14.3699 10.4318 14.6153H15.7132V16.1997H8.30323Z" fill="white"/>
</svg>
