<svg width="20" height="64" viewBox="0 0 20 64" fill="none" xmlns="http://www.w3.org/2000/svg">
<path d="M9.55469 30.6797L8.90885 30.6797L9.55469 30.6797ZM9.09801 62.9851C9.35023 63.2373 9.75915 63.2373 10.0114 62.9851L14.1214 58.875C14.3736 58.6228 14.3736 58.2139 14.1214 57.9617C13.8692 57.7095 13.4603 57.7095 13.2081 57.9617L9.55469 61.6151L5.9013 57.9617C5.64908 57.7095 5.24016 57.7095 4.98795 57.9617C4.73573 58.2139 4.73573 58.6228 4.98795 58.875L9.09801 62.9851ZM8.90885 0.52832L8.90885 2.41278L10.2005 2.41278L10.2005 0.52832L8.90885 0.52832ZM8.90885 6.18171L8.90885 9.95063L10.2005 9.95063L10.2005 6.1817L8.90885 6.18171ZM8.90885 13.7196L8.90885 17.4885L10.2005 17.4885L10.2005 13.7196L8.90885 13.7196ZM8.90885 21.2574L8.90885 25.0263L10.2005 25.0263L10.2005 21.2574L8.90885 21.2574ZM8.90885 28.7952L8.90885 30.6797L10.2005 30.6797L10.2005 28.7952L8.90885 28.7952ZM8.90885 30.6797L8.90885 32.6702L10.2005 32.6702L10.2005 30.6797L8.90885 30.6797ZM8.90885 36.6513L8.90885 40.6324L10.2005 40.6324L10.2005 36.6513L8.90885 36.6513ZM8.90885 44.6135L8.90885 48.5946L10.2005 48.5946L10.2005 44.6135L8.90885 44.6135ZM8.90885 52.5757L8.90885 56.5568L10.2005 56.5568L10.2005 52.5757L8.90885 52.5757ZM8.90885 60.5379L8.90885 62.5284L10.2005 62.5284L10.2005 60.5379L8.90885 60.5379ZM9.55469 30.6797L8.26302 30.6797L9.55469 30.6797ZM8.64134 63.4418C9.14577 63.9462 9.96361 63.9462 10.468 63.4418L18.6882 55.2216C19.1926 54.7172 19.1926 53.8994 18.6882 53.395C18.1837 52.8905 17.3659 52.8905 16.8615 53.395L9.55469 60.7017L2.2479 53.395C1.74348 52.8905 0.925636 52.8905 0.421208 53.395C-0.0832201 53.8994 -0.08322 54.7172 0.421208 55.2216L8.64134 63.4418ZM8.26302 0.52832L8.26302 2.41278L10.8464 2.41278L10.8464 0.52832L8.26302 0.52832ZM8.26302 6.18171L8.26302 9.95063L10.8464 9.95063L10.8464 6.1817L8.26302 6.18171ZM8.26302 13.7196L8.26302 17.4885L10.8464 17.4885L10.8464 13.7196L8.26302 13.7196ZM8.26302 21.2574L8.26302 25.0263L10.8464 25.0263L10.8464 21.2574L8.26302 21.2574ZM8.26302 28.7952L8.26302 30.6797L10.8464 30.6797L10.8464 28.7952L8.26302 28.7952ZM8.26302 30.6797L8.26302 32.6702L10.8464 32.6702L10.8464 30.6797L8.26302 30.6797ZM8.26302 36.6513L8.26302 40.6324L10.8464 40.6324L10.8464 36.6513L8.26302 36.6513ZM8.26302 44.6135L8.26302 48.5946L10.8464 48.5946L10.8464 44.6135L8.26302 44.6135ZM8.26302 52.5757L8.26302 56.5568L10.8464 56.5568L10.8464 52.5757L8.26302 52.5757ZM8.26302 60.5379L8.26302 62.5284L10.8464 62.5284L10.8464 60.5379L8.26302 60.5379Z" fill="#FFEFEF"/>
</svg>
