<svg width="152" height="49" viewBox="0 0 152 49" fill="none" xmlns="http://www.w3.org/2000/svg">
<path d="M137 2H138V1H137V2ZM136.293 47.7071C136.683 48.0976 137.317 48.0976 137.707 47.7071L144.071 41.3431C144.462 40.9526 144.462 40.3195 144.071 39.9289C143.681 39.5384 143.047 39.5384 142.657 39.9289L137 45.5858L131.343 39.9289C130.953 39.5384 130.319 39.5384 129.929 39.9289C129.538 40.3195 129.538 40.9526 129.929 41.3431L136.293 47.7071ZM0 3H2.43976V1H0L0 3ZM7.31928 3H12.1988V1H7.31928V3ZM17.0783 3H21.9578V1H17.0783V3ZM26.8374 3H31.7169V1H26.8374V3ZM36.5964 3H39.0361V1H36.5964V3ZM39.0361 3H41.2626V1H39.0361V3ZM45.7155 3H50.1684V1H45.7155V3ZM54.6213 3H59.0742V1H54.6213V3ZM63.5271 3H67.98V1H63.5271V3ZM72.4329 3H76.8858V1H72.4329V3ZM81.3387 3H85.7916V1H81.3387V3ZM90.2445 3H94.6974V1H90.2445V3ZM99.1503 3H103.603V1H99.1503V3ZM108.056 3H112.509V1H108.056V3ZM116.962 3H121.415V1H116.962V3ZM125.868 3H130.321V1H125.868V3ZM134.774 3H137V1H134.774V3ZM136 2V4.25H138V2H136ZM136 8.75V13.25H138V8.75H136ZM136 17.75V22.25H138V17.75H136ZM136 26.75V31.25H138V26.75H136ZM136 35.75V40.25H138V35.75H136ZM136 44.75V47H138V44.75H136ZM137 2H139V0H137V2ZM135.586 48.4142C136.367 49.1953 137.633 49.1953 138.414 48.4142L151.142 35.6863C151.923 34.9052 151.923 33.6389 151.142 32.8579C150.361 32.0768 149.095 32.0768 148.314 32.8579L137 44.1716L125.686 32.8579C124.905 32.0768 123.639 32.0768 122.858 32.8579C122.077 33.6389 122.077 34.9052 122.858 35.6863L135.586 48.4142ZM0 4H2.43976V0H0L0 4ZM7.31928 4H12.1988V0H7.31928V4ZM17.0783 4H21.9578V0H17.0783V4ZM26.8374 4H31.7169V0H26.8374V4ZM36.5964 4H39.0361V0H36.5964V4ZM39.0361 4H41.2626V0H39.0361V4ZM45.7155 4H50.1684V0H45.7155V4ZM54.6213 4H59.0742V0H54.6213V4ZM63.5271 4H67.98V0H63.5271V4ZM72.4329 4H76.8858V0H72.4329V4ZM81.3387 4H85.7916V0H81.3387V4ZM90.2445 4H94.6974V0H90.2445V4ZM99.1503 4H103.603V0H99.1503V4ZM108.056 4H112.509V0H108.056V4ZM116.962 4H121.415V0H116.962V4ZM125.868 4H130.321V0H125.868V4ZM134.774 4H137V0H134.774V4ZM135 2V4.25H139V2H135ZM135 8.75V13.25H139V8.75H135ZM135 17.75V22.25H139V17.75H135ZM135 26.75V31.25H139V26.75H135ZM135 35.75V40.25H139V35.75H135ZM135 44.75V47H139V44.75H135Z" fill="white"/>
</svg>
