<svg width="192" height="60" viewBox="0 0 192 60" fill="none" xmlns="http://www.w3.org/2000/svg">
<path d="M2 15V14H1V15H2ZM190.707 15.7071C191.098 15.3166 191.098 14.6834 190.707 14.2929L184.343 7.92893C183.953 7.53841 183.319 7.53841 182.929 7.92893C182.538 8.31946 182.538 8.95262 182.929 9.34315L188.586 15L182.929 20.6569C182.538 21.0474 182.538 21.6805 182.929 22.0711C183.319 22.4616 183.953 22.4616 184.343 22.0711L190.707 15.7071ZM3 60V57.75H1V60H3ZM3 53.25V48.75H1V53.25H3ZM3 44.25V39.75H1V44.25H3ZM3 35.25V30.75H1V35.25H3ZM3 26.25V21.75H1V26.25H3ZM3 17.25V15H1V17.25H3ZM2 16H4.2381V14H2V16ZM8.71429 16H13.1905V14H8.71429V16ZM17.6667 16H22.1429V14H17.6667V16ZM26.619 16H31.0952V14H26.619V16ZM35.5714 16H40.0476V14H35.5714V16ZM44.5238 16H49V14H44.5238V16ZM53.4762 16H57.9524V14H53.4762V16ZM62.4286 16H66.9047V14H62.4286V16ZM71.3809 16H75.8571V14H71.3809V16ZM80.3333 16H84.8095V14H80.3333V16ZM89.2857 16H93.7619V14H89.2857V16ZM98.2381 16H102.714V14H98.2381V16ZM107.19 16H111.667V14H107.19V16ZM116.143 16H120.619V14H116.143V16ZM125.095 16H129.571V14H125.095V16ZM134.048 16H138.524V14H134.048V16ZM143 16H147.476V14H143V16ZM151.952 16H156.429V14H151.952V16ZM160.905 16H165.381V14H160.905V16ZM169.857 16H174.333V14H169.857V16ZM178.81 16H183.286V14H178.81V16ZM187.762 16H190V14H187.762V16ZM2 15V13H0V15H2ZM191.414 16.4142C192.195 15.6332 192.195 14.3668 191.414 13.5858L178.686 0.857864C177.905 0.0768156 176.639 0.0768156 175.858 0.857864C175.077 1.63891 175.077 2.90524 175.858 3.68629L187.172 15L175.858 26.3137C175.077 27.0948 175.077 28.3611 175.858 29.1421C176.639 29.9232 177.905 29.9232 178.686 29.1421L191.414 16.4142ZM4 60V57.75H0V60H4ZM4 53.25V48.75H0V53.25H4ZM4 44.25V39.75H0V44.25H4ZM4 35.25V30.75H0V35.25H4ZM4 26.25V21.75H0V26.25H4ZM4 17.25V15H0V17.25H4ZM2 17H4.2381V13H2V17ZM8.71429 17H13.1905V13H8.71429V17ZM17.6667 17H22.1429V13H17.6667V17ZM26.619 17H31.0952V13H26.619V17ZM35.5714 17H40.0476V13H35.5714V17ZM44.5238 17H49V13H44.5238V17ZM53.4762 17H57.9524V13H53.4762V17ZM62.4286 17H66.9047V13H62.4286V17ZM71.3809 17H75.8571V13H71.3809V17ZM80.3333 17H84.8095V13H80.3333V17ZM89.2857 17H93.7619V13H89.2857V17ZM98.2381 17H102.714V13H98.2381V17ZM107.19 17H111.667V13H107.19V17ZM116.143 17H120.619V13H116.143V17ZM125.095 17H129.571V13H125.095V17ZM134.048 17H138.524V13H134.048V17ZM143 17H147.476V13H143V17ZM151.952 17H156.429V13H151.952V17ZM160.905 17H165.381V13H160.905V17ZM169.857 17H174.333V13H169.857V17ZM178.81 17H183.286V13H178.81V17ZM187.762 17H190V13H187.762V17Z" fill="white"/>
</svg>
