<svg width="25" height="28" viewBox="0 0 25 28" fill="none" xmlns="http://www.w3.org/2000/svg">
<path d="M24.2097 16.5891L22.6207 13.9955C22.2692 13.4299 21.9598 12.34 21.9598 11.6778V9.09802C21.9598 4.09021 17.8115 0.0205078 12.7211 0.0205078C7.61662 0.0343034 3.46833 4.09021 3.46833 9.09802V11.664C3.46833 12.3262 3.15897 13.4161 2.82148 13.9817L1.23247 16.5753C0.627807 17.5823 0.487187 18.7274 0.866861 19.7207C1.24653 20.7277 2.10432 21.5279 3.22928 21.8866C4.74797 22.3832 6.28073 22.7419 7.84161 23.004C7.99629 23.0316 8.15097 23.0454 8.30566 23.073C8.50252 23.1006 8.71346 23.1282 8.92439 23.1558C9.29 23.211 9.65561 23.2523 10.0352 23.2799C10.9211 23.3627 11.8211 23.4041 12.7211 23.4041C13.607 23.4041 14.4929 23.3627 15.3647 23.2799C15.6882 23.2523 16.0116 23.2247 16.321 23.1834C16.5741 23.1558 16.8272 23.1282 17.0803 23.0868C17.235 23.073 17.3897 23.0454 17.5443 23.0178C19.1193 22.7695 20.6802 22.3832 22.1989 21.8866C23.2816 21.5279 24.1113 20.7277 24.505 19.7069C24.8988 18.6722 24.7863 17.541 24.2097 16.5891ZM13.7476 10.988C13.7476 11.5675 13.2695 12.0365 12.6789 12.0365C12.0883 12.0365 11.6102 11.5675 11.6102 10.988V6.71138C11.6102 6.13196 12.0883 5.66291 12.6789 5.66291C13.2695 5.66291 13.7476 6.13196 13.7476 6.71138V10.988ZM16.6732 24.7963C16.0826 26.3966 14.5217 27.5417 12.6937 27.5417C11.5828 27.5417 10.4859 27.1002 9.7125 26.3139C9.26252 25.9 8.92503 25.3482 8.72816 24.7825C8.91097 24.8101 9.09378 24.8239 9.29064 24.8515C9.61407 24.8929 9.95157 24.9343 10.2891 24.9619C11.0906 25.0309 11.9062 25.0723 12.7218 25.0723C13.5233 25.0723 14.3249 25.0309 15.1123 24.9619C15.4076 24.9343 15.7029 24.9205 15.9842 24.8791C16.2092 24.8515 16.4342 24.8239 16.6732 24.7963Z" fill="#392396"/>
</svg>
