<svg width="66" height="66" viewBox="0 0 66 66" fill="none" xmlns="http://www.w3.org/2000/svg">
<rect x="0.75" y="0.75" width="65.0913" height="65.0913" rx="8" fill="#FFD803"/>
<path d="M39.2857 36H40.0357C40.0357 35.8042 39.9592 35.6162 39.8224 35.4761L39.2857 36ZM29.0357 25.5L29.5724 24.9761C29.4313 24.8315 29.2378 24.75 29.0357 24.75V25.5ZM46.6071 28.5H47.3571C47.3571 28.3042 47.2806 28.1162 47.1438 27.9761L46.6071 28.5ZM36.3571 18L36.8938 17.4761C36.7527 17.3315 36.5592 17.25 36.3571 17.25V18ZM39.2857 41.25C38.8715 41.25 38.5357 41.5858 38.5357 42C38.5357 42.4142 38.8715 42.75 39.2857 42.75V41.25ZM26.8214 25.5C26.8214 25.9142 27.1572 26.25 27.5714 26.25C27.9856 26.25 28.3214 25.9142 28.3214 25.5H26.8214ZM36.3571 48.75H23.1786V50.25H36.3571V48.75ZM21 46.5V28.5H19.5V46.5H21ZM38.5357 36V46.5H40.0357V36H38.5357ZM23.1786 26.25H29.0357V24.75H23.1786V26.25ZM39.8224 35.4761L29.5724 24.9761L28.499 26.0239L38.749 36.5239L39.8224 35.4761ZM28.2857 25.5V35.25H29.7857V25.5H28.2857ZM29.7679 36.75H39.2857V35.25H29.7679V36.75ZM23.1786 48.75C21.9923 48.75 21 47.7598 21 46.5H19.5C19.5 48.5539 21.13 50.25 23.1786 50.25V48.75ZM36.3571 50.25C38.4057 50.25 40.0357 48.5539 40.0357 46.5H38.5357C38.5357 47.7598 37.5434 48.75 36.3571 48.75V50.25ZM28.2857 35.25C28.2857 36.0613 28.9324 36.75 29.7679 36.75V35.25C29.7694 35.25 29.7716 35.2502 29.7742 35.2507C29.7767 35.2513 29.7791 35.252 29.781 35.2529C29.7849 35.2546 29.7866 35.2562 29.7868 35.2564C29.7871 35.2567 29.7868 35.2564 29.7865 35.2557C29.7864 35.2554 29.7857 35.2539 29.7857 35.25H28.2857ZM21 28.5C21 27.2402 21.9923 26.25 23.1786 26.25V24.75C21.13 24.75 19.5 26.4461 19.5 28.5H21ZM45.8571 28.5V39H47.3571V28.5H45.8571ZM30.5 18.75H36.3571V17.25H30.5V18.75ZM47.1438 27.9761L36.8938 17.4761L35.8205 18.5239L46.0705 29.0239L47.1438 27.9761ZM35.6071 18V27.75H37.1071V18H35.6071ZM37.0893 29.25H46.6071V27.75H37.0893V29.25ZM43.6786 41.25H39.2857V42.75H43.6786V41.25ZM28.3214 25.5V20.9992H26.8214V25.5H28.3214ZM35.6071 27.75C35.6071 28.5613 36.2538 29.25 37.0893 29.25V27.75C37.0908 27.75 37.093 27.7502 37.0956 27.7507C37.0982 27.7513 37.1005 27.752 37.1025 27.7529C37.1064 27.7546 37.108 27.7562 37.1083 27.7564C37.1085 27.7567 37.1082 27.7564 37.1079 27.7557C37.1078 27.7554 37.1071 27.7539 37.1071 27.75H35.6071ZM45.8571 39C45.8571 40.2598 44.8648 41.25 43.6786 41.25V42.75C45.7271 42.75 47.3571 41.0539 47.3571 39H45.8571ZM30.5 17.25C28.4517 17.25 26.8214 18.9451 26.8214 20.9992H28.3214C28.3214 19.7397 29.3135 18.75 30.5 18.75V17.25Z" fill="#141414"/>
</svg>
