<svg width="63" height="63" viewBox="0 0 63 63" fill="none" xmlns="http://www.w3.org/2000/svg">
<rect x="0.25" width="62.25" height="62.25" rx="6" fill="#FFD803"/>
<g clip-path="url(#clip0_501_33350)">
<path d="M50.8375 14.2729C44.0875 15.8479 37.9 21.0229 33.3775 26.1229C29.9025 30.0384 27.1247 34.5209 25.165 39.3754C22.72 34.0129 19.33 28.7029 13.7425 27.0904C13.4915 27.0303 13.2279 27.0527 12.9907 27.1544C12.7534 27.256 12.5553 27.4313 12.4257 27.6545C12.296 27.8776 12.2417 28.1366 12.2709 28.393C12.3 28.6494 12.411 28.8895 12.5875 29.0779C17.6875 34.2454 20.635 39.5404 23.2525 46.3279C24.0025 48.2404 26.935 48.6154 27.5275 46.3279C29.1653 39.7669 32.1965 33.6355 36.415 28.3504C40.6825 23.0554 46.075 19.7629 51.4975 15.8404C51.6694 15.731 51.7971 15.5643 51.8579 15.3699C51.9188 15.1754 51.9087 14.9656 51.8297 14.7778C51.7506 14.59 51.6075 14.4362 51.4259 14.3438C51.2443 14.2514 51.0359 14.2263 50.8375 14.2729Z" fill="#231F20"/>
</g>
<defs>
<clipPath id="clip0_501_33350">
<rect width="39.6375" height="33.63" fill="white" transform="translate(12.25 14.25)"/>
</clipPath>
</defs>
</svg>
