<svg width="76" height="41" viewBox="0 0 76 41" fill="none" xmlns="http://www.w3.org/2000/svg">
<path fill-rule="evenodd" clip-rule="evenodd" d="M2.59828 0.0180595C2.15359 0.0802746 1.60064 0.292086 1.23691 0.539548C1.03058 0.679935 0.667882 1.03703 0.514991 1.25027C0.334951 1.50141 0.151506 1.89421 0.0688735 2.20547L0.000286788 2.46381V14.9099C0.000286788 28.7529 -0.0161606 27.6022 0.200058 28.8908C0.968435 33.4704 3.91006 37.4148 8.08719 39.4667C9.04613 39.9378 9.87896 40.2499 10.843 40.4995C14.9565 41.5648 19.268 40.8466 22.8145 38.5054C24.7189 37.2481 26.3511 35.528 27.4674 33.6018C27.5885 33.3928 27.6909 33.2182 27.695 33.2138C27.6991 33.2094 27.7947 33.3656 27.9075 33.561C28.8813 35.248 30.2771 36.8172 31.864 38.0094C34.6258 40.0841 37.9703 41.1314 41.2939 40.9623C43.4788 40.8512 45.3488 40.3719 47.2448 39.4369C48.1715 38.98 48.7955 38.599 49.5858 38.0078C52.726 35.6584 54.7983 32.1165 55.2845 28.2677C55.4472 26.9802 55.4529 25.486 55.2997 24.3318C55.1061 22.8729 54.6731 21.4629 54.0118 20.1375C53.3295 18.77 52.5366 17.6662 51.4286 16.5412C48.8859 13.9598 45.5162 12.435 41.7725 12.172C41.144 12.1278 39.8908 12.1519 39.2643 12.2202C35.1496 12.6685 31.4736 14.7335 29.0221 17.9738C28.7393 18.3476 28.2991 19.0153 28.0916 19.3851C27.9913 19.5639 27.9017 19.7106 27.8925 19.7111C27.8833 19.7116 27.8156 19.606 27.7422 19.4765C25.5142 15.5466 21.4099 12.8475 16.7821 12.2688C15.6582 12.1282 14.2767 12.1091 13.2403 12.2197C10.7594 12.4846 8.30426 13.3681 6.24933 14.7355C6.07458 14.8517 5.91385 14.9537 5.89211 14.962C5.85983 14.9744 5.85265 13.8398 5.85265 8.73198V2.48679L5.77649 2.18656C5.56885 1.36798 5.00003 0.671546 4.22615 0.288438C4.05894 0.205647 3.81268 0.110334 3.67892 0.076597C3.39712 0.00556781 2.8857 -0.0221509 2.59828 0.0180595ZM54.8925 11.8122C53.7433 11.9519 52.953 12.6148 52.582 13.7499C52.4527 14.1458 52.4184 14.4192 52.436 14.9157C52.4541 15.4281 52.5317 15.7355 52.7487 16.1541C52.8512 16.352 53.8023 17.6083 56.7152 21.3937L60.5468 26.3731L60.4591 26.4846C59.3873 27.8469 52.8913 36.3308 52.7874 36.504C52.2449 37.4079 52.2259 38.5258 52.7383 39.3897C52.8977 39.6584 53.2788 40.0558 53.5705 40.2574C54.9264 41.1944 56.6774 41.0751 57.5754 39.9844C57.6649 39.8757 59.1786 37.9219 60.9393 35.6426C64.0155 31.6601 64.1425 31.5007 64.1934 31.5547C64.2225 31.5857 65.7285 33.519 67.5402 35.8509C69.3517 38.1828 70.903 40.1577 70.9873 40.2395C71.3143 40.5565 71.7785 40.8016 72.3019 40.9336C72.5269 40.9903 72.6497 41.0008 73.0712 40.9994C73.5156 40.9979 73.6076 40.9884 73.8769 40.9164C74.3349 40.794 74.8158 40.5463 75.0809 40.2963C75.6492 39.7603 75.9384 39.0802 75.9373 38.2823C75.9364 37.6949 75.8136 37.2328 75.5252 36.7323C75.4267 36.5611 68.1873 26.8543 67.9765 26.6106C67.9421 26.5709 68.4672 25.8703 71.687 21.6594C75.6221 16.5131 75.6155 16.5221 75.816 15.9584C75.9473 15.5893 76.0006 15.2635 76 14.8339C75.9991 14.1633 75.8365 13.6708 75.45 13.1677C75.1052 12.7189 74.426 12.3463 73.6337 12.1712C73.3514 12.1089 72.6779 12.1175 72.4024 12.1871C71.8642 12.323 71.3857 12.6025 71.0473 12.9786C70.9414 13.0963 69.3479 15.0459 67.5061 17.311C65.6643 19.576 64.1527 21.4292 64.1471 21.4292C64.1415 21.4292 62.685 19.5076 60.9106 17.159C59.1362 14.8103 57.6202 12.8225 57.5417 12.7416C56.8924 12.0718 55.8281 11.6984 54.8925 11.8122ZM15.7829 17.902C17.7867 18.1811 19.5313 19.0439 20.9484 20.4566C22.4097 21.9133 23.2671 23.7029 23.4892 25.7603C23.5351 26.1852 23.5066 27.4059 23.441 27.827C23.2349 29.1496 22.7869 30.3137 22.0724 31.3831C21.7199 31.9106 21.4694 32.2154 21.009 32.6769C19.6868 34.0022 18.0383 34.8478 16.1586 35.1647C13.4954 35.6137 10.7874 34.8968 8.7643 33.2072C8.35999 32.8695 7.73073 32.2101 7.42756 31.8063C6.48008 30.5445 5.91124 29.1178 5.72581 27.5383C5.67644 27.1176 5.67729 25.9943 5.7273 25.5931C5.97654 23.5938 6.87294 21.8011 8.33445 20.3792C9.8152 18.9385 11.6784 18.0753 13.7723 17.8599C14.1598 17.82 15.3775 17.8455 15.7829 17.902ZM41.5749 17.8596C43.6983 18.0524 45.6423 18.9567 47.1397 20.4481C48.701 22.0032 49.6199 24.0533 49.7114 26.1858C49.7401 26.8564 49.6515 27.6513 49.461 28.4318C49.0403 30.1553 48.0614 31.799 46.7512 32.9817C44.6211 34.9045 41.8309 35.6709 38.97 35.119C37.1457 34.767 35.3392 33.7554 34.117 32.4012C32.9583 31.1175 32.2305 29.5806 31.9637 27.8542C31.9072 27.4884 31.8958 27.2848 31.894 26.6113C31.8918 25.7882 31.9106 25.5611 32.0321 24.9397C32.5253 22.4173 34.1636 20.2055 36.485 18.9281C37.5408 18.3472 38.7577 17.9756 39.9788 17.8614C40.3788 17.824 41.1731 17.8231 41.5749 17.8596Z" fill="#0071F7"/>
</svg>
