<svg width="105" height="47" viewBox="0 0 105 47" fill="none" xmlns="http://www.w3.org/2000/svg">
<path fill-rule="evenodd" clip-rule="evenodd" d="M63.3824 0.0111442C63.326 0.0209937 63.2198 0.038562 63.1465 0.0501803L63.0131 0.0713266V1.96882V3.86631L61.6416 2.52284L60.27 1.17937L60.0312 1.35405C59.7241 1.5787 59.0984 2.19178 58.8691 2.49269L58.6908 2.72671L60.0619 4.07062L61.4331 5.41453H59.4972H57.5613L57.528 5.60549C57.4857 5.84819 57.4843 7.32794 57.5263 7.47488L57.5578 7.58543H59.4854C60.5456 7.58543 61.413 7.5989 61.413 7.61534C61.413 7.63183 60.8005 8.24559 60.052 8.97932L58.691 10.3133L58.9191 10.5899C59.2036 10.9349 59.5828 11.3085 59.9565 11.6117L60.2437 11.8449L61.6284 10.4893L63.0131 9.13365V11.0499V12.9661L63.2901 12.9994C63.6462 13.0423 64.6874 13.0425 64.9928 12.9998L65.2287 12.9667V11.0502V9.13365L66.6169 10.4934L68.0051 11.8532L68.3093 11.6134C68.6567 11.3395 69.1581 10.8434 69.4111 10.5232L69.5834 10.305L68.1961 8.94523L66.8088 7.58543H68.7651H70.7215L70.7546 7.39447C70.7978 7.1449 70.7976 5.94202 70.7544 5.64569L70.7207 5.41453H68.7647H66.8088L68.1928 4.05771L69.5768 2.7009L69.2334 2.29888C68.9107 1.92122 68.6048 1.63337 68.1893 1.31662L68.0113 1.18086L66.6505 2.51376C65.9021 3.24684 65.276 3.84665 65.2592 3.84665C65.2424 3.84665 65.2287 2.99831 65.2287 1.96146C65.2287 0.204194 65.2238 0.0742613 65.1569 0.0464817C65.0772 0.0134357 63.5444 -0.0171177 63.3824 0.0111442ZM64.9415 4.9516C65.3901 5.04298 65.5301 5.10232 65.5911 5.22703C65.7014 5.45264 65.802 6.06978 65.8018 6.52008C65.8016 7.0618 65.6673 7.75296 65.5375 7.88015C65.426 7.98946 64.8191 8.11807 64.3158 8.13914C63.811 8.16024 63.4157 8.1169 62.9914 7.99385C62.7182 7.91461 62.6885 7.87742 62.5833 7.48256C62.4116 6.8384 62.4232 6.08546 62.6152 5.42373L62.7054 5.11301L63.0251 5.02397C63.6485 4.85029 64.3195 4.82497 64.9415 4.9516ZM25.6973 16.8987C23.9134 17.041 22.2212 17.3313 21.1267 17.6828L20.8642 17.7671L20.891 18.2744C20.9352 19.1119 21.1424 19.9308 21.4726 20.5732C21.5842 20.7904 21.6369 20.8553 21.6893 20.8404C22.7537 20.5373 23.8276 20.3048 24.7331 20.1812C25.1262 20.1275 25.5381 20.1108 26.4973 20.1097C27.6386 20.1085 27.789 20.1163 28.2068 20.1994C30.5243 20.6598 31.3798 21.8085 31.3798 24.4598C31.3798 24.954 31.3739 24.9965 31.308 24.977C31.2685 24.9653 30.9131 24.9243 30.5182 24.8859C29.6065 24.7972 26.9958 24.7838 26.3332 24.8644C23.4844 25.2111 21.4029 26.3052 20.1746 28.1017C19.4168 29.2101 19.0998 30.5168 19.1971 32.1319C19.2937 33.7367 19.8235 34.9787 20.8341 35.9695C22.3192 37.4257 24.731 38.0848 28.2821 38.0051C30.1847 37.9624 31.6627 37.7715 34.4487 37.2085L35.2814 37.0402L35.266 30.2025C35.2525 24.2398 35.2422 23.3055 35.1855 22.9024C34.9885 21.5023 34.6331 20.4837 34.0355 19.6064C33.7421 19.1759 33.0447 18.5112 32.5459 18.1871C31.4688 17.4869 30.0984 17.0636 28.4257 16.9145C28.0019 16.8766 26.1105 16.8657 25.6973 16.8987ZM48.4796 16.9337C46.9094 17.1434 45.4319 17.8719 44.382 18.9538C44.1692 19.173 43.8683 19.5277 43.7134 19.7419C43.5584 19.9561 43.4261 20.1259 43.4192 20.1192C43.4123 20.1125 43.332 19.5539 43.2406 18.8778C43.0112 17.1807 43.0624 17.3443 42.743 17.2863C42.0464 17.1599 40.696 17.1542 39.9446 17.2745L39.6266 17.3253V32.0896V46.8538L39.7599 46.8773C40.6886 47.041 42.5284 47.0409 43.4731 46.8769L43.6064 46.8538V42.2171V37.5804L43.8013 37.6364C44.8324 37.9326 46.751 38.084 48.1811 37.9819C49.9966 37.8522 51.4482 37.4844 52.7909 36.8136C55.57 35.4253 57.3675 32.7861 57.8844 29.3351C58.0155 28.4604 58.0621 27.5821 58.036 26.4806C57.9818 24.1916 57.6349 22.6008 56.8392 20.9928C55.6696 18.6292 53.7257 17.2922 50.9382 16.9342C50.3461 16.8582 49.0467 16.8579 48.4796 16.9337ZM79.5274 16.9387C77.0244 17.2334 74.8601 18.4166 73.4351 20.2694C72.3493 21.681 71.7083 23.3684 71.3962 25.6361C71.2889 26.416 71.2885 28.7119 71.3957 29.4955C71.6528 31.376 72.1593 32.8308 72.9839 34.0566C74.4488 36.2345 76.8346 37.5479 79.9991 37.9186C80.3038 37.9543 81.0054 37.9938 81.5582 38.0063C83.9848 38.0611 86.2224 37.7393 87.9434 37.088L88.38 36.9227L88.3519 36.5573C88.3131 36.0536 88.1505 35.2234 87.9964 34.7419C87.8671 34.3377 87.655 33.8373 87.6131 33.8373C87.6008 33.8373 87.3511 33.9177 87.0582 34.016C86.0643 34.3496 85.0975 34.5652 83.9584 34.7075C83.1437 34.8093 81.3196 34.8102 80.6556 34.7092C78.103 34.3209 76.6187 33.1859 75.9164 31.0852C75.7045 30.4515 75.5877 29.778 75.5065 28.7216L75.4825 28.41H82.5148H89.547L89.573 28.1387C89.8315 25.4433 89.5569 23.3294 88.706 21.462C87.6719 19.1929 85.6766 17.5956 83.2279 17.0767C82.2595 16.8715 80.6184 16.8103 79.5274 16.9387ZM95.2209 17.1951C94.9614 17.2105 94.5967 17.2458 94.4105 17.2734L94.0719 17.3236L94.0822 27.4395L94.0926 37.5553L94.4823 37.6103C95.0224 37.6864 97.1601 37.6873 97.6621 37.6116L98.0314 37.556L98.0546 31.8674C98.079 25.8858 98.0766 25.9657 98.26 25.0733C98.6785 23.0363 99.8177 21.6105 101.451 21.0787C102.161 20.8477 102.736 20.7645 103.673 20.7575C104.113 20.7543 104.55 20.7651 104.644 20.7816L104.814 20.8117L104.858 20.5404C104.977 19.8117 105 19.5279 105 18.8219C105 18.2737 104.981 17.9508 104.93 17.6781C104.891 17.4691 104.854 17.2925 104.847 17.2856C104.84 17.2787 104.55 17.2553 104.202 17.2337C102.86 17.1499 101.683 17.3433 100.725 17.8051C99.8398 18.2314 98.7489 19.1986 98.0814 20.1485L97.8272 20.5104L97.7789 19.847C97.7326 19.2097 97.6171 18.271 97.507 17.6359L97.4548 17.3344L97.2097 17.2858C97.0749 17.259 96.7707 17.2269 96.5338 17.2143C96.2969 17.2017 96.0107 17.1859 95.8978 17.1792C95.785 17.1725 95.4804 17.1796 95.2209 17.1951ZM1.29147 17.3443C1.281 17.361 1.2497 17.5907 1.22192 17.8549C1.17322 18.3182 1.19037 19.8195 1.24917 20.239L1.27313 20.4099H6.06921C8.70704 20.4099 10.8653 20.4192 10.8653 20.4307C10.8653 20.4422 8.42066 24.1763 5.43277 28.7287L0.000244141 37.0059L0.0944467 37.2609L0.188649 37.5158L8.25109 37.5259L16.3135 37.5361L16.3378 37.3651C16.3958 36.9571 16.4071 35.3358 16.3549 34.9027L16.3016 34.4604L11.1707 34.4403L6.03983 34.4202L11.509 26.1293L16.978 17.8384L16.8819 17.5864L16.7857 17.3344L9.04812 17.3242C4.79243 17.3186 1.30193 17.3277 1.29147 17.3443ZM60.4128 17.3465C60.2826 17.553 60.2305 19.4992 60.3397 20.0782L60.3947 20.3697H61.7038H63.0129L63.0233 28.9628L63.0336 37.556L63.4029 37.6116C63.9118 37.6883 66.0594 37.6883 66.5416 37.6115L66.8904 37.556L66.9007 27.4351L66.911 17.3143H63.6721C61.8906 17.3143 60.424 17.3288 60.4128 17.3465ZM82.1942 20.1025C82.9756 20.2998 83.8699 20.8298 84.3531 21.3819C84.7662 21.8539 85.1124 22.4485 85.3447 23.0849C85.5513 23.651 85.7432 24.7169 85.7432 25.2987V25.4753H80.6376H75.5321L75.5538 25.3245C75.777 23.7753 76.1792 22.6647 76.8323 21.7948C77.6342 20.7266 78.5507 20.2215 80.1017 19.9928C80.1694 19.9829 80.5756 19.9801 81.0043 19.9868C81.6834 19.9973 81.8368 20.0122 82.1942 20.1025ZM50.1326 20.3631C51.6534 20.71 52.6366 21.6055 53.2528 23.2053C53.6848 24.3267 53.8695 25.4814 53.8699 27.0633C53.8704 28.645 53.7013 29.6892 53.2614 30.8222C52.557 32.6365 51.3355 33.848 49.6578 34.3965C48.7638 34.6887 48.3561 34.7414 47.0118 34.7384C45.5356 34.7352 44.7609 34.6345 43.8526 34.3279L43.6269 34.2518L43.6152 29.8937C43.6017 24.8344 43.6063 24.7506 43.9554 23.7204C44.2359 22.8931 44.6387 22.2461 45.2438 21.6512C45.9662 20.9409 46.8228 20.5032 47.8702 20.3089C48.3302 20.2236 49.6608 20.2555 50.1326 20.3631ZM29.3283 27.8476C30.0054 27.8969 31.1133 28.0027 31.267 28.0326L31.3798 28.0546V31.266V34.4774L31.2259 34.5178C29.8894 34.8687 27.2331 34.9881 25.8614 34.7591C24.8304 34.5869 23.8977 33.9577 23.482 33.1539C23.2156 32.6386 23.0849 31.7702 23.1659 31.0538C23.2291 30.4956 23.3054 30.2251 23.5215 29.7934C24.2658 28.3063 26.2946 27.6265 29.3283 27.8476Z" fill="#FF4A00"/>
</svg>
