<?xml version="1.0" standalone="no"?>
<!DOCTYPE svg PUBLIC "-//W3C//DTD SVG 20010904//EN"
 "http://www.w3.org/TR/2001/REC-SVG-20010904/DTD/svg10.dtd">
<svg version="1.0" xmlns="http://www.w3.org/2000/svg"
 width="1112.000000pt" height="1112.000000pt" viewBox="0 0 1112.000000 1112.000000"
 preserveAspectRatio="xMidYMid meet">
<metadata>
Created by potrace 1.14, written by Peter Selinger 2001-2017
</metadata>
<g transform="translate(0.000000,1112.000000) scale(0.100000,-0.100000)"
fill="#000000" stroke="none">
<path d="M4215 10684 c-1066 -15 -1922 -45 -2223 -79 -145 -16 -171 -29 -238
-118 -65 -87 -111 -183 -134 -280 -32 -137 -167 -1203 -285 -2247 -25 -223
-104 -918 -175 -1545 -71 -627 -148 -1311 -170 -1520 -22 -209 -90 -832 -150
-1385 -184 -1686 -250 -2352 -250 -2514 0 -47 7 -106 16 -137 95 -318 511
-666 773 -647 202 15 748 419 1976 1464 621 528 1215 1005 1342 1079 l32 18
69 -56 c136 -111 613 -580 1026 -1008 504 -522 994 -1013 1131 -1134 201 -178
375 -291 504 -329 78 -23 178 -21 248 5 122 45 351 223 421 328 126 189 226
750 387 2171 24 217 80 708 125 1090 79 688 157 1386 245 2210 25 234 66 612
91 840 117 1091 203 1975 259 2675 20 248 20 588 0 690 -55 288 -277 370
-1115 416 -176 10 -3367 20 -3905 13z m3955 -1275 c0 -263 -28 -573 -200
-2199 -94 -891 -123 -1158 -236 -2135 -57 -500 -123 -1070 -145 -1265 -51
-453 -148 -1232 -200 -1600 -42 -297 -57 -353 -96 -358 -108 -16 -404 268
-1298 1248 -591 647 -1126 1180 -1186 1180 -40 0 -755 -577 -1419 -1145 -168
-143 -395 -337 -505 -431 -296 -253 -925 -776 -1055 -878 l-113 -89 7 114 c7
106 26 299 150 1519 25 245 100 938 166 1540 66 602 138 1268 160 1480 23 212
97 891 165 1510 123 1113 185 1681 185 1700 0 7 968 10 2810 10 l2810 0 0
-201z"/>
</g>
</svg>
