<svg width="24" height="25" viewBox="0 0 24 25" fill="none" xmlns="http://www.w3.org/2000/svg">
<ellipse cx="12.1661" cy="13.0485" rx="11.1876" ry="11.1755" fill="#1A1A1A"/>
<path d="M13.5686 12.7772C14.0167 12.8519 14.4062 13.0226 14.7369 13.2893C15.0783 13.5454 15.3397 13.8762 15.5211 14.2816C15.7025 14.6764 15.7932 15.1245 15.7932 15.626C15.7932 16.2875 15.6278 16.8636 15.2971 17.3544C14.977 17.8452 14.5182 18.224 13.9207 18.4907C13.3232 18.7681 12.619 18.9068 11.8081 18.9068C10.9973 18.9068 10.2824 18.7628 9.66358 18.4747C9.04476 18.1973 8.54863 17.7919 8.1752 17.2584L9.24748 16.0421C9.50354 16.4262 9.8343 16.7302 10.2397 16.9543C10.6452 17.189 11.1573 17.3064 11.7761 17.3064C12.4697 17.3064 13.0085 17.157 13.3926 16.8583C13.7767 16.5595 13.9687 16.1114 13.9687 15.5139C13.9687 14.8951 13.7553 14.4096 13.3285 14.0575C12.9124 13.7055 12.2829 13.5294 11.44 13.5294H11.0079V12.153H11.4881C12.2029 12.153 12.7524 11.9877 13.1365 11.6569C13.5206 11.3155 13.7126 10.8887 13.7126 10.3766C13.7126 10.0352 13.6326 9.75776 13.4726 9.54437C13.3232 9.32031 13.1098 9.15493 12.8324 9.04824C12.555 8.94154 12.2349 8.8882 11.8722 8.8882C11.328 8.8882 10.8479 9.00556 10.4318 9.24029C10.0157 9.47502 9.68492 9.8111 9.43953 10.2486L8.33524 9.04824C8.54863 8.70682 8.84204 8.40807 9.21547 8.152C9.5889 7.89594 10.0157 7.69855 10.4958 7.55985C10.9866 7.41048 11.5041 7.33579 12.0482 7.33579C12.7524 7.33579 13.3712 7.45315 13.9047 7.68788C14.4382 7.92261 14.8489 8.25336 15.137 8.68014C15.4358 9.10692 15.5851 9.60838 15.5851 10.1845C15.5851 10.6006 15.5051 10.9954 15.3451 11.3688C15.185 11.7316 14.9503 12.041 14.6409 12.2971C14.3315 12.5425 13.974 12.7025 13.5686 12.7772Z" fill="white"/>
</svg>
