<svg width="66" height="66" viewBox="0 0 66 66" fill="none" xmlns="http://www.w3.org/2000/svg">
<rect x="0.75" y="0.75" width="65.0913" height="65.0913" rx="8" fill="#FFD803"/>
<path d="M31.1683 46.7312C31.1683 43.9711 33.6825 44.2324 36.7838 44.2324C39.8852 44.2324 42.3993 43.9711 42.3993 46.7312M29.7273 21.2045H36M40.7045 36.1023C40.7045 38.2675 38.9493 40.0227 36.7841 40.0227C34.6189 40.0227 32.8636 38.2675 32.8636 36.1023C32.8636 33.9371 34.6189 32.1818 36.7841 32.1818C38.9493 32.1818 40.7045 33.9371 40.7045 36.1023ZM23.4545 51H42.2727C44.871 51 46.9773 48.8937 46.9773 46.2955V21.2045C46.9773 18.6063 44.871 16.5 42.2727 16.5H23.4545C20.8563 16.5 18.75 18.6063 18.75 21.2045V46.2955C18.75 48.8937 20.8563 51 23.4545 51Z" stroke="#1A1A1A" stroke-width="1.5" stroke-linecap="round"/>
</svg>
