<svg width="86" height="149" viewBox="0 0 86 149" fill="none" xmlns="http://www.w3.org/2000/svg">
<path d="M71 117.463L72 117.463L71 117.463ZM70.2929 147.707C70.6834 148.098 71.3166 148.098 71.7071 147.707L78.0711 141.343C78.4616 140.953 78.4616 140.319 78.0711 139.929C77.6805 139.538 77.0474 139.538 76.6569 139.929L71 145.586L65.3432 139.929C64.9526 139.538 64.3195 139.538 63.9289 139.929C63.5384 140.319 63.5384 140.953 63.9289 141.343L70.2929 147.707ZM71 2.00008L72 2.00008L72 1.00008L71 1.00008L71 2.00008ZM-7.58568e-06 3L2.21874 3.00001L2.21874 1.00001L-7.67311e-06 1L-7.58568e-06 3ZM6.65624 3.00001L11.0937 3.00001L11.0937 1.00001L6.65624 1.00001L6.65624 3.00001ZM15.5312 3.00002L19.9687 3.00002L19.9687 1.00002L15.5312 1.00002L15.5312 3.00002ZM24.4062 3.00003L28.8437 3.00003L28.8437 1.00003L24.4062 1.00003L24.4062 3.00003ZM33.2812 3.00004L37.7187 3.00004L37.7187 1.00004L33.2812 1.00004L33.2812 3.00004ZM42.1562 3.00005L46.5937 3.00005L46.5937 1.00005L42.1562 1.00005L42.1562 3.00005ZM51.0312 3.00006L55.4687 3.00006L55.4687 1.00006L51.0312 1.00006L51.0312 3.00006ZM59.9062 3.00007L64.3437 3.00007L64.3438 1.00007L59.9062 1.00007L59.9062 3.00007ZM68.7812 3.00008L71 3.00008L71 1.00008L68.7813 1.00008L68.7812 3.00008ZM70 2.00008L70 4.22052L72 4.22052L72 2.00008L70 2.00008ZM70 8.6614L70 13.1023L72 13.1023L72 8.6614L70 8.6614ZM70 17.5432L70 21.984L72 21.984L72 17.5432L70 17.5432ZM70 26.4249L70 30.8658L72 30.8658L72 26.4249L70 26.4249ZM70 35.3067L70 39.7476L72 39.7476L72 35.3067L70 35.3067ZM70 44.1884L70 48.6293L72 48.6293L72 44.1884L70 44.1884ZM70 53.0702L70 57.5111L72 57.5111L72 53.0702L70 53.0702ZM70 61.952L70 66.3928L72 66.3928L72 61.952L70 61.952ZM70 70.8337L70 75.2746L72 75.2746L72 70.8337L70 70.8337ZM70 79.7155L70 84.1564L72 84.1564L72 79.7155L70 79.7155ZM70 88.5972L70 93.0381L72 93.0381L72 88.5972L70 88.5972ZM70 97.479L70 101.92L72 101.92L72 97.479L70 97.479ZM70 106.361L70 110.802L72 110.802L72 106.361L70 106.361ZM70 115.243L70 117.463L72 117.463L72 115.243L70 115.243ZM70 117.463L70 119.924L72 119.924L72 117.463L70 117.463ZM70 124.847L70 129.77L72 129.77L72 124.847L70 124.847ZM70 134.693L70 139.616L72 139.616L72 134.693L70 134.693ZM70 144.539L70 147L72 147L72 144.539L70 144.539ZM71 117.463L73 117.463L71 117.463ZM69.5858 148.414C70.3668 149.195 71.6332 149.195 72.4142 148.414L85.1421 135.686C85.9232 134.905 85.9232 133.639 85.1421 132.858C84.3611 132.077 83.0948 132.077 82.3137 132.858L71 144.172L59.6863 132.858C58.9052 132.077 57.6389 132.077 56.8579 132.858C56.0768 133.639 56.0768 134.905 56.8579 135.686L69.5858 148.414ZM71 2.00008L73 2.00008L73 8.10941e-05L71 7.89165e-05L71 2.00008ZM-7.54197e-06 4L2.21874 4.00001L2.21874 5.50992e-06L-7.71682e-06 3.10351e-06L-7.54197e-06 4ZM6.65624 4.00001L11.0937 4.00002L11.0937 1.48971e-05L6.65624 1.02035e-05L6.65624 4.00001ZM15.5312 4.00002L19.9687 4.00002L19.9687 2.44036e-05L15.5312 1.971e-05L15.5312 4.00002ZM24.4062 4.00003L28.8437 4.00003L28.8437 3.391e-05L24.4062 2.92164e-05L24.4062 4.00003ZM33.2812 4.00004L37.7187 4.00004L37.7187 4.34164e-05L33.2812 3.86036e-05L33.2812 4.00004ZM42.1562 4.00005L46.5937 4.00005L46.5937 5.28037e-05L42.1562 4.81101e-05L42.1562 4.00005ZM51.0312 4.00006L55.4687 4.00006L55.4687 6.23101e-05L51.0312 5.76165e-05L51.0312 4.00006ZM59.9062 4.00007L64.3437 4.00007L64.3438 7.18165e-05L59.9062 6.70037e-05L59.9062 4.00007ZM68.7812 4.00008L71 4.00008L71 7.89165e-05L68.7813 7.65101e-05L68.7812 4.00008ZM69 2.00008L69 4.22052L73 4.22052L73 2.00008L69 2.00008ZM69 8.6614L69 13.1023L73 13.1023L73 8.6614L69 8.6614ZM69 17.5432L69 21.984L73 21.984L73 17.5432L69 17.5432ZM69 26.4249L69 30.8658L73 30.8658L73 26.4249L69 26.4249ZM69 35.3067L69 39.7476L73 39.7476L73 35.3067L69 35.3067ZM69 44.1884L69 48.6293L73 48.6293L73 44.1884L69 44.1884ZM69 53.0702L69 57.5111L73 57.5111L73 53.0702L69 53.0702ZM69 61.952L69 66.3928L73 66.3928L73 61.952L69 61.952ZM69 70.8337L69 75.2746L73 75.2746L73 70.8337L69 70.8337ZM69 79.7155L69 84.1564L73 84.1564L73 79.7155L69 79.7155ZM69 88.5972L69 93.0381L73 93.0381L73 88.5972L69 88.5972ZM69 97.479L69 101.92L73 101.92L73 97.479L69 97.479ZM69 106.361L69 110.802L73 110.802L73 106.361L69 106.361ZM69 115.243L69 117.463L73 117.463L73 115.243L69 115.243ZM69 117.463L69 119.924L73 119.924L73 117.463L69 117.463ZM69 124.847L69 129.77L73 129.77L73 124.847L69 124.847ZM69 134.693L69 139.616L73 139.616L73 134.693L69 134.693ZM69 144.539L69 147L73 147L73 144.539L69 144.539Z" fill="#FFEFEF"/>
</svg>
