<svg width="38" height="292" viewBox="0 0 38 292" fill="none" xmlns="http://www.w3.org/2000/svg">
<path d="M9.52641 290.695L8.88058 290.695L8.88058 291.341L9.52641 291.341L9.52641 290.695ZM9.9831 1.7659C9.73088 1.51367 9.32196 1.51367 9.06975 1.7659L4.95968 5.87594C4.70747 6.12817 4.70747 6.53708 4.95968 6.78931C5.2119 7.0415 5.62082 7.0415 5.87303 6.78931L9.52642 3.13592L13.1798 6.78931C13.432 7.0415 13.8409 7.0415 14.0932 6.78931C14.3454 6.53708 14.3454 6.12817 14.0932 5.87595L9.9831 1.7659ZM37.082 290.049L35.3598 290.049L35.3598 291.341L37.082 291.341L37.082 290.049ZM31.9154 290.049L28.4709 290.049L28.4709 291.341L31.9154 291.341L31.9154 290.049ZM25.0264 290.049L21.582 290.049L21.582 291.341L25.0264 291.341L25.0264 290.049ZM18.1375 290.049L14.6931 290.049L14.6931 291.341L18.1375 291.341L18.1375 290.049ZM11.2486 290.049L9.52641 290.049L9.52641 291.341L11.2486 291.341L11.2486 290.049ZM10.1722 290.695L10.1722 288.746L8.88058 288.746L8.88058 290.695L10.1722 290.695ZM10.1722 284.848L10.1722 280.95L8.88058 280.95L8.88058 284.848L10.1722 284.848ZM10.1722 277.051L10.1722 273.153L8.88058 273.153L8.88058 277.051L10.1722 277.051ZM10.1722 269.255L10.1722 265.356L8.88058 265.356L8.88058 269.255L10.1722 269.255ZM10.1722 261.458L10.1722 257.56L8.88058 257.56L8.88058 261.458L10.1722 261.458ZM10.1722 253.662L10.1722 249.763L8.88058 249.763L8.88058 253.662L10.1722 253.662ZM10.1722 245.865L10.1722 241.967L8.88058 241.967L8.88058 245.865L10.1722 245.865ZM10.1722 238.069L10.1722 234.17L8.88058 234.17L8.88058 238.069L10.1722 238.069ZM10.1722 230.272L10.1722 226.374L8.88058 226.374L8.88058 230.272L10.1722 230.272ZM10.1722 222.475L10.1722 218.577L8.88058 218.577L8.88058 222.475L10.1722 222.475ZM10.1722 214.679L10.1722 210.781L8.88058 210.781L8.88058 214.679L10.1722 214.679ZM10.1722 206.882L10.1722 202.984L8.88058 202.984L8.88058 206.882L10.1722 206.882ZM10.1722 199.086L10.1722 195.187L8.88058 195.187L8.88058 199.086L10.1722 199.086ZM10.1722 191.289L10.1722 187.391L8.88058 187.391L8.88058 191.289L10.1722 191.289ZM10.1722 183.493L10.1722 179.594L8.88058 179.594L8.88058 183.493L10.1722 183.493ZM10.1723 175.696L10.1723 171.798L8.88058 171.798L8.88058 175.696L10.1723 175.696ZM10.1723 167.9L10.1723 164.001L8.88058 164.001L8.88058 167.9L10.1723 167.9ZM10.1723 160.103L10.1723 156.205L8.88058 156.205L8.88058 160.103L10.1723 160.103ZM10.1723 152.306L10.1723 148.408L8.88058 148.408L8.88058 152.306L10.1723 152.306ZM10.1723 144.51L10.1723 140.612L8.88058 140.612L8.88058 144.51L10.1723 144.51ZM10.1723 136.713L10.1723 132.815L8.88058 132.815L8.88058 136.713L10.1723 136.713ZM10.1723 128.917L10.1723 125.018L8.88058 125.018L8.88058 128.917L10.1723 128.917ZM10.1723 121.12L10.1723 117.222L8.88058 117.222L8.88058 121.12L10.1723 121.12ZM10.1723 113.324L10.1723 109.425L8.88059 109.425L8.88058 113.324L10.1723 113.324ZM10.1723 105.527L10.1723 101.629L8.88059 101.629L8.88059 105.527L10.1723 105.527ZM10.1723 97.7304L10.1723 93.8321L8.88059 93.8321L8.88059 97.7304L10.1723 97.7304ZM10.1723 89.9338L10.1723 86.0356L8.88059 86.0356L8.88059 89.9338L10.1723 89.9338ZM10.1723 82.1373L10.1723 78.239L8.88059 78.239L8.88059 82.1373L10.1723 82.1373ZM10.1723 74.3407L10.1723 70.4424L8.88059 70.4424L8.88059 74.3407L10.1723 74.3407ZM10.1723 66.5441L10.1723 62.6458L8.88059 62.6458L8.88059 66.5441L10.1723 66.5441ZM10.1723 58.7476L10.1723 54.8493L8.88059 54.8493L8.88059 58.7476L10.1723 58.7476ZM10.1723 50.951L10.1723 47.0527L8.88059 47.0527L8.88059 50.951L10.1723 50.951ZM10.1723 43.1544L10.1723 39.2561L8.88059 39.2561L8.88059 43.1544L10.1723 43.1544ZM10.1723 35.3578L10.1723 31.4596L8.88059 31.4596L8.88059 35.3578L10.1723 35.3578ZM10.1723 27.5613L10.1723 23.663L8.88059 23.663L8.88059 27.5613L10.1723 27.5613ZM10.1723 19.7647L10.1723 15.8664L8.88059 15.8664L8.88059 19.7647L10.1723 19.7647ZM10.1723 11.9681L10.1723 8.06985L8.88059 8.06985L8.88059 11.9681L10.1723 11.9681ZM10.1723 4.17157L10.1723 2.22256L8.88059 2.22256L8.88059 4.17157L10.1723 4.17157ZM9.52641 290.695L8.23474 290.695L8.23474 291.987L9.52641 291.987L9.52641 290.695ZM10.4398 1.3092C9.93534 0.804778 9.1175 0.804778 8.61308 1.3092L0.392945 9.52936C-0.111484 10.0338 -0.111484 10.8516 0.392945 11.356C0.897374 11.8605 1.71521 11.8605 2.21964 11.356L9.52642 4.04925L16.8332 11.356C17.3376 11.8605 18.1555 11.8605 18.6599 11.356C19.1643 10.8516 19.1643 10.0338 18.6599 9.52936L10.4398 1.3092ZM37.082 289.404L35.3598 289.404L35.3598 291.987L37.082 291.987L37.082 289.404ZM31.9154 289.404L28.4709 289.404L28.4709 291.987L31.9154 291.987L31.9154 289.404ZM25.0264 289.404L21.582 289.404L21.582 291.987L25.0264 291.987L25.0264 289.404ZM18.1375 289.404L14.6931 289.404L14.6931 291.987L18.1375 291.987L18.1375 289.404ZM11.2486 289.404L9.52641 289.404L9.52641 291.987L11.2486 291.987L11.2486 289.404ZM10.8181 290.695L10.8181 288.746L8.23474 288.746L8.23474 290.695L10.8181 290.695ZM10.8181 284.848L10.8181 280.95L8.23474 280.95L8.23474 284.848L10.8181 284.848ZM10.8181 277.051L10.8181 273.153L8.23474 273.153L8.23474 277.051L10.8181 277.051ZM10.8181 269.255L10.8181 265.356L8.23474 265.356L8.23474 269.255L10.8181 269.255ZM10.8181 261.458L10.8181 257.56L8.23474 257.56L8.23474 261.458L10.8181 261.458ZM10.8181 253.662L10.8181 249.763L8.23474 249.763L8.23474 253.662L10.8181 253.662ZM10.8181 245.865L10.8181 241.967L8.23474 241.967L8.23474 245.865L10.8181 245.865ZM10.8181 238.069L10.8181 234.17L8.23474 234.17L8.23474 238.069L10.8181 238.069ZM10.8181 230.272L10.8181 226.374L8.23474 226.374L8.23474 230.272L10.8181 230.272ZM10.8181 222.475L10.8181 218.577L8.23474 218.577L8.23474 222.475L10.8181 222.475ZM10.8181 214.679L10.8181 210.781L8.23474 210.781L8.23474 214.679L10.8181 214.679ZM10.8181 206.882L10.8181 202.984L8.23475 202.984L8.23474 206.882L10.8181 206.882ZM10.8181 199.086L10.8181 195.187L8.23475 195.187L8.23475 199.086L10.8181 199.086ZM10.8181 191.289L10.8181 187.391L8.23475 187.391L8.23475 191.289L10.8181 191.289ZM10.8181 183.493L10.8181 179.594L8.23475 179.594L8.23475 183.493L10.8181 183.493ZM10.8181 175.696L10.8181 171.798L8.23475 171.798L8.23475 175.696L10.8181 175.696ZM10.8181 167.9L10.8181 164.001L8.23475 164.001L8.23475 167.9L10.8181 167.9ZM10.8181 160.103L10.8181 156.205L8.23475 156.205L8.23475 160.103L10.8181 160.103ZM10.8181 152.306L10.8181 148.408L8.23475 148.408L8.23475 152.306L10.8181 152.306ZM10.8181 144.51L10.8181 140.612L8.23475 140.612L8.23475 144.51L10.8181 144.51ZM10.8181 136.713L10.8181 132.815L8.23475 132.815L8.23475 136.713L10.8181 136.713ZM10.8181 128.917L10.8181 125.018L8.23475 125.018L8.23475 128.917L10.8181 128.917ZM10.8181 121.12L10.8181 117.222L8.23475 117.222L8.23475 121.12L10.8181 121.12ZM10.8181 113.324L10.8181 109.425L8.23475 109.425L8.23475 113.324L10.8181 113.324ZM10.8181 105.527L10.8181 101.629L8.23475 101.629L8.23475 105.527L10.8181 105.527ZM10.8181 97.7304L10.8181 93.8321L8.23475 93.8321L8.23475 97.7304L10.8181 97.7304ZM10.8181 89.9338L10.8181 86.0356L8.23475 86.0356L8.23475 89.9338L10.8181 89.9338ZM10.8181 82.1373L10.8181 78.239L8.23475 78.239L8.23475 82.1373L10.8181 82.1373ZM10.8181 74.3407L10.8181 70.4424L8.23475 70.4424L8.23475 74.3407L10.8181 74.3407ZM10.8181 66.5441L10.8181 62.6458L8.23475 62.6458L8.23475 66.5441L10.8181 66.5441ZM10.8181 58.7476L10.8181 54.8493L8.23475 54.8493L8.23475 58.7476L10.8181 58.7476ZM10.8181 50.951L10.8181 47.0527L8.23475 47.0527L8.23475 50.951L10.8181 50.951ZM10.8181 43.1544L10.8181 39.2561L8.23475 39.2561L8.23475 43.1544L10.8181 43.1544ZM10.8181 35.3578L10.8181 31.4596L8.23475 31.4596L8.23475 35.3578L10.8181 35.3578ZM10.8181 27.5613L10.8181 23.663L8.23475 23.663L8.23475 27.5613L10.8181 27.5613ZM10.8181 19.7647L10.8181 15.8664L8.23475 15.8664L8.23475 19.7647L10.8181 19.7647ZM10.8181 11.9681L10.8181 8.06985L8.23475 8.06985L8.23475 11.9681L10.8181 11.9681ZM10.8181 4.17157L10.8181 2.22256L8.23475 2.22256L8.23475 4.17157L10.8181 4.17157Z" fill="#FFEFEF"/>
</svg>
