<svg width="95" height="103" viewBox="0 0 95 103" fill="none" xmlns="http://www.w3.org/2000/svg">
<path d="M84.889 1.77783H85.5349V1.132H84.889V1.77783ZM84.4324 102.124C84.6846 102.376 85.0935 102.376 85.3457 102.124L89.4558 98.0135C89.708 97.7613 89.708 97.3524 89.4558 97.1002C89.2036 96.8479 88.7946 96.8479 88.5424 97.1002L84.889 100.754L81.2356 97.1002C80.9834 96.8479 80.5745 96.8479 80.3223 97.1002C80.0701 97.3524 80.0701 97.7613 80.3223 98.0135L84.4324 102.124ZM0.5 2.42367H2.50379V1.132H0.5V2.42367ZM6.51136 2.42367H10.5189V1.132H6.51136V2.42367ZM14.5265 2.42367H18.5341V1.132H14.5265V2.42367ZM22.5416 2.42367H24.5454V1.132H22.5416V2.42367ZM24.5454 2.42367H26.4312V1.132H24.5454V2.42367ZM30.2026 2.42367H33.9741V1.132H30.2026V2.42367ZM37.7456 2.42367H41.5171V1.132H37.7456V2.42367ZM45.2885 2.42367H49.06V1.132H45.2885V2.42367ZM52.8315 2.42367H56.603V1.132H52.8315V2.42367ZM60.3744 2.42367H64.1459V1.132H60.3744V2.42367ZM67.9174 2.42367H71.6889V1.132H67.9174V2.42367ZM75.4604 2.42367H79.2318V1.132H75.4604V2.42367ZM83.0033 2.42367H84.889V1.132H83.0033V2.42367ZM84.2432 1.77783V3.69878H85.5349V1.77783H84.2432ZM84.2432 7.54066V11.3826H85.5349V7.54066H84.2432ZM84.2432 15.2244V19.0663H85.5349V15.2244H84.2432ZM84.2432 22.9082V26.7501H85.5349V22.9082H84.2432ZM84.2432 30.592V34.4339H85.5349V30.592H84.2432ZM84.2432 38.2758V42.1176H85.5349V38.2758H84.2432ZM84.2432 45.9595V49.8014H85.5349V45.9595H84.2432ZM84.2432 53.6433V57.4852H85.5349V53.6433H84.2432ZM84.2432 61.3271V65.169H85.5349V61.3271H84.2432ZM84.2432 69.0109V72.8528H85.5349V69.0109H84.2432ZM84.2432 76.6946V80.5365H85.5349V76.6946H84.2432ZM84.2432 84.3784V88.2203H85.5349V84.3784H84.2432ZM84.2432 92.0622V95.9041H85.5349V92.0622H84.2432ZM84.2432 99.746V101.667H85.5349V99.746H84.2432ZM84.889 1.77783H86.1807V0.486163H84.889V1.77783ZM83.9757 102.58C84.4801 103.085 85.298 103.085 85.8024 102.58L94.0225 94.3601C94.5269 93.8557 94.5269 93.0378 94.0225 92.5334C93.5181 92.029 92.7002 92.029 92.1958 92.5334L84.889 99.8402L77.5823 92.5334C77.0778 92.029 76.26 92.029 75.7556 92.5334C75.2511 93.0378 75.2511 93.8557 75.7556 94.3601L83.9757 102.58ZM0.5 3.0695H2.50379V0.486163H0.5V3.0695ZM6.51136 3.0695H10.5189V0.486163H6.51136V3.0695ZM14.5265 3.0695H18.5341V0.486163H14.5265V3.0695ZM22.5416 3.0695H24.5454V0.486163H22.5416V3.0695ZM24.5454 3.0695H26.4312V0.486163H24.5454V3.0695ZM30.2026 3.0695H33.9741V0.486163H30.2026V3.0695ZM37.7456 3.0695H41.5171V0.486163H37.7456V3.0695ZM45.2885 3.0695H49.06V0.486163H45.2885V3.0695ZM52.8315 3.0695H56.603V0.486163H52.8315V3.0695ZM60.3744 3.0695H64.1459V0.486163H60.3744V3.0695ZM67.9174 3.0695H71.6889V0.486163H67.9174V3.0695ZM75.4604 3.0695H79.2318V0.486163H75.4604V3.0695ZM83.0033 3.0695H84.889V0.486163H83.0033V3.0695ZM83.5974 1.77783V3.69878H86.1807V1.77783H83.5974ZM83.5974 7.54066V11.3826H86.1807V7.54066H83.5974ZM83.5974 15.2244V19.0663H86.1807V15.2244H83.5974ZM83.5974 22.9082V26.7501H86.1807V22.9082H83.5974ZM83.5974 30.592V34.4339H86.1807V30.592H83.5974ZM83.5974 38.2758V42.1176H86.1807V38.2758H83.5974ZM83.5974 45.9595V49.8014H86.1807V45.9595H83.5974ZM83.5974 53.6433V57.4852H86.1807V53.6433H83.5974ZM83.5974 61.3271V65.169H86.1807V61.3271H83.5974ZM83.5974 69.0109V72.8528H86.1807V69.0109H83.5974ZM83.5974 76.6946V80.5365H86.1807V76.6946H83.5974ZM83.5974 84.3784V88.2203H86.1807V84.3784H83.5974ZM83.5974 92.0622V95.9041H86.1807V92.0622H83.5974ZM83.5974 99.746V101.667H86.1807V99.746H83.5974Z" fill="white"/>
</svg>
