<svg width="739" height="160" viewBox="0 0 739 160" fill="none" xmlns="http://www.w3.org/2000/svg">
<path d="M15 158H14V159H15V158ZM15.7071 2.75998C15.3166 2.36946 14.6834 2.36946 14.2929 2.75998L7.92896 9.12395C7.53839 9.51447 7.53839 10.1476 7.92896 10.5382C8.31946 10.9287 8.95264 10.9287 9.34314 10.5382L15 4.8813L20.6569 10.5382C21.0474 10.9287 21.6805 10.9287 22.071 10.5382C22.4616 10.1476 22.4616 9.51447 22.071 9.12395L15.7071 2.75998ZM737 158V159H738V158H737ZM736 0V2.19444H738V0H736ZM736 6.58333V10.9722H738V6.58333H736ZM736 15.3611V19.75H738V15.3611H736ZM736 24.1389V28.5278H738V24.1389H736ZM736 32.9167V37.3056H738V32.9167H736ZM736 41.6944V46.0833H738V41.6944H736ZM736 50.4722V54.8611H738V50.4722H736ZM736 59.25V63.6389H738V59.25H736ZM736 68.0278V72.4167H738V68.0278H736ZM736 76.8055V81.1944H738V76.8055H736ZM736 85.5833V89.9722H738V85.5833H736ZM736 94.3611V98.75H738V94.3611H736ZM736 103.139V107.528H738V103.139H736ZM736 111.917V116.306H738V111.917H736ZM736 120.694V125.083H738V120.694H736ZM736 129.472V133.861H738V129.472H736ZM736 138.25V142.639H738V138.25H736ZM736 147.028V151.417H738V147.028H736ZM736 155.805V158H738V155.805H736ZM737 157H734.743V159H737V157ZM730.228 157H725.713V159H730.228V157ZM721.198 157H716.684V159H721.198V157ZM712.169 157H707.654V159H712.169V157ZM703.139 157H698.625V159H703.139V157ZM694.11 157H689.595V159H694.11V157ZM685.08 157H680.566V159H685.08V157ZM676.051 157H671.536V159H676.051V157ZM667.021 157H662.506V159H667.021V157ZM657.992 157H653.477V159H657.992V157ZM648.962 157H644.447V159H648.962V157ZM639.933 157H635.418V159H639.933V157ZM630.903 157H626.388V159H630.903V157ZM621.874 157L617.359 157V159L621.874 159V157ZM612.844 157H608.329V159H612.844V157ZM603.815 157H599.3V159H603.815V157ZM594.785 157H590.27V159H594.785V157ZM585.756 157H581.241V159H585.756V157ZM576.726 157H572.211V159H576.726V157ZM567.697 157H563.182V159H567.697V157ZM558.667 157H554.152V159H558.667V157ZM549.637 157H545.123V159H549.637V157ZM540.608 157H536.093V159H540.608V157ZM531.578 157H527.064V159H531.578V157ZM522.549 157H518.034V159H522.549V157ZM513.519 157H509.005V159H513.519V157ZM504.49 157H499.975V159H504.49V157ZM495.46 157H490.946V159H495.46V157ZM486.431 157H481.916V159H486.431V157ZM477.401 157H472.887V159H477.401V157ZM468.372 157H463.857V159H468.372V157ZM459.342 157H454.828V159H459.342V157ZM450.313 157H445.798V159H450.313V157ZM441.283 157H436.768V159H441.283V157ZM432.254 157H427.739V159H432.254V157ZM423.224 157H418.709V159H423.224V157ZM414.195 157H409.68V159H414.195V157ZM405.165 157H400.65V159H405.165V157ZM396.136 157H391.621V159H396.136V157ZM387.106 157H382.591V159H387.106V157ZM378.076 157H373.562V159H378.076V157ZM369.047 157H364.532V159H369.047V157ZM360.017 157H355.503V159H360.017V157ZM350.988 157H346.473V159H350.988V157ZM341.958 157H337.444V159H341.958V157ZM332.929 157H328.414V159H332.929V157ZM323.899 157H319.384V159H323.899V157ZM314.87 157H310.355V159H314.87V157ZM305.84 157H301.325V159H305.84V157ZM296.811 157H292.296V159H296.811V157ZM287.781 157H283.266V159H287.781V157ZM278.751 157H274.237V159H278.751V157ZM269.722 157H265.207V159H269.722V157ZM260.692 157H256.178V159H260.692V157ZM251.663 157H247.148V159H251.663V157ZM242.633 157H238.119V159H242.633V157ZM233.604 157H229.089V159H233.604V157ZM224.574 157H220.06V159H224.574V157ZM215.545 157H211.03V159H215.545V157ZM206.515 157H202V159H206.515V157ZM197.486 157H192.971V159H197.486V157ZM188.456 157H183.941V159H188.456V157ZM179.427 157H174.912V159H179.427V157ZM170.397 157H165.882V159H170.397V157ZM161.367 157H159.111V159H161.367V157ZM159.111 157H156.859V159H159.111V157ZM152.356 157H147.852V159H152.356V157ZM143.349 157H138.845V159H143.349V157ZM134.342 157H129.838V159H134.342V157ZM125.335 157H120.831V159H125.335V157ZM116.328 157H111.824V159H116.328V157ZM107.321 157H102.817V159H107.321V157ZM98.314 157H93.8105V159H98.314V157ZM89.3071 157H84.8036V159H89.3071V157ZM80.3002 157H75.7967V159H80.3002V157ZM71.2932 157H66.7897V159H71.2932V157ZM62.2863 157H57.7828V159H62.2863V157ZM53.2794 157H48.7759V159H53.2794V157ZM44.2725 157H39.769V159H44.2725V157ZM35.2655 157H30.7621V159H35.2655V157ZM26.2586 157H21.7551V159H26.2586V157ZM17.2516 157H15V159H17.2516V157ZM16 158V155.727H14V158H16ZM16 151.182V146.637H14V151.182H16ZM16 142.092V137.547H14V142.092H16ZM16 133.002V128.457H14V133.002H16ZM16 123.912V119.367H14V123.912H16ZM16 114.822V110.277H14V114.822H16ZM16 105.732V101.186H14V105.732H16ZM16 96.6413V92.0963H14V96.6413H16ZM16 87.5512V83.0061H14V87.5512H16ZM16 78.461V73.9159H14V78.461H16ZM16 69.3708V64.8257H14V69.3708H16ZM16 60.2806V55.7355H14V60.2806H16ZM16 51.1905V46.6454H14V51.1905H16ZM16 42.1003V37.5552H14V42.1003H16ZM16 33.0101V28.465H14V33.0101H16ZM16 23.9199V19.3748H14V23.9199H16ZM16 14.8297V10.2846H14V14.8297H16ZM16 5.73955V3.46709H14V5.73955H16ZM15 158H13V160H15V158ZM16.4142 2.05287C15.6332 1.27182 14.3668 1.27182 13.5858 2.05287L0.857849 14.7808C0.0768433 15.5618 0.0768433 16.8282 0.857849 17.6092C1.63892 18.3903 2.90521 18.3903 3.68628 17.6092L15 6.29552L26.3137 17.6092C27.0948 18.3903 28.3611 18.3903 29.1422 17.6092C29.9232 16.8282 29.9232 15.5618 29.1422 14.7808L16.4142 2.05287ZM737 158V160H739V158H737ZM735 0V2.19444H739V0H735ZM735 6.58333V10.9722H739V6.58333H735ZM735 15.3611V19.75H739V15.3611H735ZM735 24.1389V28.5278H739V24.1389H735ZM735 32.9167V37.3056H739V32.9167H735ZM735 41.6944V46.0833H739V41.6944H735ZM735 50.4722V54.8611H739V50.4722H735ZM735 59.25V63.6389H739V59.25H735ZM735 68.0278V72.4167H739V68.0278H735ZM735 76.8055V81.1944H739V76.8055H735ZM735 85.5833V89.9722H739V85.5833H735ZM735 94.3611V98.75H739V94.3611H735ZM735 103.139V107.528H739V103.139H735ZM735 111.917V116.306H739V111.917H735ZM735 120.694V125.083H739V120.694H735ZM735 129.472V133.861H739V129.472H735ZM735 138.25V142.639H739V138.25H735ZM735 147.028V151.417H739V147.028H735ZM735 155.805V158H739V155.805H735ZM737 156H734.743V160H737V156ZM730.228 156H725.713V160H730.228V156ZM721.198 156H716.684V160H721.198V156ZM712.169 156H707.654V160H712.169V156ZM703.139 156H698.625V160H703.139V156ZM694.11 156H689.595V160H694.11V156ZM685.08 156H680.566V160H685.08V156ZM676.051 156H671.536V160H676.051V156ZM667.021 156H662.506V160H667.021V156ZM657.992 156H653.477V160H657.992V156ZM648.962 156H644.447V160H648.962V156ZM639.933 156H635.418V160H639.933V156ZM630.903 156H626.388V160H630.903V156ZM621.874 156L617.359 156V160L621.874 160V156ZM612.844 156H608.329V160H612.844V156ZM603.815 156H599.3V160H603.815V156ZM594.785 156H590.27V160H594.785V156ZM585.756 156H581.241V160H585.756V156ZM576.726 156H572.211V160H576.726V156ZM567.697 156H563.182V160H567.697V156ZM558.667 156H554.152V160H558.667V156ZM549.637 156H545.123V160H549.637V156ZM540.608 156H536.093V160H540.608V156ZM531.578 156H527.064V160H531.578V156ZM522.549 156H518.034V160H522.549V156ZM513.519 156H509.005V160H513.519V156ZM504.49 156H499.975V160H504.49V156ZM495.46 156H490.946V160H495.46V156ZM486.431 156H481.916V160H486.431V156ZM477.401 156H472.887V160H477.401V156ZM468.372 156H463.857V160H468.372V156ZM459.342 156H454.828V160H459.342V156ZM450.313 156H445.798V160H450.313V156ZM441.283 156H436.768V160H441.283V156ZM432.254 156H427.739V160H432.254V156ZM423.224 156H418.709V160H423.224V156ZM414.195 156H409.68V160H414.195V156ZM405.165 156H400.65V160H405.165V156ZM396.136 156H391.621V160H396.136V156ZM387.106 156H382.591V160H387.106V156ZM378.076 156H373.562V160H378.076V156ZM369.047 156H364.532V160H369.047V156ZM360.017 156H355.503V160H360.017V156ZM350.988 156H346.473V160H350.988V156ZM341.958 156H337.444V160H341.958V156ZM332.929 156H328.414V160H332.929V156ZM323.899 156H319.384V160H323.899V156ZM314.87 156H310.355V160H314.87V156ZM305.84 156H301.325V160H305.84V156ZM296.811 156H292.296V160H296.811V156ZM287.781 156H283.266V160H287.781V156ZM278.751 156H274.237V160H278.751V156ZM269.722 156H265.207V160H269.722V156ZM260.692 156H256.178V160H260.692V156ZM251.663 156H247.148V160H251.663V156ZM242.633 156H238.119V160H242.633V156ZM233.604 156H229.089V160H233.604V156ZM224.574 156H220.06V160H224.574V156ZM215.545 156H211.03V160H215.545V156ZM206.515 156H202V160H206.515V156ZM197.486 156H192.971V160H197.486V156ZM188.456 156H183.941V160H188.456V156ZM179.427 156H174.912V160H179.427V156ZM170.397 156H165.882V160H170.397V156ZM161.367 156H159.111V160H161.367V156ZM159.111 156H156.859V160H159.111V156ZM152.356 156H147.852V160H152.356V156ZM143.349 156H138.845V160H143.349V156ZM134.342 156H129.838V160H134.342V156ZM125.335 156H120.831V160H125.335V156ZM116.328 156H111.824V160H116.328V156ZM107.321 156H102.817V160H107.321V156ZM98.314 156H93.8105V160H98.314V156ZM89.3071 156H84.8036V160H89.3071V156ZM80.3002 156H75.7967V160H80.3002V156ZM71.2932 156H66.7897V160H71.2932V156ZM62.2863 156H57.7828V160H62.2863V156ZM53.2794 156H48.7759V160H53.2794V156ZM44.2725 156H39.769V160H44.2725V156ZM35.2655 156H30.7621V160H35.2655V156ZM26.2586 156H21.7551V160H26.2586V156ZM17.2516 156H15V160H17.2516V156ZM17 158V155.727H13V158H17ZM17 151.182V146.637H13V151.182H17ZM17 142.092V137.547H13V142.092H17ZM17 133.002V128.457H13V133.002H17ZM17 123.912V119.367H13V123.912H17ZM17 114.822V110.277H13V114.822H17ZM17 105.732V101.186H13V105.732H17ZM17 96.6413V92.0963H13V96.6413H17ZM17 87.5512V83.0061H13V87.5512H17ZM17 78.461V73.9159H13V78.461H17ZM17 69.3708V64.8257H13V69.3708H17ZM17 60.2806V55.7355H13V60.2806H17ZM17 51.1905V46.6454H13V51.1905H17ZM17 42.1003V37.5552H13V42.1003H17ZM17 33.0101V28.465H13V33.0101H17ZM17 23.9199V19.3748H13V23.9199H17ZM17 14.8297V10.2846H13V14.8297H17ZM17 5.73955V3.46709H13V5.73955H17Z" fill="#FFEFEF"/>
</svg>
