<svg width="57" height="117" viewBox="0 0 57 117" fill="none" xmlns="http://www.w3.org/2000/svg">
<path d="M54.8867 106.751L54.8867 107.397L55.5326 107.397L55.5326 106.751L54.8867 106.751ZM1.04106 106.294C0.788846 106.546 0.788846 106.955 1.04106 107.208L5.15113 111.318C5.40334 111.57 5.81226 111.57 6.06447 111.318C6.31669 111.065 6.31669 110.656 6.06447 110.404L2.41108 106.751L6.06447 103.097C6.31669 102.845 6.31669 102.436 6.06447 102.184C5.81226 101.932 5.40334 101.932 5.15113 102.184L1.04106 106.294ZM54.2409 0.833984L54.2409 2.72536L55.5326 2.72536L55.5326 0.833984L54.2409 0.833984ZM54.2409 6.5081L54.2409 10.2908L55.5326 10.2908L55.5326 6.5081L54.2409 6.5081ZM54.2409 14.0736L54.2409 17.8563L55.5326 17.8563L55.5326 14.0736L54.2409 14.0736ZM54.2409 21.6391L54.2409 25.4218L55.5326 25.4218L55.5326 21.6391L54.2409 21.6391ZM54.2409 29.2046L54.2409 32.9873L55.5326 32.9873L55.5326 29.2046L54.2409 29.2046ZM54.2409 36.7701L54.2409 40.5528L55.5326 40.5528L55.5326 36.7701L54.2409 36.7701ZM54.2409 44.3356L54.2409 48.1183L55.5326 48.1183L55.5326 44.3356L54.2409 44.3356ZM54.2409 51.901L54.2409 55.6838L55.5326 55.6838L55.5326 51.901L54.2409 51.901ZM54.2409 59.4665L54.2409 63.2493L55.5326 63.2493L55.5326 59.4665L54.2409 59.4665ZM54.2409 67.032L54.2409 70.8148L55.5326 70.8148L55.5326 67.032L54.2409 67.032ZM54.2409 74.5975L54.2409 78.3803L55.5326 78.3803L55.5326 74.5975L54.2409 74.5975ZM54.2409 82.163L54.2409 85.9457L55.5326 85.9457L55.5326 82.163L54.2409 82.163ZM54.2409 89.7285L54.2409 93.5112L55.5326 93.5112L55.5326 89.7285L54.2409 89.7285ZM54.2409 97.294L54.2409 101.077L55.5326 101.077L55.5326 97.294L54.2409 97.294ZM54.2409 104.859L54.2409 106.751L55.5326 106.751L55.5326 104.859L54.2409 104.859ZM54.8867 106.105L52.98 106.105L52.98 107.397L54.8867 107.397L54.8867 106.105ZM49.1665 106.105L45.353 106.105L45.353 107.397L49.1665 107.397L49.1665 106.105ZM41.5395 106.105L37.726 106.105L37.726 107.397L41.5395 107.397L41.5395 106.105ZM33.9125 106.105L30.099 106.105L30.099 107.397L33.9125 107.397L33.9125 106.105ZM26.2855 106.105L22.472 106.105L22.472 107.397L26.2855 107.397L26.2855 106.105ZM18.6585 106.105L14.845 106.105L14.845 107.397L18.6585 107.397L18.6585 106.105ZM11.0315 106.105L7.21798 106.105L7.21798 107.397L11.0315 107.397L11.0315 106.105ZM3.40448 106.105L1.49773 106.105L1.49773 107.397L3.40448 107.397L3.40448 106.105ZM54.8867 106.751L54.8867 108.043L56.1784 108.043L56.1784 106.751L54.8867 106.751ZM0.584386 105.837C0.0799607 106.342 0.0799607 107.16 0.584386 107.664L8.80452 115.884C9.30895 116.389 10.1268 116.389 10.6312 115.884C11.1356 115.38 11.1356 114.562 10.6312 114.058L3.32443 106.751L10.6312 99.4441C11.1356 98.9396 11.1356 98.1218 10.6312 97.6174C10.1268 97.1129 9.30895 97.1129 8.80452 97.6174L0.584386 105.837ZM53.595 0.833984L53.595 2.72536L56.1784 2.72536L56.1784 0.833984L53.595 0.833984ZM53.595 6.5081L53.5951 10.2908L56.1784 10.2908L56.1784 6.5081L53.595 6.5081ZM53.5951 14.0736L53.5951 17.8563L56.1784 17.8563L56.1784 14.0736L53.5951 14.0736ZM53.5951 21.6391L53.5951 25.4218L56.1784 25.4218L56.1784 21.6391L53.5951 21.6391ZM53.5951 29.2046L53.5951 32.9873L56.1784 32.9873L56.1784 29.2046L53.5951 29.2046ZM53.5951 36.7701L53.5951 40.5528L56.1784 40.5528L56.1784 36.7701L53.5951 36.7701ZM53.5951 44.3356L53.5951 48.1183L56.1784 48.1183L56.1784 44.3356L53.5951 44.3356ZM53.5951 51.901L53.5951 55.6838L56.1784 55.6838L56.1784 51.901L53.5951 51.901ZM53.5951 59.4665L53.5951 63.2493L56.1784 63.2493L56.1784 59.4665L53.5951 59.4665ZM53.5951 67.032L53.5951 70.8148L56.1784 70.8148L56.1784 67.032L53.5951 67.032ZM53.5951 74.5975L53.5951 78.3803L56.1784 78.3803L56.1784 74.5975L53.5951 74.5975ZM53.5951 82.163L53.5951 85.9457L56.1784 85.9457L56.1784 82.163L53.5951 82.163ZM53.5951 89.7285L53.5951 93.5112L56.1784 93.5112L56.1784 89.7285L53.5951 89.7285ZM53.5951 97.294L53.5951 101.077L56.1784 101.077L56.1784 97.294L53.5951 97.294ZM53.5951 104.859L53.5951 106.751L56.1784 106.751L56.1784 104.859L53.5951 104.859ZM54.8867 105.459L52.98 105.459L52.98 108.043L54.8867 108.043L54.8867 105.459ZM49.1665 105.459L45.353 105.459L45.353 108.043L49.1665 108.043L49.1665 105.459ZM41.5395 105.459L37.726 105.459L37.726 108.043L41.5395 108.043L41.5395 105.459ZM33.9125 105.459L30.099 105.459L30.099 108.043L33.9125 108.043L33.9125 105.459ZM26.2855 105.459L22.472 105.459L22.472 108.043L26.2855 108.043L26.2855 105.459ZM18.6585 105.459L14.845 105.459L14.845 108.043L18.6585 108.043L18.6585 105.459ZM11.0315 105.459L7.21798 105.459L7.21798 108.043L11.0315 108.043L11.0315 105.459ZM3.40448 105.459L1.49773 105.459L1.49773 108.043L3.40448 108.043L3.40448 105.459Z" fill="#FFEFEF"/>
</svg>
