<svg width="62" height="63" viewBox="0 0 62 63" fill="none" xmlns="http://www.w3.org/2000/svg">
<rect width="62" height="62.25" rx="6" fill="#FFD803"/>
<g clip-path="url(#clip0_501_33372)">
<path d="M16.0968 17.9858C16.0638 17.9542 16.0377 17.916 16.02 17.8735C16.0023 17.831 15.9934 17.7852 15.994 17.7391C15.7823 16.758 15.9033 14.9071 18.4433 15.1662C18.5544 15.1824 18.6624 15.2157 18.7638 15.2649L23.1725 19.7689L35.8362 32.7257L38.2915 35.2369C38.2915 35.2369 42.0652 39.6422 44.4963 42.9492C48.7297 48.4404 46.232 47.0769 42.9361 44.356C43.184 44.7323 35.2919 37.5691 35.2919 37.5691L33.1813 35.4158L20.5116 22.459L16.0968 17.9858Z" fill="#1A1A1A"/>
<path d="M18.7642 46.9296C18.7332 46.9632 18.6957 46.9899 18.6541 47.008C18.6124 47.026 18.5675 47.0351 18.5223 47.0345C17.5607 47.2504 15.7464 47.127 16.0004 44.5357C16.0163 44.4223 16.049 44.3121 16.0972 44.2087L20.512 39.7108L33.2119 26.7911L35.6733 24.2861C35.6733 24.2861 39.9913 20.4361 43.2328 17.9558C48.6152 13.6369 47.2786 16.185 44.6116 19.5476C44.9805 19.2947 37.9593 27.3464 37.9593 27.3464L35.8487 29.4997L23.1789 42.4564L18.7642 46.9296Z" fill="#1A1A1A"/>
</g>
<defs>
<clipPath id="clip0_501_33372">
<rect width="31" height="31.9662" fill="white" transform="translate(15.9202 15.1421)"/>
</clipPath>
</defs>
</svg>
