<svg width="155" height="46" viewBox="0 0 155 46" fill="none" xmlns="http://www.w3.org/2000/svg">
<path d="M42.8391 13.4292H50.0872C54.708 13.4292 58.5252 16.1236 58.5252 22.2756V23.5683C58.5252 29.7671 54.9553 32.5549 50.2262 32.5549H42.8391V13.4292ZM46.8881 16.9023V29.0662H49.9944C52.6217 29.0662 54.3834 27.3374 54.3834 23.4904V22.4781C54.3834 18.6311 52.5289 16.9023 49.8553 16.9023H46.8881ZM60.6733 17.0892H63.9187L64.4442 20.687C65.0623 18.2418 66.6387 16.9335 69.4977 16.9335H70.5022V21.0608H68.8332C65.5414 21.0608 64.7378 22.2133 64.7378 25.484V32.6017H60.7352V17.0892H60.6733ZM71.3059 25.1569V24.7208C71.3059 19.5345 74.5976 16.6999 79.0794 16.6999C83.6538 16.6999 86.8529 19.5345 86.8529 24.7208V25.1569C86.8529 30.2499 83.7466 32.991 79.0794 32.991C74.1185 32.9443 71.3059 30.2655 71.3059 25.1569ZM82.7575 25.1102V24.7208C82.7575 21.8395 81.3202 20.1107 79.033 20.1107C76.7921 20.1107 75.3085 21.6993 75.3085 24.7208V25.1102C75.3085 27.8981 76.7458 29.4867 79.033 29.4867C81.3202 29.44 82.7575 27.8981 82.7575 25.1102ZM88.9546 17.0892H92.2928L92.6791 20.0173C93.4827 18.0549 95.1982 16.6999 97.7327 16.6999C101.643 16.6999 104.223 19.5345 104.223 24.7831V25.2192C104.223 30.3122 101.364 33.0066 97.7327 33.0066C95.3064 33.0066 93.6373 31.9008 92.8182 30.1253V37.9594H88.9083L88.9546 17.0892ZM100.159 25.1102V24.7676C100.159 21.6838 98.5826 20.1574 96.4809 20.1574C94.24 20.1574 92.7564 21.8862 92.7564 24.7676V25.0635C92.7564 27.8046 94.1936 29.5334 96.4345 29.5334C98.7372 29.4867 100.159 28.0071 100.159 25.1102ZM110.142 29.7359L109.802 32.5705H106.372V11.9028H110.282V19.8304C111.147 17.8057 112.862 16.6999 115.289 16.6999C118.967 16.7466 121.687 19.3008 121.687 24.4405V24.9233C121.687 30.063 119.106 33.0066 115.196 33.0066C112.615 32.9443 110.946 31.7451 110.142 29.7359ZM117.576 24.9233V24.5339C117.576 21.6993 116.046 20.1107 113.898 20.1107C111.703 20.1107 110.173 21.8862 110.173 24.5807V24.9233C110.173 27.8046 111.657 29.4867 113.851 29.4867C116.201 29.4867 117.576 28.0071 117.576 24.9233ZM123.402 25.1569V24.7208C123.402 19.5345 126.694 16.6999 131.176 16.6999C135.75 16.6999 138.949 19.5345 138.949 24.7208V25.1569C138.949 30.2499 135.797 32.991 131.176 32.991C126.215 32.9443 123.402 30.2655 123.402 25.1569ZM134.885 25.1102V24.7208C134.885 21.8395 133.447 20.1107 131.16 20.1107C128.919 20.1107 127.436 21.6993 127.436 24.7208V25.1102C127.436 27.8981 128.873 29.4867 131.16 29.4867C133.463 29.44 134.885 27.8981 134.885 25.1102ZM144.188 24.5339L138.795 17.0892H143.415L146.522 21.7461L149.674 17.0892H154.249L148.778 24.4872L154.543 32.5705H150.014L146.491 27.4308L143.06 32.5705H138.331L144.188 24.5339Z" fill="black"/>
<path d="M17.927 13.4292L8.96348 19.1918L17.927 24.9545L8.96348 30.7171L0 24.9233L8.96348 19.1607L0 13.4292L8.96348 7.6665L17.927 13.4292ZM8.91711 32.5705L17.8806 26.8079L26.8441 32.5705L17.8806 38.3332L8.91711 32.5705ZM17.927 24.9233L26.8904 19.1607L17.927 13.4292L26.8441 7.6665L35.8075 13.4292L26.8441 19.1918L35.8075 24.9545L26.8441 30.7171L17.927 24.9233Z" fill="#0061FF"/>
</svg>
