<svg width="210" height="34" viewBox="0 0 210 34" fill="none" xmlns="http://www.w3.org/2000/svg">
<path fill-rule="evenodd" clip-rule="evenodd" d="M30.2926 0.0631638C27.2671 0.389779 24.9022 1.33718 22.731 3.09223C22.0303 3.65861 20.9977 4.86366 20.6506 5.52L20.4527 5.89416L19.4767 5.76512C17.3287 5.48134 13.9749 5.65482 12.239 6.13949C10.5766 6.60372 8.56854 8.19771 7.72838 9.72006C6.98703 11.0635 6.32807 13.3289 6.02031 15.5921C5.95767 16.053 5.92618 16.0932 5.53636 16.2105C5.30703 16.2794 4.69555 16.5487 4.17756 16.809C2.16535 17.8198 0.923511 19.3452 0.248648 21.6354C-0.0119491 22.5198 -0.029557 22.7004 0.0252943 23.9338C0.203081 27.9326 1.34663 30.0236 4.1178 31.4173L4.78178 31.7512H8.85134C12.6848 31.7512 12.9166 31.7403 12.8453 31.5638C11.8805 29.1734 11.5282 27.1755 11.7287 25.2312C12.1 21.629 14.3893 19.2325 18.4456 18.1995C19.0033 18.0575 19.4721 17.9039 19.4873 17.8581C19.6576 17.3454 21.3344 13.8433 21.7245 13.1854C22.3704 12.0964 23.7936 10.6499 24.8011 10.0585C25.9101 9.40747 27.2065 8.88424 28.6386 8.50954C29.8973 8.18014 29.9529 8.17522 31.8934 8.22137C33.6649 8.26357 33.9566 8.29751 34.7353 8.55206C35.8549 8.91819 37.0289 9.69157 38.1067 10.7731L38.9595 11.6288L41.6692 11.6943C43.4784 11.7381 44.379 11.7237 44.379 11.6509C44.379 11.4112 43.488 9.14436 42.9922 8.12243C41.3838 4.80787 38.7236 2.04235 36.0426 0.897479C34.3231 0.163183 32.2083 -0.143621 30.2926 0.0631638ZM170.729 4.73548C169.623 5.15237 169.202 6.65608 169.924 7.60669C170.282 8.07788 170.762 8.29912 171.425 8.29912C173.033 8.29912 173.877 6.31705 172.732 5.22947C172.54 5.04721 172.278 4.84406 172.15 4.7781C171.91 4.65484 171.014 4.62796 170.729 4.73548ZM76.1799 5.36911C76.0332 5.39074 75.553 5.46153 75.1128 5.52642C72.8538 5.85925 70.6555 6.96417 69.0812 8.55795C67.1856 10.4769 65.9617 13.1876 65.6065 16.2539C65.4471 17.6299 65.5412 20.8152 65.7717 21.8456C66.7043 26.0133 69.0777 28.9935 72.5852 30.4009C74.3806 31.1213 76.9852 31.3834 79.1679 31.0636C84.4978 30.2824 87.9367 26.643 88.8901 20.7748C89.0975 19.4983 89.0708 16.2954 88.8423 15.0456C87.7263 8.93939 83.3352 5.2194 77.3566 5.31525C76.8562 5.32328 76.3266 5.34759 76.1799 5.36911ZM132.845 18.2582V30.7874H136.788C141.114 30.7874 142.438 30.6798 144.118 30.1913C148.095 29.0353 151.021 26.3033 152.257 22.5911C152.768 21.0585 152.943 19.8353 152.941 17.8299C152.932 11.1974 149.957 7.30032 143.997 6.11786C142.442 5.80934 140.975 5.72903 136.889 5.72903H132.845V18.2582ZM80.0199 8.29473C81.3604 8.68613 82.2065 9.20004 83.2827 10.2768C84.1245 11.1189 84.3205 11.3894 84.7989 12.3684C85.665 14.1408 85.9991 15.8103 85.9955 18.3462C85.9913 21.3175 85.4113 23.4763 84.1355 25.2705C83.1429 26.6663 81.4757 27.8133 79.7549 28.2841C78.7719 28.5531 76.291 28.6072 75.2509 28.3823C72.4015 27.7664 70.0801 25.4984 69.1082 22.3811C68.6855 21.0253 68.5555 20.0486 68.5596 18.2582C68.5675 14.776 69.4308 12.4093 71.4311 10.3853C72.6511 9.15089 73.9437 8.44765 75.6543 8.08794C76.5081 7.90846 79.1204 8.03215 80.0199 8.29473ZM142.343 8.57144C144.715 8.95588 146.134 9.61854 147.47 10.9665C148.448 11.9523 148.959 12.7911 149.366 14.0818C149.787 15.4142 149.864 16.02 149.864 17.9905C149.864 19.9642 149.786 20.5743 149.364 21.8992C148.379 24.9954 146.042 27.0695 142.663 27.847C142.044 27.9893 141.178 28.0424 138.848 28.0806L135.833 28.13V18.2681V8.40621L138.581 8.40663C140.538 8.40695 141.621 8.45439 142.343 8.57144ZM29.8124 9.91024C28.0018 10.244 27.2141 10.5104 26.0828 11.171C25.2677 11.6469 24.0739 12.6341 23.5069 13.301C22.4552 14.5381 21.3699 16.4439 20.7847 18.0815L20.5351 18.78L19.091 19.3405C15.0614 20.905 14.3094 21.6215 13.3749 24.7877C12.9936 26.0796 12.9916 26.0963 13.1099 27.0722C13.52 30.4571 14.8154 32.4029 17.4288 33.5592C17.9575 33.7932 17.9615 33.7933 29.8077 33.8938C36.3252 33.949 44.5565 33.9955 48.0997 33.9971L54.5415 34L55.2731 33.5119C56.623 32.6114 57.5001 31.2528 57.7362 29.6967C57.9474 28.305 57.5265 26.6878 56.578 25.2464C55.7154 23.9355 53.5642 21.9713 51.9554 21.0257L51.4748 20.7432L51.0723 19.1551C50.325 16.2059 49.4029 14.8437 47.72 14.2027C46.1746 13.6141 45.2562 13.516 41.7948 13.5694L38.7302 13.6168L37.2428 12.4144C34.6539 10.3218 33.6959 9.88251 31.6266 9.83882C30.9223 9.82404 30.1059 9.85616 29.8124 9.91024ZM101.126 12.5861C99.4297 12.8727 97.7828 13.9638 96.8509 15.4184L96.509 15.9518L96.4795 14.4278L96.4498 12.9039H95.0122H93.5744V21.8456V30.7874H95.015H96.4557V25.375C96.4557 19.4872 96.5015 18.9143 97.0634 17.7625C97.9705 15.9033 99.4766 14.9202 101.418 14.9202C103.61 14.9202 104.872 16.0307 105.357 18.3876C105.5 19.0827 105.526 20.1268 105.526 25.0002V30.7874H106.973H108.42L108.383 24.3354C108.346 18.073 108.338 17.8582 108.11 17.0267C107.417 14.5059 106.06 13.1003 103.872 12.6373C103.073 12.4682 101.948 12.4472 101.126 12.5861ZM119.666 12.5447C116.976 12.9795 114.684 14.7766 113.512 17.3714C112.8 18.9469 112.498 21.0696 112.682 23.1998C112.823 24.8339 113.096 25.8839 113.704 27.1393C114.591 28.9677 116.235 30.3311 118.227 30.8896C120.658 31.5709 124.314 31.1061 126.382 29.8527L126.869 29.5575V28.2448C126.869 27.5229 126.852 26.9323 126.832 26.9323C126.811 26.9323 126.464 27.1498 126.061 27.4157C125.244 27.954 124.047 28.4493 123.088 28.6461C122.272 28.8137 120.526 28.8129 119.803 28.6447C117.378 28.0802 115.887 26.182 115.604 23.2952L115.53 22.5417H121.855H128.18L128.117 20.8015C128.083 19.8332 127.977 18.7079 127.88 18.2643C127.245 15.3664 125.501 13.4021 122.974 12.7391C122.33 12.5701 120.262 12.4485 119.666 12.5447ZM201.089 12.6239C198.991 13.0279 197.236 14.2678 195.94 16.26C195.363 17.1485 195.021 17.9697 194.716 19.202C194.405 20.4582 194.38 23.3196 194.667 24.6702C195.435 28.2738 197.548 30.4678 200.823 31.0628C203.292 31.5115 206.735 30.8924 208.426 29.6955C208.718 29.4886 208.719 29.4822 208.719 28.21C208.719 27.5072 208.692 26.9323 208.659 26.9323C208.625 26.9323 208.381 27.0816 208.117 27.2643C207.374 27.7772 205.976 28.3898 205.091 28.5899C204.075 28.8198 202.27 28.8243 201.434 28.5991C199.928 28.1932 198.822 27.2941 198.153 25.9308C197.7 25.009 197.413 23.8956 197.409 23.0504L197.408 22.5417H203.704H210L209.997 21.6582C209.993 20.4552 209.825 18.8055 209.618 17.9494C209.524 17.5597 209.229 16.7831 208.962 16.2236C208.123 14.4649 206.662 13.2368 204.821 12.7422C203.942 12.5059 202.018 12.445 201.089 12.6239ZM163.78 12.8224C162.445 13.2929 161.489 14.2375 160.753 15.813L160.385 16.5984L160.382 14.7511L160.378 12.9039H158.937H157.496V21.8456V30.7874H158.931H160.365L160.406 25.2992C160.441 20.5543 160.471 19.718 160.628 19.1243C161.07 17.459 162.041 16.1168 163.205 15.5641C163.757 15.3023 163.972 15.2606 164.753 15.2646C165.557 15.2687 165.903 15.3376 166.594 15.6316C166.766 15.705 166.781 15.6011 166.781 14.2654C166.781 12.5767 166.878 12.6966 165.447 12.6229C164.633 12.5808 164.379 12.6112 163.78 12.8224ZM169.982 21.8456V30.7874H171.369H172.757V21.8456V12.9039H171.369H169.982V21.8456ZM176.005 13.0913C176.038 13.1944 177.549 17.2061 179.363 22.0063L182.66 30.7338H184.079H185.498L189.038 21.8189L192.578 12.9039L191.071 12.9058L189.564 12.9076L187.142 19.6255C184.887 25.8786 184.537 26.9258 184.332 28.0567C184.254 28.4844 184.253 28.4837 184.064 27.6283C183.925 27 179.672 14.5374 179.104 13.0913C179.038 12.9248 178.857 12.9039 177.487 12.9039C176.065 12.9039 175.948 12.9186 176.005 13.0913ZM122.229 15.1039C123.312 15.402 124.16 16.1738 124.695 17.3478C124.985 17.9829 125.337 19.7443 125.231 20.0236C125.177 20.1651 124.562 20.1858 120.416 20.1858H115.664V19.884C115.664 18.9509 116.512 17.1943 117.385 16.3174C118.657 15.0402 120.407 14.6017 122.229 15.1039ZM203.917 15.0591C205.65 15.4479 207.004 17.4458 207.01 19.6236L207.012 20.1858H202.21C199.569 20.1858 197.408 20.1453 197.408 20.0958C197.408 20.0464 197.503 19.6336 197.618 19.1787C197.909 18.0404 198.403 17.1485 199.185 16.3556C200.456 15.0656 202.028 14.635 203.917 15.0591Z" fill="#094AB2"/>
</svg>
